<?xml version="1.0" encoding="utf-8"?>
<!-- Generator: Adobe Illustrator 24.1.0, SVG Export Plug-In . SVG Version: 6.00 Build 0)  -->
<svg version="1.1" id="Capa_1" xmlns="http://www.w3.org/2000/svg" xmlns:xlink="http://www.w3.org/1999/xlink" x="0px" y="0px"
	 viewBox="0 0 500 88.4" style="enable-background:new 0 0 500 88.4;" xml:space="preserve">
<style type="text/css">
	.st0{fill:#CEF8F4;}
	.st1{fill:#7959AC;}
	.st2{fill:#44CBC1;}
	.st3{font-family:'Poppins-Medium';}
	.st4{font-size:10.4271px;}
	.st5{opacity:0.39;}
	.st6{fill:#FFFFFF;}
	.st7{fill:#3D4646;}
	.st8{fill:#58869D;}
	.st9{opacity:0.5;fill:#3D4646;enable-background:new    ;}
</style>
<rect x="407.2" y="53.4" class="st0" width="43.3" height="4.6"/>
<rect x="43" y="53.4" class="st1" width="364.2" height="4.6"/>
<circle class="st1" cx="39.2" cy="55.7" r="5.7"/>
<circle class="st1" cx="100.2" cy="55.7" r="5.7"/>
<circle class="st1" cx="153.3" cy="55.7" r="5.7"/>
<circle class="st1" cx="204" cy="55.7" r="5.7"/>
<ellipse transform="matrix(0.2298 -0.9732 0.9732 0.2298 143.4354 292.6385)" class="st1" cx="256.6" cy="55.7" rx="5.7" ry="5.7"/>
<circle class="st1" cx="305.7" cy="55.7" r="5.7"/>
<circle class="st1" cx="360.8" cy="55.7" r="5.7"/>
<circle class="st1" cx="407.2" cy="55.7" r="5.7"/>
<circle class="st0" cx="451.4" cy="55.7" r="5.7"/>
<text transform="matrix(1 0 0 1 375.4994 82.4253)" class="st2 st3 st4">¡Falta poco!</text>
<path class="st1" d="M409.5,15.6c0,0-0.2,0.1-0.1-0.2c0.1-0.2-0.1-0.4,0.2-0.5c0.4-0.2,0.8-0.4,0.7-0.5c0-0.2-0.1-0.3,0-0.4
	c0.1-0.1,0.1-0.2,0.1-0.3c-0.1-0.1-0.3-0.1-0.2-0.2c0.1-0.2,0.2-0.3,0.2-0.4s-0.3-0.1-0.1-0.3c0.2-0.2,0.5-0.5,0.4-0.6
	s-0.7-0.5-0.7-0.6c0-0.2,0-0.4-0.1-0.6c-0.2-0.2-0.2-0.3-0.3-0.5c0-0.2,0.2-0.6-0.2-0.8s-0.4-0.1-1.1-0.2c-0.8-0.1-2.2-0.1-2.7,0.5
	c-0.6,0.6-0.5,1.1-0.6,1.6s0.1,1,0.4,1.3c0.3,0.4,0.8,0.5,0.9,1.1c0.2,0.6,0.4,0.5,0.2,0.8c-0.2,0.2-0.4,0.8-0.8,0.7
	s-0.5,0.1-0.8,0.2c-0.4,0.1-0.4,0.1-0.6,0.3c-0.2,0.2-0.5,0.5-0.6,0.7s-1.5,0.9-2.5,1.8s-0.9,0.9-1.3,1.2c-0.4,0.2-0.6,0.4-0.6,0.8
	s-0.2,1.5-0.1,2.6c0.2,1.1,0.2,1.6,0.2,2c0.1,0.5,0.1,0.5-0.2,0.8c-0.3,0.3-0.3,0.6-0.4,0.9s-0.2,0.5-0.1,0.7s0.3,0.2,0.4,0.2
	s-0.1,0.2,0.1,0.3c0.2,0.1,0.2,0,0.2,0s-0.1,0.1,0.1,0.2c0.1,0.1,0.3,0.1,0.4,0.1c0.1-0.1,0,0.1,0.2,0.2s0.3,0.1,0.5-0.1
	c0.1-0.1,0.1-0.4,0.2-0.6s0.3-0.5,0.4-0.4c0.1,0.2-0.1,0.1-0.2,0.2s-0.2,0.6,0.1,0.5c0.4-0.1,0.2-0.1,0.4-0.1c0.2,0,0.2-0.1,0.2-0.3
	c0.1-0.2,0.2-0.7,0-0.8c-0.2-0.1-0.6-0.4-0.6-0.7c-0.1-0.4-0.2-1.4-0.1-2.1s0.1-1,0.2-1.4c0.1-0.5,0.1-1.1,0.2-1.3
	c0.1-0.2,0-0.5,0.4-0.6s1.6-0.6,2-0.9s0.9-0.5,0.9-0.1c0.1,0.5,0.4,2,0.5,2.6s0.2,1.3,0.4,1.6c0.1,0.3,0.2,0.1,0.2,0.5
	c-0.1,0.4-0.2,0.2-0.1,0.6s0.1,0.2-0.1,0.6c-0.1,0.4-0.1,0-0.1,0.4c-0.1,0.4,0.2,0.6,0,0.9s-1.6,1.7-1.1,3.4c0,0,0.1,0.4-0.1,0.6
	c-0.2,0.4-1.3,1.9-1.7,2.9s-0.6,1.3-0.8,1.5c-0.2,0.3-0.4,0.5-0.6,0.7s-0.1,0.3-0.8,0.6c-0.6,0.4-1.9,0.9-2.7,1.6
	c-0.8,0.7-1.2,1.2-2.1,1.8s-1.8,1.5-2.6,1.5c-0.8,0-1.6-0.4-1.9,0.1s-0.1,1.5,0,2S391,45,391,45.5s0,2,0.2,2.6
	c0.2,0.5,0.9,0.5,1.1-0.1c0.1-0.5-0.1-1.2,0.5-2.2c0.5-0.9,1.1-1.3,1.2-1.5c0.1-0.3,0.5-0.8,1.2-1.3s1.7-1.1,2.6-1.5s2.8-1.6,3.6-2
	c0.8-0.4,1.3-0.5,1.9-0.8c0.5-0.3,0.7-0.4,1.2-1.2s1.1-1.2,1.9-2s2-2.5,2.3-2.9c0.2-0.4,0.2-0.4,0.5-0.3c0.4,0.1,1,0.3,2.3,0.4
	c1.3,0.1,3.3,0.4,3,0.5s-0.8,0.6-0.8,1.7c-0.1,1.1-0.3,1.8-0.5,2.7s-0.4,1.8-0.8,2.7c-0.5,0.9-0.5,1-0.6,1s-0.3,0.2-0.5,0.5
	c-0.2,0.4-0.6,1.2,0.1,1.5c0.8,0.2,1.3,0.5,2.2,0.9s2.1,0.7,2.7,0.6c0.6-0.1,0.6-0.5,0.4-0.7s-1.1-0.8-1.5-1.3
	c-0.5-0.5-1.2-1.6-0.9-2.6c0.4-1.1,1.1-2.5,1.7-3.6s0.9-1.9,1.3-2.7s0.9-1.6,0.8-2.1c-0.2-0.4-1-1.3-2-2c-1.1-0.8-2.9-1.3-3.6-1.6
	c-0.7-0.4-1-0.4-1-0.4s-0.4-0.2-0.1-1.1s0.4-1.5,0.5-2.5s0.4-2.7,0.4-3.3c0-0.6-0.1-1,0.2-0.7c0.3,0.3,0.5,0.4,1.2,0.8
	s1.3,0.9,1.6,1.1c0.4,0.2,0.6,0.3,0.9,0.3s0.3,0.1,0.8-0.5s1.2-1.8,1.7-2.9s0.7-1.3,1-1.5c0.2-0.2,0.8-0.8,0.6-1
	c-0.1-0.2-0.1-0.5-0.2-0.5c-0.1-0.1-0.1,0-0.2-0.2s-0.3-0.3-0.4-0.2c-0.2,0-0.1-0.2-0.2-0.2s-0.2,0-0.3-0.1c0-0.1,0.2-0.2-0.1-0.2
	c-0.2,0-0.2,0.1-0.4,0.2c-0.2,0.2-0.3,0.3-0.5,0.5s-0.2,0.2-0.2,0.5c0,0.4-0.1,0.6,0,0.8c0.1,0.1,0.2,0.1-0.2,0.5
	c-0.3,0.4-0.5,0.8-0.9,1.2c-0.4,0.4-0.9,0.6-1,0.7s-0.2,0.1-0.4-0.1c-0.1-0.2-0.6-0.8-0.8-0.9c-0.2-0.1,0.4-0.3-0.1-0.6
	c-0.5-0.3-0.5-0.4-1-0.9s-0.7-0.6-0.9-0.9c-0.3-0.4-0.4-0.6-0.9-0.6C410.3,15.6,410.1,15.4,409.5,15.6z"/>
<g class="st5">
	<g>
		<g>
			<path class="st6" d="M469.5,24.3c-7-7.2-14,3.7-21,2.6v12.6c7,1.1,14-9.9,21-2.6C469.5,32.7,469.5,28.5,469.5,24.3z"/>
			<g>
				<g>
					<g>
						<path class="st7" d="M450.5,37c-0.7,0.1-1.4,0.1-2.1,0c0-0.8,0-1.7,0-2.5c0.7,0.1,1.4,0.1,2.1,0
							C450.5,35.3,450.5,36.2,450.5,37z"/>
					</g>
					<g>
						<path class="st7" d="M452.6,33.9c-0.7,0.2-1.4,0.5-2.1,0.5c0-0.8,0-1.7,0-2.5c0.7-0.1,1.4-0.3,2.1-0.5
							C452.6,32.2,452.6,33.1,452.6,33.9z"/>
					</g>
				</g>
				<g>
					<g>
						<path class="st7" d="M452.6,39c-0.7,0.2-1.4,0.5-2.1,0.5c0-0.8,0-1.7,0-2.5c0.7-0.1,1.4-0.3,2.1-0.5
							C452.6,37.3,452.6,38.1,452.6,39z"/>
					</g>
				</g>
				<g>
					<path class="st7" d="M450.5,31.9c-0.7,0.1-1.4,0.1-2.1,0c0-0.8,0-1.7,0-2.5c0.7,0.1,1.4,0.1,2.1,0
						C450.5,30.3,450.5,31.1,450.5,31.9z"/>
				</g>
				<g>
					<path class="st7" d="M452.6,28.9c-0.7,0.2-1.4,0.5-2.1,0.5c0-0.8,0-1.7,0-2.5c0.7-0.1,1.4-0.3,2.1-0.5
						C452.6,27.2,452.6,28,452.6,28.9z"/>
				</g>
			</g>
			<g>
				<g>
					<g>
						<path class="st7" d="M454.7,35.6c-0.7,0.4-1.4,0.6-2.1,0.9c0-0.8,0-1.7,0-2.5c0.7-0.2,1.4-0.6,2.1-0.9
							C454.7,33.9,454.7,34.8,454.7,35.6z"/>
					</g>
					<g>
						<path class="st7" d="M456.8,32c-0.7,0.4-1.4,0.8-2.1,1.1c0-0.8,0-1.7,0-2.5c0.7-0.4,1.4-0.7,2.1-1.1
							C456.8,30.3,456.8,31.2,456.8,32z"/>
						<path class="st7" d="M459,33.4c-0.7,0.4-1.4,0.7-2.1,1.1c0-0.8,0-1.7,0-2.5c0.7-0.4,1.4-0.8,2.1-1.1
							C459,31.8,459,32.6,459,33.4z"/>
					</g>
					<g>
						<path class="st7" d="M461.1,30c-0.7,0.2-1.4,0.6-2.1,0.9c0-0.8,0-1.7,0-2.5c0.7-0.4,1.4-0.6,2.1-0.9
							C461.1,28.3,461.1,29.1,461.1,30z"/>
					</g>
				</g>
				<g>
					<g>
						<path class="st7" d="M456.9,37c-0.7,0.4-1.4,0.8-2.1,1.1c0-0.8,0-1.7,0-2.5c0.7-0.4,1.4-0.7,2.1-1.1
							C456.8,35.3,456.9,36.2,456.9,37z"/>
					</g>
					<g>
						<path class="st7" d="M461.1,35c-0.7,0.2-1.4,0.6-2.1,0.9c0-0.8,0-1.7,0-2.5c0.7-0.4,1.4-0.6,2.1-0.9
							C461.1,33.3,461.1,34.2,461.1,35z"/>
					</g>
				</g>
				<path class="st7" d="M454.7,30.6c-0.7,0.4-1.4,0.6-2.1,0.9c0-0.8,0-1.7,0-2.5c0.7-0.2,1.4-0.6,2.1-0.9
					C454.7,28.9,454.7,29.7,454.7,30.6z"/>
				<g>
					<path class="st7" d="M456.8,27c-0.7,0.4-1.4,0.8-2.1,1.1c0-0.8,0-1.7,0-2.5c0.7-0.4,1.4-0.7,2.1-1.1
						C456.8,25.3,456.8,26.1,456.8,27z"/>
					<path class="st7" d="M459,28.4c-0.7,0.4-1.4,0.7-2.1,1.1c0-0.8,0-1.7,0-2.5c0.7-0.4,1.4-0.8,2.1-1.1
						C459,26.7,459,27.5,459,28.4z"/>
				</g>
				<g>
					<path class="st7" d="M461.1,24.9c-0.7,0.2-1.4,0.6-2.1,0.9c0-0.8,0-1.7,0-2.5c0.7-0.4,1.4-0.6,2.1-0.9
						C461.1,23.2,461.1,24.1,461.1,24.9z"/>
				</g>
			</g>
			<g>
				<g>
					<g>
						<path class="st7" d="M463.2,32c-0.7,0.1-1.4,0.3-2.1,0.5c0-0.8,0-1.7,0-2.5c0.7-0.2,1.4-0.5,2.1-0.5
							C463.1,30.3,463.2,31.2,463.2,32z"/>
					</g>
					<g>
						<path class="st7" d="M465.3,29.5c-0.7-0.1-1.4-0.1-2.1,0c0-0.8,0-1.7,0-2.5c0.7-0.1,1.4-0.1,2.1,0
							C465.3,27.8,465.3,28.7,465.3,29.5z"/>
						<path class="st7" d="M467.4,32.8c-0.7-0.4-1.4-0.6-2.1-0.8c0-0.8,0-1.7,0-2.5c0.7,0.1,1.4,0.4,2.1,0.8
							C467.4,31.1,467.4,32,467.4,32.8z"/>
					</g>
					<g>
						<path class="st7" d="M469.5,32c-0.7-0.8-1.4-1.3-2.1-1.7c0-0.8,0-1.7,0-2.5c0.7,0.4,1.4,0.9,2.1,1.7
							C469.5,30.3,469.5,31.1,469.5,32z"/>
					</g>
				</g>
				<g>
					<g>
						<path class="st7" d="M465.3,34.6c-0.7-0.1-1.4-0.1-2.1,0c0-0.8,0-1.7,0-2.5c0.7-0.1,1.4-0.1,2.1,0
							C465.3,32.9,465.3,33.7,465.3,34.6z"/>
					</g>
					<g>
						<path class="st7" d="M469.5,37c-0.7-0.8-1.4-1.3-2.1-1.7c0-0.8,0-1.7,0-2.5c0.7,0.4,1.4,0.9,2.1,1.7
							C469.5,35.3,469.5,36.2,469.5,37z"/>
					</g>
				</g>
				<path class="st7" d="M463.1,27c-0.7,0.1-1.4,0.3-2.1,0.5c0-0.8,0-1.7,0-2.5c0.7-0.2,1.4-0.5,2.1-0.5
					C463.1,25.3,463.1,26.1,463.1,27z"/>
				<g>
					<path class="st7" d="M465.2,24.4c-0.7-0.1-1.4-0.1-2.1,0c0-0.8,0-1.7,0-2.5c0.7-0.1,1.4-0.1,2.1,0
						C465.2,22.7,465.2,23.6,465.2,24.4z"/>
					<path class="st7" d="M467.4,27.7c-0.7-0.4-1.4-0.6-2.1-0.8c0-0.8,0-1.7,0-2.5c0.7,0.1,1.4,0.4,2.1,0.8
						C467.4,26,467.4,26.9,467.4,27.7z"/>
				</g>
				<g>
					<path class="st7" d="M469.5,26.9c-0.7-0.8-1.4-1.3-2.1-1.7c0-0.8,0-1.7,0-2.5c0.7,0.4,1.4,0.9,2.1,1.7
						C469.5,25.2,469.5,26,469.5,26.9z"/>
				</g>
			</g>
		</g>
		
			<rect x="447.5" y="26.1" transform="matrix(1 -3.170385e-03 3.170385e-03 1 -0.112 1.4207)" class="st8" width="1.1" height="19.9"/>
		
			<rect x="447.4" y="26.9" transform="matrix(1 -3.174668e-03 3.174668e-03 1 -0.1035 1.4224)" class="st7" width="1.2" height="12.8"/>
		
			<rect x="448.6" y="26.9" transform="matrix(1 -3.178591e-03 3.178591e-03 1 -0.1036 1.4274)" class="st9" width="0.8" height="12.8"/>
	</g>
</g>
</svg>
