<?xml version="1.0" encoding="utf-8"?>
<!-- Generator: Adobe Illustrator 24.1.0, SVG Export Plug-In . SVG Version: 6.00 Build 0)  -->
<svg version="1.1" id="Layer_1" xmlns="http://www.w3.org/2000/svg" xmlns:xlink="http://www.w3.org/1999/xlink" x="0px" y="0px"
	 viewBox="0 0 1486.9 888.5" style="enable-background:new 0 0 1486.9 888.5;" xml:space="preserve">
<style type="text/css">
	.st0{clip-path:url(#SVGID_2_);}
	.st1{fill:#7959AC;}
	.st2{fill:#FFFFFF;}
</style>
<g id="a9cdcd8c-e872-48b1-8e92-b877ea5cf09e">
	<g id="b8c76ff4-f8f7-44d6-9eca-03d5ce11daec">
		<g>
			<defs>
				<rect id="SVGID_1_" x="14" y="58.8" width="1450.1" height="824.2"/>
			</defs>
			<clipPath id="SVGID_2_">
				<use xlink:href="#SVGID_1_"  style="overflow:visible;"/>
			</clipPath>
			<g class="st0">
				
					<image style="overflow:visible;enable-background:new    ;" width="7900" height="5267" xlink:href="EA128DBDB785248D.jpg"  transform="matrix(0.18 0 0 0.18 20 0)">
				</image>
			</g>
		</g>
		
			<image style="overflow:visible;enable-background:new    ;" width="471" height="241" xlink:href="EA128DBDB785248F.png"  transform="matrix(0.85 0 0 0.85 1108.425 118.77)">
		</image>
		<path class="st1" d="M84.1,684.8h1330.8c34.8,0,63.1,28.2,63.1,63.1v40.8c0,34.8-28.2,63.1-63.1,63.1H84.1
			c-34.8,0-63.1-28.2-63.1-63.1v-40.8C21,713,49.2,684.8,84.1,684.8z"/>
		<path class="st2" d="M190.2,761.9v28.2h-9.4v-28.2h-7.7v-8H198v8H190.2z"/>
		<path class="st2" d="M222.7,761.9h-11.2v6h10.6v8h-10.6v6.2h11.2v8h-20.6v-36.2h20.6L222.7,761.9z M221,744.7l-9.2,6.3l-3.6-3.4
			l7.8-7.5L221,744.7z"/>
		<path class="st2" d="M255.6,766c-1.9-2.5-4.9-4-8.1-4c-1.3,0-2.7,0.2-3.9,0.8c-1.2,0.5-2.2,1.2-3.1,2.1c-0.9,0.9-1.6,2-2,3.2
			c-0.5,1.2-0.8,2.6-0.8,3.9c0,1.4,0.2,2.7,0.8,4c0.5,1.2,1.2,2.3,2.1,3.2c0.9,0.9,1.9,1.6,3.1,2.1c1.2,0.5,2.5,0.8,3.8,0.8
			c3.1-0.1,6.1-1.5,8.1-3.8v11.1l-1,0.3c-1.3,0.5-2.6,0.8-4,1.1c-1.2,0.2-2.5,0.4-3.7,0.4c-4.9,0-9.7-1.9-13.2-5.4
			c-1.8-1.7-3.2-3.8-4.2-6.1c-2.1-4.9-2.1-10.5,0-15.4c1-2.3,2.4-4.3,4.2-6c1.8-1.7,3.8-3,6.1-3.9c2.3-0.9,4.8-1.4,7.2-1.4
			c1.4,0,2.9,0.2,4.2,0.5c1.5,0.3,3,0.8,4.4,1.4L255.6,766z"/>
		<path class="st2" d="M261.5,790.1v-36.2h9.4l17.4,22.1v-22.1h9.4v36.2h-9.4L270.9,768v22.1H261.5z"/>
		<path class="st2" d="M314.7,753.9v36.2h-9.4v-36.2H314.7z"/>
		<path class="st2" d="M348.3,766c-1.9-2.5-4.9-4-8.1-4c-1.3,0-2.7,0.2-3.9,0.8c-1.2,0.5-2.2,1.2-3.1,2.1c-0.9,0.9-1.5,2-2,3.2
			c-0.5,1.2-0.8,2.6-0.7,3.9c0,1.4,0.2,2.7,0.7,4c0.5,1.2,1.2,2.3,2.1,3.2c0.9,0.9,1.9,1.6,3.1,2.1c1.2,0.5,2.5,0.8,3.8,0.8
			c3.1-0.1,6.1-1.5,8.1-3.8v11.1l-1,0.3c-1.3,0.5-2.6,0.8-4,1.1c-1.2,0.2-2.5,0.4-3.7,0.4c-4.9,0-9.7-1.9-13.2-5.4
			c-1.8-1.8-3.2-3.8-4.2-6.1c-2.1-4.9-2.1-10.5,0-15.4c1-2.2,2.4-4.3,4.2-6c1.8-1.7,3.8-3,6.1-3.9c2.3-0.9,4.8-1.4,7.2-1.4
			c1.4,0,2.9,0.2,4.2,0.5c1.5,0.4,2.9,0.8,4.3,1.4V766z"/>
		<path class="st2" d="M376.4,783.8H363l-2.2,6.3h-10l13.8-36.2h10.3l13.8,36.2h-10L376.4,783.8z M373.9,776.6l-4.2-12l-4.2,12
			H373.9z"/>
		<path class="st2" d="M412.6,763.2c-0.9-0.8-2-1.4-3.1-1.8c-1-0.4-2-0.6-3-0.6c-1.1-0.1-2.1,0.3-3,0.9c-0.7,0.5-1.2,1.4-1.1,2.3
			c0,0.6,0.2,1.1,0.6,1.6c0.4,0.5,0.9,0.8,1.5,1.1c0.7,0.3,1.4,0.6,2.1,0.8c0.8,0.2,1.6,0.5,2.3,0.7c2.6,0.7,4.9,2.1,6.8,4.1
			c1.5,1.9,2.2,4.3,2.1,6.7c0,1.7-0.3,3.4-0.9,5c-0.6,1.5-1.5,2.8-2.7,3.9c-1.3,1.1-2.8,2-4.4,2.5c-1.9,0.6-3.9,0.9-5.9,0.9
			c-4.6,0-9-1.4-12.7-4.1l4-7.6c1.2,1.1,2.6,2.1,4.2,2.8c1.3,0.6,2.7,0.9,4.1,0.9c1.2,0.1,2.5-0.3,3.4-1.1c0.7-0.6,1.1-1.5,1.1-2.4
			c0-0.5-0.1-1-0.3-1.4c-0.2-0.4-0.6-0.8-1-1.1c-0.5-0.4-1.1-0.7-1.8-0.9c-0.7-0.3-1.6-0.6-2.6-1c-1.2-0.4-2.4-0.8-3.6-1.3
			c-1.1-0.4-2.2-1.1-3.1-1.8c-0.9-0.8-1.7-1.8-2.2-2.9c-0.6-1.4-0.9-2.9-0.8-4.4c0-1.7,0.3-3.3,0.9-4.9c0.6-1.4,1.4-2.7,2.5-3.8
			c1.1-1.1,2.5-1.9,3.9-2.4c1.7-0.6,3.4-0.9,5.2-0.9c1.9,0,3.8,0.3,5.6,0.8c2,0.5,3.8,1.2,5.6,2.2L412.6,763.2z"/>
		<path class="st2" d="M460.7,761.9h-11.2v6H460v8h-10.5v6.2h11.2v8h-20.6v-36.2h20.6L460.7,761.9z"/>
		<path class="st2" d="M493.2,753.9v36.2h-9.4v-36.2H493.2z"/>
		<path class="st2" d="M500.8,790.1v-36.2h9.4l17.4,22.1v-22.1h9.4v36.2h-9.4L510.2,768v22.1H500.8z"/>
		<path class="st2" d="M564.3,763.2c-0.9-0.8-2-1.4-3.1-1.8c-1-0.4-2-0.6-3-0.6c-1.1-0.1-2.1,0.3-3,0.9c-0.7,0.5-1.2,1.4-1.2,2.3
			c0,0.6,0.2,1.2,0.6,1.6c0.4,0.5,0.9,0.8,1.5,1.1c0.7,0.3,1.4,0.6,2.1,0.8c0.8,0.2,1.6,0.5,2.3,0.7c2.6,0.7,4.9,2.1,6.7,4.1
			c1.5,1.9,2.3,4.3,2.1,6.7c0,1.7-0.3,3.4-0.9,5c-0.6,1.5-1.5,2.8-2.7,3.9c-1.3,1.1-2.8,2-4.4,2.5c-1.9,0.6-3.9,0.9-5.9,0.9
			c-4.6,0-9-1.4-12.7-4.1l4-7.6c1.2,1.1,2.6,2.1,4.2,2.8c1.3,0.6,2.7,0.9,4.1,0.9c1.2,0.1,2.5-0.3,3.4-1.1c1.1-0.9,1.4-2.5,0.8-3.8
			c-0.2-0.4-0.6-0.8-1-1.1c-0.5-0.4-1.1-0.7-1.8-0.9c-0.7-0.3-1.6-0.6-2.6-1c-1.2-0.4-2.4-0.8-3.6-1.3c-1.1-0.4-2.2-1.1-3.1-1.8
			c-0.9-0.8-1.7-1.8-2.2-2.9c-0.6-1.4-0.9-2.9-0.8-4.4c0-1.7,0.3-3.3,0.9-4.9c0.6-1.4,1.4-2.7,2.5-3.8c1.1-1.1,2.5-1.9,3.9-2.4
			c1.7-0.6,3.4-0.9,5.2-0.9c1.9,0,3.8,0.3,5.6,0.8c2,0.5,3.8,1.2,5.6,2.2L564.3,763.2z"/>
		<path class="st2" d="M589.2,761.9v28.2h-9.4v-28.2h-7.7v-8h24.9v8H589.2z"/>
		<path class="st2" d="M631.2,790.1h-11.7l-9-13.9v13.9h-9.4v-36.2h14.6c1.8,0,3.6,0.3,5.3,0.9c2.8,1,4.9,3.2,5.9,6
			c0.5,1.4,0.8,2.8,0.8,4.3c0.1,2.4-0.6,4.7-2,6.7c-1.5,1.8-3.6,3-5.9,3.5L631.2,790.1z M610.5,770.1h1.8c1.5,0.1,3-0.3,4.3-1.2
			c1.8-1.6,2-4.4,0.4-6.3c-0.1-0.1-0.2-0.3-0.4-0.4c-1.3-0.8-2.8-1.2-4.3-1.2h-1.8V770.1z"/>
		<path class="st2" d="M644.6,753.9v19.7c0,1.1,0,2.1,0.1,3.2c0.1,1,0.3,2.1,0.7,3c0.4,0.9,1.1,1.7,1.9,2.2c1.1,0.6,2.4,0.9,3.7,0.8
			c1.3,0.1,2.5-0.2,3.6-0.8c0.8-0.5,1.5-1.3,1.9-2.2c0.4-0.9,0.7-2,0.7-3c0.1-1.1,0.1-2.2,0.1-3.2v-19.7h9.4v21
			c0,5.6-1.3,9.7-3.9,12.3c-2.6,2.6-6.5,3.9-11.9,3.9c-5.3,0-9.3-1.3-11.9-3.9c-2.6-2.6-3.9-6.7-3.9-12.3v-21H644.6z"/>
		<path class="st2" d="M672.6,790.1l6.1-36.2h9.3l7.2,19.3l7.2-19.3h9.3l6.2,36.2h-9.4l-3.1-20.8l-8.5,20.8h-3.7l-8.1-20.8
			l-3.2,20.8H672.6z"/>
		<path class="st2" d="M744.5,761.9h-11.2v6h10.6v8h-10.6v6.2h11.2v8H724v-36.2h20.6L744.5,761.9z"/>
		<path class="st2" d="M751.3,790.1v-36.2h9.4l17.4,22.1v-22.1h9.4v36.2h-9.4L760.7,768v22.1H751.3z"/>
		<path class="st2" d="M808.8,761.9v28.2h-9.4v-28.2h-7.7v-8h24.9v8H808.8z"/>
		<path class="st2" d="M819,772c-0.1-7.8,4.7-14.9,12-17.6c5.2-2,10.9-2,16.2,0c2.4,0.9,4.5,2.3,6.4,4c1.8,1.7,3.2,3.8,4.2,6.1
			c2,4.8,2,10.2,0,15c-1,2.3-2.4,4.3-4.2,6.1c-1.8,1.8-4,3.1-6.4,4.1c-5.2,1.9-10.9,1.9-16.2,0C823.7,786.8,819,779.8,819,772z
			 M828.8,772c0,1.4,0.3,2.7,0.8,4c0.5,1.2,1.3,2.3,2.2,3.2c0.9,0.9,2,1.6,3.2,2.1c2.5,1,5.3,1,7.8,0c1.2-0.5,2.3-1.2,3.3-2.1
			c0.9-0.9,1.7-2,2.2-3.2c1.1-2.6,1.1-5.4,0-8c-0.5-1.2-1.3-2.3-2.2-3.2c-1.9-1.8-4.5-2.8-7.2-2.8c-1.3,0-2.7,0.2-3.9,0.7
			c-1.2,0.5-2.3,1.2-3.2,2.1c-0.9,0.9-1.7,2-2.2,3.2C829.1,769.2,828.8,770.6,828.8,772L828.8,772z"/>
		<path class="st2" d="M884.9,763.2c-0.9-0.8-2-1.4-3.1-1.8c-1-0.4-2-0.6-3-0.6c-1.1-0.1-2.1,0.3-3,0.9c-0.7,0.5-1.2,1.4-1.2,2.3
			c0,0.6,0.2,1.2,0.6,1.6c0.4,0.5,0.9,0.8,1.5,1.1c0.7,0.3,1.4,0.6,2.1,0.8c0.8,0.2,1.6,0.5,2.3,0.7c2.6,0.7,4.9,2.1,6.7,4.1
			c1.5,1.9,2.3,4.3,2.1,6.7c0,1.7-0.3,3.4-0.9,5c-0.6,1.5-1.5,2.8-2.7,3.9c-1.3,1.1-2.8,2-4.4,2.5c-1.9,0.6-3.9,0.9-5.9,0.9
			c-4.6,0-9-1.4-12.7-4.1l4-7.6c1.2,1.1,2.6,2.1,4.2,2.8c1.3,0.6,2.7,0.9,4.1,0.9c1.2,0.1,2.5-0.3,3.4-1.1c0.7-0.6,1.1-1.5,1.1-2.4
			c0-0.5-0.1-1-0.3-1.4c-0.2-0.4-0.6-0.8-1-1.1c-0.5-0.4-1.1-0.7-1.8-0.9c-0.7-0.3-1.6-0.6-2.6-1c-1.2-0.4-2.4-0.8-3.6-1.3
			c-1.1-0.4-2.2-1.1-3.1-1.8c-0.9-0.8-1.7-1.8-2.2-2.9c-0.6-1.4-0.9-2.9-0.8-4.4c0-1.7,0.3-3.3,0.9-4.9c0.6-1.4,1.4-2.7,2.5-3.8
			c1.1-1.1,2.5-1.9,3.9-2.4c1.7-0.6,3.4-0.9,5.2-0.9c1.9,0,3.8,0.3,5.6,0.8c2,0.5,3.8,1.2,5.6,2.2L884.9,763.2z"/>
		<path class="st2" d="M912.4,753.9h13.9c2.4,0,4.8,0.5,6.9,1.5c2.1,1,4,2.3,5.7,4c1.6,1.7,2.9,3.6,3.8,5.8c0.9,2.2,1.4,4.5,1.4,6.9
			c0,2.3-0.5,4.7-1.4,6.8c-0.9,2.2-2.2,4.1-3.8,5.8c-1.6,1.7-3.5,3-5.7,4c-2.2,1-4.6,1.5-7,1.5h-13.9V753.9z M921.8,782.1h2.2
			c1.5,0,3-0.2,4.4-0.8c1.2-0.5,2.3-1.2,3.2-2.1c0.9-0.9,1.6-2,2-3.2c0.5-1.3,0.7-2.7,0.7-4.1c0-1.4-0.2-2.7-0.7-4
			c-0.9-2.5-2.8-4.4-5.3-5.3c-1.4-0.5-2.8-0.8-4.3-0.8h-2.2V782.1z"/>
		<path class="st2" d="M970.7,761.9h-11.2v6h10.6v8h-10.6v6.2h11.2v8h-20.6v-36.2h20.6V761.9z"/>
		<path class="st2" d="M1014.4,761.9h-11.2v6h10.6v8h-10.6v6.2h11.2v8h-20.6v-36.2h20.6V761.9z"/>
		<path class="st2" d="M1027.6,753.9l8.7,22l8.8-22h10.2l-15.3,36.2h-7.5l-15.2-36.2H1027.6z"/>
		<path class="st2" d="M1081.3,783.8h-13.4l-2.2,6.3h-10l13.8-36.2h10.3l13.8,36.2h-10L1081.3,783.8z M1078.8,776.6l-4.2-12l-4.2,12
			H1078.8z"/>
		<path class="st2" d="M1107,753.9v28.2h11.3v8h-20.7v-36.2L1107,753.9z"/>
		<path class="st2" d="M1132.6,753.9v19.7c0,1.1,0,2.1,0.1,3.2c0.1,1,0.3,2.1,0.7,3c0.4,0.9,1.1,1.7,1.9,2.2
			c1.1,0.6,2.4,0.9,3.7,0.8c1.3,0.1,2.5-0.2,3.6-0.8c0.8-0.5,1.5-1.3,1.9-2.2c0.4-0.9,0.7-2,0.7-3c0.1-1.1,0.1-2.2,0.1-3.2v-19.7
			h9.4v21c0,5.6-1.3,9.7-3.9,12.3c-2.6,2.6-6.5,3.9-11.8,3.9c-5.3,0-9.3-1.3-11.9-3.9c-2.6-2.6-3.9-6.7-3.9-12.3v-21L1132.6,753.9z"
			/>
		<path class="st2" d="M1184.4,783.8H1171l-2.2,6.3h-10l13.8-36.2h10.3l13.8,36.2h-10L1184.4,783.8z M1182,776.6l-4.2-12l-4.2,12
			H1182z"/>
		<path class="st2" d="M1226.8,766c-1.9-2.5-4.9-4-8.1-4c-1.3,0-2.7,0.2-3.9,0.8c-1.2,0.5-2.2,1.2-3.1,2.1c-0.9,0.9-1.6,2-2,3.2
			c-0.5,1.2-0.8,2.6-0.8,3.9c0,1.4,0.2,2.7,0.8,4c0.5,1.2,1.2,2.3,2.1,3.2c0.9,0.9,1.9,1.6,3.1,2.1c1.2,0.5,2.5,0.8,3.8,0.8
			c3.1-0.1,6.1-1.5,8.1-3.8v11.1l-1,0.3c-1.3,0.5-2.6,0.8-4,1.1c-1.2,0.2-2.5,0.4-3.7,0.4c-4.9,0-9.7-1.9-13.2-5.4
			c-1.8-1.7-3.2-3.8-4.2-6.1c-2.1-4.9-2.1-10.5,0-15.4c1-2.3,2.4-4.3,4.2-6c1.8-1.7,3.8-3,6.1-3.9c2.3-0.9,4.8-1.4,7.2-1.4
			c1.4,0,2.8,0.2,4.2,0.5c1.5,0.3,3,0.8,4.4,1.4L1226.8,766z"/>
		<path class="st2" d="M1242.2,753.9v36.2h-9.4v-36.2H1242.2z"/>
		<path class="st2" d="M1248.2,772c0-5.1,2-10,5.6-13.6c1.8-1.7,4-3.1,6.3-4c5.2-2,10.9-2,16.2,0c2.4,0.9,4.5,2.3,6.4,4
			c1.8,1.7,3.2,3.8,4.2,6.1c2,4.8,2,10.2,0,15c-1,2.3-2.4,4.3-4.2,6.1c-1.8,1.8-4,3.1-6.4,4.1c-5.2,1.9-10.9,1.9-16.2,0
			c-2.4-0.9-4.5-2.3-6.3-4.1C1250.1,782,1248.1,777.1,1248.2,772L1248.2,772z M1258,772c0,1.4,0.3,2.7,0.8,4c1.1,2.4,3,4.3,5.4,5.3
			c3.8,1.5,8.1,0.7,11.1-2.1c0.9-0.9,1.7-2,2.2-3.2c1.1-2.6,1.1-5.4,0-8c-0.5-1.2-1.3-2.3-2.2-3.2c-0.9-0.9-2.1-1.6-3.3-2.1
			c-2.5-1-5.3-1-7.8,0c-2.4,1-4.4,2.9-5.4,5.3C1258.3,769.2,1258,770.6,1258,772L1258,772z M1276.8,744.7l-9.2,6.3l-3.7-3.4l7.8-7.5
			L1276.8,744.7z"/>
		<path class="st2" d="M1294.2,790.1v-36.2h9.4L1321,776v-22.1h9.4v36.2h-9.4l-17.4-22.1v22.1H1294.2z"/>
	</g>
</g>
</svg>
