<?xml version="1.0" encoding="utf-8"?>
<!-- Generator: Adobe Illustrator 24.0.1, SVG Export Plug-In . SVG Version: 6.00 Build 0)  -->
<svg version="1.1" id="Capa_1" xmlns="http://www.w3.org/2000/svg" xmlns:xlink="http://www.w3.org/1999/xlink" x="0px" y="0px"
	 viewBox="0 0 66.4 66.4" style="enable-background:new 0 0 66.4 66.4;" xml:space="preserve">
<style type="text/css">
	.st0{fill:url(#SVGID_1_);}
	.st1{fill:url(#SVGID_2_);}
	.st2{fill:#FFFFFF;}
</style>
<g>
	<g id="ff96064a-54cd-474d-9a58-249dffdcd29d">
		<g id="aa162951-2ab6-491c-a72b-7c2ffcb63702">
			
				<radialGradient id="SVGID_1_" cx="33.19" cy="34.1" r="33.19" gradientTransform="matrix(1 0 0 -1 0 67.29)" gradientUnits="userSpaceOnUse">
				<stop  offset="0.55" style="stop-color:#F7C043"/>
				<stop  offset="1" style="stop-color:#C48600"/>
			</radialGradient>
			<circle class="st0" cx="33.2" cy="33.2" r="33.2"/>
			
				<linearGradient id="SVGID_2_" gradientUnits="userSpaceOnUse" x1="14.4163" y1="15.3263" x2="51.9637" y2="52.8737" gradientTransform="matrix(1 0 0 -1 0 67.29)">
				<stop  offset="0.38" style="stop-color:#F7C043"/>
				<stop  offset="1" style="stop-color:#C48600"/>
			</linearGradient>
			<circle class="st1" cx="33.2" cy="33.2" r="26.5"/>
			<path class="st2" d="M24.9,18.8c2.1-2,5-3,8.9-3c2.2,0,4.3,0.4,6.3,1.3c1.6,0.7,3,1.9,4,3.4c0.9,1.5,1.4,3.2,1.3,4.9
				c0.2,3.4-1.8,6.5-5,7.7v0.2c3.8,1.4,5.6,4,5.6,7.8c0,1.9-0.5,3.7-1.4,5.3c-1,1.6-2.3,2.8-4,3.6c-1.9,0.9-4,1.3-6.2,1.3
				c-4.1,0-7.3-1-9.6-2.9s-3.5-5-3.6-9.1h10.1c-0.1,0.9,0.1,1.8,0.5,2.6c0.5,0.6,1.3,1,2,0.9c0.5,0,1.1-0.2,1.4-0.6
				c0.4-0.5,0.6-1.1,0.6-1.7c0-0.8-0.3-1.5-0.9-2c-0.9-0.5-1.9-0.8-2.9-0.7h-1.7v-8.4H32c2.1,0.1,3.2-0.7,3.2-2.5
				c0.1-0.6-0.1-1.3-0.5-1.8c-0.3-0.4-0.8-0.6-1.2-0.6c-1.2,0-1.7,1-1.7,2.9H21.6C21.7,23.6,22.8,20.8,24.9,18.8z"/>
		</g>
	</g>
</g>
</svg>
