<?xml version="1.0" encoding="utf-8"?>
<!-- Generator: Adobe Illustrator 24.0.1, SVG Export Plug-In . SVG Version: 6.00 Build 0)  -->
<svg version="1.1" id="Capa_1" xmlns="http://www.w3.org/2000/svg" xmlns:xlink="http://www.w3.org/1999/xlink" x="0px" y="0px"
	 viewBox="0 0 63.1 63.1" style="enable-background:new 0 0 63.1 63.1;" xml:space="preserve">
<style type="text/css">
	.st0{fill:url(#SVGID_1_);}
	.st1{fill:url(#SVGID_2_);}
	.st2{fill:#FFFFFF;}
</style>
<g>
	<g id="a05d0ef8-3784-4265-b34f-b4793f9c7eb7">
		<g id="e76f8991-1459-46c6-b606-1dd54ebfbd27">
			
				<radialGradient id="SVGID_1_" cx="31.54" cy="31.75" r="31.54" gradientTransform="matrix(1 0 0 -1 0 63.29)" gradientUnits="userSpaceOnUse">
				<stop  offset="0.55" style="stop-color:#F363C0"/>
				<stop  offset="1" style="stop-color:#A31D79"/>
			</radialGradient>
			<circle class="st0" cx="31.5" cy="31.5" r="31.5"/>
			
				<linearGradient id="SVGID_2_" gradientUnits="userSpaceOnUse" x1="13.6997" y1="13.9097" x2="49.3803" y2="49.5903" gradientTransform="matrix(1 0 0 -1 0 63.29)">
				<stop  offset="0.38" style="stop-color:#F363C0"/>
				<stop  offset="1" style="stop-color:#A31D79"/>
			</linearGradient>
			<circle class="st1" cx="31.5" cy="31.5" r="25.2"/>
			<path class="st2" d="M32.5,22.2c-0.4-0.4-1-0.7-1.6-0.6c-1.1-0.1-2,0.7-2.3,1.7c-0.4,1.7-0.6,3.5-0.6,5.3c0.6-0.9,1.4-1.6,2.3-2
				c1.1-0.5,2.3-0.7,3.4-0.6c2.6-0.1,5,0.8,6.8,2.6c1.7,1.8,2.6,4.3,2.6,7.6c0,2-0.4,4-1.4,5.7c-0.9,1.6-2.3,3-4,3.8
				c-1.9,0.9-4,1.4-6.1,1.3c-4.7,0-7.9-1.4-9.7-4.3c-1.8-2.9-2.7-6.9-2.7-12c-0.1-3.3,0.3-6.6,1.2-9.8c0.6-2.2,2-4.2,4-5.5
				c2.1-1.3,4.5-1.9,7-1.8c3.5,0,6.2,1,8,3c1.8,2.1,2.9,4.7,3,7.5h-9.2C33.1,23.4,32.9,22.8,32.5,22.2z M29.5,34.2
				c-0.5,0.5-0.8,1.2-0.7,1.9c-0.1,0.7,0.2,1.5,0.7,2c0.5,0.5,1.2,0.7,1.9,0.7c0.7,0,1.4-0.2,1.9-0.7c0.5-0.5,0.8-1.3,0.7-2
				c0-0.7-0.2-1.4-0.7-1.9C32.2,33.3,30.6,33.3,29.5,34.2z"/>
		</g>
	</g>
</g>
</svg>
