<?xml version="1.0" encoding="utf-8"?>
<!-- Generator: Adobe Illustrator 24.0.1, SVG Export Plug-In . SVG Version: 6.00 Build 0)  -->
<svg version="1.1" id="Capa_1" xmlns="http://www.w3.org/2000/svg" xmlns:xlink="http://www.w3.org/1999/xlink" x="0px" y="0px"
	 viewBox="0 0 66.1 66.1" style="enable-background:new 0 0 66.1 66.1;" xml:space="preserve">
<style type="text/css">
	.st0{fill:url(#SVGID_1_);}
	.st1{fill:url(#SVGID_2_);}
	.st2{fill:#FFFFFF;}
</style>
<g>
	<g id="f96298fe-52c7-42ee-8274-0eaf4dc1df00">
		<g id="b7a8e8ff-1b79-4cbc-93d0-2cd412714cfc">
			
				<radialGradient id="SVGID_1_" cx="33" cy="595.1" r="33.05" gradientTransform="matrix(1 0 0 1 0 -562)" gradientUnits="userSpaceOnUse">
				<stop  offset="0.55" style="stop-color:#F10A73"/>
				<stop  offset="1" style="stop-color:#95024B"/>
			</radialGradient>
			<circle class="st0" cx="33" cy="33.1" r="33"/>
			
				<linearGradient id="SVGID_2_" gradientUnits="userSpaceOnUse" x1="14.3324" y1="613.7676" x2="51.7242" y2="576.3758" gradientTransform="matrix(1 0 0 1 0 -562)">
				<stop  offset="0.38" style="stop-color:#F10A73"/>
				<stop  offset="1" style="stop-color:#95024B"/>
			</linearGradient>
			<circle class="st1" cx="33" cy="33.1" r="26.4"/>
			<path class="st2" d="M31,30.8c2.4-2.5,3.6-4.9,3.6-7.1c0-0.6-0.1-1.2-0.5-1.7c-0.3-0.4-0.8-0.6-1.3-0.6c-0.6,0-1.2,0.4-1.5,1
				c-0.4,0.9-0.5,1.9-0.4,2.9H21c0-2.5,0.6-5,1.9-7.2c1.1-1.8,2.7-3.2,4.6-4.1c1.9-0.9,4-1.3,6.2-1.3c4,0,6.9,1,8.8,2.9
				c1.9,2,2.9,4.6,2.8,7.4c0,3.2-1.1,6.3-3,8.9c-2,2.8-4.6,5.2-7.5,7h10.7V47H21.1v-7.8C24.6,36.7,27.9,33.8,31,30.8z"/>
		</g>
	</g>
</g>
</svg>
