<?xml version="1.0" encoding="utf-8"?>
<!-- Generator: Adobe Illustrator 24.1.0, SVG Export Plug-In . SVG Version: 6.00 Build 0)  -->
<svg version="1.1" id="Layer_1" xmlns="http://www.w3.org/2000/svg" xmlns:xlink="http://www.w3.org/1999/xlink" x="0px" y="0px"
	 viewBox="0 0 492.9 288" style="enable-background:new 0 0 492.9 288;" xml:space="preserve">
<style type="text/css">
	.st0{fill:url(#SVGID_1_);}
	.st1{fill:#FF3654;}
	.st2{fill:#C3C9D8;}
	.st3{fill:url(#SVGID_2_);}
	.st4{fill:#1D39CF;}
	.st5{fill:url(#SVGID_3_);}
	.st6{fill:#FF9D00;}
	.st7{fill:url(#SVGID_4_);}
	.st8{fill:#7AC90A;}
	.st9{fill:none;}
	.st10{font-family:'Poppins-Medium';}
	.st11{font-size:11.3382px;}
	.st12{fill:#E68A00;}
	.st13{font-family:'Raleway-Bold';}
	.st14{enable-background:new    ;}
	.st15{font-family:'Poppins-Regular';}
	.st16{font-size:7.5588px;}
	.st17{fill:#FFFFFF;}
</style>
<radialGradient id="SVGID_1_" cx="151.4704" cy="1478.4648" r="47.4721" gradientTransform="matrix(1.1667 0.3209 0.2787 -3.1292 -584.6414 4710.3672)" gradientUnits="userSpaceOnUse">
	<stop  offset="0.3599" style="stop-color:#8B9DA8"/>
	<stop  offset="0.5426" style="stop-color:#BBCDDC"/>
	<stop  offset="1" style="stop-color:#FFFFFF;stop-opacity:0"/>
</radialGradient>
<path class="st0" d="M44.4,32L24.9,250c17-19.3,30.4-56.7,34.5-102.2S57.2,59.6,44.4,32z"/>
<polygon class="st1" points="85.1,59.2 82,95.1 38.1,95.1 41.7,59.2 "/>
<g>
	<path class="st2" d="M57.9,132.1c-1.8-1.1-3.2-2.7-4.2-4.8c-1-2.1-1.5-4.6-1.5-7.5s0.5-5.4,1.5-7.5s2.4-3.7,4.2-4.8
		c1.8-1.1,3.9-1.7,6.2-1.7c2.3,0,4.3,0.6,6.1,1.7c1.8,1.1,3.2,2.7,4.2,4.8c1,2.1,1.5,4.6,1.5,7.5s-0.5,5.4-1.5,7.5
		c-1,2.1-2.4,3.7-4.2,4.8c-1.8,1.1-3.8,1.7-6.1,1.7C61.8,133.7,59.7,133.2,57.9,132.1z M67.2,125.6c0.8-1.2,1.1-3.2,1.1-5.9
		c0-2.7-0.4-4.7-1.1-5.9c-0.8-1.2-1.8-1.9-3.1-1.9c-1.3,0-2.3,0.6-3.1,1.9c-0.8,1.2-1.1,3.2-1.1,5.9c0,2.7,0.4,4.7,1.1,5.9
		c0.8,1.2,1.8,1.9,3.1,1.9S66.4,126.9,67.2,125.6z"/>
	<path class="st2" d="M91,106.2v27h-7.6v-21.1h-5v-5.9H91z"/>
</g>
<radialGradient id="SVGID_2_" cx="246.0992" cy="1489.488" r="47.472" gradientTransform="matrix(1.1667 0.3209 0.2453 -2.7547 -535.3361 4156.7524)" gradientUnits="userSpaceOnUse">
	<stop  offset="0.3599" style="stop-color:#8B9DA8"/>
	<stop  offset="0.5426" style="stop-color:#BBCDDC"/>
	<stop  offset="1" style="stop-color:#FFFFFF;stop-opacity:0"/>
</radialGradient>
<path class="st3" d="M157.5,32L138,250c17-19.3,30.4-56.7,34.5-102.2C176.7,102.3,170.3,59.6,157.5,32z"/>
<polygon class="st4" points="198.2,59.2 195.1,95.1 151.2,95.1 154.8,59.2 "/>
<g>
	<path class="st2" d="M172,132.1c-1.8-1.1-3.2-2.7-4.2-4.8c-1-2.1-1.5-4.6-1.5-7.5s0.5-5.4,1.5-7.5s2.4-3.7,4.2-4.8
		c1.8-1.1,3.9-1.7,6.2-1.7s4.3,0.6,6.1,1.7s3.2,2.7,4.2,4.8c1,2.1,1.5,4.6,1.5,7.5s-0.5,5.4-1.5,7.5c-1,2.1-2.4,3.7-4.2,4.8
		s-3.8,1.7-6.1,1.7C175.9,133.7,173.8,133.2,172,132.1z M181.3,125.6c0.8-1.2,1.1-3.2,1.1-5.9c0-2.7-0.4-4.7-1.1-5.9
		c-0.8-1.2-1.8-1.9-3.1-1.9s-2.3,0.6-3.1,1.9c-0.8,1.2-1.1,3.2-1.1,5.9c0,2.7,0.4,4.7,1.1,5.9c0.8,1.2,1.8,1.9,3.1,1.9
		S180.5,126.9,181.3,125.6z"/>
	<path class="st2" d="M214.4,127.1v6h-21v-4.8l10.1-9.4c1-0.9,1.6-1.7,2-2.4c0.3-0.7,0.5-1.3,0.5-2c0-0.9-0.3-1.6-0.9-2
		c-0.6-0.5-1.5-0.7-2.6-0.7c-1,0-1.9,0.2-2.8,0.7c-0.8,0.5-1.5,1.1-2.1,1.9l-5.7-3.2c1.1-1.7,2.5-3.1,4.4-4.1s4.1-1.5,6.7-1.5
		c2.1,0,3.9,0.3,5.5,1s2.8,1.6,3.7,2.9c0.9,1.2,1.3,2.7,1.3,4.3c0,1.5-0.3,2.8-0.9,4.1c-0.6,1.3-1.8,2.8-3.6,4.4l-5.1,4.7
		L214.4,127.1L214.4,127.1z"/>
</g>
<radialGradient id="SVGID_3_" cx="339.8032" cy="1500.4036" r="47.4721" gradientTransform="matrix(1.1667 0.3209 0.2453 -2.7547 -535.3361 4156.7524)" gradientUnits="userSpaceOnUse">
	<stop  offset="0.3599" style="stop-color:#8B9DA8"/>
	<stop  offset="0.5426" style="stop-color:#BBCDDC"/>
	<stop  offset="1" style="stop-color:#FFFFFF;stop-opacity:0"/>
</radialGradient>
<path class="st5" d="M269.5,32L250,250c17-19.3,30.4-56.7,34.5-102.2C288.7,102.3,282.3,59.6,269.5,32z"/>
<polygon class="st6" points="310.2,59.2 307.1,95.1 263.2,95.1 266.8,59.2 "/>
<g>
	<path class="st2" d="M284,132.1c-1.8-1.1-3.2-2.7-4.2-4.8c-1-2.1-1.5-4.6-1.5-7.5s0.5-5.4,1.5-7.5s2.4-3.7,4.2-4.8
		c1.8-1.1,3.9-1.7,6.2-1.7c2.3,0,4.3,0.6,6.1,1.7c1.8,1.1,3.2,2.7,4.2,4.8c1,2.1,1.5,4.6,1.5,7.5s-0.5,5.4-1.5,7.5
		c-1,2.1-2.4,3.7-4.2,4.8c-1.8,1.1-3.8,1.7-6.1,1.7C287.9,133.7,285.8,133.2,284,132.1z M293.3,125.6c0.8-1.2,1.1-3.2,1.1-5.9
		c0-2.7-0.4-4.7-1.1-5.9c-0.8-1.2-1.8-1.9-3.1-1.9c-1.3,0-2.3,0.6-3.1,1.9c-0.8,1.2-1.1,3.2-1.1,5.9c0,2.7,0.4,4.7,1.1,5.9
		c0.8,1.2,1.8,1.9,3.1,1.9S292.5,126.9,293.3,125.6z"/>
	<path class="st2" d="M324.4,119.8c1.2,1.4,1.8,3,1.8,5c0,1.6-0.4,3.1-1.3,4.4c-0.9,1.4-2.2,2.5-3.9,3.3c-1.8,0.8-3.9,1.3-6.5,1.3
		c-1.9,0-3.8-0.2-5.6-0.7c-1.9-0.5-3.5-1.1-4.8-2l2.8-5.7c1.1,0.7,2.2,1.3,3.6,1.7c1.3,0.4,2.6,0.6,3.9,0.6s2.4-0.2,3.1-0.7
		c0.8-0.5,1.2-1.2,1.2-2.1c0-1.7-1.4-2.6-4.1-2.6h-3.2v-4.8l4.8-5.2h-10.6v-5.9h19.5v4.8l-5.6,6
		C321.5,117.5,323.2,118.4,324.4,119.8z"/>
</g>
<radialGradient id="SVGID_4_" cx="435.1803" cy="1511.5139" r="47.4722" gradientTransform="matrix(1.1667 0.3209 0.2453 -2.7547 -535.3361 4156.7524)" gradientUnits="userSpaceOnUse">
	<stop  offset="0.3599" style="stop-color:#8B9DA8"/>
	<stop  offset="0.5426" style="stop-color:#BBCDDC"/>
	<stop  offset="1" style="stop-color:#FFFFFF;stop-opacity:0"/>
</radialGradient>
<path class="st7" d="M383.5,32L364,250c17-19.3,30.4-56.7,34.5-102.2C402.7,102.3,396.3,59.6,383.5,32z"/>
<polygon class="st8" points="424.2,59.2 421.1,95.1 377.2,95.1 380.8,59.2 "/>
<g>
	<path class="st2" d="M396,132.1c-1.8-1.1-3.2-2.7-4.2-4.8c-1-2.1-1.5-4.6-1.5-7.5s0.5-5.4,1.5-7.5s2.4-3.7,4.2-4.8
		c1.8-1.1,3.9-1.7,6.2-1.7c2.3,0,4.3,0.6,6.1,1.7c1.8,1.1,3.2,2.7,4.2,4.8c1,2.1,1.5,4.6,1.5,7.5s-0.5,5.4-1.5,7.5
		c-1,2.1-2.4,3.7-4.2,4.8c-1.8,1.1-3.8,1.7-6.1,1.7C399.9,133.7,397.8,133.2,396,132.1z M405.3,125.6c0.8-1.2,1.1-3.2,1.1-5.9
		c0-2.7-0.4-4.7-1.1-5.9c-0.8-1.2-1.8-1.9-3.1-1.9c-1.3,0-2.3,0.6-3.1,1.9c-0.8,1.2-1.1,3.2-1.1,5.9c0,2.7,0.4,4.7,1.1,5.9
		c0.8,1.2,1.8,1.9,3.1,1.9S404.5,126.9,405.3,125.6z"/>
	<path class="st2" d="M443.3,128h-4v5.2h-7.4V128h-14.3v-5l12.1-16.8h7.9l-11,15.8h5.5v-4.6h7.2v4.6h4L443.3,128L443.3,128z"/>
</g>
<rect x="43.1" y="146.3" class="st9" width="100.3" height="12.8"/>
<text transform="matrix(1 0 0 1 43.1705 154.5498)" class="st1 st10 st11">Nivel de Inicio</text>
<rect x="156.1" y="143.9" class="st9" width="100.3" height="23.7"/>
<text transform="matrix(1 0 0 1 156.0796 152.1338)" class="st4 st10 st11">Nivel en </text>
<text transform="matrix(1 0 0 1 156.0796 161.5338)" class="st4 st10 st11">progreso</text>
<rect x="265" y="146.3" class="st9" width="100.3" height="12.8"/>
<text transform="matrix(1 0 0 1 264.9834 154.5498)" class="st12 st10 st11">Nivel intermedio</text>
<rect x="380.3" y="146.3" class="st9" width="100.3" height="12.8"/>
<text transform="matrix(1 0 0 1 380.2969 154.5498)" class="st8 st13 st11">Nivel avanzado</text>
<rect x="43.1" y="161.3" class="st9" width="85.1" height="44"/>
<text transform="matrix(1 0 0 1 43.1705 166.8584)" class="st14"><tspan x="0" y="0" class="st15 st16">Identifica las técnicas </tspan><tspan x="0" y="9.1" class="st15 st16">e instrumentos de </tspan><tspan x="0" y="18.1" class="st15 st16">evaluación de acuerdo </tspan><tspan x="0" y="27.2" class="st15 st16">con los criterios y</tspan><tspan x="0" y="36.3" class="st15 st16">resultados de </tspan><tspan x="0" y="45.4" class="st15 st16">aprendizaje.</tspan></text>
<text transform="matrix(1 0 0 1 156.4447 174.9139)" class="st14"><tspan x="0" y="0" class="st15 st16">Describe las técnicas </tspan><tspan x="0" y="9.1" class="st15 st16">e instrumentos de </tspan><tspan x="0" y="18.1" class="st15 st16">evaluación de acuerdo </tspan><tspan x="0" y="27.2" class="st15 st16">con los criterios y </tspan><tspan x="0" y="36.3" class="st15 st16">resultados de </tspan><tspan x="0" y="45.4" class="st15 st16">aprendizaje.</tspan></text>
<text transform="matrix(1 0 0 1 265.1663 169.6362)" class="st14"><tspan x="0" y="0" class="st15 st16">Explica las técnicas e </tspan><tspan x="0" y="9.1" class="st15 st16">instrumentos de </tspan><tspan x="0" y="18.1" class="st15 st16">evaluación de acuerdo </tspan><tspan x="0" y="27.2" class="st15 st16">con los criterios y </tspan><tspan x="0" y="36.3" class="st15 st16">resultados de </tspan><tspan x="0" y="45.4" class="st15 st16">aprendizaje.</tspan></text>
<text transform="matrix(1 0 0 1 380.8323 169.6362)" class="st14"><tspan x="0" y="0" class="st15 st16">Elabora una rúbrica </tspan><tspan x="0" y="9.1" class="st15 st16">de evaluación para </tspan><tspan x="0" y="18.1" class="st15 st16">el seguimiento de </tspan><tspan x="0" y="27.2" class="st15 st16">los aprendizajes </tspan><tspan x="0" y="36.3" class="st15 st16">de un curso.</tspan></text>
<rect x="155.3" y="167.5" class="st9" width="85.1" height="44"/>
<rect x="380.3" y="161.3" class="st9" width="85.7" height="61.3"/>
<g id="XMLID_26748_">
	<path id="XMLID_26749_" class="st17" d="M73.2,90.1c-3.4,0-6.9,0-10.3,0c1.1-1.1,2.2-2.3,3.3-3.4c0.1,0,0.1,0,0.2,0l0,0l0,0
		c0.1,0,0.2-0.1,0.3-0.3c2.2-5.3,4.4-10.6,6.6-15.8c0.3-0.7,0.6-1.5,0.9-2.2c0-0.1,0-0.1,0-0.1c0.4-1.4-0.1-3-1.6-3.6
		c-1.4-0.6-3.1,0.1-3.7,1.5c-2.2,5.3-4.4,10.6-6.6,15.8c-0.3,0.7-0.6,1.5-0.9,2.2c-0.1,0.2,0,0.4,0.1,0.5c0,0.4,0,0.9,0,1.3
		c0,0.2,0,0.4,0,0.6c0,1.2,0,2.3-0.1,3.5c-4.9,0-9.9,0-14.8,0c-0.7,0-0.7,1.4,0,1.4c8.8,0,17.7,0,26.5,0
		C73.9,91.5,73.9,90.1,73.2,90.1z M73.4,67.3c-1.1-0.4-2.1-0.9-3.2-1.3C71.2,64.6,73.6,65.6,73.4,67.3z M69,68.7
		c0.2-0.6,0.5-1.2,0.7-1.8c1.1,0.5,2.2,0.9,3.3,1.4c-2.1,5.1-4.3,10.2-6.4,15.4c-0.2,0.6-0.5,1.2-0.7,1.8c-1.1-0.5-2.2-0.9-3.3-1.4
		C64.7,78.9,66.9,73.8,69,68.7z M62.6,85.4c0.8,0.3,1.6,0.7,2.5,1c-0.5,0.5-0.9,1-1.4,1.5c-0.4-0.2-0.7-0.3-1.1-0.5
		C62.5,86.7,62.6,86,62.6,85.4z"/>
</g>
<g id="XMLID_28171_">
	<path id="XMLID_28181_" class="st17" d="M190.3,85.1c0.4,0.1,0.7-0.2,0.8-0.5l0.5-2.9c0-0.2,0-0.3-0.1-0.5
		c-0.1-0.1-0.2-0.2-0.4-0.3l-1.1-0.2c-0.1-0.6-0.2-1.2-0.4-1.8l0.9-0.6c0.3-0.2,0.4-0.6,0.2-0.9l-1.6-2.4c-0.1-0.1-0.2-0.2-0.4-0.3
		c-0.2,0-0.3,0-0.5,0.1l-0.9,0.6c-0.5-0.4-1-0.7-1.5-1l0.2-1.1c0.1-0.4-0.2-0.7-0.5-0.8l-2.9-0.5c-0.2,0-0.3,0-0.5,0.1
		c-0.1,0.1-0.2,0.2-0.3,0.4l-0.2,1.1c-0.6,0.1-1.2,0.2-1.8,0.4l-0.6-0.9c-0.1-0.1-0.2-0.2-0.4-0.3c-0.2,0-0.3,0-0.5,0.1l-2.4,1.6
		c-0.1,0.1-0.2,0.2-0.3,0.4c0,0.2,0,0.3,0.1,0.5l0.6,0.9c-0.4,0.5-0.7,1-1,1.5l-1.1-0.2c-0.2,0-0.3,0-0.5,0.1
		c-0.1,0.1-0.2,0.2-0.3,0.4l-0.5,2.9c-0.1,0.4,0.2,0.7,0.5,0.8l1.1,0.2c0.1,0.6,0.2,1.2,0.4,1.8l-0.9,0.6c-0.1,0.1-0.2,0.2-0.3,0.4
		c0,0.2,0,0.3,0.1,0.5l1.6,2.4c0.1,0.1,0.2,0.2,0.4,0.3c0.2,0,0.3,0,0.5-0.1l0.9-0.6c0.5,0.4,1,0.7,1.5,1l-0.2,1.1
		c-0.1,0.4,0.2,0.7,0.5,0.8l2.9,0.5h0.1c0.3,0,0.6-0.2,0.6-0.5l0.2-1.1c0.6-0.1,1.2-0.2,1.8-0.4l0.6,0.9c0.1,0.1,0.2,0.2,0.4,0.3
		c0.2,0,0.3,0,0.5-0.1l2.4-1.6c0.3-0.2,0.4-0.6,0.2-0.9l-0.6-0.9c0.4-0.5,0.7-1,1-1.5L190.3,85.1z M188.2,83.9
		c-0.3,0.7-0.8,1.4-1.3,2c-0.2,0.2-0.2,0.6-0.1,0.8l0.6,0.8l-1.3,0.9l-0.6-0.8c-0.2-0.3-0.5-0.4-0.8-0.2c-0.8,0.3-1.5,0.5-2.3,0.5
		c-0.3,0-0.6,0.2-0.6,0.5l-0.2,1l-1.6-0.3l0.2-1c0.1-0.3-0.1-0.6-0.4-0.7c-0.7-0.3-1.4-0.8-2-1.3c-0.2-0.2-0.6-0.2-0.8-0.1l-0.8,0.6
		l-0.9-1.3l0.8-0.6c0.3-0.2,0.4-0.5,0.2-0.8c-0.3-0.8-0.5-1.5-0.5-2.3c0-0.3-0.2-0.6-0.5-0.6l-1-0.2l0.3-1.6l1,0.2
		c0.3,0.1,0.6-0.1,0.7-0.4c0.3-0.7,0.8-1.4,1.3-2c0.2-0.2,0.2-0.6,0.1-0.8l-0.6-0.8l1.3-0.9l0.6,0.8c0.2,0.3,0.5,0.4,0.8,0.2
		c0.8-0.3,1.5-0.5,2.3-0.5c0.3,0,0.6-0.2,0.6-0.5l0.2-1l1.6,0.3l-0.2,1c-0.1,0.3,0.1,0.6,0.4,0.7c0.7,0.3,1.4,0.8,2,1.3
		c0.2,0.2,0.6,0.2,0.8,0.1l0.8-0.6l0.9,1.3l-0.8,0.6c-0.3,0.2-0.4,0.5-0.2,0.8c0.3,0.8,0.5,1.5,0.5,2.3c0,0.3,0.2,0.6,0.5,0.6l1,0.2
		l-0.3,1.6l-1-0.2C188.6,83.4,188.3,83.6,188.2,83.9z"/>
	<path id="XMLID_28178_" class="st17" d="M183.1,76.8c-1.2-0.2-2.5,0-3.5,0.7s-1.7,1.8-2,3c-0.2,1.2,0,2.5,0.7,3.5s1.8,1.7,3,2l0,0
		c0.3,0.1,0.6,0.1,0.9,0.1c2.2,0,4.2-1.6,4.6-3.8C187.3,79.7,185.6,77.2,183.1,76.8z M185.5,82c-0.2,0.9-0.7,1.7-1.4,2.2
		s-1.6,0.7-2.5,0.5l0,0c-0.9-0.2-1.7-0.7-2.2-1.4c-0.5-0.7-0.7-1.6-0.5-2.5s0.7-1.7,1.4-2.2c0.6-0.4,1.2-0.6,1.9-0.6
		c0.2,0,0.4,0,0.6,0.1C184.7,78.4,185.9,80.2,185.5,82z"/>
	<path id="XMLID_28175_" class="st17" d="M161.4,74.3c0,0.3,0.3,0.5,0.6,0.4l0.8-0.1c0.2,0.4,0.4,0.8,0.7,1.2l-0.5,0.7
		c-0.1,0.1-0.1,0.2-0.1,0.4c0,0.1,0.1,0.2,0.2,0.3l1.8,1.3c0.2,0.2,0.5,0.1,0.7-0.1l0.5-0.7c0.4,0.2,0.9,0.3,1.3,0.3l0.1,0.8
		c0,0.1,0.1,0.2,0.2,0.3c0.1,0.1,0.2,0.1,0.3,0.1c0,0,0,0,0.1,0l2.2-0.3c0.3,0,0.5-0.3,0.4-0.6l-0.1-0.8c0.4-0.2,0.8-0.4,1.2-0.7
		l0.7,0.5c0.2,0.2,0.5,0.1,0.7-0.1l1.3-1.8c0.2-0.2,0.1-0.5-0.1-0.7l-0.7-0.5c0.2-0.4,0.3-0.9,0.3-1.3l0.8-0.1
		c0.1,0,0.2-0.1,0.3-0.2s0.1-0.2,0.1-0.4l-0.3-2.2c0-0.3-0.3-0.5-0.6-0.4l-0.8,0.1c-0.2-0.4-0.4-0.8-0.7-1.2l0.5-0.7
		c0.1-0.1,0.1-0.2,0.1-0.4c0-0.1-0.1-0.2-0.2-0.3l-1.8-1.3c-0.1-0.1-0.2-0.1-0.4-0.1c-0.1,0-0.2,0.1-0.3,0.2l-0.5,0.7
		c-0.4-0.2-0.9-0.3-1.3-0.3l-0.1-0.8c0-0.3-0.3-0.5-0.6-0.4l-2.2,0.3c-0.1,0-0.2,0.1-0.3,0.2s-0.1,0.2-0.1,0.4l0.1,0.8
		c-0.4,0.2-0.8,0.4-1.2,0.7l-0.7-0.5c-0.1-0.1-0.2-0.1-0.4-0.1c-0.1,0-0.2,0.1-0.3,0.2l-1.3,1.8c-0.1,0.1-0.1,0.2-0.1,0.4
		c0,0.1,0.1,0.2,0.2,0.3l0.7,0.5c-0.2,0.4-0.3,0.9-0.3,1.3l-0.8,0.1c-0.1,0-0.2,0.1-0.3,0.2s-0.1,0.2-0.1,0.4L161.4,74.3z
		 M162.8,72.4c0.2,0,0.4-0.2,0.4-0.5c0-0.6,0.2-1.2,0.4-1.7c0.1-0.2,0-0.5-0.2-0.6l-0.6-0.4l0.7-1l0.6,0.4c0.2,0.1,0.4,0.1,0.6,0
		c0.5-0.4,1-0.7,1.5-0.9c0.2-0.1,0.4-0.3,0.3-0.5l-0.1-0.7l1.2-0.2L168,67c0,0.2,0.2,0.4,0.5,0.4c0.6,0,1.2,0.2,1.7,0.4
		c0.2,0.1,0.5,0,0.6-0.2l0.4-0.6l1,0.7l-0.4,0.6c-0.1,0.2-0.1,0.4,0,0.6c0.4,0.5,0.7,1,0.9,1.5c0.1,0.2,0.3,0.4,0.5,0.3l0.7-0.1
		l0.2,1.2l-0.7,0.1c-0.2,0-0.4,0.2-0.4,0.5c0,0.6-0.2,1.2-0.4,1.7c-0.1,0.2,0,0.5,0.2,0.6l0.6,0.4l-0.7,1l-0.6-0.4
		c-0.2-0.1-0.4-0.1-0.6,0c-0.5,0.4-1,0.7-1.5,0.9c-0.2,0.1-0.4,0.3-0.3,0.5l0.1,0.7l-1.2,0.2l-0.1-0.7c0-0.2-0.2-0.4-0.5-0.4
		c-0.6,0-1.2-0.2-1.7-0.4c-0.1,0-0.1,0-0.2,0c-0.2,0-0.3,0.1-0.4,0.2l-0.4,0.6l-1-0.7l0.4-0.6c0.1-0.2,0.1-0.4,0-0.6
		c-0.4-0.5-0.7-1-0.9-1.5c-0.1-0.2-0.3-0.4-0.5-0.3l-0.7,0.1l-0.2-1.2L162.8,72.4z"/>
	<path id="XMLID_28172_" class="st17" d="M168.1,75.8c0.2,0,0.3,0,0.5,0c1.9-0.3,3.3-2.1,3-4s-2.1-3.3-4-3s-3.3,2.1-3,4
		C164.9,74.5,166.4,75.8,168.1,75.8z M167.7,69.7c0.1,0,0.2,0,0.4,0c1.2,0,2.3,0.9,2.5,2.2c0.2,1.4-0.8,2.7-2.2,2.9
		c-1.4,0.2-2.7-0.8-2.9-2.2C165.4,71.2,166.4,69.9,167.7,69.7z"/>
</g>
<g id="XMLID_26276_">
	<path id="XMLID_26277_" class="st17" d="M400,91.9c6.2,0,11.3-5.1,11.3-11.3c0-2.9-1.1-5.6-3-7.6l2.1-2.1c0.1,0.1,0.2,0.2,0.3,0.2
		l4.4,0.5c0,0,0,0,0.1,0c0.2,0,0.4-0.2,0.5-0.4c0-0.3-0.2-0.5-0.4-0.5l-4.2-0.5l1.2-1.2c0,0,0,0,0.1,0l4.4,0.5c0,0,0,0,0.1,0
		c0.2,0,0.4-0.2,0.5-0.4c0-0.3-0.2-0.5-0.4-0.5l-3.8-0.4l2.3-2.3c0.2-0.2,0.2-0.5,0-0.7s-0.5-0.2-0.7,0l-2.3,2.3l-1.2-3.2
		c-0.1-0.2-0.4-0.4-0.6-0.3s-0.4,0.4-0.3,0.6l1.4,3.5l0,0l-1,1l-1.2-3.3c-0.1-0.2-0.4-0.4-0.6-0.3s-0.4,0.4-0.3,0.6l1.4,3.6l0,0
		l-2.4,2.4c-2-1.9-4.7-3-7.6-3c-6.2,0-11.3,5.1-11.3,11.3C388.7,86.9,393.8,91.9,400,91.9z M400,70.3c2.7,0,5.1,1,7,2.7l-2.2,2.2
		c-1.3-1.1-2.9-1.8-4.7-1.8c-4,0-7.2,3.2-7.2,7.2s3.2,7.2,7.2,7.2s7.2-3.2,7.2-7.2c0-1.8-0.7-3.5-1.8-4.7l2.2-2.2
		c1.7,1.8,2.7,4.3,2.7,7c0,5.7-4.6,10.3-10.3,10.3c-5.7,0-10.3-4.6-10.3-10.3C389.7,74.9,394.3,70.3,400,70.3z M399.7,81
		c0.1,0.1,0.2,0.1,0.3,0.1c0.1,0,0.2,0,0.3-0.1l1.5-1.5c0.2,0.3,0.3,0.7,0.3,1.1c0,1.2-1,2.1-2.1,2.1c-1.2,0-2.1-1-2.1-2.1
		c0-1.2,1-2.1,2.1-2.1c0.4,0,0.8,0.1,1.1,0.3l-1.5,1.5C399.5,80.5,399.5,80.8,399.7,81z M401.8,78.2c-0.5-0.4-1.1-0.6-1.8-0.6
		c-1.7,0-3.1,1.4-3.1,3.1s1.4,3.1,3.1,3.1s3.1-1.4,3.1-3.1c0-0.7-0.2-1.3-0.6-1.8l2.3-2.3c0.9,1.1,1.5,2.5,1.5,4.1
		c0,3.4-2.8,6.2-6.2,6.2c-3.4,0-6.2-2.8-6.2-6.2c0-3.4,2.8-6.2,6.2-6.2c1.5,0,3,0.6,4.1,1.5L401.8,78.2z"/>
</g>
<g id="XMLID_26707_">
	<path id="XMLID_26714_" class="st17" d="M301.7,69.6c0-0.1-0.1-0.1-0.1-0.1l0,0c-0.2-0.2-0.5-0.3-0.8-0.2c-0.3,0.1-0.5,0.3-0.6,0.6
		c-0.1,0.2-0.2,0.5-0.4,0.6c-0.4,0.3-0.9,0.4-1.4,0.3c-0.5-0.2-0.9-0.6-0.9-1.3v-0.1c0.1-0.7,0.6-1.1,1.1-1.2
		c0.3-0.1,0.5-0.3,0.6-0.5c0.1-0.3,0-0.6-0.2-0.8l-1.9-2c-0.1-0.1-0.2-0.2-0.4-0.2h-0.1c-0.2,0-0.4,0.1-0.5,0.2l-1.8,1.6
		c-0.1-0.2-0.2-0.5-0.4-0.7c-0.8-0.9-2.3-1-3.2-0.1c-0.9,0.9-1,2.3-0.1,3.2c0.2,0.2,0.4,0.4,0.6,0.5l-1.8,1.7l-0.1,0.1
		c-0.1,0.1-0.1,0.3-0.2,0.4v0.1c0,0.2,0.1,0.3,0.2,0.4l1.9,2.1c0.2,0.2,0.5,0.3,0.8,0.2c0.3-0.1,0.5-0.3,0.6-0.6
		c0.2-0.6,0.6-0.9,1.3-1h0.1c0.6,0.1,1,0.5,1.2,1c0.1,0.5,0,1-0.4,1.3c-0.2,0.2-0.4,0.3-0.7,0.3c-0.3,0-0.5,0.3-0.6,0.5
		c-0.1,0.3,0,0.6,0.2,0.8l0,0l0.1,0.1l1.8,1.9c0.1,0.1,0.3,0.2,0.5,0.2c0,0,0,0,0.1,0c0,0,0,0,0.1,0s0.2,0,0.3-0.1
		c0,0,0.1-0.1,0.2-0.1l2-1.8c0,0,0,0,0.1-0.1c0.1-0.2,0.2-0.5,0.1-0.7s-0.2-0.4-0.5-0.5c-0.2-0.1-0.4-0.2-0.5-0.3
		c-0.2-0.3-0.4-0.6-0.3-1c0-0.4,0.2-0.7,0.5-0.9l0,0c0.3-0.3,0.6-0.4,1-0.4s0.7,0.2,1,0.4c0.1,0.2,0.2,0.3,0.3,0.5
		c0.1,0.2,0.2,0.4,0.5,0.5c0.2,0.1,0.5,0.1,0.7-0.1c0,0,0.1,0,0.1-0.1l1.9-1.8c0.1-0.1,0.2-0.2,0.2-0.4v-0.1c0-0.2-0.1-0.4-0.2-0.5
		L301.7,69.6z M301.1,73.5c-0.1-0.2-0.2-0.4-0.4-0.6c-0.4-0.5-1-0.7-1.7-0.7c-0.6,0-1.2,0.2-1.7,0.7c-0.5,0.4-0.8,1-0.8,1.6
		s0.2,1.2,0.6,1.7c0.2,0.2,0.4,0.3,0.6,0.5l-1.5,1.4l-1.5-1.7c0.3-0.1,0.6-0.3,0.8-0.5c0.6-0.6,0.9-1.5,0.7-2.3
		c-0.2-0.9-0.9-1.5-1.9-1.7c-0.1,0-0.3,0-0.4,0c-0.9,0.1-1.7,0.7-2,1.4l-1.5-1.6l1.8-1.7c0.1-0.1,0.1-0.2,0.2-0.2
		c0.1-0.2,0.1-0.4,0.1-0.6c-0.1-0.2-0.2-0.4-0.5-0.5c-0.2-0.1-0.4-0.2-0.5-0.3c-0.5-0.5-0.5-1.4,0.1-1.9c0.5-0.5,1.4-0.4,1.9,0.1
		c0.1,0.2,0.2,0.3,0.3,0.5c0.1,0.2,0.2,0.4,0.4,0.5c0.2,0.1,0.4,0.1,0.6,0c0.1,0,0.2-0.1,0.3-0.2l1.8-1.6l1.5,1.6
		c-0.8,0.3-1.4,0.9-1.6,1.9c0,0.1,0,0.3,0,0.4c0.1,1,0.7,1.7,1.6,2c0.8,0.3,1.7,0.1,2.3-0.5c0.2-0.2,0.4-0.5,0.5-0.8l1.5,1.7
		L301.1,73.5z"/>
	<path id="XMLID_26708_" class="st17" d="M277.3,91.1c0,0.4,0.4,0.8,0.8,0.8l0,0l9-0.1c0,0,0,0,0.1,0s0.2,0.1,0.3,0.1h2.8h0.1
		c0.2,0,0.4-0.2,0.5-0.4c0.1-0.2,0.1-0.5,0-0.7c-0.1-0.3-0.3-0.8,0.2-1.6c0,0,0-0.1,0.1-0.1c0.3-0.2,0.6-0.3,1-0.3
		c0.7,0,1.3,0.6,1.3,1.3c0,0.2,0,0.4-0.1,0.6s-0.1,0.5,0,0.7s0.3,0.4,0.6,0.4h0.1h2.7c0.2,0,0.4-0.1,0.6-0.2
		c0.1-0.1,0.2-0.3,0.2-0.6v-2.8c0-0.4-0.3-0.8-0.8-0.8c-0.2,0-0.3,0-0.4,0.1c-0.2,0.1-0.5,0.2-0.7,0.2c-0.5,0-1-0.3-1.2-0.7
		c-0.3-0.5-0.2-1,0.2-1.6c0,0,0-0.1,0.1-0.1c0.3-0.2,0.6-0.3,1-0.3c0.3,0,0.5,0.1,0.7,0.2c0.3,0.2,0.7,0.1,1-0.1
		c0.1-0.1,0.2-0.3,0.2-0.5v-2.8c0-0.4-0.4-0.8-0.8-0.8h-2.4c0.1-0.2,0.1-0.5,0.1-0.8c0-1.3-1-2.3-2.3-2.3c-0.5,0-1,0.2-1.5,0.5
		c0.1-0.1,0.1-0.2,0.2-0.3c0.4-0.8,0.3-1.8-0.2-2.6c-0.1-0.1-0.2-0.2-0.3-0.3c-0.7-0.5-1.5-0.6-2.3-0.4v-2.4c0-0.4-0.4-0.8-0.8-0.8
		H285c0.3-0.7,0.1-1.6-0.4-2.3c-0.1-0.1-0.2-0.2-0.3-0.3c-0.5-0.3-1-0.5-1.5-0.5l0,0c-0.6,0-1.2,0.2-1.6,0.7c-0.4,0.4-0.7,1-0.7,1.6
		c0,0.3,0,0.5,0.1,0.8h-2.4c-0.2,0-0.4,0.1-0.6,0.2c-0.1,0.1-0.2,0.3-0.2,0.6v2.8v0.1c0.1,0.4,0.4,0.6,0.8,0.6c0.1,0,0.2,0,0.4-0.1
		c0.5-0.2,1-0.2,1.6,0.2c0,0,0.1,0,0.1,0.1c0.4,0.5,0.4,1.1,0.2,1.6c-0.2,0.4-0.7,0.7-1.2,0.7c-0.2,0-0.4,0-0.6-0.1
		c-0.1-0.1-0.2-0.1-0.3-0.1c-0.4,0-0.7,0.3-0.8,0.6v0.1v2.7c0,0.1,0,0.1,0,0.2l0,0v2.3c-0.7-0.3-1.6-0.1-2.3,0.4
		c-0.1,0.1-0.2,0.2-0.3,0.3c-0.6,0.8-0.6,1.8-0.2,2.6c0.4,0.8,1.2,1.2,2.1,1.2c0.3,0,0.5,0,0.8-0.1L277.3,91.1z M290.8,81.8
		c0.1-0.2,0.2-0.5,0-0.8c-0.1-0.3-0.3-0.8,0.2-1.5c0,0,0-0.1,0.1-0.1c0.3-0.2,0.6-0.3,1-0.3c0.7,0,1.3,0.6,1.3,1.3
		c0,0.2,0,0.4-0.1,0.6s-0.1,0.5,0,0.7s0.4,0.4,0.7,0.4h2.5v2.3c-0.8-0.3-1.7-0.2-2.4,0.3c-0.1,0.1-0.2,0.2-0.3,0.3
		c-0.6,0.8-0.6,1.8-0.2,2.6c0.4,0.8,1.2,1.2,2.1,1.2c0.3,0,0.7-0.1,1-0.2v2.3h-2.1c0.1-0.2,0.1-0.5,0.1-0.8c0-1.3-1-2.3-2.3-2.3
		c-0.5,0-1,0.2-1.5,0.5c-0.1,0.1-0.2,0.2-0.3,0.3c-0.5,0.7-0.6,1.5-0.4,2.3h-2.3v-2.5c0-0.4-0.4-0.8-0.8-0.8c-0.1,0-0.2,0-0.4,0.1
		c-0.2,0.1-0.4,0.2-0.6,0.2c-0.5,0-1-0.3-1.2-0.7c-0.3-0.5-0.2-1,0.2-1.6c0,0,0-0.1,0.1-0.1c0.5-0.4,1.1-0.4,1.6-0.2
		c0.3,0.2,0.7,0.1,0.9-0.1c0.1-0.1,0.2-0.3,0.2-0.6v-2.5h2.5C290.4,82.1,290.6,82,290.8,81.8z M289.8,81.2h-1.9v-1.8
		c0.2,0.1,0.5,0.1,0.8,0.1c0.5,0,1.1-0.2,1.5-0.5C289.7,79.7,289.6,80.5,289.8,81.2z M279,79.6c0.9,0,1.6-0.5,2-1.2
		c0.4-0.8,0.3-1.8-0.2-2.6c-0.1-0.1-0.2-0.2-0.3-0.3c-0.7-0.5-1.5-0.6-2.3-0.4v-2.3h2.5c0.3,0,0.5-0.1,0.7-0.4
		c0.1-0.2,0.1-0.5,0-0.8c-0.1-0.2-0.2-0.4-0.2-0.6c0-0.4,0.1-0.7,0.4-1s0.6-0.4,1-0.4l0,0c0.3,0,0.6,0.1,0.9,0.3c0,0,0.1,0,0.1,0.1
		c0.4,0.5,0.4,1.1,0.2,1.6c-0.1,0.2-0.1,0.5,0,0.8c0.1,0.2,0.4,0.4,0.7,0.4h2.5v2.5c0,0.4,0.4,0.8,0.8,0.8c0.1,0,0.2,0,0.4-0.1
		c0.5-0.2,1-0.2,1.6,0.2c0,0,0.1,0,0.1,0.1c0.4,0.5,0.4,1.1,0.2,1.6c-0.2,0.4-0.7,0.7-1.2,0.7c-0.2,0-0.4,0-0.6-0.1
		c-0.3-0.1-0.7-0.1-0.9,0.1c-0.1,0.1-0.2,0.3-0.2,0.6v2.3l-0.1,0.1l0,0l0,0l0,0v0.1h-2.4c-0.1,0-0.2-0.1-0.3-0.1
		c-0.1-0.1,0-0.2,0-0.3c0.4-0.7,0.4-1.5-0.1-2.2c-0.1-0.1-0.1-0.1-0.2-0.2c-0.4-0.3-0.8-0.4-1.2-0.4c-0.5,0-0.9,0.2-1.3,0.5
		c-0.3,0.3-0.5,0.8-0.5,1.3c0,0.3,0.1,0.7,0.3,1c0.1,0.1,0.1,0.2,0,0.3c-0.1,0.1-0.1,0.2-0.3,0.2h-2.6v-2.1
		C278.4,79.6,278.7,79.6,279,79.6z M276.5,87.9c-0.5,0-1-0.3-1.2-0.7c-0.3-0.5-0.2-1,0.2-1.6c0,0,0,0,0.1-0.1
		c0.5-0.4,1.1-0.4,1.6-0.2c0.2,0.1,0.5,0.1,0.8,0c0.2-0.1,0.4-0.4,0.4-0.7v-2h2.6c0.5,0,0.9-0.3,1.1-0.7c0.2-0.4,0.2-0.9-0.1-1.3
		c-0.1-0.1-0.1-0.3-0.1-0.5s0.1-0.4,0.2-0.6c0.3-0.3,0.8-0.3,1.2,0c0.2,0.2,0.4,0.7,0.1,1.1c-0.2,0.4-0.3,0.9,0,1.3
		c0.2,0.4,0.6,0.6,1.1,0.6h2.3v1.8c-0.7-0.3-1.6-0.1-2.3,0.4c-0.1,0.1-0.2,0.2-0.3,0.3c-0.6,0.8-0.6,1.8-0.2,2.6
		c0.4,0.8,1.2,1.2,2.1,1.2c0.3,0,0.5,0,0.8-0.1v2.1c0,0,0,0-0.1,0.1h-8.4v-2.5c0-0.3-0.1-0.5-0.4-0.7c-0.2-0.1-0.5-0.1-0.8,0
		C277,87.8,276.8,87.9,276.5,87.9z"/>
</g>
</svg>
