<?xml version="1.0" encoding="utf-8"?>
<!-- Generator: Adobe Illustrator 24.1.0, SVG Export Plug-In . SVG Version: 6.00 Build 0)  -->
<svg version="1.1" xmlns="http://www.w3.org/2000/svg" xmlns:xlink="http://www.w3.org/1999/xlink" x="0px" y="0px"
	 viewBox="0 0 800 533.3" style="enable-background:new 0 0 800 533.3;" xml:space="preserve">
<style type="text/css">
	.st0{opacity:0.6;}
	.st1{clip-path:url(#SVGID_2_);fill:#DFDFDF;}
	.st2{clip-path:url(#SVGID_2_);fill:#F5F5F5;}
	.st3{clip-path:url(#SVGID_2_);}
	.st4{fill:#95B03F;}
	.st5{fill:#718430;}
	.st6{fill:#F5F5F5;}
	.st7{fill:#F4F4F4;}
	.st8{fill:#DFDFDF;}
	.st9{fill:#64A7DD;}
	.st10{fill:#FFFFFF;}
	.st11{clip-path:url(#SVGID_2_);fill:#648FC5;}
	.st12{fill:#F3D9AE;}
	.st13{fill:#383952;}
	.st14{fill:#4E3F4F;}
	.st15{fill:#C56043;}
	.st16{fill:#92CEBC;}
	.st17{fill:#ACB03F;}
	.st18{fill:#6F9A8D;}
	.st19{fill:#210020;}
	.st20{fill:#DB342F;}
	.st21{fill:#80BBAA;}
	.st22{fill:url(#SVGID_5_);}
	.st23{fill:url(#SVGID_6_);}
	.st24{fill:none;stroke:#FFFFFF;stroke-width:2.5013;stroke-miterlimit:10;}
	.st25{fill:none;stroke:#FFFFFF;stroke-width:2.5013;stroke-miterlimit:10;stroke-dasharray:13.7323,13.7323;}
	.st26{opacity:0.76;fill:url(#SVGID_7_);}
	.st27{fill:url(#SVGID_8_);}
	.st28{fill:url(#SVGID_9_);}
	.st29{fill:#393762;}
	.st30{fill:#BDB3A1;}
	.st31{fill:#F6BA99;}
	.st32{fill:#F2957E;}
	.st33{fill:#DA5955;}
	.st34{fill:#7EB9F5;}
	.st35{fill:#F8C6AB;}
	.st36{fill:none;stroke:#393762;stroke-width:0.2253;stroke-miterlimit:10;}
	.st37{fill:url(#SVGID_10_);}
	.st38{fill:url(#SVGID_11_);}
	.st39{opacity:0.76;fill:url(#SVGID_12_);}
	.st40{fill:url(#SVGID_13_);}
	.st41{fill:url(#SVGID_14_);}
	.st42{fill:url(#SVGID_15_);}
	.st43{fill:url(#SVGID_16_);}
	.st44{opacity:0.76;fill:url(#SVGID_17_);}
	.st45{fill:url(#SVGID_18_);}
	.st46{fill:url(#SVGID_19_);}
	.st47{fill:url(#SVGID_20_);}
	.st48{fill:url(#SVGID_21_);}
	.st49{fill:none;stroke:#393762;stroke-width:0.2172;stroke-miterlimit:10;}
	.st50{fill:#DECBB6;}
	.st51{opacity:0.76;fill:url(#SVGID_22_);}
	.st52{fill:#BD5955;}
	.st53{fill:#39374A;}
	.st54{opacity:0.76;fill:url(#SVGID_23_);}
	.st55{opacity:0.76;fill:url(#SVGID_24_);}
	.st56{fill:#7EA2F5;}
	.st57{fill:none;stroke:#393762;stroke-width:0.2504;stroke-miterlimit:10;}
	.st58{opacity:0.76;fill:url(#SVGID_25_);}
	.st59{fill:url(#SVGID_26_);}
	.st60{fill:url(#SVGID_27_);}
	.st61{fill:url(#SVGID_28_);}
	.st62{fill:url(#SVGID_29_);}
	.st63{fill:url(#SVGID_30_);}
	.st64{fill:url(#SVGID_31_);}
	.st65{fill:url(#SVGID_32_);}
	.st66{fill:url(#SVGID_33_);}
	.st67{fill:url(#SVGID_34_);}
	.st68{fill:url(#SVGID_35_);}
	.st69{fill:url(#SVGID_36_);}
	.st70{fill:url(#SVGID_37_);}
	.st71{fill:url(#SVGID_38_);}
	.st72{fill:url(#SVGID_39_);}
	.st73{fill:url(#SVGID_40_);}
	.st74{fill:url(#SVGID_41_);}
	.st75{fill:url(#SVGID_42_);}
	.st76{fill:url(#SVGID_43_);}
	.st77{fill:url(#SVGID_44_);}
	.st78{fill:url(#SVGID_45_);}
	.st79{fill:url(#SVGID_46_);}
	.st80{fill:url(#SVGID_47_);}
	.st81{fill:url(#SVGID_48_);}
	.st82{fill:url(#SVGID_49_);}
	.st83{fill:url(#SVGID_50_);}
	.st84{fill:url(#SVGID_51_);}
	.st85{fill:url(#SVGID_52_);}
	.st86{fill:url(#SVGID_53_);}
	.st87{fill:url(#SVGID_54_);}
	.st88{fill:url(#SVGID_55_);}
</style>
<g id="BACKGRPOUND">
	<g id="background_with_map" class="st0">
		<defs>
			<rect id="SVGID_1_" x="-64.4" y="-54.4" class="st0" width="941.9" height="644.6"/>
		</defs>
		<clipPath id="SVGID_2_">
			<use xlink:href="#SVGID_1_"  style="overflow:visible;"/>
		</clipPath>
		<rect x="-101.8" y="-185.7" class="st1" width="1209.5" height="962.2"/>
		<rect x="315.2" y="-116.2" class="st2" width="15" height="416.8"/>
		<rect x="473.2" y="542.9" class="st2" width="11.9" height="367.6"/>
		<rect x="326.6" y="240.5" class="st2" width="346.1" height="15"/>
		<rect x="-101.8" y="49.5" class="st2" width="864" height="15"/>
		<rect x="-25.3" y="-185.6" class="st2" width="22.2" height="334.5"/>
		<rect x="-119.3" y="-104.7" class="st2" width="263.2" height="13.7"/>
		<rect x="255.9" y="605" class="st2" width="223.2" height="13.7"/>
		<g class="st3">
			<g>
				<path class="st4" d="M-31.6,206.1c0,10.7,8.8,19.4,19.7,19.4v-38.8C-22.8,186.7-31.6,195.4-31.6,206.1z"/>
				<path class="st5" d="M-11.9,186.7v38.8c10.9,0,19.7-8.7,19.7-19.4C7.8,195.4-1.1,186.7-11.9,186.7z"/>
			</g>
			<g>
				<rect x="-13.4" y="197.6" class="st4" width="1.4" height="50.2"/>
				<polygon class="st5" points="-10.5,197.6 -11.6,197.6 -11.9,197.6 -11.9,247.9 -10.5,247.9 				"/>
			</g>
		</g>
		<g class="st3">
			<g>
				<path class="st4" d="M27.3,206.1c0,10.7,8.8,19.4,19.7,19.4v-38.8C36.1,186.7,27.3,195.4,27.3,206.1z"/>
				<path class="st5" d="M46.9,186.7v38.8c10.9,0,19.7-8.7,19.7-19.4C66.6,195.4,57.8,186.7,46.9,186.7z"/>
			</g>
			<g>
				<rect x="45.5" y="197.6" class="st4" width="1.4" height="50.2"/>
				<polygon class="st5" points="48.4,197.6 47.3,197.6 46.9,197.6 46.9,247.9 48.4,247.9 				"/>
			</g>
		</g>
		<g class="st3">
			<g>
				<path class="st4" d="M-31.6,371c0,10.7,8.8,19.4,19.7,19.4v-38.8C-22.8,351.6-31.6,360.3-31.6,371z"/>
				<path class="st5" d="M-11.9,351.6v38.8c10.9,0,19.7-8.7,19.7-19.4C7.8,360.3-1.1,351.6-11.9,351.6z"/>
			</g>
			<g>
				<rect x="-13.4" y="362.6" class="st4" width="1.4" height="50.2"/>
				<polygon class="st5" points="-10.5,362.6 -11.6,362.6 -11.9,362.6 -11.9,412.8 -10.5,412.8 				"/>
			</g>
		</g>
		<g class="st3">
			<g>
				<path class="st4" d="M27.3,371c0,10.7,8.8,19.4,19.7,19.4v-38.8C36.1,351.6,27.3,360.3,27.3,371z"/>
				<path class="st5" d="M46.9,351.6v38.8c10.9,0,19.7-8.7,19.7-19.4C66.6,360.3,57.8,351.6,46.9,351.6z"/>
			</g>
			<g>
				<rect x="45.5" y="362.6" class="st4" width="1.4" height="50.2"/>
				<polygon class="st5" points="48.4,362.6 47.3,362.6 46.9,362.6 46.9,412.8 48.4,412.8 				"/>
			</g>
		</g>
		<g class="st3">
			<g>
				<g>
					<path class="st4" d="M601.2,186.3c0,10.7,8.8,19.4,19.7,19.4v-38.8C610,166.9,601.2,175.6,601.2,186.3z"/>
					<path class="st5" d="M620.9,166.9v38.8c10.9,0,19.7-8.7,19.7-19.4C640.5,175.6,631.7,166.9,620.9,166.9z"/>
				</g>
				<g>
					<rect x="619.4" y="177.9" class="st4" width="1.4" height="50.2"/>
					<polygon class="st5" points="622.3,177.9 621.2,177.9 620.9,177.9 620.9,228.1 622.3,228.1 					"/>
				</g>
			</g>
		</g>
		<g class="st3">
			<g>
				<g>
					<path class="st4" d="M351,294.9c0,10.7,8.8,19.4,19.7,19.4v-38.8C359.8,275.5,351,284.2,351,294.9z"/>
					<path class="st5" d="M370.7,275.5v38.8c10.9,0,19.7-8.7,19.7-19.4C390.4,284.2,381.6,275.5,370.7,275.5z"/>
				</g>
				<g>
					<rect x="369.3" y="286.4" class="st4" width="1.4" height="50.2"/>
					<polygon class="st5" points="372.1,286.4 371,286.4 370.7,286.4 370.7,336.7 372.1,336.7 					"/>
				</g>
			</g>
		</g>
		<g class="st3">
			<g>
				<path class="st4" d="M-52.1,288.5c0,10.7,8.8,19.4,19.7,19.4v-38.8C-43.3,269.2-52.1,277.8-52.1,288.5z"/>
				<path class="st5" d="M-32.4,269.2v38.8c10.9,0,19.7-8.7,19.7-19.4C-12.7,277.8-21.6,269.2-32.4,269.2z"/>
			</g>
			<g>
				<rect x="-33.8" y="280.1" class="st4" width="1.4" height="50.2"/>
				<polygon class="st5" points="-31,280.1 -32.1,280.1 -32.4,280.1 -32.4,330.4 -31,330.4 				"/>
			</g>
		</g>
		<g class="st3">
			<g>
				<path class="st4" d="M6.8,288.5c0,10.7,8.8,19.4,19.7,19.4v-38.8C15.6,269.2,6.8,277.8,6.8,288.5z"/>
				<path class="st5" d="M26.5,269.2v38.8c10.9,0,19.7-8.7,19.7-19.4C46.1,277.8,37.3,269.2,26.5,269.2z"/>
			</g>
			<g>
				<rect x="25" y="280.1" class="st4" width="1.4" height="50.2"/>
				<polygon class="st5" points="27.9,280.1 26.8,280.1 26.5,280.1 26.5,330.4 27.9,330.4 				"/>
			</g>
		</g>
		<g class="st3">
			<g>
				<path class="st4" d="M114.6-5.4c0,10.7,8.8,19.4,19.7,19.4v-38.8C123.5-24.8,114.6-16.1,114.6-5.4z"/>
				<path class="st5" d="M134.3-24.8V14C145.2,14,154,5.3,154-5.4C154-16.1,145.2-24.8,134.3-24.8z"/>
			</g>
			<g>
				<rect x="132.9" y="-13.8" class="st4" width="1.4" height="50.2"/>
				<polygon class="st5" points="135.7,-13.8 134.6,-13.8 134.3,-13.8 134.3,36.4 135.7,36.4 				"/>
			</g>
		</g>
		<g class="st3">
			<path class="st6" d="M42.7,131.5l-144.5-0.1v19.3l144.5,0.2c36.7,0,54.8,20.6,54.8,46.9v233.2h23.4V198.5
				C120.9,161.6,94.4,131.5,42.7,131.5z"/>
		</g>
		<g class="st3">
			<path class="st6" d="M170.4,507.9l642.9,0.1v-21l-642.9-0.2c-36.7,0-49.6-12-49.6-38.3v-17.6H97.4v16.8
				C97.3,484.7,118.7,507.9,170.4,507.9z"/>
		</g>
		<g class="st3">
			<path class="st6" d="M234.7,124.3c-14.2,0-25.8,11.6-25.8,25.8v25.6l0,2.5v55.9c0,7.7-6.2,13.9-13.9,13.9l-86.6,0v11.9l86.6,0
				c14.2,0,25.8-11.6,25.8-25.8l0-84.1c0-7.7,6.2-13.9,13.9-13.9h180.2v-11.9H234.7z"/>
		</g>
		<rect x="9.5" y="75.2" class="st2" width="60.3" height="37.2"/>
		<rect x="399.8" y="522.6" class="st2" width="60.3" height="26.5"/>
		<rect x="16.1" y="-74" class="st2" width="60.3" height="37.2"/>
		<rect x="165" y="520.5" class="st2" width="39.5" height="37.2"/>
		<rect x="39.6" y="463.8" class="st2" width="39.5" height="24"/>
		<rect x="95.9" y="-74" class="st2" width="34.6" height="37.2"/>
		<rect x="83" y="75.2" class="st2" width="61" height="17.7"/>
		<rect x="519.4" y="449.4" class="st2" width="61" height="17.7"/>
		<rect x="-46.5" y="562.3" class="st2" width="61" height="17.7"/>
		<rect x="159.6" y="75.2" class="st2" width="29.7" height="49.1"/>
		<rect x="-35.4" y="618.2" class="st2" width="29.7" height="49.1"/>
		<path class="st2" d="M446.7,110.4c0,7.7-6.2,13.9-13.9,13.9l-86.6,0v11.9l86.6,0c14.2,0,25.8-11.6,25.8-25.8l0-53.4h-11.9V110.4z"
			/>
		<g class="st3">
			<path class="st6" d="M677.6,164.6c0-14.2-11.6-25.8-25.8-25.8h-25.6l-2.5,0h-55.9c-7.7,0-13.9-6.2-13.9-13.9l0-71.1H542l0,71.1
				c0,14.2,11.6,25.8,25.8,25.8l84.1,0c7.7,0,13.9,6.2,13.9,13.9v136h11.9V164.6z"/>
		</g>
		<g class="st3">
			<path class="st6" d="M677.6,416.7c0,14.2-11.6,25.8-25.8,25.8h-25.6l-2.5,0H499c-7.7,0-13.9,6.2-13.9,13.9l0,86.6h-11.9l0-86.6
				c0-14.2,11.6-25.8,25.8-25.8l152.8,0c7.7,0,13.9-6.2,13.9-13.9V296.2h11.9V416.7z"/>
		</g>
		<rect x="578.6" y="78.3" class="st2" width="58.2" height="33.4"/>
		<rect x="507.2" y="17.9" class="st2" width="37.4" height="20.7"/>
		<rect x="498.9" y="574.9" class="st2" width="32.1" height="37.4"/>
		<rect x="565.7" y="521.8" class="st2" width="20.7" height="34.1"/>
		<rect x="47.9" y="606.7" class="st2" width="37.4" height="20.7"/>
		<rect x="107.5" y="639.2" class="st2" width="16.5" height="20.7"/>
		<rect x="168.2" y="621.7" class="st2" width="29" height="24.8"/>
		<rect x="303.6" y="453.9" class="st2" width="37.4" height="20.7"/>
		<rect x="214.2" y="453.9" class="st2" width="60.4" height="20.7"/>
		<rect x="577.4" y="17.9" class="st2" width="66.4" height="20.7"/>
		<rect x="682.5" y="17.9" class="st2" width="37.4" height="20.7"/>
		<rect x="698.5" y="229.4" class="st2" width="45.4" height="52.2"/>
		<rect x="379.7" y="396.1" class="st2" width="45.4" height="52.2"/>
		<rect x="255.2" y="367.7" class="st2" width="59.9" height="31.3"/>
		<rect x="698.5" y="78.3" class="st2" width="45.4" height="117"/>
		<rect x="136.9" y="305.2" class="st2" width="26.6" height="117"/>
		<rect x="409.4" y="635.8" class="st2" width="45.4" height="117"/>
		<rect x="676.3" y="207.9" class="st2" width="85.9" height="11.9"/>
		<g class="st3">
			<g>
				<path class="st7" d="M322.3,28.3c-20.7,0-37.4,13.3-37.4,29.7c0,16.4,16.7,29.7,37.4,29.7c20.6,0,37.4-13.3,37.4-29.7
					C359.6,41.6,342.9,28.3,322.3,28.3z M322.3,78.7c-14.5,0-26.2-9.3-26.2-20.8c0-11.5,11.7-20.8,26.2-20.8
					c14.4,0,26.2,9.3,26.2,20.8C348.4,69.4,336.7,78.7,322.3,78.7z"/>
				<path class="st8" d="M322.3,37.2c-14.5,0-26.2,9.3-26.2,20.8c0,11.5,11.7,20.8,26.2,20.8c14.4,0,26.2-9.3,26.2-20.8
					C348.4,46.5,336.7,37.2,322.3,37.2z M322.3,69.2c-7.8,0-14.1-5-14.1-11.2c0-6.2,6.3-11.2,14.1-11.2c7.8,0,14.1,5,14.1,11.2
					C336.4,64.2,330,69.2,322.3,69.2z"/>
			</g>
			<path class="st7" d="M337,57.9c0,6.5-6.6,11.8-14.8,11.8c-8.2,0-14.8-5.3-14.8-11.8c0-6.5,6.6-11.8,14.8-11.8
				C330.4,46.1,337,51.4,337,57.9z"/>
		</g>
		<g class="st3">
			<g>
				<polygon class="st5" points="549.5,-19.6 555.6,-19.6 544.4,-39 550.7,-39 538,-61 538,0.3 561,0.3 				"/>
				<polygon class="st4" points="525.3,-39 531.7,-39 520.5,-19.6 526.5,-19.6 515.1,0.3 538,0.3 538,-61 				"/>
			</g>
		</g>
		<g class="st3">
			<g>
				<polygon class="st5" points="612.9,-19.6 619,-19.6 607.7,-39 614.1,-39 601.4,-61 601.4,0.3 624.4,0.3 				"/>
				<polygon class="st4" points="588.7,-39 595,-39 583.8,-19.6 589.9,-19.6 578.4,0.3 601.4,0.3 601.4,-61 				"/>
			</g>
		</g>
		<g class="st3">
			<g>
				<polygon class="st5" points="674.6,-19.6 680.7,-19.6 669.5,-39 675.8,-39 663.1,-61 663.1,0.3 686.1,0.3 				"/>
				<polygon class="st4" points="650.4,-39 656.8,-39 645.5,-19.6 651.6,-19.6 640.1,0.3 663.1,0.3 663.1,-61 				"/>
			</g>
		</g>
		<g class="st3">
			<g>
				<polygon class="st5" points="667.7,582.3 673.7,582.3 662.5,562.9 668.9,562.9 656.2,540.9 656.2,602.2 679.2,602.2 				"/>
				<polygon class="st4" points="643.5,562.9 649.8,562.9 638.6,582.3 644.7,582.3 633.2,602.2 656.2,602.2 656.2,540.9 				"/>
			</g>
		</g>
		<g class="st3">
			<g>
				<polygon class="st5" points="89,548.8 95.1,548.8 83.8,529.4 90.2,529.4 77.5,507.4 77.5,568.7 100.5,568.7 				"/>
				<polygon class="st4" points="64.8,529.4 71.1,529.4 59.9,548.8 66,548.8 54.5,568.7 77.5,568.7 77.5,507.4 				"/>
			</g>
		</g>
		<path class="st2" d="M440.7,55.9h-8.6c0-1.4,0.2-34.1,17.3-49.3c14.3-12.7,19.9-30.6,20.3-43.1c1.1-31,3.4-74,3.4-74.5l8.6,0.5
			c0,0.4-2.3,43.4-3.4,74.3c-0.2,6.9-2.6,31-23.2,49.3C440.9,25.7,440.7,55.6,440.7,55.9z"/>
		<g class="st3">
			<polygon class="st9" points="454.9,-128.8 457.9,-128.8 463.7,-145.7 460.2,-154.8 449,-145.1 442.7,-128.8 447.4,-128.8 			"/>
			<polygon class="st10" points="460.2,-154.8 456.5,-164.4 450.8,-149.7 449,-145.1 			"/>
			<polygon class="st9" points="477.5,-128.8 486.1,-148.1 479.4,-167.6 467.2,-155.9 463.7,-145.7 457.9,-128.8 			"/>
			<polygon class="st10" points="475.3,-179.7 467.2,-155.9 467.2,-155.9 479.4,-167.6 			"/>
			<polygon class="st9" points="512.2,-128.8 499.2,-158.1 486.6,-149.4 486.1,-148.1 477.5,-128.8 			"/>
			<polygon class="st10" points="499.2,-158.1 494.8,-168 488.2,-153 486.6,-149.4 			"/>
		</g>
		<path class="st2" d="M478.7-53.6l-7.9-3.5c0.9-2.1,10.5-20.8,78.8-25.2c12.5-0.8,25.3-1.4,37.6-2c51.1-2.5,103.9-5.2,114.9-19.4
			c13.1-17,10.8-27,10.7-27.1l8.3-2.4c0.4,1.4,3.6,14.2-12.2,34.7c-13.4,17.4-63.4,19.9-121.3,22.8c-12.3,0.6-25.1,1.2-37.5,2
			C487.8-69.7,478.8-53.8,478.7-53.6z"/>
		<path class="st2" d="M181.9,54.5c-0.4-2.9-10.1-71.3,7.9-97.2c5.8-8.3,10.4-13.2,14-17.1c7.1-7.6,10-10.8,12.3-29.9
			c1.3-11.3,0-51.6,0-52l8.6-0.3c0.1,1.7,1.4,41.4,0,53.3c-2.5,21-6.3,25.8-14.5,34.7c-3.5,3.7-7.8,8.4-13.3,16.2
			c-16.1,23.1-6.6,90.3-6.5,91L181.9,54.5z"/>
		<path class="st11" d="M569.9-100.8c-7.2,0-14.6-0.1-21.9-0.1c-4.7-0.1-8.8-0.1-11.9-0.1c-23.4,0-106.4-2-191.7-27.5
			c-54.1-16.2-106.7-12.7-149-9.8c-32.1,2.2-57.5,3.9-75.8-2.9c-28.8-10.7-29.9-42.9-29.9-44.3l13.1,0.1c0.3,3.4,0.8,24.5,21.4,32.1
			c15.7,5.8,41.1,4.1,70.4,2.2c43.3-2.9,97.2-6.5,153.6,10.3c83.6,25.1,165,27,188,27c3.1,0,7.2,0,12,0.1
			c31.7,0.4,115.8,1.4,131.2-14.3c17.7-18,76.2-18.7,82.8-18.7v12.9c-22.9,0.1-63.1,4.2-73.6,14.9
			C673.6-103.9,624.5-100.8,569.9-100.8z"/>
		<rect x="499.7" y="165.9" class="st2" width="5.9" height="82.1"/>
		<rect x="446.8" y="186" class="st2" width="129.4" height="7.3"/>
		<rect x="361.2" y="362.5" class="st2" width="7.3" height="129.4"/>
		<rect x="6.1" y="594.5" class="st2" width="7.3" height="129.4"/>
		<rect x="239.7" y="407" class="st2" width="127.3" height="7.3"/>
		<polygon class="st2" points="96.4,590 101,597.3 -75.2,597.3 -75.2,590 		"/>
		<rect x="137.8" y="654.9" class="st2" width="66.9" height="7.3"/>
		<rect x="479.7" y="626.1" class="st2" width="129" height="7.3"/>
		<path class="st2" d="M530.8,246v100.6c0,12.6-10.2,15.9-22.7,15.9H361.2v7.3h147.3c16.4,0,29.6-6.4,29.6-22.7V246H530.8z"/>
		<rect x="387.1" y="146.5" class="st2" width="36.1" height="26.1"/>
		<rect x="481.6" y="75" class="st2" width="36.1" height="26.1"/>
		<rect x="351" y="202.9" class="st2" width="72.2" height="26.1"/>
		<rect x="232.2" y="152.8" class="st2" width="72.2" height="26.1"/>
		<rect x="142.1" y="214.8" class="st2" width="42.8" height="26.1"/>
		<rect x="613" y="293" class="st2" width="40.4" height="57.2"/>
		<rect x="466.7" y="334.1" class="st2" width="37" height="19.8"/>
		<rect x="396.1" y="334.1" class="st2" width="50.8" height="19.8"/>
		<rect x="423.2" y="264.8" class="st2" width="93.1" height="31.4"/>
		<g class="st3">
			<path class="st6" d="M-204.7,580.7l-2.4-8.2c0.9-0.3,92.7-27,118-40c11.7-6,23.7-22,35.3-37.5c13-17.4,26.5-35.4,41.5-42.3
				c27.7-12.8,118.6-13,123-13c0,0,0,0,0,0l0,8.6h0c-1,0-93.4,0.1-119.5,12.2c-13,6-25.8,23.1-38.2,39.7c-12.7,17-24.8,33.1-38.3,40
				C-111.2,553.5-200.9,579.6-204.7,580.7z"/>
		</g>
		<g class="st3">
			<path class="st6" d="M766.5,822.6h-8.6c0-34.7-65.4-109.7-106.5-130.7c-52.4-26.8-53-89.3-53-91.9v-98.2h8.6V600
				c0,0.6,0.7,59.9,48.3,84.3C695.2,704.6,766.5,782.1,766.5,822.6z"/>
		</g>
		<g class="st3">
			<path class="st12" d="M592.6,387.5c0.4-0.5,0.7-1.1,1.1-1.5c-0.3-0.5-0.6-1-0.8-1.5l0,0c-0.1,0.1-0.7,0.4-1,0.4
				c-0.5,0.9-1.3,1.7-2.2,2.2c0.6,0.6,1,1.3,1.3,1.9C591.6,388.4,592.2,388,592.6,387.5z"/>
			<path class="st13" d="M579.7,406.5c-0.6-0.3-0.7-0.9-0.7-1.5h-1c-0.6,0-1.1,0.5-1.1,1.1c0,0.6,0.5,1.1,1.1,1.1h1.7
				c0.6,0,1.1-0.5,1.1-1.1c0-0.2-0.1-0.4-0.1-0.5C580.6,406.4,580.5,406.9,579.7,406.5z"/>
			<g>
				<path class="st14" d="M583.4,412.9l-0.6,2c3.2,1.5,5.5,4.8,5.5,8.6c0,0.8-0.1,1.5-0.3,2.2c-1,4.1-4.7,7.2-9.2,7.3
					c-4.5,0-8.2-3.1-9.2-7.3c-0.2-0.7-0.3-1.4-0.3-2.2c0-5.2,4.2-9.5,9.4-9.5c0.6,0,1.3,0.1,1.9,0.2l0.6-2c-0.8-0.2-1.6-0.3-2.5-0.3
					c-6.4,0-11.5,5.2-11.5,11.5c0,0.7,0.1,1.5,0.2,2.2c1,5.3,5.7,9.3,11.3,9.3c5.6,0,10.2-4,11.3-9.3c0.1-0.7,0.2-1.5,0.2-2.2
					C590.4,418.7,587.5,414.7,583.4,412.9z"/>
				<path class="st14" d="M607.1,422.3l2.1,0c0.3-2.8,1.8-5.2,4-6.7l-1-1.8C609.4,415.6,607.5,418.7,607.1,422.3z"/>
				<path class="st14" d="M618.6,411.8c-1.5,0-2.9,0.3-4.1,0.8l0.9,1.8c1-0.4,2.1-0.6,3.2-0.6c5.2,0,9.5,4.2,9.5,9.4
					c0,0.8-0.1,1.6-0.3,2.3c-1,4.1-4.7,7.1-9.1,7.2c-4.4,0-8.2-3-9.2-7.2c-0.1-0.4-0.2-0.8-0.2-1.2l-2.1,0c0,0.4,0.1,0.8,0.2,1.2
					c1.1,5.3,5.7,9.2,11.3,9.2c5.5,0,10.2-4,11.2-9.2c0.2-0.8,0.2-1.5,0.2-2.3C630.1,417,624.9,411.8,618.6,411.8z"/>
				<path class="st14" d="M578.1,423.1c-0.2,0.6,0.2,1.2,0.7,1.4c0.1,0,0.2,0,0.3,0c0.5,0,0.9-0.3,1-0.8l2.7-8.9l0.6-2l1.2-4.2
					l-0.1-0.1l-0.1-2.2l0.8,0l1.5-4.9c-0.9,0.2-1.7,0.3-2.4,0.4l-3.1,10.4l-0.6,2L578.1,423.1z"/>
				<path class="st14" d="M576.9,406.1c0-0.6,0.5-1.1,1.1-1.1c-0.5,0-0.9-0.4-0.9-0.9l0-2.4c0-0.5,0.4-0.9,0.9-0.9l3.6,0
					c1.6-0.7,3.8-1.5,5.7-2.2v-0.1l-9.3,0c-1.7,0-3.1,1.4-3.1,3.2l0,2.4c0,1.7,1.4,3.1,3.2,3.1C577.4,407.2,576.9,406.7,576.9,406.1
					z"/>
				<path class="st14" d="M597.6,420.3c-0.1-0.2-0.1-0.4-0.2-0.6l-9.9-11.1l7.5,0c0.4-0.6,0.9-1.4,1.6-2.2l-11.3,0l-0.8,0l0.1,2.2
					l0.1,0.1l11.5,12.9C596.5,421.1,597,420.6,597.6,420.3z"/>
				<path class="st14" d="M608,408.5l1-1.4l0-0.8l-4.5,0c-1.4,0.7-2.8,1.4-3.8,1.9c-0.3,0.1-0.5,0.2-0.8,0.3L608,408.5z"/>
				<path class="st14" d="M611.2,407.4l-2.2,0v-0.3l-1,1.4l-7.8,11.5c0.7,0.2,1.4,0.6,1.8,1.2l7.9-11.7l2.3,4.2l1,1.8l3.6,6.7
					l-7.6,0l-2.1,0l-4.5,0c0.1,0.3,0.2,0.7,0.2,1.1c0,0.4-0.1,0.8-0.2,1.1l4.5,0l2.1,0l11.2,0l-5.1-10l-0.9-1.8l-3.2-6.3l0,0
					L611.2,407.4z"/>
				<polygon class="st14" points="609,406.3 609,407.1 609,407.4 611.2,407.4 611.2,406.3 611.2,404.5 609,404.5 				"/>
				<path class="st14" d="M597.6,420.3c-0.6,0.3-1,0.8-1.4,1.3c-0.3,0.5-0.5,1.1-0.5,1.8c0,0.5,0.1,1,0.4,1.5
					c0.6-0.4,1.4-0.9,2.3-1.7c0,0,0,0,0,0C598.1,422.3,597.8,421.3,597.6,420.3z"/>
				<path class="st14" d="M602.8,423.4c0-0.4-0.1-0.8-0.2-1.1c-0.1-0.4-0.3-0.7-0.6-1.1c-0.5-0.6-1.1-1-1.8-1.2
					c-0.1,0-0.2-0.1-0.2-0.1c0.1,1.8,0.1,3.2,0.1,3.8l0.2,0l0.1,0.4c0,0,1.1,1.9-0.6,2.2c-1.1,0.2-1.5,0.2-2,0.3
					c0.4,0.2,0.9,0.3,1.5,0.3c1.1,0,2.1-0.5,2.7-1.3c0.3-0.3,0.5-0.7,0.6-1.2C602.8,424.2,602.8,423.8,602.8,423.4z"/>
				<path class="st14" d="M607.6,404.5l1.4,0l2.2,0l2.1,0c0.6,0,1.1-0.5,1.1-1.1c0-0.6-0.5-1.1-1.1-1.1l-3.2,0v0
					C609.5,403.1,608.6,403.8,607.6,404.5z"/>
			</g>
			<path class="st15" d="M600.4,424.1l-0.1-0.4l-0.2,0c0,0.1,0,0.2,0,0.2l-1.4,0.4c-0.1-0.4-0.2-0.7-0.3-1.1c0,0,0,0,0,0
				c-0.9,0.8-1.7,1.3-2.3,1.7c-0.5,0.3-1,0.6-1.3,0.7c-1.2,0.6-1.5,0.6-1.1,1.6h0c0,0.2,0.2,0.3,0.5,0.3c1,0.1,2,0,2.9-0.6
				c0.3-0.2,0.6-0.3,0.8-0.4c0.4-0.1,0.9-0.1,2-0.3C601.5,426,600.4,424.1,600.4,424.1z"/>
			<path class="st12" d="M599.9,408.5c0.2-0.1,0.5-0.2,0.8-0.3l-3.1-3c-0.3,0.4-0.6,0.8-1,1.2c-0.6,0.8-1.2,1.6-1.6,2.2
				c-0.1,0.1-0.2,0.2-0.2,0.3c0,0,1.2,5.4,2.6,10.8c0.1,0.2,0.1,0.4,0.2,0.6c0.3,1,0.5,2,0.8,2.9c0.1,0.4,0.2,0.7,0.3,1.1l1.4-0.4
				c0,0,0-0.1,0-0.2c0-0.5,0-2-0.1-3.8c-0.2-4-0.5-9.7-1.3-10.9C598.7,409,599.2,408.8,599.9,408.5z"/>
			<path class="st16" d="M597.6,405.1l3.1,3c1.1-0.5,2.4-1.1,3.8-1.9c1.1-0.6,2.1-1.2,3.1-1.8c1.1-0.7,2-1.4,2.5-2.1v0
				c0.9-1.1,1.5-2.5,1.5-3.8l-7.8-0.5C603.8,398.1,600.3,401.8,597.6,405.1z"/>
			<path class="st12" d="M592.3,400.2c0.6-0.2,1.3-2.5,1.7-4.3l-3.3-1.6c-0.1,1.8-0.1,3.1-0.1,3.1s-1.4,0.5-3.3,1.1
				c-1.9,0.6-4.1,1.5-5.7,2.2c-1.1,0.5-1.8,0.9-1.9,1.2c-0.2,1.1-0.6,2.2-0.7,3.1c0,0.7,0.1,1.2,0.7,1.5c0.8,0.4,0.9-0.1,1-0.9
				c0-0.6-0.1-1.4-0.1-2.1c0-1.2,1.4-1,2.3-1.3c0.2-0.1,0.8-0.2,1.6-0.3c0.7-0.1,1.5-0.3,2.4-0.4
				C588.8,401.1,591.1,400.7,592.3,400.2z"/>
			<path class="st17" d="M594.4,393.4c0-0.1,0.7-0.1,1.7,0.1l0,0c3.9,0.8,7.4,4.2,7.7,4.5l7.8,0.5c0.1-1.6-0.6-3.3-2.6-4.5
				c-1-0.6-2.6-1.5-4.7-3.1c-2.7-2.1-6.7-6.1-9.4-5.6c-0.6,0.1-0.9,0.3-1.2,0.5c-0.5,0.4-0.7,0.9-1.1,1.5c-0.4,0.5-1,1-1.5,1.5
				c-0.4,0.5-0.7,1-0.7,1.7c-0.1,1.1,0.4,2.6,0.3,3.6l3.3,1.6C594.2,394.7,594.4,393.7,594.4,393.4z"/>
			<path class="st12" d="M584.7,380.6c0,0.4,0.1,0.9,0.2,1.4c0.2-0.6,0.3-1.1,0.4-1.4C585,380.6,584.8,380.6,584.7,380.6z"/>
			<path class="st12" d="M591.9,385c-0.2,0-0.3,0.1-0.4,0c-0.1-0.2-0.8-1.5-0.8-1.5c0.8-1.1,1.2-2.1,0-2.3c-0.3-0.1-0.7,0.2-0.8,0.9
				c0,0.7-0.7,0.8-0.8,0.6c-0.3-0.6-0.5-2.2-1-2.2c-0.6,0-1.8,0.1-2.7,0.2c0.3,1.3,1,4.9,0.4,5.1c-0.1,0-0.2,0.1-0.3,0.1
				c0.3,1.2,0.9,2,2,2c0.7,0,1.4-0.3,2.1-0.7C590.6,386.6,591.4,385.9,591.9,385z"/>
			<path class="st12" d="M585.6,380.6c-0.1,0-0.2,0-0.3,0c-0.1,0.4-0.2,0.9-0.4,1.4c-0.4,1.4-0.8,3.1-0.8,3.4c0,0.3,0.9,0.5,1.6,0.3
				c0.1,0,0.2-0.1,0.3-0.1C586.6,385.4,585.9,381.9,585.6,380.6z"/>
			<path class="st15" d="M585.6,380.6c0.9-0.1,2.1-0.2,2.7-0.2c0.5,0,0.7,1.6,1,2.2c0.1,0.2,0.7,0.1,0.8-0.6c0-0.8,0.4-1,0.8-0.9
				c1.2,0.2,0.8,1.2,0,2.3c0,0,0.6,1.3,0.8,1.5c0,0.1,0.2,0.1,0.4,0c0.4-0.1,0.9-0.3,1-0.4l0,0c0.2-0.2,2-5.8-0.7-7.7
				c-2.8-1.9-8.9-0.9-7.5,3.8c0,0,0,0,0,0c0,0,0.3,0,0.6,0C585.4,380.6,585.5,380.6,585.6,380.6z"/>
		</g>
		<g class="st3">
			<path class="st18" d="M73.9,21.8l0.1,7l0.1,13.9l10.6-0.1c1.3-1.2,3-1.9,4.9-2c1.9,0,3.6,0.7,4.9,1.9l9.9-0.1l-0.9-6.1l-11.1-2.7
				L90,28.8l-3.7-7H73.9z M90.2,33.7l-14.4,0.1l-0.1-10.3l9.3-0.1L90.2,33.7z"/>
			<path class="st19" d="M97,47.9L97,47.9l8.2-0.1l-0.1-5.4l-0.7,0l-9.9,0.1C96,43.9,97,45.8,97,47.9z"/>
			<path class="st19" d="M84.8,42.7l-10.6,0.1h0l0.1,5.4l8.2-0.1C82.4,45.9,83.3,44,84.8,42.7z"/>
			<path class="st20" d="M23.7,13.7v15.1v14.4l9.6-0.1c1.3-1.2,3-1.9,4.9-2c1.9,0,3.6,0.7,4.9,1.9l29.5-0.3l-0.1-14l-0.1-15.1H23.7z
				"/>
			<path class="st19" d="M33.3,43.2l-9.6,0.1l0.1,5.4l7.2-0.1C30.9,46.4,31.8,44.5,33.3,43.2z"/>
			<path class="st19" d="M43.1,43.1c1.5,1.3,2.5,3.2,2.5,5.4l27-0.3l-0.1-5.4L43.1,43.1z"/>
			<path class="st19" d="M43.1,43.1c-1.3-1.2-3-1.9-4.9-1.9c-1.9,0-3.6,0.8-4.9,2c-1.5,1.4-2.4,3.3-2.4,5.4v0c0,4,3.4,7.3,7.4,7.2
				c4,0,7.3-3.3,7.2-7.4l0,0C45.5,46.3,44.6,44.4,43.1,43.1z M38.3,52.8c-2.3,0-4.2-1.9-4.3-4.2c0-2.3,1.9-4.2,4.2-4.3
				c2.3,0,4.2,1.9,4.3,4.2C42.5,50.8,40.6,52.7,38.3,52.8z"/>
			<path class="st21" d="M38.2,44.3c-2.3,0-4.2,1.9-4.2,4.3c0,2.3,1.9,4.2,4.3,4.2c2.3,0,4.2-1.9,4.2-4.3
				C42.4,46.1,40.5,44.3,38.2,44.3z"/>
			<path class="st19" d="M94.5,42.6c-1.3-1.2-3-1.9-4.9-1.9c-1.9,0-3.6,0.8-4.9,2c-1.5,1.4-2.4,3.3-2.4,5.4l0,0c0,4,3.4,7.3,7.4,7.2
				c4,0,7.3-3.3,7.2-7.4l0,0C97,45.8,96,43.9,94.5,42.6z M89.8,52.2c-2.3,0-4.2-1.9-4.3-4.2c0-2.3,1.9-4.2,4.2-4.3
				c2.3,0,4.2,1.9,4.3,4.2C94,50.3,92.1,52.2,89.8,52.2z"/>
			<path class="st21" d="M93.9,48c0-2.3-1.9-4.2-4.3-4.2c-2.3,0-4.2,1.9-4.2,4.3c0,2.3,1.9,4.2,4.3,4.2C92.1,52.2,94,50.3,93.9,48z"
				/>
		</g>
		<g class="st3">
			<path class="st6" d="M221.5,726c-70.7,0-88.2-29.3-88.2-96.6c0-10.2-3.1-18.2-9.1-23.6c-11.7-10.5-31-8.6-31.2-8.5l-0.8-7.1
				c0.9-0.1,22.5-2,36.5,10.5c7.6,6.8,11.4,16.4,11.4,28.7c0,62.5,16.1,89.8,81.8,89.8L221.5,726z"/>
		</g>
	</g>
	<g id="hand_with_phone">
		<defs>
			<rect id="SVGID_3_" x="-86.4" y="-58.3" width="969" height="655.7"/>
		</defs>
		<clipPath id="SVGID_4_">
			<use xlink:href="#SVGID_3_"  style="overflow:visible;"/>
		</clipPath>
	</g>
</g>
<g id="OBJECTS">
	<g>
		<g>
			
				<image style="overflow:visible;opacity:0.2;" width="1034" height="363" xlink:href="F030574B2EF6A078.png"  transform="matrix(1 0 0 1 -110.7028 81.602)">
			</image>
			<g>
				<radialGradient id="SVGID_5_" cx="401.2445" cy="258.0393" r="572.3965" gradientUnits="userSpaceOnUse">
					<stop  offset="0" style="stop-color:#FFFFFF"/>
					<stop  offset="1" style="stop-color:#CFD6D8"/>
				</radialGradient>
				<path class="st22" d="M493.8,401.4c-20.4,0-39.1-6.4-54-18.4c-12.6-10.2-20.9-23.2-27.6-33.7c-4.5-7-10.6-16.6-14-17.7
					c-0.1,0-0.5-0.1-1.1-0.1c-5,0-14.3,4.5-23.2,8.9c-15.3,7.5-32.7,16-53.5,16c-4.1,0-8.3-0.4-12.4-1c-29.5-5-53.9-28.6-65.4-63.1
					c-3.8-11.6-5.9-22.7-7.9-33.5c-1.7-9-3.3-17.5-5.7-24.8c-7.4-22.2-25.6-40.9-47.7-48.8c-8.1-2.9-16.8-4.4-25.8-4.4
					c-15,0-30,4.2-42.1,11.9c-9.8,6.2-19.1,15.2-28.9,24.7c-8.4,8.1-17,16.4-27,24.1c-22.5,17.5-47,26.8-70.8,26.8
					c-12.7,0-24.7-2.7-35.7-8c-7.9-3.8-14.5-8.7-19.7-12.6c-1.7-1.3-3.1-2.3-4.5-3.3l-4.4-3.1v-66.6l12.1,2c2.4,0.4,4.7,1,6.9,1.6
					c12.6,3.9,21.8,10.8,29.3,16.4c3.3,2.5,6.8,5,9.1,6.2c1.9,0.9,4.2,1.4,6.8,1.4c10.2,0,22.4-6.7,30.5-12.9
					c7.2-5.6,14.2-12.4,21.6-19.5c11.8-11.4,24-23.1,39.4-32.9c23-14.6,49.6-22.2,77.2-22.2c16.6,0,32.8,2.8,48.1,8.3
					c41.4,14.8,74.3,48.5,88.1,90.2c3.8,11.6,5.9,22.7,7.9,33.4c1.7,9,3.3,17.5,5.7,24.8c3.6,10.8,10,18.1,13.8,18.8
					c0.3,0.1,0.7,0.1,1.1,0.1c5.7,0,15.3-4.7,24.6-9.3c14.3-7,32-15.7,52.4-15.7c7.3,0,14.5,1.1,21.4,3.4
					c25.8,8.4,39.3,29.5,49.1,44.9c4.8,7.5,9.3,14.5,13.5,18c3.9,3.1,9,3.8,12.7,3.8c8.6,0,18.6-3.5,26.1-9
					c16.9-12.5,28.8-33.9,41.4-56.4l0.4-0.7c13.3-23.9,31.6-56.6,62.9-77.6c20.1-13.5,44.2-20.6,69.7-20.6c31.7,0,61.5,11,84,30.8
					c15.2,13.4,25.5,28.8,35.4,43.6c2.3,3.5,4.5,6.7,6.7,10c7.5,10.8,17.6,23.8,29.2,28.4c2,0.8,4.3,1.2,6.6,1.2
					c3.2,0,5.7-0.8,6.8-1.6l16.7-12.5v77.3l-8.5,1.6c-4.8,0.9-9.8,1.3-14.8,1.3c0,0,0,0,0,0c-10.7,0-21.2-2-31.3-6
					c-27.8-11.1-46.1-33.7-58.8-52c-2.6-3.7-5-7.3-7.4-10.9c-8-11.9-15.5-23.2-24.3-30.9c-10.3-9.1-25-14.4-40.3-14.4
					c-12.1,0-23.9,3.4-33,9.5c-16.8,11.3-29,31.6-42,55l-0.4,0.7c-14.7,26.4-31.4,56.3-59.7,77.3
					C540.6,393.4,516.7,401.4,493.8,401.4L493.8,401.4z"/>
			</g>
		</g>
		<linearGradient id="SVGID_6_" gradientUnits="userSpaceOnUse" x1="-67.0083" y1="257.4609" x2="869.4977" y2="257.4609">
			<stop  offset="0" style="stop-color:#494D74"/>
			<stop  offset="1" style="stop-color:#090E3A"/>
		</linearGradient>
		<path class="st23" d="M869.5,291.2c-5.4,4-15.4,5-23.5,1.7c-14.1-5.6-25.5-20.2-33.9-32.2c-2.3-3.3-4.5-6.6-6.8-10.1
			c-9.6-14.3-19.5-29.1-33.7-41.6c-38.1-33.7-98.8-37.7-141-9.4c-29.2,19.6-46.8,51.1-59.6,74l-0.4,0.7
			c-13.2,23.6-25.6,45.8-44.3,59.7c-14.8,11-38.1,15.8-51.5,5c-5.6-4.5-10.5-12.2-15.7-20.4c-9.5-14.8-21.3-33.3-43.6-40.6
			c-25.2-8.2-47.8,2.9-65.9,11.7c-12.1,5.9-23.6,11.5-32.1,10.1c-9.8-1.7-18.1-14.2-22-25.8c-2.7-8-4.3-16.9-6-26.2
			c-1.9-10.4-3.9-21.2-7.6-32.1c-12.8-38.7-43.3-70-81.7-83.7c-38.4-13.7-81.8-8.9-116.3,12.9c-14.6,9.2-26.4,20.6-37.8,31.6
			c-7.6,7.4-14.8,14.3-22.5,20.2c-13.2,10.2-33.7,19.7-48.2,12.6c-3.2-1.6-6.9-4.3-10.8-7.2c-7.2-5.3-15.3-11.4-26.2-14.8
			c-1.8-0.6-3.6-1-5.5-1.3v48.8c1.5,1.1,3.1,2.3,4.7,3.5c5.1,3.8,11,8.2,18,11.6c28.1,13.6,63.8,7,95.6-17.6
			c9.5-7.4,18-15.5,26.1-23.4c10.2-9.9,19.9-19.2,30.6-26c22.4-14.2,51.9-17.5,76.9-8.6c25,8.9,45.7,30.2,54.1,55.4
			c2.7,8,4.3,16.8,6,26.2c1.9,10.4,3.9,21.2,7.6,32.1c10.2,30.7,31.6,51.7,57.2,56.1c22.9,3.9,42.3-5.6,59.5-14
			c13-6.4,24.3-11.9,32.1-9.4c6.9,2.3,12.8,11.4,19.5,22c6.6,10.3,14.1,22.1,25.4,31.2c14,11.3,30.7,16.1,47.4,16.1
			c21.5,0,43.1-7.9,59.3-19.9c26.5-19.7,42.6-48.5,56.9-74l0.4-0.7c13.7-24.6,26.6-46,45.3-58.6c25.3-17,63.1-14.5,86,5.7
			c9.8,8.7,17.7,20.5,26.1,32.9c2.4,3.5,4.8,7.1,7.3,10.7c12,17.2,28.9,38.2,54.2,48.3c13.3,5.3,27.4,6.5,40.3,4.1V291.2z"/>
		<g>
			<g>
				<path class="st24" d="M891.5,300.1c-1.2,2-2.6,3.8-4.2,5.5"/>
				<path class="st25" d="M876.1,313.4c-11.7,5.4-26.4,5.4-38.6,0.5c-18.7-7.5-32.5-23.7-44-40.2c-11.5-16.6-21.8-34.4-36.9-47.7
					c-30.6-27-79.6-30.3-113.5-7.5c-23.6,15.9-38.6,41.4-52.4,66.3c-13.9,24.8-28.1,50.7-51,67.6c-22.9,16.9-57,22.3-79.2,4.4
					c-20.3-16.5-27.2-49-52.1-57.1c-31.6-10.3-62,28.2-94.8,22.6c-19.7-3.4-33.3-22-39.6-41c-6.3-19-7.3-39.3-13.6-58.3
					c-10.5-31.8-36.3-58.2-67.9-69.5c-31.6-11.3-68.3-7.2-96.6,10.7c-21.8,13.8-38.1,34.8-58.5,50.6c-20.4,15.8-48.6,26.4-71.9,15.1
					c-12-5.8-21.2-16.8-33.9-20.8c-7.9-2.5-17.7,0.4-23.1,5.9"/>
				<path class="st24" d="M-94.9,221c-0.6,2.1-0.6,4.4,0.3,6.8"/>
			</g>
		</g>
	</g>
	
		<radialGradient id="SVGID_7_" cx="3.8213" cy="-173.1926" r="41.6297" gradientTransform="matrix(1 0 0 0.2545 0 274.7908)" gradientUnits="userSpaceOnUse">
		<stop  offset="0" style="stop-color:#000000"/>
		<stop  offset="0.2461" style="stop-color:#4B4B4B"/>
		<stop  offset="0.5181" style="stop-color:#979797"/>
		<stop  offset="0.7434" style="stop-color:#CFCFCF"/>
		<stop  offset="0.9102" style="stop-color:#F2F2F2"/>
		<stop  offset="1" style="stop-color:#FFFFFF"/>
	</radialGradient>
	<path class="st26" d="M45.5,230.7c0,5.9-18.6,10.6-41.6,10.6s-41.6-4.7-41.6-10.6c0-5.9,18.6-10.6,41.6-10.6S45.5,224.9,45.5,230.7
		z"/>
	<g>
		<g>
			
				<image style="overflow:visible;opacity:0.15;" width="83" height="98" xlink:href="F030574B2EF6A079.png"  transform="matrix(1 0 0 1 -33.7705 59.5343)">
			</image>
			<g>
				<linearGradient id="SVGID_8_" gradientUnits="userSpaceOnUse" x1="3.0513" y1="75.0404" x2="3.0513" y2="133.8768">
					<stop  offset="0" style="stop-color:#FF3179"/>
					<stop  offset="1" style="stop-color:#750000"/>
				</linearGradient>
				<path class="st27" d="M26.8,95.6c0,13.1-23.7,39.7-23.7,39.7s-23.7-26.6-23.7-39.7c0-13.1,10.6-23.7,23.7-23.7
					S26.8,82.5,26.8,95.6z"/>
			</g>
		</g>
		<linearGradient id="SVGID_9_" gradientUnits="userSpaceOnUse" x1="3.0513" y1="111.8047" x2="3.0513" y2="79.6022">
			<stop  offset="0" style="stop-color:#FF3179"/>
			<stop  offset="1" style="stop-color:#750000"/>
		</linearGradient>
		<circle class="st28" cx="3.1" cy="95.2" r="17.5"/>
	</g>
	<g>
		<g id="XMLID_128_">
			<path id="XMLID_178_" class="st29" d="M-2.8,150.2c0,0-0.4,2.3-3.2,1.7s-7.9-4.2-10.4-3.3c-2.5,0.8-2.4,2-1.8,2
				c0.6,0,2.2,0.5,2.2,0.5s-2.7-0.2-5.6,2.3c-2.8,2.5-3.1,6.9-1.7,7.4c1.3,0.5,1.5-1.8,3.9-3.2c2.4-1.4,4.5-1.2,4.5-1.2
				s-2,1.5-1.2,2.2c0.7,0.7,2-0.8,3.1-1c1.1-0.2,3.2,0.9,5.6,0c2.3-0.9,3-2.3,4.1-4.3C-2.4,151.2-2.3,151-2.8,150.2z"/>
			<path id="XMLID_168_" class="st30" d="M10.5,147.4c0,0-0.5,0.7-1.6,1.3s-3.6,0.8-3.6,0.8l-0.2-1.8
				C5.2,147.8,9.4,146.7,10.5,147.4z"/>
			<path class="st29" d="M4.1,142.6c-2.5-1.7-4.5-1.3-6.2,0.7c-1.7,2.1-1.8,2.7-1.6,3.7c0.1,0.2,0.1,0.5,0.2,0.7l0.5,1.7
				c0,0,1.2,1.7,1.9,1c0.4-0.4,0.6-2.2,0.8-3.5c0.6-0.3,1.4-0.6,2.1-0.7c2.7-0.7,3.6-0.7,3.6-0.7S6.6,144.3,4.1,142.6z"/>
			<path id="XMLID_174_" class="st31" d="M4.5,159.8c0,0,2.9,0.7,3.5,1.9c0.6,1.2,1.7,5.9,3.1,9.3c1.3,3.4,0.7,2.7,1.2,4.1
				c0.6,1.3,2-0.6,2.1,0.2c0.1,0.8-0.2,3.2-1.3,5c-1.2,1.8-1.7,2.3-3.3-0.2c-1.6-2.6-4.3-10.4-4.3-11.1c0-0.7-1.5-6-1.7-7.1
				C3.4,160.9,3.1,159.1,4.5,159.8z"/>
			<path id="XMLID_179_" class="st32" d="M-8.5,199.5c0,0,0.2,8.6-0.2,9.8c-0.4,1.2-1.8,1.8-4.9,1.9s-5.2-0.2-5.9-0.2
				c-0.7-0.1-1.7-0.7-2.5-0.5c-0.7,0.2-1.1,1.3-1,2.7c0.1,1.3,0.8,1.7,0.3,3c-0.5,1.2-0.1,3.1,0.2,4.2c0.2,1.1,1,1.7,1.3,1.1
				c0.3-0.7,2.1-6.9,2.1-6.9s9.3,1.2,11.6,1.2c2.2,0,3.5,0.2,4.7-3c1.2-3.2,2.3-10.6,2.4-11C-0.4,201.4-6.9,197.4-8.5,199.5z"/>
			<path id="XMLID_171_" class="st31" d="M-1.3,151.1c0,0-0.3,3-0.7,4.8c-0.4,1.8-0.7,2.6-0.7,2.6s-4.4-0.9-5.7-0.6
				c-1.3,0.3-1.3,1.9-1.2,4.7c0.1,2.8,1.1,13.5,0.6,14.8c-0.5,1.2-1,3-3.4,5.7c-2.4,2.7-3.2,6.6-2.6,9.1c0.6,2.6,3.2,4.7,5.5,7.6
				c2.3,2.9,6.3,7.8,6.3,9.1c0,1.2-0.2,7.5,0.8,10.6S2,229,2.8,231.8c0.7,2.7,1.4,5.8,2.1,6.1s8.4-4.7,9-5.2
				c0.6-0.6,1.2-1.3,0.3-1.6c-0.8-0.2-4.6,0-5.6-0.2s-1.2-0.3-1.6-0.6c-0.3-0.2-2.8-11.3-3.3-13.1c-0.5-1.8-0.5-9.3-1.5-11.9
				c-1-2.6-1.9-4.9-1.9-4.9s2.4-7.1,2.4-11.7c0-4.6,0.3-10.1,0.3-11.1c0-0.9-0.1-2.2,0.7-3.1c0.7-0.8,2.7-2.7,3-3.5
				c0.3-0.8-0.7-4.7-1.2-6.2c-0.5-1.6-1-4.9-1-4.9l-3-1l0.4-3.9c0,0-0.9-2.5-1.6-3.2C-0.4,150.9-1.3,151.1-1.3,151.1z"/>
			<path id="XMLID_158_" class="st31" d="M-1.9,149.6c0,0-0.9-2.1-1.6-1c-0.7,1.1-0.1,2.8,0.6,3.1s1.1-0.2,1.1-0.2s2.9,4.9,4.7,5.2
				c1.7,0.2,3.1-4,3.2-5.8c0.1-1.8-0.3-4-1.4-4.3c-1.1-0.3-5,0.2-5.7,0.7C-1.7,147.7-1.9,149.6-1.9,149.6z"/>
			<path id="XMLID_165_" class="st33" d="M-2.6,148.5l2-0.8c0,0,2.6,1.7,4.1,1.4c1.5-0.2,5.1-1.5,6.1-1.6s1-0.1,1-0.1
				s-4-2.1-5.3-2.6s-4.5,0.2-6.1,1.2c-1.6,0.9-2.6,2.6-2.6,2.6S-3,147.9-2.6,148.5z"/>
			<path id="XMLID_182_" class="st34" d="M2.7,188.6c0-2,0.1-4.1,0.1-6c-1.6,0.2-4.4,0.4-7.9-0.7c-2.4-0.8-4.1-1.4-5.2-1.9
				c-0.5,0.9-1.2,1.9-2.3,3.2c-2.4,2.7-3.2,6.6-2.6,9.1c0.3,1.4,1.2,2.7,2.4,4c0.2-0.6,1.3-2.8,4-3.9c3.2-1.2,4.9,0,4.9,0l4.1,7.8
				C0.3,200.3,2.7,193.1,2.7,188.6z"/>
			<path id="XMLID_175_" class="st33" d="M2.8,184.4c0.1-3.3,0.3-6.2,0.3-6.9c0-0.9-0.1-2.2,0.7-3.1c0.7-0.8,2.7-2.7,3-3.5
				c0.3-0.8-0.7-4.7-1.2-6.2c-0.5-1.6-1-4.9-1-4.9L2.2,159l1.2,8.7c0,0-1.7,0.2-4.3-0.5c-2.7-0.7-3.8-1.2-3.8-1.2s1.7-5,1.7-7.1
				c0-0.2,0-0.4,0-0.6c-0.5-0.1-1.4-0.3-2.3-0.4c-0.1,1.3-0.3,3.3-0.9,5.3c-0.7,2.2-2,3.7-3,4.6c0.3,4,0.6,8.7,0.3,9.5
				c-0.4,0.9-0.7,2.2-1.9,3.9c1.1,1.2,3.6,3.1,7.8,3.7C-0.3,185.4,1.6,184.9,2.8,184.4z"/>
			<path id="XMLID_172_" class="st31" d="M-6.4,157.9c0,0-2.4-1.2-4-0.7c-1.6,0.6-3.2,4.7-3.8,5.6c-0.6,0.9-7.7,11.4-7.7,12.1
				s2.5,1.6,3.5,0.8c1-0.7,10.2-13.3,10.2-13.3"/>
			<path id="XMLID_170_" class="st31" d="M-17.9,172.9c0,0,2.2,1,4.2,2c2.1,1,5.2,2,5.2,2s1.9-1.7,2.5-1.8s2.2,0.9,2.2,0.9
				s0.1,0.6-0.3,0.6c-0.4,0-0.4,0-0.4,0s1.6,0.2,1.6,0.5s0.1,0.9-0.2,1.2s-0.6,0.7-1,1.1c-0.4,0.4-0.7,1.1-2.3,1.1
				c-1.6,0-3.6-1.2-3.6-1.2s-2.4-0.5-5.5-1.2c-3.1-0.7-6.1-2.6-6.5-3c-0.4-0.4,1.2-2,1.2-2"/>
			<path id="XMLID_173_" class="st35" d="M12.3,171.6c0,0-1.5-0.2-1.7,0.2c-0.2,0.5-0.3,2.3,0,2.7c0.3,0.4,1.1,0.1,1.2-0.5
				C11.8,173.5,12.3,171.6,12.3,171.6z"/>
			<path id="XMLID_176_" class="st31" d="M12.3,171.6c0,0-0.7-0.2-0.6,1.2c0.1,1.3,0.4,3.7,0.8,3.8c0.4,0.2,2.1,0.2,2.6-0.5
				c0.5-0.7,0.1-3.5-0.1-4C14.8,171.6,12.8,171.5,12.3,171.6z"/>
			<path id="XMLID_184_" class="st33" d="M-20.1,215.2c-0.3,0-0.4-0.2-0.3-1.9c0.1-1.7,0.8-2.3,0.8-2.3c-0.7-0.1-1.7-0.7-2.5-0.5
				c-0.7,0.2-1.1,1.3-1,2.7c0.1,1.3,0.8,1.7,0.3,3c-0.5,1.2-0.1,3.1,0.2,4.2c0.2,1.1,1,1.7,1.3,1.1c0.3-0.5,1.4-4.6,1.9-6.2
				C-19.6,215.2-19.9,215.2-20.1,215.2z"/>
			<path id="XMLID_185_" class="st33" d="M14.2,231c-0.8-0.2-4.6,0-5.6-0.2c-0.8-0.2-1.1-0.3-1.4-0.4c-0.2,0.1-0.5,0.3-0.5,0.7
				c-0.2,1-0.2,1.9-0.2,1.9s-1.6,1-2.6,1.3c-0.2,0.1-0.3,0.1-0.5,0.1c0.5,1.8,0.9,3.3,1.4,3.5c0.7,0.2,8.4-4.7,9-5.2
				C14.4,232,15,231.3,14.2,231z"/>
			<path id="XMLID_177_" class="st36" d="M-9.5,182.6c0,0-3.2,2.5-3,3.2c0.2,0.7,0.8,1,0.2,1.7c-0.6,0.7-1.2,0.9-1.2,1.4
				c0.1,0.5,1.7,4,2.5,4.6"/>
			<path id="XMLID_180_" class="st36" d="M-2.2,185.5c0,0-1,1.2-0.7,1.7s1.9,0.3,1,1.2c-0.9,0.9-2.1,1.2-1.3,1.6
				c0.7,0.3,1.4,0.5,1.4,0.5"/>
		</g>
	</g>
	<g>
		<g>
			<g>
				
					<image style="overflow:visible;opacity:0.15;" width="79" height="93" xlink:href="F030574B2EF6A07F.png"  transform="matrix(1 0 0 1 142.9212 -18.774)">
				</image>
				<g>
					<linearGradient id="SVGID_10_" gradientUnits="userSpaceOnUse" x1="177.9526" y1="-3.9381" x2="177.9526" y2="52.445">
						<stop  offset="0" style="stop-color:#EEC32D"/>
						<stop  offset="0.3614" style="stop-color:#F1AB2C"/>
						<stop  offset="1" style="stop-color:#F6782A"/>
					</linearGradient>
					<path class="st37" d="M200.7,15.8c0,12.6-22.8,38-22.8,38s-22.8-25.5-22.8-38S165.4-7,178-7C190.5-7,200.7,3.2,200.7,15.8z"/>
				</g>
			</g>
			<linearGradient id="SVGID_11_" gradientUnits="userSpaceOnUse" x1="177.9526" y1="31.2933" x2="177.9526" y2="0.4335">
				<stop  offset="0" style="stop-color:#EEC32D"/>
				<stop  offset="0.3614" style="stop-color:#F1AB2C"/>
				<stop  offset="1" style="stop-color:#F6782A"/>
			</linearGradient>
			<circle class="st38" cx="178" cy="15.4" r="16.7"/>
		</g>
	</g>
	<g>
		
			<radialGradient id="SVGID_12_" cx="801.8597" cy="-477.8748" r="25.0281" gradientTransform="matrix(1 0 0 0.2545 0 274.7908)" gradientUnits="userSpaceOnUse">
			<stop  offset="0" style="stop-color:#000000"/>
			<stop  offset="0.2461" style="stop-color:#4B4B4B"/>
			<stop  offset="0.5181" style="stop-color:#979797"/>
			<stop  offset="0.7434" style="stop-color:#CFCFCF"/>
			<stop  offset="0.9102" style="stop-color:#F2F2F2"/>
			<stop  offset="1" style="stop-color:#FFFFFF"/>
		</radialGradient>
		<ellipse class="st39" cx="801.9" cy="153.2" rx="25" ry="6.4"/>
		<g>
			<g>
				
					<image style="overflow:visible;opacity:0.15;" width="91" height="108" xlink:href="F030574B2EF6A07A.png"  transform="matrix(1 0 0 1 761.5095 68.8143)">
				</image>
				<g>
					<linearGradient id="SVGID_13_" gradientUnits="userSpaceOnUse" x1="801.8597" y1="86.6303" x2="801.8597" y2="151.5677">
						<stop  offset="0" style="stop-color:#EEC32D"/>
						<stop  offset="0.3614" style="stop-color:#F1AB2C"/>
						<stop  offset="1" style="stop-color:#F6782A"/>
					</linearGradient>
					<path class="st40" d="M828.1,109.4c0,14.5-26.2,43.8-26.2,43.8s-26.2-29.3-26.2-43.8s11.7-26.2,26.2-26.2
						C816.3,83.1,828.1,94.9,828.1,109.4z"/>
				</g>
			</g>
			<linearGradient id="SVGID_14_" gradientUnits="userSpaceOnUse" x1="801.8597" y1="127.2069" x2="801.8597" y2="91.6651">
				<stop  offset="0" style="stop-color:#EEC32D"/>
				<stop  offset="0.3614" style="stop-color:#F1AB2C"/>
				<stop  offset="1" style="stop-color:#F6782A"/>
			</linearGradient>
			<circle class="st41" cx="801.9" cy="108.9" r="19.3"/>
		</g>
	</g>
	<g>
		<g>
			<g>
				
					<image style="overflow:visible;opacity:0.15;" width="92" height="110" xlink:href="F030574B2EF6A07B.png"  transform="matrix(1 0 0 1 288.2575 125.5623)">
				</image>
				<g>
					<linearGradient id="SVGID_15_" gradientUnits="userSpaceOnUse" x1="328.7875" y1="143.5928" x2="328.7875" y2="209.4239">
						<stop  offset="0" style="stop-color:#6E843E"/>
						<stop  offset="1" style="stop-color:#98BF55"/>
					</linearGradient>
					<path class="st42" d="M355.4,166.6c0,14.7-26.6,44.4-26.6,44.4s-26.6-29.7-26.6-44.4c0-14.7,11.9-26.6,26.6-26.6
						C343.5,140.1,355.4,152,355.4,166.6z"/>
				</g>
			</g>
			<linearGradient id="SVGID_16_" gradientUnits="userSpaceOnUse" x1="328.7876" y1="184.7279" x2="328.7876" y2="148.6969">
				<stop  offset="0" style="stop-color:#6E843E"/>
				<stop  offset="1" style="stop-color:#98BF55"/>
			</linearGradient>
			<circle class="st43" cx="328.8" cy="166.2" r="19.5"/>
		</g>
	</g>
	<g>
		
			<radialGradient id="SVGID_17_" cx="493.5886" cy="365.399" r="32.7421" gradientTransform="matrix(1 0 0 0.2545 0 274.7908)" gradientUnits="userSpaceOnUse">
			<stop  offset="0" style="stop-color:#000000"/>
			<stop  offset="0.2461" style="stop-color:#4B4B4B"/>
			<stop  offset="0.5181" style="stop-color:#979797"/>
			<stop  offset="0.7434" style="stop-color:#CFCFCF"/>
			<stop  offset="0.9102" style="stop-color:#F2F2F2"/>
			<stop  offset="1" style="stop-color:#FFFFFF"/>
		</radialGradient>
		<ellipse class="st44" cx="493.6" cy="367.8" rx="32.7" ry="8.3"/>
		<g>
			<g>
				
					<image style="overflow:visible;opacity:0.15;" width="99" height="119" xlink:href="F030574B2EF6A076.png"  transform="matrix(1 0 0 1 451.6789 161.9836)">
				</image>
				<g>
					<linearGradient id="SVGID_18_" gradientUnits="userSpaceOnUse" x1="495.5055" y1="181.4651" x2="495.5055" y2="252.8957">
						<stop  offset="0" style="stop-color:#267DFF"/>
						<stop  offset="0.3658" style="stop-color:#1A6CE7"/>
						<stop  offset="1" style="stop-color:#0048B5"/>
					</linearGradient>
					<path class="st45" d="M524.3,206.5c0,15.9-28.8,48.2-28.8,48.2s-28.8-32.3-28.8-48.2s12.9-28.8,28.8-28.8
						S524.3,190.5,524.3,206.5z"/>
				</g>
			</g>
			<linearGradient id="SVGID_19_" gradientUnits="userSpaceOnUse" x1="495.5056" y1="226.0991" x2="495.5056" y2="187.0033">
				<stop  offset="0" style="stop-color:#267DFF"/>
				<stop  offset="0.3658" style="stop-color:#1A6CE7"/>
				<stop  offset="1" style="stop-color:#0048B5"/>
			</linearGradient>
			<circle class="st46" cx="495.5" cy="206" r="21.2"/>
		</g>
	</g>
	<g>
		<g>
			<g>
				
					<image style="overflow:visible;opacity:0.15;" width="99" height="119" xlink:href="F030574B2EF6A077.png"  transform="matrix(1 0 0 1 605.6668 22.9716)">
				</image>
				<g>
					<linearGradient id="SVGID_20_" gradientUnits="userSpaceOnUse" x1="649.4952" y1="41.8379" x2="649.4952" y2="113.3113">
						<stop  offset="0" style="stop-color:#6745D8"/>
						<stop  offset="0.3375" style="stop-color:#5434C0"/>
						<stop  offset="1" style="stop-color:#270B87"/>
					</linearGradient>
					<path class="st47" d="M678.3,66.9c0,15.9-28.8,48.2-28.8,48.2s-28.8-32.3-28.8-48.2S633.6,38,649.5,38
						C665.4,38,678.3,50.9,678.3,66.9z"/>
				</g>
			</g>
			<linearGradient id="SVGID_21_" gradientUnits="userSpaceOnUse" x1="649.4954" y1="86.4986" x2="649.4954" y2="47.3794">
				<stop  offset="0" style="stop-color:#6745D8"/>
				<stop  offset="0.3375" style="stop-color:#5434C0"/>
				<stop  offset="1" style="stop-color:#270B87"/>
			</linearGradient>
			<circle class="st48" cx="649.5" cy="66.3" r="21.2"/>
		</g>
	</g>
	<g id="XMLID_231_">
		<path id="XMLID_181_" class="st31" d="M178.7,65.7c-0.3,0-2.8-0.6-4.8,1.4c-2.1,2-1.4,4.5-1,5.8c0.4,1.3,0.4,1.8,0.2,2.3
			c-0.3,0.4-1.5,1.8-1.7,2.2c-0.2,0.4,3.4,2.3,3.4,2.3l2.8-1.7c0,0,2.5,1.5,2.8,1.4c0.3-0.1,1.1-1.4,1.8-4.5
			c0.8-3.1,0.6-5.4-0.4-7.2S178.7,65.7,178.7,65.7z"/>
		<path id="XMLID_186_" class="st49" d="M177,72.4c0,0-0.4-1.3-1.2-0.2c-0.8,1.1-0.5,1.9-0.2,2.1c0.3,0.2,0.3,0.2,0.3,0.2
			s-0.2,0.8,0.3,1.8c0.5,1,1.3,1.8,1.3,1.8"/>
		<path id="XMLID_190_" class="st29" d="M182.4,69.6c-0.1-0.7-0.4-1.2-0.7-1.8c-1-1.8-3.1-2.1-3.1-2.1c-0.3,0-2.8-0.6-4.8,1.4
			c-2.1,2-1.4,4.5-1,5.8c0.3,1,0.4,1.5,0.3,1.9c0.5,0,1.3,0,1.9-0.1c1.3-0.3,1.5-1.8,1.3-2.3c-0.3-0.5,0.4-1,0.4-1s0.5,1.3,1.1,0.5
			c0.6-0.8-0.4-2,0.6-2.7c1-0.7,2.1-0.7,3.3,0C182,69.4,182.2,69.5,182.4,69.6z"/>
		<path id="XMLID_187_" class="st29" d="M182.4,69.6c0,0,0.6,0.4,1.4-0.7c0.8-1.1,0.8-3,0.2-2.5c-0.7,0.5-0.9,0.8-0.9,0.8
			s-0.7-2.9-1.6-2.6c-0.9,0.3-0.9,1.2-0.9,1.2s-1.8-1.3-2.1-0.9c-0.3,0.4-0.6,0.6-0.6,0.6s0.2,0.1-0.3,0.3s-0.9,0.8-0.9,0.8
			s2.8,0.3,3.6,1.2C181.1,68.4,182.4,69.6,182.4,69.6z"/>
		<path id="XMLID_194_" class="st29" d="M176.5,83.5c0,0,1.5,0.5,1.6,3c0.1,2.5,2,8.9,2,8.9s2.3-2.5,2.7-3c0.4-0.5,1.3-0.7,2.1,0.8
			c0.8,1.4,0.6,3.1-0.7,5.1c-1.3,2-3.6,5-5.5,4.7c-1.9-0.3-5.1-6.1-5.2-6.8c-0.1-0.7,1.5-7.4,1.8-8.5
			C175.5,86.6,176.5,83.5,176.5,83.5z"/>
		<path id="XMLID_196_" class="st31" d="M158.1,107.6c0,0-1.2,1.6-0.8,3.1c0.4,1.5,1.1,2.9,1.1,2.9s-2.8,8.9-3.4,10.8
			c-0.7,1.8-0.2,2-1.9,3.1c-1.8,1.1-5.6,2.6-6.8,6.6c-1.3,4-2.9,7.8-3.4,8.8c-0.5,1-0.8,1.6-1.8,1.6c-1.1,0-2.9-0.5-3.1,0.9
			c-0.2,1.4,0,3.5,0,4c0,0.5-1.3,1.3-0.8,3.1c0.5,1.8,1.4,3.3,1.9,3.5c0.5,0.2,1.4-0.1,1.5-0.5c0.1-0.4-0.9-1.1-0.4-2.6
			c0.5-1.5,3-3.9,4.4-5.3c1.4-1.3,4.8-7.3,7.3-9.9c2.5-2.7,5.3-6,7.4-7.8c2-1.8,6.1-8.5,6.9-10c0.8-1.5,1.8-3.6,1.8-3.6
			s8.8,1.7,10.3,1.9c1.5,0.3,3,0.8,3,0.8s-2.6,2.3-3.3,5.8c-0.7,3.5-2.2,9.9-2.9,11.9c-0.8,2.1-1.3,3.3-1.8,4.4
			c-0.5,1.1-1.3,2.5-0.8,3.2c0.6,0.7,3.8,1.1,5.3,1.3c1.6,0.3,4.7,0.2,5.3-0.4c0.7-0.6,0.8-0.9,0.3-1s-2.8-1.6-3.4-2.2
			c-0.7-0.6-1.2-1.6-1.1-2c0.1-0.4,3.8-8.7,5.5-12c1.7-3.3,3.5-9.2,4-10.5c0.5-1.3,0.7-1.6,0.2-2.3c-0.5-0.7-3.6-3-8.8-5.8
			c-5.2-2.8-8-2.9-9.6-3.2c-1.6-0.3-4.3-2.7-7.9-1.1C158.8,106.7,158.1,107.6,158.1,107.6z"/>
		<path id="XMLID_189_" class="st29" d="M176.8,82.7c0,0,0.3,3.2-0.3,7.6c-0.6,4.4-3.8,11-4,12.6c-0.3,1.6,0.8,2.6,0.5,3.1
			c-0.3,0.5-1,0.7-1.8,0.7c-0.8,0-4.1-0.8-6.7-0.3c-2.6,0.5-5.4,2.8-6,2.6c-0.6-0.3-1.5-1.3-0.9-2.3c0.6-1,1.2-1.6,1.7-2.6
			c0.5-1,3-8.9,3.6-11.5c0.6-2.6,0.3-5.6,0.3-7.7c-0.1-2.1,1.7-5.5,3-6c1.3-0.5,5.1,0.5,5.5,0.5C172,79.3,176,80.6,176.8,82.7z"/>
		<path id="XMLID_188_" class="st34" d="M174.8,82c0,0,1.9,2.4,2.2,2.3c0.3-0.2,1.2-1,0.4-3c-0.8-2-2.5-3.3-4.3-4.9
			c-1.8-1.6-3.8-4-5-2.6c-1.3,1.4-3.6,4.7-2.6,5.8c1,1.1,6.3,1.3,7.4,1.8C174,81.7,174.8,82,174.8,82z"/>
		<path id="XMLID_192_" class="st31" d="M153.9,99.5c0,0,0.3,1,0.9,2.1c0.7,1.1,1,2.3,0.6,2.7c-0.4,0.4-0.4,0.4-2.1,0.9
			c-1.7,0.5-2.3,0.2-2.5-0.3c-0.2-0.4,0.5-0.9,0.5-0.9s-1.1-0.3-1.1-1.3c0-1.1,0.3-3.3,0.3-3.3l3.3-0.3L153.9,99.5z"/>
		<path id="XMLID_183_" class="st34" d="M150,97.8c0,0-0.1,1.7,0.4,2.1c0.5,0.4,3.2,0,3.5-0.3c0.3-0.3,0.4-2.5,0.4-2.5L150,97.8z"/>
		<path id="XMLID_191_" class="st29" d="M170.3,81.4c0,0-1.2-1.3-2.9-1.8c-1.8-0.6-7.3-0.2-11.1,0.8c-3.8,1-5.4,0.9-6,2.4
			c-0.6,1.5-1.5,13.2-1.3,14.5c0.2,1.3,2.8,1.4,4.1,1.1c1.3-0.3,2.3-1.2,2.7-2.9s0.3-8,0.9-8.7c0.6-0.7,7.5-0.3,9.4-0.5
			c1.9-0.3,3.3-0.8,3.6-1.3"/>
		<path id="XMLID_193_" class="st34" d="M183.9,91.8c0,0-1.4,0.8-1.2,2c0.3,1.3,1.5,2.2,2,2.1c0.5-0.1,1.5-1.4,1.5-1.4
			S186.4,91.2,183.9,91.8z"/>
		<path id="XMLID_195_" class="st31" d="M183.7,92.8c0,0,0.7,1.9,1.5,2c0.8,0.1,1.3-0.4,2.3-1.4c1-1,2-1.8,2-3.1
			c0-1.3-0.3-3.2-1.1-3.3c-0.8-0.1-1.3,0.2-1.3,0.2s-0.3-0.5-1,0.1c-0.8,0.6-0.6,1-1,1.8c-0.4,0.8-0.5,1.1-0.4,1.8
			c0.1,0.7,0.1,0.9,0.1,0.9L183.7,92.8z"/>
		<path id="XMLID_197_" class="st49" d="M187,87.2c0.3,0.4,0.7,2.7,0.3,3c-0.3,0.3-0.9,1-1.1,0.3c-0.2-0.8-0.5-1.8-0.5-1.8"/>
		<path id="XMLID_202_" class="st33" d="M179.8,109.4c-5.2-2.8-8-2.9-9.6-3.2c-1.6-0.3-4.3-2.7-7.9-1.1c-3.6,1.6-4.3,2.5-4.3,2.5
			s-1.2,1.6-0.8,3.1c0.4,1.5,1.1,2.9,1.1,2.9s-2.8,8.9-3.4,10.8c0,0.1-0.1,0.2-0.1,0.3c0.7,0.3,1.6,0.6,2.6,1
			c1.7,0.7,2.6,1.8,3.1,2.7c2.1-2.7,4.9-7.3,5.5-8.5c0.8-1.5,1.8-3.6,1.8-3.6s8.8,1.7,10.3,1.9c0.5,0.1,1,0.2,1.5,0.3
			c0.2-1.3,0.7-3,1.5-4.7c0.8-1.5,1.6-2.2,2.1-2.5C182.3,110.8,181.1,110.1,179.8,109.4z"/>
		<path id="XMLID_204_" class="st50" d="M183.1,145.2c0.7-0.6,0.8-0.9,0.3-1c-0.4-0.1-2.8-1.6-3.4-2.2c-0.7-0.6-1.2-1.6-1.1-2
			c0-0.1,0.4-1.1,1-2.4c-0.7,0.2-1.5,0.3-2.2,0.3c-0.8-0.1-2-0.5-2.9-0.8c-0.7,1.9-1.2,3.1-1.7,4.1c-0.5,1.1-1.3,2.5-0.8,3.2
			c0.6,0.7,3.8,1.1,5.3,1.3C179.3,145.9,182.4,145.8,183.1,145.2z"/>
		<path id="XMLID_203_" class="st29" d="M183.4,144.2c-0.4-0.1-2.8-1.6-3.4-2.2c-0.7-0.6-1.2-1.6-1.1-2c0,0-0.3-1.1-1.1-1.3
			c-0.8-0.2-1.1,2.1-1.1,2.1l-3.2-0.6c-0.1,0.3-0.3,0.6-0.4,0.9c-0.5,1.1-1.3,2.5-0.8,3.2c0.6,0.7,3.8,1.1,5.3,1.3
			c1.6,0.3,4.7,0.2,5.3-0.4C183.8,144.6,183.9,144.3,183.4,144.2z"/>
		<path id="XMLID_206_" class="st50" d="M143.8,145.7c-0.7-0.5-1.2-1.5-1.4-2.1c-0.3,0.6-0.7,0.9-1.5,0.9c-1.1,0-2.9-0.5-3.1,0.9
			c-0.2,1.4,0,3.5,0,4c0,0.5-1.3,1.3-0.8,3.1c0.5,1.8,1.4,3.3,1.9,3.5c0.5,0.2,1.4-0.1,1.5-0.5c0.1-0.4-0.9-1.1-0.4-2.6
			c0.5-1.5,3-3.9,4.4-5.3c0.3-0.2,0.6-0.6,0.9-1.1C145,146.4,144.4,146.1,143.8,145.7z"/>
		<path id="XMLID_205_" class="st29" d="M142.6,149.7c-0.1-0.1-0.1-0.2-0.2-0.3c-0.5-0.7-1.3,0.1-1.3,0.1s-0.8-0.9-0.8-2.2
			c0.1-1,0.9-2.3,1.3-2.8c-0.2,0-0.3,0.1-0.6,0.1c-1.1,0-2.9-0.5-3.1,0.9c-0.2,1.4,0,3.5,0,4c0,0.5-1.3,1.3-0.8,3.1
			c0.5,1.8,1.4,3.3,1.9,3.5c0.5,0.2,1.4-0.1,1.5-0.5c0.1-0.4-0.9-1.1-0.4-2.6C140.5,152,141.5,150.8,142.6,149.7z"/>
	</g>
	
		<radialGradient id="SVGID_22_" cx="157.6716" cy="-479.1624" r="27.2093" gradientTransform="matrix(1 0 0 0.2545 0 274.7908)" gradientUnits="userSpaceOnUse">
		<stop  offset="0" style="stop-color:#000000"/>
		<stop  offset="0.2461" style="stop-color:#4B4B4B"/>
		<stop  offset="0.5181" style="stop-color:#979797"/>
		<stop  offset="0.7434" style="stop-color:#CFCFCF"/>
		<stop  offset="0.9102" style="stop-color:#F2F2F2"/>
		<stop  offset="1" style="stop-color:#FFFFFF"/>
	</radialGradient>
	<ellipse class="st51" cx="157.7" cy="152.8" rx="27.2" ry="6.9"/>
	<g>
		<g id="XMLID_125_">
			<path id="XMLID_156_" class="st52" d="M318.7,240.7c0,0-5.5,5-8.1,6.8c-2.6,1.8-4.6,3.4-3.9,5.5s4.8,10.2,5.3,11.1
				c0.5,0.9,2.7-0.7,2.9-1.4c0.2-0.7,1.2-3.7,0.6-5.1c-0.6-1.4-1.7-4.4-1.7-4.4l4.2-2.8c0,0,0.9-2.9,1.5-5.6
				C320.1,242.1,320.8,238,318.7,240.7z"/>
			<path id="XMLID_162_" class="st53" d="M324.5,292.1l5.1-0.9l5.6-2.9c0,0-3.9-2.2-6.5-1.5C326.1,287.5,324.7,291.1,324.5,292.1z"
				/>
			<path id="XMLID_163_" class="st31" d="M308.3,290.1c0,0-1.6-1-5.5-0.4c-3.9,0.6-8.4,1.5-11.7,1.5c-3.3,0-5.1,0.3-5.7,0
				c-0.6-0.3-3.1-3.7-3.5-3.1c-0.4,0.6-2.6,4.6-3.2,7.5c-0.6,2.9-1.3,4.3-0.2,4.4c1.1,0.1,4.5-4.8,4.8-5c0.3-0.2,10.7,0,16.5,0.6
				c5.7,0.6,11.1,1.2,13.4,0c2.2-1.2,3.3-2.2,2.6-3.5C315,291,308.3,290.1,308.3,290.1z"/>
			<path id="XMLID_164_" class="st31" d="M326.8,287.5c0,0,1.1,3.6,1.8,7.8c0.7,4.2,1.5,6.9,3.8,9.4s4.4,5.5,4.7,6.4
				c0.3,0.9,1.4,4.4,1.9,4.5c0.5,0.1,3.4-1.4,4.4-2c1-0.6,3.7-1.7,4.4-2.7c0.7-0.9,1.4-2.4,0.7-2.4s-4.6,1-5.9,0.9
				c-1.3-0.1-1.8-0.6-2.6-1.9c-0.7-1.3-3.5-7.9-4.6-11.3c-1.1-3.5-1.1-7.5-1.8-9c-0.7-1.5-0.4-2.7-2.9-2.9
				C328.3,284.1,326.8,287.5,326.8,287.5z"/>
			<path id="XMLID_161_" class="st29" d="M312.4,268.5c0,0-1.4,1.8-1.4,4.1c0,2.2,0.3,4.1,0.2,4.7c-0.1,0.6-4.1,12-4.1,12.3
				s2.7,3.4,5.7,4.2c3.1,0.8,3.6,0.6,3.6,0.6l5.7-13.6l2.5,11.3c0,0,3.5-3.3,4.8-4.1c1.3-0.8,5.9,0.3,5.9,0.3s-1.5-4.5-4.1-10
				c-2.6-5.5-3-6.9-3.1-9.1c-0.1-2.1,0-3.3,0-3.3L312.4,268.5z"/>
			<path id="XMLID_160_" class="st52" d="M312.7,265.2l-1.1,4c0,0,3.7,2.4,8,1.6c4.3-0.7,8.6-1.6,8.6-1.6v-1.5L312.7,265.2z"/>
			<path id="XMLID_153_" class="st33" d="M318.5,241.5c0,0-1.3,8.9-3.6,14.7c-2.2,5.8-4.6,8.5-1.7,10.1c2.9,1.6,12.5,2.1,14.1,2.1
				c1.6,0,1.7-0.7,2.4-3c0.6-2.2,4.2-21.4,3.6-23.4c-0.6-2-0.9-3-2.2-3.9s-8.9-0.5-10.1,0.5C319.6,239.8,318.5,241.5,318.5,241.5z"
				/>
			<path id="XMLID_148_" class="st32" d="M328.1,232.4l-1.4,3.8l3,2.7l1.7-5.3C331.4,233.5,329.6,231.2,328.1,232.4z"/>
			<path id="XMLID_149_" class="st31" d="M328.2,233.4c0,0-1.2-0.9-1.6-4.5c-0.4-3.6,3.1-5.9,5.5-6.1c2.5-0.2,4.8,1.4,5,3
				c0.2,1.5-0.4,3.7-0.4,4c0,0.3,0.9,3,0.6,3.4c-0.3,0.4-0.9,0.9-0.9,0.9s-0.5,5.8-1.1,6.7c-0.6,0.9-1.2,1.1-2.2,0.4
				c-1-0.7-2.9-2.5-3.4-3.9c-0.5-1.4,0.2-3.6,0.2-3.6S328.6,234.2,328.2,233.4z"/>
			<path id="XMLID_155_" class="st29" d="M335.3,240.8c0.6-0.9,1.1-6.7,1.1-6.7s0.1-0.1,0.3-0.2c-0.4-0.1-1.1,0.2-1.8,0.7
				c-1,0.6-1.9,1.6-3.3,1c-1.3-0.6-0.1-1.8,0.1-4c0.2-2.1,0.1-1.2,0.5-2.1c0.4-0.9,0-0.8-0.6-1.4c-0.6-0.6-0.1-1.4,2.6-1.9
				c1.5-0.3,2.4,0.1,3,0.6c0-0.3,0-0.6,0-0.8c-0.2-1.5-2.6-3.2-5-3c-2.5,0.2-5.9,2.6-5.5,6.1c0.4,3.6,1.6,4.5,1.6,4.5
				c0.4,0.8,1.6,0.3,1.6,0.3s-0.7,2.1-0.2,3.6c0.5,1.4,2.4,3.2,3.4,3.9C334,241.9,334.7,241.7,335.3,240.8z"/>
			<path id="XMLID_150_" class="st31" d="M330.4,233.2c0,0-0.1-2.1-0.7-2.5c-0.6-0.3-1.3-0.2-0.8,1S330.4,233.2,330.4,233.2z"/>
			<path id="XMLID_152_" class="st52" d="M333,241.2c0,0-1.4-3-4.2-5.3c-2.8-2.4-4.8-4.2-6.2-3.5c-1.4,0.7-4.1,4.9-4.7,7.1
				c-0.6,2.1-1.1,3.5-0.7,3.7c0.4,0.2,8.2-3.1,8.9-3.2C326.8,239.9,333,241.2,333,241.2z"/>
			<path id="XMLID_159_" class="st31" d="M343.5,259.1c0,0,2.9-1.9,3.5-2.2c0.6-0.3,2.4,1.1,2.4,1.1s1.3-0.2,1.5,0.4
				c0.2,0.6,0.3,1.5,0,1.6c-0.3,0.1-0.7,0.2-0.8,0.5c-0.1,0.3-0.2,1.4-0.9,1.9c-0.7,0.5-2.1,0.5-3.2,0.4c-1-0.1-2.4-0.3-2.4-0.3
				L343.5,259.1z"/>
			<polygon id="XMLID_157_" class="st52" points="341.1,259 343.5,259.1 343.8,263.4 341.3,263.6 			"/>
			<path id="XMLID_154_" class="st33" d="M326.3,243.3c-0.4,0-2.4-0.7-2.7,2.5c-0.3,3.2-0.7,15.2-0.1,16.9c0.6,1.6,1.9,2.1,3.5,2.1
				c1.5,0,13.6-0.2,14.3-1.2c0.7-1,1.2-4.1-0.2-4.6c-1.4-0.5-9.5-0.9-9.9-2.1c-0.4-1.2,1.1-7.5,0.4-9.8c-0.7-2.4-1.9-3.5-1.9-3.5"/>
			<path id="XMLID_167_" class="st33" d="M281.9,288.2c-0.4,0.6-2.6,4.6-3.2,7.5c-0.6,2.9-1.3,4.3-0.2,4.4c1.1,0.1,4.1-4.2,4.7-4.9
				c-0.1-0.2-0.1-0.5-0.3-0.8c-0.4-0.7-1.4,0-1.4,0s0.7-1.5,1.8-2.7c1-1,1.8-0.6,2-0.4C284.7,290.8,282.3,287.6,281.9,288.2z"/>
			<path id="XMLID_169_" class="st33" d="M347.8,310.9c0.7-0.9,1.4-2.4,0.7-2.4s-4.6,1-5.9,0.9c-0.6,0-1.1-0.2-1.4-0.5
				c-0.4,0.2-0.8,0.5-0.8,0.8c-0.1,0.6,0.1,1.2,0.1,1.2s-0.3,0.2-1.5,0.8c-0.5,0.2-1,0.4-1.4,0.6c0.5,1.3,1.1,3.1,1.5,3.2
				c0.5,0.1,3.4-1.4,4.4-2C344.5,312.9,347.1,311.8,347.8,310.9z"/>
		</g>
		
			<radialGradient id="SVGID_23_" cx="317.4889" cy="160.3023" r="31.2474" gradientTransform="matrix(1 0 0 0.2545 0 274.7908)" gradientUnits="userSpaceOnUse">
			<stop  offset="0" style="stop-color:#000000"/>
			<stop  offset="0.2461" style="stop-color:#4B4B4B"/>
			<stop  offset="0.5181" style="stop-color:#979797"/>
			<stop  offset="0.7434" style="stop-color:#CFCFCF"/>
			<stop  offset="0.9102" style="stop-color:#F2F2F2"/>
			<stop  offset="1" style="stop-color:#FFFFFF"/>
		</radialGradient>
		<ellipse class="st54" cx="317.5" cy="315.6" rx="31.2" ry="8"/>
	</g>
	<g>
		<g id="XMLID_21_">
			<path id="XMLID_38_" class="st52" d="M789.2,183.7c0,0-5.5,5-8.1,6.8c-2.6,1.8-4.6,3.4-3.9,5.5s4.8,10.2,5.3,11.1
				c0.5,0.9,2.7-0.7,2.9-1.4c0.2-0.7,1.2-3.7,0.6-5.1c-0.6-1.4-1.7-4.4-1.7-4.4l4.2-2.8c0,0,0.9-2.9,1.5-5.6
				C790.6,185.1,791.2,181,789.2,183.7z"/>
			<path id="XMLID_37_" class="st53" d="M795,235.1l5.1-0.9l5.6-2.9c0,0-3.9-2.2-6.5-1.5C796.6,230.5,795.2,234.1,795,235.1z"/>
			<path id="XMLID_36_" class="st31" d="M778.8,233.1c0,0-1.6-1-5.5-0.4c-3.9,0.6-8.4,1.5-11.7,1.5c-3.3,0-5.1,0.3-5.7,0
				c-0.6-0.3-3.1-3.7-3.5-3.1c-0.4,0.6-2.6,4.6-3.2,7.5s-1.3,4.3-0.2,4.4c1.1,0.1,4.5-4.8,4.8-5c0.3-0.2,10.7,0,16.5,0.6
				c5.7,0.6,11.1,1.2,13.4,0c2.2-1.2,3.3-2.2,2.6-3.5C785.5,233.9,778.8,233.1,778.8,233.1z"/>
			<path id="XMLID_35_" class="st31" d="M797.3,230.5c0,0,1.1,3.6,1.8,7.8c0.7,4.2,1.5,6.9,3.8,9.4s4.4,5.5,4.7,6.4
				c0.3,0.9,1.4,4.4,1.9,4.5c0.5,0.1,3.4-1.4,4.4-2c1-0.6,3.7-1.7,4.4-2.7c0.7-0.9,1.4-2.4,0.7-2.4c-0.7,0-4.6,1-5.9,0.9
				s-1.8-0.6-2.6-1.9c-0.7-1.3-3.5-7.9-4.6-11.3c-1.1-3.5-1.1-7.5-1.8-9c-0.7-1.5-0.4-2.7-2.9-2.9
				C798.8,227.1,797.3,230.5,797.3,230.5z"/>
			<path id="XMLID_34_" class="st29" d="M782.9,211.5c0,0-1.4,1.8-1.4,4.1c0,2.2,0.3,4.1,0.2,4.7c-0.1,0.6-4.1,12-4.1,12.3
				c0,0.3,2.7,3.4,5.7,4.2c3.1,0.8,3.6,0.6,3.6,0.6l5.7-13.6l2.5,11.3c0,0,3.5-3.3,4.8-4.1c1.3-0.8,5.9,0.3,5.9,0.3s-1.5-4.5-4.1-10
				c-2.6-5.5-3-6.9-3.1-9.1s0-3.3,0-3.3L782.9,211.5z"/>
			<path id="XMLID_33_" class="st52" d="M783.2,208.2l-1.1,4c0,0,3.7,2.4,8,1.6c4.3-0.7,8.6-1.6,8.6-1.6v-1.5L783.2,208.2z"/>
			<path id="XMLID_32_" class="st33" d="M789,184.5c0,0-1.3,8.9-3.6,14.7c-2.2,5.8-4.6,8.5-1.7,10.1c2.9,1.6,12.5,2.1,14.1,2.1
				s1.7-0.7,2.4-3c0.6-2.2,4.2-21.4,3.6-23.4s-0.9-3-2.2-3.9c-1.3-0.9-8.9-0.5-10.1,0.5C790.1,182.7,789,184.5,789,184.5z"/>
			<path id="XMLID_31_" class="st32" d="M798.6,175.4l-1.4,3.8l3,2.7l1.7-5.3C801.9,176.5,800.1,174.2,798.6,175.4z"/>
			<path id="XMLID_30_" class="st31" d="M798.7,176.4c0,0-1.2-0.9-1.6-4.5c-0.4-3.6,3.1-5.9,5.5-6.1c2.5-0.2,4.8,1.4,5,3
				c0.2,1.5-0.4,3.7-0.4,4c0,0.3,0.9,3,0.6,3.4c-0.3,0.4-0.9,0.9-0.9,0.9s-0.5,5.8-1.1,6.7c-0.6,0.9-1.2,1.1-2.2,0.4
				c-1-0.7-2.9-2.5-3.4-3.9c-0.5-1.4,0.2-3.6,0.2-3.6S799.1,177.2,798.7,176.4z"/>
			<path id="XMLID_29_" class="st29" d="M805.7,183.8c0.6-0.9,1.1-6.7,1.1-6.7s0.1-0.1,0.3-0.2c-0.4-0.1-1.1,0.2-1.8,0.7
				c-1,0.6-1.9,1.6-3.3,1c-1.3-0.6-0.1-1.8,0.1-4c0.2-2.1,0.1-1.2,0.5-2.1c0.4-0.9,0-0.8-0.6-1.4c-0.6-0.6-0.1-1.4,2.6-1.9
				c1.5-0.3,2.4,0.1,3,0.6c0-0.3,0-0.6,0-0.8c-0.2-1.5-2.6-3.2-5-3c-2.5,0.2-5.9,2.6-5.5,6.1c0.4,3.6,1.6,4.5,1.6,4.5
				c0.4,0.8,1.6,0.3,1.6,0.3s-0.7,2.1-0.2,3.6c0.5,1.4,2.4,3.2,3.4,3.9C804.5,184.9,805.1,184.7,805.7,183.8z"/>
			<path id="XMLID_28_" class="st31" d="M800.8,176.2c0,0-0.1-2.1-0.7-2.5c-0.6-0.3-1.3-0.2-0.8,1
				C799.8,176,800.8,176.2,800.8,176.2z"/>
			<path id="XMLID_27_" class="st52" d="M803.5,184.2c0,0-1.4-3-4.2-5.3c-2.8-2.4-4.8-4.2-6.2-3.5c-1.4,0.7-4.1,4.9-4.7,7.1
				s-1.1,3.5-0.7,3.7c0.4,0.2,8.2-3.1,8.9-3.2C797.3,182.8,803.5,184.2,803.5,184.2z"/>
			<path id="XMLID_26_" class="st31" d="M814,202.1c0,0,2.9-1.9,3.5-2.2c0.6-0.3,2.4,1.1,2.4,1.1s1.3-0.2,1.5,0.4
				c0.2,0.6,0.3,1.5,0,1.6c-0.3,0.1-0.7,0.2-0.8,0.5c-0.1,0.3-0.2,1.4-0.9,1.9c-0.7,0.5-2.1,0.5-3.2,0.4s-2.4-0.3-2.4-0.3L814,202.1
				z"/>
			<polygon id="XMLID_25_" class="st52" points="811.6,202 814,202.1 814.2,206.4 811.8,206.6 			"/>
			<path id="XMLID_24_" class="st33" d="M796.8,186.3c-0.4,0-2.4-0.7-2.7,2.5c-0.3,3.2-0.7,15.2-0.1,16.9c0.6,1.6,1.9,2.1,3.5,2.1
				s13.6-0.2,14.3-1.2c0.7-1,1.2-4.1-0.2-4.6c-1.4-0.5-9.5-0.9-9.9-2.1s1.1-7.5,0.4-9.8c-0.7-2.4-1.9-3.5-1.9-3.5"/>
			<path id="XMLID_23_" class="st33" d="M752.4,231.2c-0.4,0.6-2.6,4.6-3.2,7.5c-0.6,2.9-1.3,4.3-0.2,4.4c1.1,0.1,4.1-4.2,4.7-4.9
				c-0.1-0.2-0.1-0.5-0.3-0.8c-0.4-0.7-1.4,0-1.4,0s0.7-1.5,1.8-2.7c1-1,1.8-0.6,2-0.4C755.2,233.8,752.8,230.6,752.4,231.2z"/>
			<path id="XMLID_22_" class="st33" d="M818.3,253.9c0.7-0.9,1.4-2.4,0.7-2.4c-0.7,0-4.6,1-5.9,0.9c-0.6,0-1.1-0.2-1.4-0.5
				c-0.4,0.2-0.8,0.5-0.8,0.8c-0.1,0.6,0.1,1.2,0.1,1.2s-0.3,0.2-1.5,0.8c-0.5,0.2-1,0.4-1.4,0.6c0.5,1.3,1.1,3.1,1.5,3.2
				c0.5,0.1,3.4-1.4,4.4-2C814.9,255.9,817.6,254.8,818.3,253.9z"/>
		</g>
		
			<radialGradient id="SVGID_24_" cx="787.9618" cy="-63.697" r="31.2474" gradientTransform="matrix(1 0 0 0.2545 0 274.7908)" gradientUnits="userSpaceOnUse">
			<stop  offset="0" style="stop-color:#000000"/>
			<stop  offset="0.2461" style="stop-color:#4B4B4B"/>
			<stop  offset="0.5181" style="stop-color:#979797"/>
			<stop  offset="0.7434" style="stop-color:#CFCFCF"/>
			<stop  offset="0.9102" style="stop-color:#F2F2F2"/>
			<stop  offset="1" style="stop-color:#FFFFFF"/>
		</radialGradient>
		<ellipse class="st55" cx="788" cy="258.6" rx="31.2" ry="8"/>
	</g>
	<g>
		<g id="XMLID_233_">
			<path id="XMLID_228_" class="st56" d="M505.7,325.2c0,0,2.8,6.7,4.6,10.3c1.9,3.6,2,6.2,2.3,7.6s2.6,15.2,3.4,18.2
				c0.8,3,1.3,4,2,4.1c0.6,0.1,4.2,0,6.1-0.4c1.9-0.4,2.4-0.1,2.3,0.8c-0.1,0.9-4.2,3.2-6,4.3s-3.3,1.7-3.9,1.4
				c-0.6-0.2-1.8-3.4-2.6-5.2c-0.8-1.8-4.2-7.9-6.3-12.5c-2.1-4.5-1.9-10.5-2.8-12.7c-0.9-2.2-4.5-6.3-5.3-7.1
				c-0.7-0.8-0.9-6.5,0.3-8.9C501,322.9,504.6,323.5,505.7,325.2z"/>
			<path id="XMLID_230_" class="st34" d="M504,326.4c0,0-2.5,7.4-4.6,13c-2.2,5.6-8.3,14.3-9.7,14.3c-1.4,0-12.3-7.1-14.6-9.2
				c-2.4-2.1-8.3-6.2-9.2-6.8c-0.9-0.6-1.5-0.7-1.5-0.7s-4.4,4.5-5,4.5c-0.5,0-0.5-0.7-0.3-1.5c0.2-0.8,2.5-5.5,3.2-6.9
				c0.7-1.4,2.1-2.6,3.3-1.3c3.6,3.6,7.8,5.8,12.1,7.1c4.1,1.3,6.1,4.2,8.1,5.2c2.1,0.9,2.3-0.5,2.7-1.7c0.4-1.1,2-10.4,2-12.7
				c0-2.3-0.8-7.1,0-8.4c0.8-1.2,8.3,3,9.8,3.6C501.8,325.6,504,326.4,504,326.4z"/>
			<path id="XMLID_229_" class="st52" d="M492.6,292.1c0,0-2.8,2.3-3.9,4.6c-1.1,2.4-5.4,8.7-5.6,9.8c-0.2,1.1,2.6,4.8,3.9,7.3
				c1.3,2.5,3.5,5.8,3.8,6c0.3,0.2,2.6-2.1,2.6-2.1s-3.2-6.4-3.8-7.7c-0.6-1.3-0.7-2.3-0.7-2.8c0-0.5,4.4-6.4,4.7-6.9
				S492.6,292.1,492.6,292.1z"/>
			<path id="XMLID_224_" class="st33" d="M505,292.5c0,0,1.7,5.4,2.3,10.4c0.6,5.1-1.2,20.6-1.2,20.6s1.7,2.3,0.9,2.9
				c-0.7,0.6-7.1,1.5-10.4,0.3c-3.3-1.2-7.2-4.4-6.8-5.4c0.4-0.9,2.6-3.9,3.7-6.5c1.1-2.6,2-3.2,1.2-5c-0.7-1.8-2.8-13-2.8-15.7
				s1.4-2.7,3-3.7c1.5-1,4.7-1.4,6.3-0.9C502.7,290.1,505,292.5,505,292.5z"/>
			<path id="XMLID_219_" class="st29" d="M497.4,277.7c0,0-0.2-3.2-6.1-4.5c-5.9-1.3-11,0.4-11.2,5.3c-0.2,4.8,2.9,8,3.7,8.4
				c0.8,0.3,0.4-1.7,1.1-1.9c0.7-0.2,3.1,3,2.8,4.5c-0.3,1.5-6,0.5-7-0.1c-1-0.6,0.3,1.5,1.4,3.4c1.1,1.9,3.7,4.6,7.7,2.7
				c4-2,4.6-6.5,3.6-8.8c-1-2.3-1.7-4.8-0.1-6.5c1.5-1.7,3.7-0.8,3.7-0.8S497.7,279,497.4,277.7z"/>
			<path id="XMLID_221_" class="st31" d="M499.9,285c0,0-2-1.8-2.6-5.1c-0.6-3.3,2.4-5.7,4.6-6.4c2.3-0.7,5.6,1.1,6.7,2.8
				c1.1,1.7,0.3,3.2,0.4,3.9c0.1,0.7,1,1.9,0.9,2.4c-0.1,0.5-1,1-1,1s-1.3,2.9-1.9,3.3c-0.5,0.4-3.2-0.5-3.2-0.5l-1.2,3.7l-4.7-1.2
				L499.9,285z"/>
			<path id="XMLID_225_" class="st29" d="M499.9,285c0,0-2-1.8-2.6-5.1c-0.6-3.3,2.4-5.7,4.6-6.4c1.5-0.5,3.5,0.2,4.9,1.2
				c-0.5,0-1,0.1-1.4,0.5c-1.5,1.3-1.8,4.6-1.8,4.6s-1.8-1.2-2,0.2c-0.2,1.4,0,2.1,0.4,2.3c0.4,0.2,0.4,0.2,0.4,0.2
				s-0.4,1.9-0.8,2.2C501.5,284.8,500.7,285,499.9,285L499.9,285z"/>
			<path id="XMLID_222_" class="st50" d="M498.4,286.8c0.3,0.1,4.2,1.9,6.3,3.7c2.1,1.9,1.8,3.3,1.5,3.6c-0.2,0.3-3.8-3.2-5.2-3.6
				c-1.3-0.4-6.7,1.4-7.4,1.5c-0.7,0.1-1-0.9-0.2-2.5C494.2,288.1,496.5,286,498.4,286.8z"/>
			<path id="XMLID_226_" class="st31" d="M521.4,296.4c0,0,1.5-1.8,2-2.3c0.4-0.5,1,0,0.9,0.6c-0.1,0.6-0.4,1.2-0.4,1.2L521.4,296.4
				z"/>
			<path id="XMLID_227_" class="st31" d="M519.7,299.4c0,0,0.9-2.3,1.7-3c0.7-0.7,4.5-1.5,5.1-0.8c0.5,0.7,0.8,2.8,0.1,3.2
				c-0.7,0.4-1.2-0.2-1.7,0.1s-2,2-2.6,2.5c-0.6,0.5-1.7,0-1.7,0L519.7,299.4z"/>
			<path id="XMLID_223_" class="st33" d="M501.5,294.1c0.3-0.1,1.9-1.9,3.8-0.3s6.8,16.7,6.8,16.7s2.8-2.4,3.6-4.4
				c0.8-2.1,3.8-6.2,4-6.7c0.2-0.5,2.2,0.5,2.6,2s0.3,1.4-0.5,4.1c-0.8,2.7-8.5,10.5-10.4,10.9c-2,0.4-9-13.3-9.7-14.2"/>
			<path id="XMLID_236_" class="st31" d="M516,361.3C516,361.3,516,361.3,516,361.3c0.8,3,1.4,4.1,2,4.2c0.6,0.1,4.2,0,6.1-0.4
				c1.9-0.4,2.4-0.1,2.3,0.8c-0.1,0.9-4.2,3.2-6,4.3c-1.8,1.1-3.3,1.7-3.9,1.4c-0.6-0.2-1.8-3.4-2.6-5.2c-0.3-0.6-1-1.9-1.8-3.4
				C513.6,362.6,515,361.9,516,361.3z"/>
			<path id="XMLID_235_" class="st29" d="M524.1,365c1.9-0.4,2.4-0.1,2.3,0.8c-0.1,0.9-4.2,3.2-6,4.3c-1.8,1.1-3.3,1.7-3.9,1.4
				c-0.5-0.2-1.3-2.1-2-3.8l2.4-0.2c0,0,0,0,0.2-1.4c0.1-0.8,0.4-0.9,0.6-0.9c0.1,0.1,0.2,0.2,0.3,0.2
				C518.6,365.5,522.2,365.4,524.1,365z"/>
			<path id="XMLID_237_" class="st31" d="M462.3,333.1c0.7-1.4,2.1-2.6,3.3-1.3c1.7,1.7,3.6,3.1,5.6,4.3c-0.5,0.4-1,0.9-1.5,1.7
				c-0.4,0.7-0.8,1.4-1,2c-1.4-1-2.5-1.7-2.8-2c-0.9-0.6-1.5-0.7-1.5-0.7s-4.4,4.5-5,4.5c-0.5,0-0.5-0.7-0.3-1.5
				C459.3,339.2,461.5,334.6,462.3,333.1z"/>
			<path id="XMLID_238_" class="st29" d="M462.3,333.1c0.7-1.4,2.1-2.6,3.3-1.3c0.3,0.3,0.6,0.5,0.8,0.8c-0.3-0.1-0.7-0.1-1.1,0.6
				c-0.8,1.2-2.2,3.5-2.2,3.5s1.2-0.2,1.2,0.4c0,0-4.4,4.5-5,4.5c-0.5,0-0.5-0.7-0.3-1.5C459.3,339.2,461.5,334.6,462.3,333.1z"/>
		</g>
	</g>
	<g>
		<g id="XMLID_1_">
			<path id="XMLID_20_" class="st31" d="M660.7,125.4c-0.3,0-3.2-0.7-5.6,1.6c-2.4,2.3-1.6,5.2-1.2,6.7c0.5,1.5,0.5,2.1,0.2,2.6
				c-0.3,0.5-1.7,2-1.9,2.5c-0.2,0.5,3.9,2.7,3.9,2.7l3.3-1.9c0,0,2.9,1.7,3.2,1.6c0.3-0.1,1.3-1.6,2.1-5.2c0.9-3.6,0.7-6.3-0.5-8.3
				C663.1,125.8,660.7,125.4,660.7,125.4z"/>
			<path id="XMLID_19_" class="st57" d="M658.7,133.1c0,0-0.5-1.4-1.3-0.2c-0.9,1.3-0.6,2.2-0.2,2.4c0.4,0.2,0.4,0.2,0.4,0.2
				s-0.2,1,0.4,2.1c0.6,1.2,1.4,2,1.4,2"/>
			<path id="XMLID_18_" class="st29" d="M665,129.9c-0.2-0.8-0.4-1.4-0.8-2.1c-1.2-2-3.6-2.4-3.6-2.4c-0.3,0-3.2-0.7-5.6,1.6
				c-2.4,2.3-1.6,5.2-1.2,6.7c0.4,1.1,0.4,1.8,0.4,2.2c0.6,0.1,1.4,0,2.2-0.2c1.4-0.4,1.7-2,1.4-2.6c-0.3-0.6,0.5-1.2,0.5-1.2
				s0.6,1.5,1.3,0.6c0.7-1-0.5-2.3,0.7-3.1c1.2-0.8,2.4-0.8,3.9,0C664.5,129.7,664.8,129.8,665,129.9z"/>
			<path id="XMLID_17_" class="st29" d="M665,129.9c0,0,0.7,0.4,1.6-0.8c1-1.3,1-3.5,0.2-2.9c-0.8,0.6-1.1,0.9-1.1,0.9
				s-0.8-3.4-1.8-3c-1.1,0.4-1.1,1.3-1.1,1.3s-2-1.5-2.4-1.1c-0.4,0.5-0.7,0.7-0.7,0.7s0.2,0.1-0.4,0.3s-1.1,0.9-1.1,0.9
				s3.2,0.4,4.1,1.3C663.5,128.5,665,129.9,665,129.9z"/>
			<path id="XMLID_16_" class="st29" d="M658.2,146c0,0,1.7,0.6,1.8,3.5s2.3,10.3,2.3,10.3s2.6-2.9,3.1-3.5c0.5-0.6,1.4-0.8,2.4,0.9
				c1,1.6,0.7,3.6-0.8,5.9c-1.4,2.3-4.1,5.8-6.4,5.4c-2.2-0.4-5.9-7-6-7.8c-0.1-0.8,1.7-8.6,2-9.8C657,149.5,658.2,146,658.2,146z"
				/>
			<path id="XMLID_15_" class="st31" d="M637,173.8c0,0-1.3,1.8-0.9,3.6c0.5,1.7,1.3,3.4,1.3,3.4s-3.2,10.3-3.9,12.4
				c-0.8,2.1-0.2,2.3-2.2,3.6c-2,1.3-6.5,3-7.9,7.6c-1.4,4.6-3.4,9-3.9,10.1c-0.6,1.2-0.9,1.8-2.1,1.8c-1.3,0-3.4-0.6-3.6,1.1
				c-0.2,1.6,0,4,0,4.6s-1.4,1.5-0.9,3.6c0.6,2,1.6,3.9,2.2,4c0.6,0.2,1.6-0.1,1.7-0.6c0.1-0.5-1.1-1.3-0.5-3
				c0.6-1.7,3.5-4.5,5.1-6.1c1.6-1.5,5.5-8.4,8.4-11.5c2.9-3.1,6.2-6.9,8.5-9s7-9.8,8-11.6c1-1.7,2-4.1,2-4.1s10.1,1.9,11.8,2.2
				s3.5,0.9,3.5,0.9s-3,2.6-3.8,6.6c-0.8,4-2.5,11.4-3.4,13.8c-0.9,2.4-1.5,3.9-2.1,5.1c-0.6,1.3-1.5,2.9-0.9,3.7
				c0.7,0.8,4.3,1.3,6.2,1.5c1.8,0.3,5.4,0.2,6.2-0.5c0.8-0.7,0.9-1.1,0.4-1.2c-0.5-0.1-3.2-1.8-3.9-2.5s-1.3-1.8-1.3-2.3
				c0.1-0.5,4.4-10,6.4-13.9c1.9-3.9,4-10.6,4.6-12.1c0.6-1.5,0.8-1.8,0.2-2.6c-0.6-0.8-4.1-3.5-10.1-6.7c-6-3.3-9.2-3.4-11.1-3.7
				c-1.8-0.3-4.9-3.1-9.1-1.3C637.7,172.7,637,173.8,637,173.8z"/>
			<path id="XMLID_14_" class="st29" d="M658.5,145c0,0,0.4,3.7-0.3,8.8c-0.7,5.1-4.3,12.7-4.6,14.5c-0.3,1.8,1,3,0.6,3.6
				c-0.4,0.6-1.2,0.8-2.1,0.8s-4.7-1-7.7-0.4c-3,0.6-6.3,3.3-6.9,3c-0.7-0.3-1.7-1.4-1.1-2.6c0.7-1.2,1.3-1.8,1.9-3
				c0.6-1.2,3.5-10.3,4.1-13.3c0.7-3,0.4-6.5,0.3-8.9c-0.1-2.4,1.9-6.4,3.5-6.9c1.5-0.6,5.9,0.6,6.4,0.6S657.6,142.6,658.5,145z"/>
			<path id="XMLID_13_" class="st34" d="M656.1,144.2c0,0,2.2,2.8,2.5,2.6c0.3-0.2,1.3-1.2,0.5-3.5s-2.9-3.9-5-5.7
				c-2.1-1.8-4.3-4.6-5.8-3c-1.4,1.6-4.1,5.4-3,6.6c1.2,1.3,7.2,1.5,8.6,2S656.1,144.2,656.1,144.2z"/>
			<path id="XMLID_12_" class="st31" d="M632.2,164.5c0,0,0.3,1.2,1.1,2.4c0.8,1.3,1.2,2.6,0.7,3.1c-0.5,0.5-0.5,0.5-2.4,1.1
				c-1.9,0.6-2.7,0.2-2.9-0.3c-0.2-0.5,0.6-1.1,0.6-1.1s-1.3-0.3-1.3-1.5c0-1.3,0.4-3.8,0.4-3.8l3.8-0.3L632.2,164.5z"/>
			<path id="XMLID_11_" class="st34" d="M627.6,162.4c0,0-0.1,1.9,0.5,2.4c0.6,0.5,3.7,0,4-0.4c0.4-0.4,0.5-2.9,0.5-2.9L627.6,162.4
				z"/>
			<path id="XMLID_10_" class="st29" d="M651,143.5c0,0-1.3-1.4-3.4-2.1c-2-0.7-8.4-0.2-12.8,1c-4.4,1.2-6.3,1.1-6.9,2.8
				c-0.7,1.7-1.7,15.2-1.5,16.8s3.3,1.6,4.7,1.3c1.4-0.4,2.6-1.3,3.1-3.4c0.5-2,0.4-9.2,1.1-10c0.7-0.8,8.7-0.3,10.9-0.6
				c2.2-0.3,3.8-1,4.1-1.5"/>
			<path id="XMLID_9_" class="st34" d="M666.6,155.6c0,0-1.6,0.9-1.3,2.3s1.7,2.5,2.3,2.4c0.6-0.1,1.7-1.6,1.7-1.6
				S669.5,154.8,666.6,155.6z"/>
			<path id="XMLID_8_" class="st31" d="M666.4,156.6c0,0,0.8,2.2,1.7,2.3c1,0.1,1.4-0.5,2.6-1.6c1.2-1.2,2.3-2,2.3-3.6
				c0-1.5-0.4-3.7-1.3-3.8c-0.9-0.1-1.5,0.2-1.5,0.2s-0.3-0.6-1.2,0.1c-0.9,0.7-0.7,1.2-1.2,2c-0.5,0.9-0.6,1.3-0.5,2
				c0.1,0.8,0.1,1.1,0.1,1.1L666.4,156.6z"/>
			<path id="XMLID_7_" class="st57" d="M670.3,150.2c0.3,0.5,0.8,3.1,0.4,3.5c-0.4,0.4-1.1,1.2-1.3,0.3c-0.2-0.9-0.6-2.1-0.6-2.1"/>
			<path id="XMLID_6_" class="st33" d="M662,175.8c-6-3.3-9.2-3.4-11.1-3.7c-1.8-0.3-4.9-3.1-9.1-1.3c-4.1,1.8-4.9,2.9-4.9,2.9
				s-1.3,1.8-0.9,3.6c0.5,1.7,1.3,3.4,1.3,3.4s-3.2,10.3-3.9,12.4c0,0.1-0.1,0.2-0.1,0.3c0.8,0.3,1.8,0.7,3,1.2
				c1.9,0.8,3,2.1,3.5,3.1c2.4-3.1,5.6-8.4,6.4-9.7c1-1.7,2-4.1,2-4.1s10.1,1.9,11.8,2.2c0.6,0.1,1.2,0.2,1.7,0.4
				c0.2-1.5,0.8-3.5,1.8-5.4c1-1.7,1.8-2.5,2.5-2.9C664.9,177.4,663.5,176.6,662,175.8z"/>
			<path id="XMLID_5_" class="st50" d="M665.8,217.1c0.8-0.7,0.9-1.1,0.4-1.2c-0.5-0.1-3.2-1.8-3.9-2.5c-0.8-0.7-1.3-1.8-1.3-2.3
				c0-0.2,0.5-1.3,1.2-2.8c-0.8,0.2-1.7,0.4-2.5,0.3c-1-0.1-2.3-0.6-3.3-1c-0.8,2.2-1.4,3.5-2,4.7c-0.6,1.3-1.5,2.9-0.9,3.7
				c0.7,0.8,4.3,1.3,6.2,1.5C661.4,217.9,665,217.8,665.8,217.1z"/>
			<path id="XMLID_4_" class="st29" d="M666.2,216c-0.5-0.1-3.2-1.8-3.9-2.5c-0.8-0.7-1.3-1.8-1.3-2.3c0,0-0.4-1.3-1.3-1.4
				c-0.9-0.2-1.3,2.4-1.3,2.4l-3.7-0.7c-0.2,0.4-0.3,0.7-0.5,1c-0.6,1.3-1.5,2.9-0.9,3.7c0.7,0.8,4.3,1.3,6.2,1.5
				c1.8,0.3,5.4,0.2,6.2-0.5C666.5,216.5,666.6,216.1,666.2,216z"/>
			<path id="XMLID_3_" class="st50" d="M620.5,217.7c-0.9-0.6-1.3-1.7-1.6-2.5c-0.4,0.6-0.8,1-1.7,1c-1.3,0-3.4-0.6-3.6,1.1
				c-0.2,1.6,0,4,0,4.6c0,0.6-1.4,1.5-0.9,3.6c0.6,2,1.6,3.9,2.2,4c0.6,0.2,1.6-0.1,1.7-0.6c0.1-0.5-1.1-1.3-0.5-3
				c0.6-1.7,3.5-4.5,5.1-6.1c0.3-0.3,0.7-0.7,1.1-1.3C621.8,218.5,621.1,218.2,620.5,217.7z"/>
			<path id="XMLID_2_" class="st29" d="M619,222.3c-0.1-0.1-0.1-0.3-0.3-0.4c-0.6-0.8-1.5,0.1-1.5,0.1s-1-1.1-0.9-2.5
				c0.1-1.1,1.1-2.6,1.5-3.3c-0.2,0.1-0.4,0.1-0.7,0.1c-1.3,0-3.4-0.6-3.6,1.1c-0.2,1.6,0,4,0,4.6c0,0.6-1.4,1.5-0.9,3.6
				c0.6,2,1.6,3.9,2.2,4c0.6,0.2,1.6-0.1,1.7-0.6c0.1-0.5-1.1-1.3-0.5-3C616.6,225,617.8,223.6,619,222.3z"/>
		</g>
	</g>
	
		<radialGradient id="SVGID_25_" cx="673.0488" cy="-230.4225" r="27.5472" gradientTransform="matrix(1 0 0 0.2545 0 274.7908)" gradientUnits="userSpaceOnUse">
		<stop  offset="0" style="stop-color:#000000"/>
		<stop  offset="0.2461" style="stop-color:#4B4B4B"/>
		<stop  offset="0.5181" style="stop-color:#979797"/>
		<stop  offset="0.7434" style="stop-color:#CFCFCF"/>
		<stop  offset="0.9102" style="stop-color:#F2F2F2"/>
		<stop  offset="1" style="stop-color:#FFFFFF"/>
	</radialGradient>
	<ellipse class="st58" cx="673" cy="216.1" rx="27.5" ry="7"/>
	<g>
		<g>
			
				<image style="overflow:visible;opacity:0.2;" width="184" height="134" xlink:href="F030574B2EF6A088.png"  transform="matrix(1 0 0 1 -51.0755 446.2292)">
			</image>
			<g>
				<g>
					<linearGradient id="SVGID_26_" gradientUnits="userSpaceOnUse" x1="36.4156" y1="473.5478" x2="36.4156" y2="571.303">
						<stop  offset="0" style="stop-color:#D8DFE0"/>
						<stop  offset="1" style="stop-color:#FFFFFF"/>
					</linearGradient>
					<path class="st59" d="M89.1,544.9H-16.3c-4.3,0-7.9-3.5-7.9-7.9v-55.7c0-4.3,3.5-7.9,7.9-7.9H89.1c4.3,0,7.9,3.5,7.9,7.9V537
						C97,541.4,93.5,544.9,89.1,544.9z"/>
					<linearGradient id="SVGID_27_" gradientUnits="userSpaceOnUse" x1="36.4156" y1="543.9218" x2="36.4156" y2="469.5382">
						<stop  offset="0" style="stop-color:#D8DFE0"/>
						<stop  offset="1" style="stop-color:#FFFFFF"/>
					</linearGradient>
					<path class="st60" d="M88.1,544.2H-15.2c-4.2,0-7.7-3.4-7.7-7.7v-54.6c0-4.2,3.4-7.7,7.7-7.7H88.1c4.2,0,7.7,3.4,7.7,7.7v54.6
						C95.8,540.7,92.3,544.2,88.1,544.2z"/>
				</g>
			</g>
		</g>
		<g>
			<g>
				<linearGradient id="SVGID_28_" gradientUnits="userSpaceOnUse" x1="36.4156" y1="482.5941" x2="36.4156" y2="448.2503">
					<stop  offset="0" style="stop-color:#FF3179"/>
					<stop  offset="1" style="stop-color:#750000"/>
				</linearGradient>
				<circle class="st61" cx="36.4" cy="466.6" r="13.2"/>
				<linearGradient id="SVGID_29_" gradientUnits="userSpaceOnUse" x1="36.4156" y1="454.3386" x2="36.4156" y2="475.8217">
					<stop  offset="0" style="stop-color:#FF3179"/>
					<stop  offset="1" style="stop-color:#750000"/>
				</linearGradient>
				<circle class="st62" cx="36.4" cy="466.6" r="11.9"/>
			</g>
			<g>
				<g>
					<linearGradient id="SVGID_30_" gradientUnits="userSpaceOnUse" x1="36.0061" y1="460.4257" x2="36.0061" y2="473.3422">
						<stop  offset="0" style="stop-color:#D8DFE0"/>
						<stop  offset="1" style="stop-color:#FFFFFF"/>
					</linearGradient>
					<path class="st63" d="M38.8,460.8v11h-3.7v-8.2h-1.9v-2.8H38.8z"/>
				</g>
			</g>
		</g>
	</g>
	<g>
		<g>
			
				<image style="overflow:visible;opacity:0.2;" width="184" height="135" xlink:href="F030574B2EF6A08B.png"  transform="matrix(1 0 0 1 679.9244 445.2292)">
			</image>
			<g>
				<g>
					<linearGradient id="SVGID_31_" gradientUnits="userSpaceOnUse" x1="767.4799" y1="472.9722" x2="767.4799" y2="570.7274">
						<stop  offset="0" style="stop-color:#D8DFE0"/>
						<stop  offset="1" style="stop-color:#FFFFFF"/>
					</linearGradient>
					<path class="st64" d="M820.2,544.3H714.7c-4.3,0-7.9-3.5-7.9-7.9v-55.7c0-4.3,3.5-7.9,7.9-7.9h105.5c4.3,0,7.9,3.5,7.9,7.9
						v55.7C828.1,540.8,824.6,544.3,820.2,544.3z"/>
					<linearGradient id="SVGID_32_" gradientUnits="userSpaceOnUse" x1="767.4799" y1="543.3461" x2="767.4799" y2="468.9626">
						<stop  offset="0" style="stop-color:#D8DFE0"/>
						<stop  offset="1" style="stop-color:#FFFFFF"/>
					</linearGradient>
					<path class="st65" d="M819.1,543.6H715.8c-4.2,0-7.7-3.4-7.7-7.7v-54.6c0-4.2,3.4-7.7,7.7-7.7h103.3c4.2,0,7.7,3.4,7.7,7.7
						v54.6C826.8,540.1,823.4,543.6,819.1,543.6z"/>
				</g>
			</g>
		</g>
		<g>
			<g>
				<linearGradient id="SVGID_33_" gradientUnits="userSpaceOnUse" x1="767.4799" y1="482.0185" x2="767.4799" y2="447.6747">
					<stop  offset="0" style="stop-color:#FF3179"/>
					<stop  offset="1" style="stop-color:#750000"/>
				</linearGradient>
				<circle class="st66" cx="767.5" cy="466" r="13.2"/>
				<linearGradient id="SVGID_34_" gradientUnits="userSpaceOnUse" x1="767.4799" y1="453.763" x2="767.4799" y2="475.2461">
					<stop  offset="0" style="stop-color:#FF3179"/>
					<stop  offset="1" style="stop-color:#750000"/>
				</linearGradient>
				<circle class="st67" cx="767.5" cy="466" r="11.9"/>
			</g>
			<g>
				<g>
					<linearGradient id="SVGID_35_" gradientUnits="userSpaceOnUse" x1="767.0696" y1="459.8505" x2="767.0696" y2="472.767">
						<stop  offset="0" style="stop-color:#D8DFE0"/>
						<stop  offset="1" style="stop-color:#FFFFFF"/>
					</linearGradient>
					<path class="st68" d="M769.9,460.2v11h-3.7V463h-1.9v-2.8H769.9z"/>
				</g>
			</g>
		</g>
	</g>
	<g>
		
			<image style="overflow:visible;opacity:0.2;" width="184" height="134" xlink:href="B6FC9DDDC9A531A7.png"  transform="matrix(1 0 0 1 84.9245 447.2292)">
		</image>
		<g>
			<g>
				<linearGradient id="SVGID_36_" gradientUnits="userSpaceOnUse" x1="172.6262" y1="474.3449" x2="172.6262" y2="572.1002">
					<stop  offset="0" style="stop-color:#D8DFE0"/>
					<stop  offset="1" style="stop-color:#FFFFFF"/>
				</linearGradient>
				<path class="st69" d="M225.4,545.7H119.9c-4.3,0-7.9-3.5-7.9-7.9v-55.7c0-4.3,3.5-7.9,7.9-7.9h105.5c4.3,0,7.9,3.5,7.9,7.9v55.7
					C233.2,542.2,229.7,545.7,225.4,545.7z"/>
				<linearGradient id="SVGID_37_" gradientUnits="userSpaceOnUse" x1="172.6263" y1="544.719" x2="172.6263" y2="470.3354">
					<stop  offset="0" style="stop-color:#D8DFE0"/>
					<stop  offset="1" style="stop-color:#FFFFFF"/>
				</linearGradient>
				<path class="st70" d="M224.3,545H121c-4.2,0-7.7-3.4-7.7-7.7v-54.6c0-4.2,3.4-7.7,7.7-7.7h103.3c4.2,0,7.7,3.4,7.7,7.7v54.6
					C232,541.5,228.5,545,224.3,545z"/>
			</g>
		</g>
	</g>
	<g>
		<g>
			<linearGradient id="SVGID_38_" gradientUnits="userSpaceOnUse" x1="172.6263" y1="484.1693" x2="172.6263" y2="449.8254">
				<stop  offset="0" style="stop-color:#EEC32D"/>
				<stop  offset="0.3614" style="stop-color:#F1AB2C"/>
				<stop  offset="1" style="stop-color:#F6782A"/>
			</linearGradient>
			<circle class="st71" cx="172.6" cy="468.2" r="13.2"/>
			<linearGradient id="SVGID_39_" gradientUnits="userSpaceOnUse" x1="172.6262" y1="455.9138" x2="172.6262" y2="477.3968">
				<stop  offset="0" style="stop-color:#EEC32D"/>
				<stop  offset="0.3614" style="stop-color:#F1AB2C"/>
				<stop  offset="1" style="stop-color:#F6782A"/>
			</linearGradient>
			<circle class="st72" cx="172.6" cy="468.2" r="11.9"/>
		</g>
		<g>
			<g>
				<linearGradient id="SVGID_40_" gradientUnits="userSpaceOnUse" x1="172.3745" y1="461.7393" x2="172.3745" y2="474.9513">
					<stop  offset="0" style="stop-color:#D8DFE0"/>
					<stop  offset="1" style="stop-color:#FFFFFF"/>
				</linearGradient>
				<path class="st73" d="M177.1,470.5v2.9h-8.8v-2.3l4-3.7c0.3-0.3,0.6-0.6,0.7-0.8c0.1-0.2,0.2-0.5,0.2-0.7c0-0.3-0.1-0.5-0.3-0.6
					c-0.2-0.2-0.4-0.2-0.8-0.2c-0.3,0-0.7,0.1-0.9,0.3c-0.3,0.2-0.5,0.4-0.7,0.8l-2.8-1.4c0.4-0.8,1-1.4,1.8-1.9s1.8-0.7,2.9-0.7
					c0.9,0,1.6,0.1,2.3,0.4s1.2,0.7,1.6,1.2s0.6,1.1,0.6,1.8c0,0.6-0.1,1.2-0.4,1.7c-0.3,0.5-0.8,1.1-1.5,1.8l-1.6,1.4H177.1z"/>
			</g>
		</g>
	</g>
	<g>
		
			<image style="overflow:visible;opacity:0.2;" width="185" height="134" xlink:href="B6FC9DDDC9A531A5.png"  transform="matrix(1 0 0 1 528.9244 447.2292)">
		</image>
		<g>
			<g>
				<linearGradient id="SVGID_41_" gradientUnits="userSpaceOnUse" x1="617.1511" y1="474.5572" x2="617.1511" y2="572.3123">
					<stop  offset="0" style="stop-color:#D8DFE0"/>
					<stop  offset="1" style="stop-color:#FFFFFF"/>
				</linearGradient>
				<path class="st74" d="M669.9,545.9H564.4c-4.3,0-7.9-3.5-7.9-7.9v-55.7c0-4.3,3.5-7.9,7.9-7.9h105.5c4.3,0,7.9,3.5,7.9,7.9V538
					C677.7,542.4,674.2,545.9,669.9,545.9z"/>
				<linearGradient id="SVGID_42_" gradientUnits="userSpaceOnUse" x1="617.1511" y1="544.9312" x2="617.1511" y2="470.5476">
					<stop  offset="0" style="stop-color:#D8DFE0"/>
					<stop  offset="1" style="stop-color:#FFFFFF"/>
				</linearGradient>
				<path class="st75" d="M668.8,545.2H565.5c-4.2,0-7.7-3.4-7.7-7.7v-54.6c0-4.2,3.4-7.7,7.7-7.7h103.3c4.2,0,7.7,3.4,7.7,7.7v54.6
					C676.5,541.7,673.1,545.2,668.8,545.2z"/>
			</g>
		</g>
	</g>
	<g>
		<g>
			<linearGradient id="SVGID_43_" gradientUnits="userSpaceOnUse" x1="617.1511" y1="483.9571" x2="617.1511" y2="449.6133">
				<stop  offset="0" style="stop-color:#6745D8"/>
				<stop  offset="0.3375" style="stop-color:#5434C0"/>
				<stop  offset="1" style="stop-color:#270B87"/>
			</linearGradient>
			<circle class="st76" cx="617.2" cy="468" r="13.2"/>
			<linearGradient id="SVGID_44_" gradientUnits="userSpaceOnUse" x1="617.1511" y1="455.7016" x2="617.1511" y2="477.1847">
				<stop  offset="0" style="stop-color:#6745D8"/>
				<stop  offset="0.3375" style="stop-color:#5434C0"/>
				<stop  offset="1" style="stop-color:#270B87"/>
			</linearGradient>
			<circle class="st77" cx="617.2" cy="468" r="11.9"/>
		</g>
		<g>
			<g>
				<linearGradient id="SVGID_45_" gradientUnits="userSpaceOnUse" x1="617.0461" y1="461.7784" x2="617.0461" y2="474.9904">
					<stop  offset="0" style="stop-color:#D8DFE0"/>
					<stop  offset="1" style="stop-color:#FFFFFF"/>
				</linearGradient>
				<path class="st78" d="M620.6,467c0.7,0.6,1.1,1.5,1.1,2.5c0,0.7-0.2,1.3-0.5,1.9c-0.4,0.6-0.9,1.1-1.7,1.4
					c-0.8,0.4-1.7,0.5-2.8,0.5c-0.8,0-1.5-0.1-2.3-0.3c-0.8-0.2-1.4-0.4-2-0.7l1.3-2.7c0.5,0.3,0.9,0.5,1.5,0.6
					c0.5,0.1,1,0.2,1.5,0.2c0.4,0,0.8-0.1,1-0.2s0.4-0.4,0.4-0.6c0-0.3-0.1-0.5-0.4-0.6c-0.2-0.1-0.7-0.2-1.3-0.2h-3.2l0.6-6.7h7.3
					v2.8h-4.3l-0.1,1.1h0.6C618.8,466,619.9,466.4,620.6,467z"/>
			</g>
		</g>
	</g>
	<g>
		
			<image style="overflow:visible;opacity:0.2;" width="184" height="134" xlink:href="B6FC9DDDC9A531A3.png"  transform="matrix(1 0 0 1 232.9245 447.2292)">
		</image>
		<g>
			<g>
				<linearGradient id="SVGID_46_" gradientUnits="userSpaceOnUse" x1="320.8012" y1="474.5925" x2="320.8012" y2="572.3477">
					<stop  offset="0" style="stop-color:#D8DFE0"/>
					<stop  offset="1" style="stop-color:#FFFFFF"/>
				</linearGradient>
				<path class="st79" d="M373.5,545.9H268.1c-4.3,0-7.9-3.5-7.9-7.9v-55.7c0-4.3,3.5-7.9,7.9-7.9h105.5c4.3,0,7.9,3.5,7.9,7.9v55.7
					C381.4,542.4,377.9,545.9,373.5,545.9z"/>
				<linearGradient id="SVGID_47_" gradientUnits="userSpaceOnUse" x1="320.8011" y1="544.9664" x2="320.8011" y2="470.5829">
					<stop  offset="0" style="stop-color:#D8DFE0"/>
					<stop  offset="1" style="stop-color:#FFFFFF"/>
				</linearGradient>
				<path class="st80" d="M372.5,545.2H269.1c-4.2,0-7.7-3.4-7.7-7.7v-54.6c0-4.2,3.4-7.7,7.7-7.7h103.3c4.2,0,7.7,3.4,7.7,7.7v54.6
					C380.2,541.8,376.7,545.2,372.5,545.2z"/>
			</g>
		</g>
	</g>
	<g>
		<g>
			<linearGradient id="SVGID_48_" gradientUnits="userSpaceOnUse" x1="320.8011" y1="483.9217" x2="320.8011" y2="449.5779">
				<stop  offset="0" style="stop-color:#6E843E"/>
				<stop  offset="1" style="stop-color:#98BF55"/>
			</linearGradient>
			<circle class="st81" cx="320.8" cy="467.9" r="13.2"/>
			<linearGradient id="SVGID_49_" gradientUnits="userSpaceOnUse" x1="320.8012" y1="455.6662" x2="320.8012" y2="477.1493">
				<stop  offset="0" style="stop-color:#6E843E"/>
				<stop  offset="1" style="stop-color:#98BF55"/>
			</linearGradient>
			<circle class="st82" cx="320.8" cy="467.9" r="11.9"/>
		</g>
		<g>
			<g>
				<linearGradient id="SVGID_50_" gradientUnits="userSpaceOnUse" x1="320.5642" y1="461.7433" x2="320.5642" y2="474.9552">
					<stop  offset="0" style="stop-color:#D8DFE0"/>
					<stop  offset="1" style="stop-color:#FFFFFF"/>
				</linearGradient>
				<path class="st83" d="M324.6,467.6c0.5,0.6,0.7,1.2,0.7,2c0,0.7-0.2,1.3-0.5,1.8c-0.4,0.6-0.9,1-1.7,1.4
					c-0.8,0.4-1.7,0.5-2.8,0.5c-0.8,0-1.5-0.1-2.3-0.3c-0.8-0.2-1.4-0.4-2-0.7l1.3-2.7c0.5,0.3,0.9,0.5,1.5,0.6
					c0.5,0.1,1,0.2,1.5,0.2c0.4,0,0.8-0.1,1-0.2c0.3-0.1,0.4-0.4,0.4-0.6c0-0.5-0.4-0.8-1.3-0.8h-1.5v-2.3l1.6-1.7h-3.9v-2.8h8.2
					v2.3l-2,2.1C323.5,466.7,324.1,467.1,324.6,467.6z"/>
			</g>
		</g>
	</g>
	<g>
		
			<image style="overflow:visible;opacity:0.2;" width="184" height="135" xlink:href="B6FC9DDDC9A531BD.png"  transform="matrix(1 0 0 1 380.9245 446.2292)">
		</image>
		<g>
			<g>
				<linearGradient id="SVGID_51_" gradientUnits="userSpaceOnUse" x1="468.9761" y1="473.8145" x2="468.9761" y2="571.5697">
					<stop  offset="0" style="stop-color:#D8DFE0"/>
					<stop  offset="1" style="stop-color:#FFFFFF"/>
				</linearGradient>
				<path class="st84" d="M521.7,545.2H416.2c-4.3,0-7.9-3.5-7.9-7.9v-55.7c0-4.3,3.5-7.9,7.9-7.9h105.5c4.3,0,7.9,3.5,7.9,7.9v55.7
					C529.6,541.6,526,545.2,521.7,545.2z"/>
				<linearGradient id="SVGID_52_" gradientUnits="userSpaceOnUse" x1="468.9762" y1="544.1886" x2="468.9762" y2="469.805">
					<stop  offset="0" style="stop-color:#D8DFE0"/>
					<stop  offset="1" style="stop-color:#FFFFFF"/>
				</linearGradient>
				<path class="st85" d="M520.6,544.4H417.3c-4.2,0-7.7-3.4-7.7-7.7v-54.6c0-4.2,3.4-7.7,7.7-7.7h103.3c4.2,0,7.7,3.4,7.7,7.7v54.6
					C528.3,541,524.9,544.4,520.6,544.4z"/>
			</g>
		</g>
	</g>
	<g>
		<g>
			<linearGradient id="SVGID_53_" gradientUnits="userSpaceOnUse" x1="468.9762" y1="484.6998" x2="468.9762" y2="450.3558">
				<stop  offset="0" style="stop-color:#267DFF"/>
				<stop  offset="0.3658" style="stop-color:#1A6CE7"/>
				<stop  offset="1" style="stop-color:#0048B5"/>
			</linearGradient>
			<path class="st86" d="M482.2,468.7c0,7.3-5.9,13.2-13.2,13.2s-13.2-5.9-13.2-13.2c0-7.3,5.9-13.2,13.2-13.2
				S482.2,461.4,482.2,468.7z"/>
			<linearGradient id="SVGID_54_" gradientUnits="userSpaceOnUse" x1="468.9761" y1="456.4442" x2="468.9761" y2="477.9272">
				<stop  offset="0" style="stop-color:#267DFF"/>
				<stop  offset="0.3658" style="stop-color:#1A6CE7"/>
				<stop  offset="1" style="stop-color:#0048B5"/>
			</linearGradient>
			<circle class="st87" cx="469" cy="468.7" r="11.9"/>
		</g>
		<g>
			<g>
				<linearGradient id="SVGID_55_" gradientUnits="userSpaceOnUse" x1="469.1242" y1="462.5312" x2="469.1242" y2="475.4476">
					<stop  offset="0" style="stop-color:#D8DFE0"/>
					<stop  offset="1" style="stop-color:#FFFFFF"/>
				</linearGradient>
				<path class="st88" d="M474.5,472H473v1.9h-3.6V472h-5.7v-2.4l4.7-6.8h3.8l-4.2,6.2h1.5v-1.7h3.5v1.7h1.5V472z"/>
			</g>
		</g>
	</g>
</g>
</svg>
