<?xml version="1.0" encoding="utf-8"?>
<!-- Generator: Adobe Illustrator 24.0.1, SVG Export Plug-In . SVG Version: 6.00 Build 0)  -->
<svg version="1.1" id="Capa_1" xmlns="http://www.w3.org/2000/svg" xmlns:xlink="http://www.w3.org/1999/xlink" x="0px" y="0px"
	 viewBox="0 0 910.3 498.3" style="enable-background:new 0 0 910.3 498.3;" xml:space="preserve">
<style type="text/css">
	.st0{fill:#DFDFDF;}
	.st1{fill:#F5F5F5;}
	.st2{fill:#95B03F;}
	.st3{fill:#718430;}
	.st4{fill:#F4F4F4;}
	.st5{fill:#64A7DD;}
	.st6{fill:#FFFFFF;}
	.st7{fill:url(#SVGID_1_);}
	.st8{fill:url(#SVGID_2_);}
	.st9{fill:none;stroke:#FFFFFF;stroke-width:2.5013;stroke-miterlimit:10;}
	.st10{fill:none;stroke:#FFFFFF;stroke-width:2.5013;stroke-miterlimit:10;stroke-dasharray:13.7323,13.7323;}
	.st11{fill:#393762;}
	.st12{fill:#BDB3A1;}
	.st13{fill:#F6BA99;}
	.st14{fill:#F2957E;}
	.st15{fill:#DA5955;}
	.st16{fill:#7EB9F5;}
	.st17{fill:#F8C6AB;}
	.st18{fill:none;stroke:#393762;stroke-width:0.2253;stroke-miterlimit:10;}
	.st19{fill:none;stroke:#393762;stroke-width:0.2172;stroke-miterlimit:10;}
	.st20{fill:#DECBB6;}
	.st21{fill:#BD5955;}
	.st22{fill:#39374A;}
	.st23{fill:#7EA2F5;}
	.st24{fill:none;stroke:#393762;stroke-width:0.2504;stroke-miterlimit:10;}
	.st25{fill:url(#SVGID_3_);}
	.st26{fill:url(#SVGID_4_);}
	.st27{fill:url(#SVGID_5_);}
	.st28{fill:url(#SVGID_6_);}
	.st29{fill:url(#SVGID_7_);}
	.st30{fill:url(#SVGID_8_);}
	.st31{fill:url(#SVGID_9_);}
	.st32{fill:url(#SVGID_10_);}
	.st33{fill:url(#SVGID_11_);}
	.st34{fill:url(#SVGID_12_);}
	.st35{fill:url(#SVGID_13_);}
	.st36{fill:url(#SVGID_14_);}
</style>
<rect x="-17" y="-25.7" class="st0" width="944" height="536"/>
<g>
	<g>
		<g>
			<rect x="362.6" y="-87.5" class="st1" width="15" height="416.8"/>
		</g>
	</g>
</g>
<g>
	<g>
		<g>
			<rect x="374" y="269.2" class="st1" width="346.1" height="15"/>
		</g>
	</g>
</g>
<g>
	<g>
		<g>
			<rect x="-54.4" y="78.2" class="st1" width="1031.4" height="15"/>
		</g>
	</g>
</g>
<g>
	<g>
		<g>
			<rect x="22.1" y="-39.7" class="st1" width="22.2" height="217.3"/>
		</g>
	</g>
</g>
<g>
	<g>
		<g>
			<g>
				<g>
					<path class="st2" d="M15.8,234.8c0,10.7,8.8,19.4,19.7,19.4v-38.8C24.6,215.4,15.8,224.1,15.8,234.8z"/>
					<path class="st3" d="M35.5,215.4v38.8c10.9,0,19.7-8.7,19.7-19.4S46.3,215.4,35.5,215.4z"/>
				</g>
				<g>
					<rect x="34" y="226.3" class="st2" width="1.4" height="50.2"/>
					<polygon class="st3" points="36.9,226.3 35.8,226.3 35.5,226.3 35.5,276.6 36.9,276.6 					"/>
				</g>
			</g>
		</g>
	</g>
</g>
<g>
	<g>
		<g>
			<g>
				<g>
					<path class="st2" d="M74.7,234.8c0,10.7,8.8,19.4,19.7,19.4v-38.8C83.5,215.4,74.7,224.1,74.7,234.8z"/>
					<path class="st3" d="M94.3,215.4v38.8c10.9,0,19.7-8.7,19.7-19.4S105.2,215.4,94.3,215.4z"/>
				</g>
				<g>
					<rect x="92.9" y="226.3" class="st2" width="1.4" height="50.2"/>
					<polygon class="st3" points="95.8,226.3 94.7,226.3 94.3,226.3 94.3,276.6 95.8,276.6 					"/>
				</g>
			</g>
		</g>
	</g>
</g>
<g>
	<g>
		<g>
			<g>
				<g>
					<path class="st2" d="M15.8,399.7c0,10.7,8.8,19.4,19.7,19.4v-38.8C24.6,380.3,15.8,389,15.8,399.7z"/>
					<path class="st3" d="M35.5,380.3v38.8c10.9,0,19.7-8.7,19.7-19.4S46.3,380.3,35.5,380.3z"/>
				</g>
				<g>
					<rect x="34" y="391.3" class="st2" width="1.4" height="50.2"/>
					<polygon class="st3" points="36.9,391.3 35.8,391.3 35.5,391.3 35.5,441.5 36.9,441.5 					"/>
				</g>
			</g>
		</g>
	</g>
</g>
<g>
	<g>
		<g>
			<g>
				<g>
					<path class="st2" d="M74.7,399.7c0,10.7,8.8,19.4,19.7,19.4v-38.8C83.5,380.3,74.7,389,74.7,399.7z"/>
					<path class="st3" d="M94.3,380.3v38.8c10.9,0,19.7-8.7,19.7-19.4S105.2,380.3,94.3,380.3z"/>
				</g>
				<g>
					<rect x="92.9" y="391.3" class="st2" width="1.4" height="50.2"/>
					<polygon class="st3" points="95.8,391.3 94.7,391.3 94.3,391.3 94.3,441.5 95.8,441.5 					"/>
				</g>
			</g>
		</g>
	</g>
</g>
<g>
	<g>
		<g>
			<g>
				<g>
					<g>
						<path class="st2" d="M648.6,215c0,10.7,8.8,19.4,19.7,19.4v-38.8C657.4,195.6,648.6,204.3,648.6,215z"/>
						<path class="st3" d="M668.3,195.6v38.8c10.9,0,19.7-8.7,19.7-19.4C687.9,204.3,679.1,195.6,668.3,195.6z"/>
					</g>
					<g>
						<rect x="666.8" y="206.6" class="st2" width="1.4" height="50.2"/>
						<polygon class="st3" points="669.7,206.6 668.6,206.6 668.3,206.6 668.3,256.8 669.7,256.8 						"/>
					</g>
				</g>
			</g>
		</g>
	</g>
</g>
<g>
	<g>
		<g>
			<g>
				<g>
					<g>
						<path class="st2" d="M398.4,323.6c0,10.7,8.8,19.4,19.7,19.4v-38.8C407.2,304.2,398.4,312.9,398.4,323.6z"/>
						<path class="st3" d="M418.1,304.2V343c10.9,0,19.7-8.7,19.7-19.4C437.8,312.9,429,304.2,418.1,304.2z"/>
					</g>
					<g>
						<rect x="416.7" y="315.1" class="st2" width="1.4" height="50.2"/>
						<polygon class="st3" points="419.5,315.1 418.4,315.1 418.1,315.1 418.1,365.4 419.5,365.4 						"/>
					</g>
				</g>
			</g>
		</g>
	</g>
</g>
<g>
	<g>
		<g>
			<g>
				<g>
					<path class="st2" d="M-4.7,317.2c0,10.7,8.8,19.4,19.7,19.4v-38.8C4.1,297.9-4.7,306.5-4.7,317.2z"/>
					<path class="st3" d="M15,297.9v38.8c10.9,0,19.7-8.7,19.7-19.4C34.7,306.5,25.8,297.9,15,297.9z"/>
				</g>
				<g>
					<rect x="13.6" y="308.8" class="st2" width="1.4" height="50.2"/>
					<polygon class="st3" points="16.4,308.8 15.3,308.8 15,308.8 15,359.1 16.4,359.1 					"/>
				</g>
			</g>
		</g>
	</g>
</g>
<g>
	<g>
		<g>
			<g>
				<g>
					<path class="st2" d="M54.2,317.2c0,10.7,8.8,19.4,19.7,19.4v-38.8C63,297.9,54.2,306.5,54.2,317.2z"/>
					<path class="st3" d="M73.9,297.9v38.8c10.9,0,19.7-8.7,19.7-19.4C93.5,306.5,84.7,297.9,73.9,297.9z"/>
				</g>
				<g>
					<rect x="72.4" y="308.8" class="st2" width="1.4" height="50.2"/>
					<polygon class="st3" points="75.3,308.8 74.2,308.8 73.9,308.8 73.9,359.1 75.3,359.1 					"/>
				</g>
			</g>
		</g>
	</g>
</g>
<g>
	<g>
		<g>
			<g>
				<g>
					<path class="st2" d="M162,7.9c0,10.7,8.8,19.4,19.7,19.4v-38.8C170.9-11.5,162-2.8,162,7.9z"/>
					<path class="st3" d="M181.7-11.5v38.8c10.9,0,19.7-8.7,19.7-19.4S192.6-11.5,181.7-11.5z"/>
				</g>
				<g>
					<rect x="180.3" y="-0.5" class="st2" width="1.4" height="50.2"/>
					<polygon class="st3" points="183.1,-0.5 182,-0.5 181.7,-0.5 181.7,49.7 183.1,49.7 					"/>
				</g>
			</g>
		</g>
	</g>
</g>
<g>
	<g>
		<g>
			<g>
				<g>
					<path class="st2" d="M51.3,19.4c0,10.7,8.8,19.4,19.7,19.4V0C60.2,0,51.3,8.7,51.3,19.4z"/>
					<path class="st3" d="M71,0v38.8c10.9,0,19.7-8.7,19.7-19.4S81.9,0,71,0z"/>
				</g>
				<g>
					<rect x="69.6" y="11" class="st2" width="1.4" height="50.2"/>
					<polygon class="st3" points="72.4,11 71.3,11 71,11 71,61.2 72.4,61.2 					"/>
				</g>
			</g>
		</g>
	</g>
</g>
<g>
	<g>
		<g>
			<g>
				<g>
					<path class="st2" d="M106.7,34.3c0,7.7,6.3,14,14.2,14V20.4C113.1,20.4,106.7,26.6,106.7,34.3z"/>
					<path class="st3" d="M120.8,20.4v27.9c7.8,0,14.2-6.3,14.2-14S128.7,20.4,120.8,20.4z"/>
				</g>
				<g>
					<rect x="119.8" y="28.3" class="st2" width="1" height="36.1"/>
					<polygon class="st3" points="121.8,28.3 121,28.3 120.8,28.3 120.8,64.4 121.8,64.4 					"/>
				</g>
			</g>
		</g>
	</g>
</g>
<g>
	<g>
		<g>
			<g>
				<g>
					<path class="st2" d="M127.9-1.8c0,7.7,6.3,14,14.2,14v-27.9C134.3-15.8,127.9-9.5,127.9-1.8z"/>
					<path class="st3" d="M142.1-15.8v27.9c7.8,0,14.2-6.3,14.2-14S149.9-15.8,142.1-15.8z"/>
				</g>
				<g>
					<rect x="141.1" y="-7.8" class="st2" width="1" height="36.1"/>
					<polygon class="st3" points="143.1,-7.8 142.3,-7.8 142.1,-7.8 142.1,28.3 143.1,28.3 					"/>
				</g>
			</g>
		</g>
	</g>
</g>
<g>
	<g>
		<g>
			<g>
				<path class="st1" d="M90.1,160.2l-144.5-0.1v19.3l144.5,0.2c36.7,0,54.8,20.6,54.8,46.9v233.2h23.4V227.2
					C168.3,190.3,141.8,160.2,90.1,160.2z"/>
			</g>
		</g>
	</g>
</g>
<g>
	<g>
		<g>
			<path class="st1" d="M217.8,536.6l642.9,0.1v-21l-642.9-0.2c-36.7,0-49.6-12-49.6-38.3v-17.6h-23.4v16.8
				C144.7,513.4,166.1,536.6,217.8,536.6z"/>
		</g>
	</g>
</g>
<g>
	<g>
		<g>
			<g>
				<path class="st1" d="M282.1,153c-14.2,0-25.8,11.6-25.8,25.8v25.6v2.5v55.9c0,7.7-6.2,13.9-13.9,13.9h-86.6v11.9h86.6
					c14.2,0,25.8-11.6,25.8-25.8v-84.1c0-7.7,6.2-13.9,13.9-13.9h180.2v-11.9L282.1,153L282.1,153z"/>
			</g>
		</g>
	</g>
</g>
<g>
	<g>
		<g>
			<rect x="56.9" y="103.9" class="st1" width="60.3" height="37.2"/>
		</g>
	</g>
</g>
<g>
	<g>
		<g>
			<rect x="87" y="492.5" class="st1" width="39.5" height="24"/>
		</g>
	</g>
</g>
<g>
	<g>
		<g>
			<rect x="130.4" y="103.9" class="st1" width="61" height="17.7"/>
		</g>
	</g>
</g>
<g>
	<g>
		<g>
			<rect x="566.8" y="478.1" class="st1" width="61" height="17.7"/>
		</g>
	</g>
</g>
<g>
	<g>
		<g>
			<rect x="207" y="103.9" class="st1" width="29.7" height="49.1"/>
		</g>
	</g>
</g>
<g>
	<g>
		<g>
			<path class="st1" d="M494.1,139.1c0,7.7-6.2,13.9-13.9,13.9h-86.6v11.9h86.6c14.2,0,25.8-11.6,25.8-25.8V85.7h-11.9V139.1z"/>
		</g>
	</g>
</g>
<g>
	<g>
		<g>
			<g>
				<path class="st1" d="M725,193.3c0-14.2-11.6-25.8-25.8-25.8h-25.6h-2.5h-55.9c-7.7,0-13.9-6.2-13.9-13.9V82.5h-11.9v71.1
					c0,14.2,11.6,25.8,25.8,25.8h84.1c7.7,0,13.9,6.2,13.9,13.9v136h11.9L725,193.3L725,193.3L725,193.3z"/>
			</g>
		</g>
	</g>
</g>
<g>
	<g>
		<g>
			<g>
				<path class="st1" d="M725,445.4c0,14.2-11.6,25.8-25.8,25.8h-25.6h-2.5H546.4c-7.7,0-13.9,6.2-13.9,13.9v86.6h-11.9v-86.6
					c0-14.2,11.6-25.8,25.8-25.8h152.8c7.7,0,13.9-6.2,13.9-13.9V324.9H725V445.4L725,445.4z"/>
			</g>
		</g>
	</g>
</g>
<g>
	<g>
		<g>
			<rect x="626" y="107" class="st1" width="58.2" height="33.4"/>
		</g>
	</g>
</g>
<g>
	<g>
		<g>
			<rect x="554.6" y="46.6" class="st1" width="37.4" height="20.7"/>
		</g>
	</g>
</g>
<g>
	<g>
		<g>
			<rect x="351" y="482.6" class="st1" width="37.4" height="20.7"/>
		</g>
	</g>
</g>
<g>
	<g>
		<g>
			<rect x="261.6" y="482.6" class="st1" width="60.4" height="20.7"/>
		</g>
	</g>
</g>
<g>
	<g>
		<g>
			<rect x="624.8" y="46.6" class="st1" width="66.4" height="20.7"/>
		</g>
	</g>
</g>
<g>
	<g>
		<g>
			<rect x="729.9" y="46.6" class="st1" width="37.4" height="20.7"/>
		</g>
	</g>
</g>
<g>
	<g>
		<g>
			<rect x="745.9" y="258.1" class="st1" width="45.4" height="52.2"/>
		</g>
	</g>
</g>
<g>
	<g>
		<g>
			<rect x="427.1" y="424.8" class="st1" width="45.4" height="52.2"/>
		</g>
	</g>
</g>
<g>
	<g>
		<g>
			<rect x="302.6" y="396.4" class="st1" width="59.9" height="31.3"/>
		</g>
	</g>
</g>
<rect x="745.9" y="107" class="st1" width="45.4" height="117"/>
<g>
	<g>
		<g>
			<rect x="184.3" y="333.9" class="st1" width="26.6" height="117"/>
		</g>
	</g>
</g>
<g>
	<g>
		<g>
			<rect x="723.7" y="236.6" class="st1" width="85.9" height="11.9"/>
		</g>
	</g>
</g>
<g>
	<g>
		<g>
			<g>
				<g>
					<path class="st4" d="M369.7,57c-20.7,0-37.4,13.3-37.4,29.7s16.7,29.7,37.4,29.7c20.6,0,37.4-13.3,37.4-29.7
						C407,70.3,390.3,57,369.7,57z M369.7,107.4c-14.5,0-26.2-9.3-26.2-20.8s11.7-20.8,26.2-20.8c14.4,0,26.2,9.3,26.2,20.8
						C395.8,98.1,384.1,107.4,369.7,107.4z"/>
					<path class="st0" d="M369.7,65.9c-14.5,0-26.2,9.3-26.2,20.8s11.7,20.8,26.2,20.8c14.4,0,26.2-9.3,26.2-20.8
						C395.8,75.2,384.1,65.9,369.7,65.9z M369.7,97.9c-7.8,0-14.1-5-14.1-11.2s6.3-11.2,14.1-11.2c7.8,0,14.1,5,14.1,11.2
						C383.8,92.9,377.4,97.9,369.7,97.9z"/>
				</g>
				<path class="st4" d="M384.4,86.6c0,6.5-6.6,11.8-14.8,11.8c-8.2,0-14.8-5.3-14.8-11.8s6.6-11.8,14.8-11.8
					C377.8,74.8,384.4,80.1,384.4,86.6z"/>
			</g>
		</g>
	</g>
</g>
<g>
	<g>
		<g>
			<g>
				<g>
					<polygon class="st3" points="596.9,9.1 603,9.1 591.8,-10.3 598.1,-10.3 585.4,-32.3 585.4,29 608.4,29 					"/>
					<polygon class="st2" points="572.7,-10.3 579.1,-10.3 567.9,9.1 573.9,9.1 562.5,29 585.4,29 585.4,-32.3 					"/>
				</g>
			</g>
		</g>
	</g>
</g>
<g>
	<g>
		<g>
			<g>
				<g>
					<polygon class="st3" points="660.3,9.1 666.4,9.1 655.1,-10.3 661.5,-10.3 648.8,-32.3 648.8,29 671.8,29 					"/>
					<polygon class="st2" points="636.1,-10.3 642.4,-10.3 631.2,9.1 637.3,9.1 625.8,29 648.8,29 648.8,-32.3 					"/>
				</g>
			</g>
		</g>
	</g>
</g>
<g>
	<g>
		<g>
			<g>
				<g>
					<polygon class="st3" points="722,9.1 728.1,9.1 716.9,-10.3 723.2,-10.3 710.5,-32.3 710.5,29 733.5,29 					"/>
					<polygon class="st2" points="697.8,-10.3 704.2,-10.3 692.9,9.1 699,9.1 687.5,29 710.5,29 710.5,-32.3 					"/>
				</g>
			</g>
		</g>
	</g>
</g>
<g>
	<g>
		<g>
			<g>
				<g>
					<polygon class="st3" points="791.7,441.8 797.8,441.8 786.5,422.4 792.9,422.4 780.2,400.4 780.2,461.7 803.2,461.7 					"/>
					<polygon class="st2" points="767.5,422.4 773.8,422.4 762.6,441.8 768.7,441.8 757.2,461.7 780.2,461.7 780.2,400.4 					"/>
				</g>
			</g>
			<g>
				<g>
					<polygon class="st3" points="846.5,450.8 852.6,450.8 841.3,431.4 847.7,431.4 835,409.4 835,470.7 858,470.7 					"/>
					<polygon class="st2" points="822.3,431.4 828.6,431.4 817.4,450.8 823.5,450.8 812,470.7 835,470.7 835,409.4 					"/>
				</g>
			</g>
			<g>
				<g>
					<polygon class="st3" points="887.4,428.8 892,428.8 883.5,414.3 888.3,414.3 878.8,397.9 878.8,443.7 896,443.7 					"/>
					<polygon class="st2" points="869.3,414.3 874,414.3 865.6,428.8 870.2,428.8 861.6,443.7 878.8,443.7 878.8,397.9 					"/>
				</g>
			</g>
		</g>
	</g>
</g>
<g>
	<g>
		<g>
			<path class="st1" d="M488.1,84.6h-8.6c0-1.4,0.2-34.1,17.3-49.3c14.3-12.7,19.9-30.6,20.3-43.1c1.1-31,3.4-74,3.4-74.5l8.6,0.5
				c0,0.4-2.3,43.4-3.4,74.3c-0.2,6.9-2.6,31-23.2,49.3C488.3,54.4,488.1,84.3,488.1,84.6z"/>
		</g>
	</g>
</g>
<g>
	<g>
		<g>
			<g>
				<polygon class="st5" points="842.6,66.4 845.6,66.4 851.4,49.5 847.9,40.4 836.7,50.1 830.4,66.4 835.1,66.4 				"/>
				<polygon class="st6" points="847.9,40.4 844.2,30.8 838.5,45.5 836.7,50.1 				"/>
				<polygon class="st5" points="865.2,66.4 873.8,47.1 867.1,27.6 854.9,39.3 851.4,49.5 845.6,66.4 				"/>
				<polygon class="st6" points="863,15.5 854.9,39.3 854.9,39.3 867.1,27.6 				"/>
				<polygon class="st5" points="899.9,66.4 886.9,37.1 874.3,45.8 873.8,47.1 865.2,66.4 				"/>
				<polygon class="st6" points="886.9,37.1 882.5,27.2 875.9,42.2 874.3,45.8 				"/>
			</g>
		</g>
	</g>
</g>
<path class="st1" d="M857,116.2c-9.3,12.1-36.5,17-71.7,19.9v-8.6c31.6-2.6,57.6-7,64.9-16.4c13.1-17,10.8-27,10.7-27.1l8.3-2.4
	C869.6,82.9,872.8,95.7,857,116.2z"/>
<g>
	<g>
		<g>
			<path class="st1" d="M229.3,83.2c-0.4-2.9-10.1-71.3,7.9-97.2c5.8-8.3,10.4-13.2,14-17.1c7.1-7.6,10-10.8,12.3-29.9
				c1.3-11.3,0-51.6,0-52l8.6-0.3c0.1,1.7,1.4,41.4,0,53.3c-2.5,21-6.3,25.8-14.5,34.7c-3.5,3.7-7.8,8.4-13.3,16.2
				c-16.1,23.1-6.6,90.3-6.5,91L229.3,83.2z"/>
		</g>
	</g>
</g>
<g>
	<g>
		<g>
			<rect x="547.1" y="194.6" class="st1" width="5.9" height="82.1"/>
		</g>
	</g>
</g>
<g>
	<g>
		<g>
			<rect x="494.2" y="214.7" class="st1" width="129.4" height="7.3"/>
		</g>
	</g>
</g>
<g>
	<g>
		<g>
			<rect x="408.6" y="391.2" class="st1" width="7.3" height="129.4"/>
		</g>
	</g>
</g>
<g>
	<g>
		<g>
			<rect x="287.1" y="435.7" class="st1" width="127.3" height="7.3"/>
		</g>
	</g>
</g>
<g>
	<g>
		<g>
			<path class="st1" d="M578.2,274.7v100.6c0,12.6-10.2,15.9-22.7,15.9H408.6v7.3h147.3c16.4,0,29.6-6.4,29.6-22.7V274.7H578.2z"/>
		</g>
	</g>
</g>
<g>
	<g>
		<g>
			<rect x="434.5" y="175.2" class="st1" width="36.1" height="26.1"/>
		</g>
	</g>
</g>
<g>
	<g>
		<g>
			<rect x="529" y="103.7" class="st1" width="36.1" height="26.1"/>
		</g>
	</g>
</g>
<g>
	<g>
		<g>
			<rect x="398.4" y="231.6" class="st1" width="72.2" height="26.1"/>
		</g>
	</g>
</g>
<g>
	<g>
		<g>
			<rect x="279.6" y="181.5" class="st1" width="72.2" height="26.1"/>
		</g>
	</g>
</g>
<g>
	<g>
		<g>
			<rect x="189.5" y="243.5" class="st1" width="42.8" height="26.1"/>
		</g>
	</g>
</g>
<g>
	<g>
		<g>
			<rect x="660.4" y="321.7" class="st1" width="40.4" height="57.2"/>
		</g>
	</g>
</g>
<g>
	<g>
		<g>
			<rect x="514.1" y="362.8" class="st1" width="37" height="19.8"/>
		</g>
	</g>
</g>
<g>
	<g>
		<g>
			<rect x="443.5" y="362.8" class="st1" width="50.8" height="19.8"/>
		</g>
	</g>
</g>
<g>
	<g>
		<g>
			<rect x="470.6" y="293.5" class="st1" width="93.1" height="31.4"/>
		</g>
	</g>
</g>
<g>
	<g>
		<g>
			<g>
				<path class="st1" d="M-157.3,609.4l-2.4-8.2c0.9-0.3,92.7-27,118-40c11.7-6,23.7-22,35.3-37.5c13-17.4,26.5-35.4,41.5-42.3
					c27.7-12.8,118.6-13,123-13l0,0v8.6l0,0c-1,0-93.4,0.1-119.5,12.2c-13,6-25.8,23.1-38.2,39.7c-12.7,17-24.8,33.1-38.3,40
					C-63.8,582.2-153.5,608.3-157.3,609.4z"/>
			</g>
		</g>
	</g>
</g>
<g>
	<g>
		<g>
			
				<radialGradient id="SVGID_1_" cx="448.4" cy="237.91" r="572.6882" gradientTransform="matrix(1 0 0 -1 0 524.71)" gradientUnits="userSpaceOnUse">
				<stop  offset="0" style="stop-color:#FFFFFF"/>
				<stop  offset="1" style="stop-color:#CFD6D8"/>
			</radialGradient>
			<path class="st7" d="M541.2,430.1c-20.4,0-39.1-6.4-54-18.4c-12.6-10.2-20.9-23.2-27.6-33.7c-4.5-7-10.6-16.6-14-17.7
				c-0.1,0-0.5-0.1-1.1-0.1c-5,0-14.3,4.5-23.2,8.9c-15.3,7.5-32.7,16-53.5,16c-4.1,0-8.3-0.4-12.4-1c-29.5-5-53.9-28.6-65.4-63.1
				c-3.8-11.6-5.9-22.7-7.9-33.5c-1.7-9-3.3-17.5-5.7-24.8c-7.4-22.2-25.6-40.9-47.7-48.8c-8.1-2.9-16.8-4.4-25.8-4.4
				c-15,0-30,4.2-42.1,11.9c-9.8,6.2-19.1,15.2-28.9,24.7c-8.4,8.1-17,16.4-27,24.1c-22.5,17.5-47,26.8-70.8,26.8
				c-12.7,0-24.7-2.7-35.7-8c-7.9-3.8-14.5-8.7-19.7-12.6c-1.7-1.3-3.1-2.3-4.5-3.3l-4.4-3.1v-66.6l12.1,2c2.4,0.4,4.7,1,6.9,1.6
				c12.6,3.9,21.8,10.8,29.3,16.4c3.3,2.5,6.8,5,9.1,6.2c1.9,0.9,4.2,1.4,6.8,1.4c10.2,0,22.4-6.7,30.5-12.9
				c7.2-5.6,14.2-12.4,21.6-19.5c11.8-11.4,24-23.1,39.4-32.9c23-14.6,49.6-22.2,77.2-22.2c16.6,0,32.8,2.8,48.1,8.3
				c41.4,14.8,74.3,48.5,88.1,90.2c3.8,11.6,5.9,22.7,7.9,33.4c1.7,9,3.3,17.5,5.7,24.8c3.6,10.8,10,18.1,13.8,18.8
				c0.3,0.1,0.7,0.1,1.1,0.1c5.7,0,15.3-4.7,24.6-9.3c14.3-7,32-15.7,52.4-15.7c7.3,0,14.5,1.1,21.4,3.4
				c25.8,8.4,39.3,29.5,49.1,44.9c4.8,7.5,9.3,14.5,13.5,18c3.9,3.1,9,3.8,12.7,3.8c8.6,0,18.6-3.5,26.1-9
				c16.9-12.5,28.8-33.9,41.4-56.4l0.4-0.7c13.3-23.9,31.6-56.6,62.9-77.6c20.1-13.5,44.2-20.6,69.7-20.6c31.7,0,61.5,11,84,30.8
				c15.2,13.4,25.5,28.8,35.4,43.6c2.3,3.5,4.5,6.7,6.7,10c7.5,10.8,17.6,23.8,29.2,28.4c2,0.8,4.3,1.2,6.6,1.2
				c3.2,0,5.7-0.8,6.8-1.6l16.7-12.5v77.3l-8.5,1.6c-4.8,0.9-9.8,1.3-14.8,1.3l0,0c-10.7,0-21.2-2-31.3-6
				c-27.8-11.1-46.1-33.7-58.8-52c-2.6-3.7-5-7.3-7.4-10.9c-8-11.9-15.5-23.2-24.3-30.9c-10.3-9.1-25-14.4-40.3-14.4
				c-12.1,0-23.9,3.4-33,9.5c-16.8,11.3-29,31.6-42,55l-0.4,0.7c-14.7,26.4-31.4,56.3-59.7,77.3C588,422.1,564.1,430.1,541.2,430.1
				L541.2,430.1z"/>
		</g>
	</g>
	
		<linearGradient id="SVGID_2_" gradientUnits="userSpaceOnUse" x1="-19.7" y1="238.8534" x2="916.9" y2="238.8534" gradientTransform="matrix(1 0 0 -1 0 524.71)">
		<stop  offset="0" style="stop-color:#494D74"/>
		<stop  offset="1" style="stop-color:#090E3A"/>
	</linearGradient>
	<path class="st8" d="M916.9,319.9c-5.4,4-15.4,5-23.5,1.7c-14.1-5.6-25.5-20.2-33.9-32.2c-2.3-3.3-4.5-6.6-6.8-10.1
		c-9.6-14.3-19.5-29.1-33.7-41.6c-38.1-33.7-98.8-37.7-141-9.4c-29.2,19.6-46.8,51.1-59.6,74L618,303
		c-13.2,23.6-25.6,45.8-44.3,59.7c-14.8,11-38.1,15.8-51.5,5c-5.6-4.5-10.5-12.2-15.7-20.4c-9.5-14.8-21.3-33.3-43.6-40.6
		c-25.2-8.2-47.8,2.9-65.9,11.7c-12.1,5.9-23.6,11.5-32.1,10.1c-9.8-1.7-18.1-14.2-22-25.8c-2.7-8-4.3-16.9-6-26.2
		c-1.9-10.4-3.9-21.2-7.6-32.1c-12.8-38.7-43.3-70-81.7-83.7s-81.8-8.9-116.3,12.9c-14.6,9.2-26.4,20.6-37.8,31.6
		c-7.6,7.4-14.8,14.3-22.5,20.2c-13.2,10.2-33.7,19.7-48.2,12.6c-3.2-1.6-6.9-4.3-10.8-7.2c-7.2-5.3-15.3-11.4-26.2-14.8
		c-1.8-0.6-3.6-1-5.5-1.3v48.8c1.5,1.1,3.1,2.3,4.7,3.5c5.1,3.8,11,8.2,18,11.6c28.1,13.6,63.8,7,95.6-17.6
		c9.5-7.4,18-15.5,26.1-23.4c10.2-9.9,19.9-19.2,30.6-26c22.4-14.2,51.9-17.5,76.9-8.6s45.7,30.2,54.1,55.4c2.7,8,4.3,16.8,6,26.2
		c1.9,10.4,3.9,21.2,7.6,32.1c10.2,30.7,31.6,51.7,57.2,56.1c22.9,3.9,42.3-5.6,59.5-14c13-6.4,24.3-11.9,32.1-9.4
		c6.9,2.3,12.8,11.4,19.5,22c6.6,10.3,14.1,22.1,25.4,31.2c14,11.3,30.7,16.1,47.4,16.1c21.5,0,43.1-7.9,59.3-19.9
		c26.5-19.7,42.6-48.5,56.9-74l0.4-0.7c13.7-24.6,26.6-46,45.3-58.6c25.3-17,63.1-14.5,86,5.7c9.8,8.7,17.7,20.5,26.1,32.9
		c2.4,3.5,4.8,7.1,7.3,10.7c12,17.2,28.9,38.2,54.2,48.3c13.3,5.3,27.4,6.5,40.3,4.1v-47.3L916.9,319.9L916.9,319.9z"/>
	<g>
		<g>
			<path class="st9" d="M938.9,328.8c-1.2,2-2.6,3.8-4.2,5.5"/>
			<path class="st10" d="M923.5,342.1c-11.7,5.4-26.4,5.4-38.6,0.5c-18.7-7.5-32.5-23.7-44-40.2c-11.5-16.6-21.8-34.4-36.9-47.7
				c-30.6-27-79.6-30.3-113.5-7.5c-23.6,15.9-38.6,41.4-52.4,66.3c-13.9,24.8-28.1,50.7-51,67.6s-57,22.3-79.2,4.4
				c-20.3-16.5-27.2-49-52.1-57.1c-31.6-10.3-62,28.2-94.8,22.6c-19.7-3.4-33.3-22-39.6-41c-6.3-19-7.3-39.3-13.6-58.3
				c-10.5-31.8-36.3-58.2-67.9-69.5s-68.3-7.2-96.6,10.7c-21.8,13.8-38.1,34.8-58.5,50.6s-48.6,26.4-71.9,15.1
				c-12-5.8-21.2-16.8-33.9-20.8c-7.9-2.5-17.7,0.4-23.1,5.9"/>
			<path class="st9" d="M-47.5,249.7c-0.6,2.1-0.6,4.4,0.3,6.8"/>
		</g>
	</g>
</g>
<g>
	<g id="XMLID_128_">
		<path id="XMLID_178_" class="st11" d="M44.6,178.9c0,0-0.4,2.3-3.2,1.7s-7.9-4.2-10.4-3.3c-2.5,0.8-2.4,2-1.8,2s2.2,0.5,2.2,0.5
			s-2.7-0.2-5.6,2.3c-2.8,2.5-3.1,6.9-1.7,7.4c1.3,0.5,1.5-1.8,3.9-3.2s4.5-1.2,4.5-1.2s-2,1.5-1.2,2.2c0.7,0.7,2-0.8,3.1-1
			s3.2,0.9,5.6,0c2.3-0.9,3-2.3,4.1-4.3C45,179.9,45.1,179.7,44.6,178.9z"/>
		<path id="XMLID_168_" class="st12" d="M57.9,176.1c0,0-0.5,0.7-1.6,1.3s-3.6,0.8-3.6,0.8l-0.2-1.8
			C52.6,176.5,56.8,175.4,57.9,176.1z"/>
		<path class="st11" d="M51.5,171.3c-2.5-1.7-4.5-1.3-6.2,0.7c-1.7,2.1-1.8,2.7-1.6,3.7c0.1,0.2,0.1,0.5,0.2,0.7l0.5,1.7
			c0,0,1.2,1.7,1.9,1c0.4-0.4,0.6-2.2,0.8-3.5c0.6-0.3,1.4-0.6,2.1-0.7c2.7-0.7,3.6-0.7,3.6-0.7S54,173,51.5,171.3z"/>
		<path id="XMLID_174_" class="st13" d="M51.9,188.5c0,0,2.9,0.7,3.5,1.9s1.7,5.9,3.1,9.3c1.3,3.4,0.7,2.7,1.2,4.1
			c0.6,1.3,2-0.6,2.1,0.2s-0.2,3.2-1.3,5c-1.2,1.8-1.7,2.3-3.3-0.2c-1.6-2.6-4.3-10.4-4.3-11.1c0-0.7-1.5-6-1.7-7.1
			C50.8,189.6,50.5,187.8,51.9,188.5z"/>
		<path id="XMLID_179_" class="st14" d="M38.9,228.2c0,0,0.2,8.6-0.2,9.8s-1.8,1.8-4.9,1.9c-3.1,0.1-5.2-0.2-5.9-0.2
			c-0.7-0.1-1.7-0.7-2.5-0.5c-0.7,0.2-1.1,1.3-1,2.7c0.1,1.3,0.8,1.7,0.3,3c-0.5,1.2-0.1,3.1,0.2,4.2c0.2,1.1,1,1.7,1.3,1.1
			c0.3-0.7,2.1-6.9,2.1-6.9s9.3,1.2,11.6,1.2c2.2,0,3.5,0.2,4.7-3s2.3-10.6,2.4-11C47,230.1,40.5,226.1,38.9,228.2z"/>
		<path id="XMLID_171_" class="st13" d="M46.1,179.8c0,0-0.3,3-0.7,4.8s-0.7,2.6-0.7,2.6s-4.4-0.9-5.7-0.6c-1.3,0.3-1.3,1.9-1.2,4.7
			s1.1,13.5,0.6,14.8c-0.5,1.2-1,3-3.4,5.7s-3.2,6.6-2.6,9.1c0.6,2.6,3.2,4.7,5.5,7.6c2.3,2.9,6.3,7.8,6.3,9.1
			c0,1.2-0.2,7.5,0.8,10.6s4.4,9.5,5.2,12.3c0.7,2.7,1.4,5.8,2.1,6.1c0.7,0.3,8.4-4.7,9-5.2c0.6-0.6,1.2-1.3,0.3-1.6
			c-0.8-0.2-4.6,0-5.6-0.2s-1.2-0.3-1.6-0.6c-0.3-0.2-2.8-11.3-3.3-13.1s-0.5-9.3-1.5-11.9c-1-2.6-1.9-4.9-1.9-4.9s2.4-7.1,2.4-11.7
			c0-4.6,0.3-10.1,0.3-11.1c0-0.9-0.1-2.2,0.7-3.1c0.7-0.8,2.7-2.7,3-3.5s-0.7-4.7-1.2-6.2c-0.5-1.6-1-4.9-1-4.9l-3-1l0.4-3.9
			c0,0-0.9-2.5-1.6-3.2C47,179.6,46.1,179.8,46.1,179.8z"/>
		<path id="XMLID_158_" class="st13" d="M45.5,178.3c0,0-0.9-2.1-1.6-1s-0.1,2.8,0.6,3.1c0.7,0.3,1.1-0.2,1.1-0.2s2.9,4.9,4.7,5.2
			c1.7,0.2,3.1-4,3.2-5.8c0.1-1.8-0.3-4-1.4-4.3c-1.1-0.3-5,0.2-5.7,0.7C45.7,176.4,45.5,178.3,45.5,178.3z"/>
		<path id="XMLID_165_" class="st15" d="M44.8,177.2l2-0.8c0,0,2.6,1.7,4.1,1.4c1.5-0.2,5.1-1.5,6.1-1.6s1-0.1,1-0.1s-4-2.1-5.3-2.6
			s-4.5,0.2-6.1,1.2c-1.6,0.9-2.6,2.6-2.6,2.6S44.4,176.6,44.8,177.2z"/>
		<path id="XMLID_182_" class="st16" d="M50.1,217.3c0-2,0.1-4.1,0.1-6c-1.6,0.2-4.4,0.4-7.9-0.7c-2.4-0.8-4.1-1.4-5.2-1.9
			c-0.5,0.9-1.2,1.9-2.3,3.2c-2.4,2.7-3.2,6.6-2.6,9.1c0.3,1.4,1.2,2.7,2.4,4c0.2-0.6,1.3-2.8,4-3.9c3.2-1.2,4.9,0,4.9,0l4.1,7.8
			C47.7,229,50.1,221.8,50.1,217.3z"/>
		<path id="XMLID_175_" class="st15" d="M50.2,213.1c0.1-3.3,0.3-6.2,0.3-6.9c0-0.9-0.1-2.2,0.7-3.1c0.7-0.8,2.7-2.7,3-3.5
			s-0.7-4.7-1.2-6.2c-0.5-1.6-1-4.9-1-4.9l-2.4-0.8l1.2,8.7c0,0-1.7,0.2-4.3-0.5c-2.7-0.7-3.8-1.2-3.8-1.2s1.7-5,1.7-7.1
			c0-0.2,0-0.4,0-0.6c-0.5-0.1-1.4-0.3-2.3-0.4c-0.1,1.3-0.3,3.3-0.9,5.3c-0.7,2.2-2,3.7-3,4.6c0.3,4,0.6,8.7,0.3,9.5
			c-0.4,0.9-0.7,2.2-1.9,3.9c1.1,1.2,3.6,3.1,7.8,3.7C47.1,214.1,49,213.6,50.2,213.1z"/>
		<path id="XMLID_172_" class="st13" d="M41,186.6c0,0-2.4-1.2-4-0.7c-1.6,0.6-3.2,4.7-3.8,5.6c-0.6,0.9-7.7,11.4-7.7,12.1
			s2.5,1.6,3.5,0.8c1-0.7,10.2-13.3,10.2-13.3"/>
		<path id="XMLID_170_" class="st13" d="M29.5,201.6c0,0,2.2,1,4.2,2c2.1,1,5.2,2,5.2,2s1.9-1.7,2.5-1.8s2.2,0.9,2.2,0.9
			s0.1,0.6-0.3,0.6c-0.4,0-0.4,0-0.4,0s1.6,0.2,1.6,0.5s0.1,0.9-0.2,1.2s-0.6,0.7-1,1.1c-0.4,0.4-0.7,1.1-2.3,1.1s-3.6-1.2-3.6-1.2
			s-2.4-0.5-5.5-1.2s-6.1-2.6-6.5-3s1.2-2,1.2-2"/>
		<path id="XMLID_173_" class="st17" d="M59.7,200.3c0,0-1.5-0.2-1.7,0.2c-0.2,0.5-0.3,2.3,0,2.7s1.1,0.1,1.2-0.5
			C59.2,202.2,59.7,200.3,59.7,200.3z"/>
		<path id="XMLID_176_" class="st13" d="M59.7,200.3c0,0-0.7-0.2-0.6,1.2c0.1,1.3,0.4,3.7,0.8,3.8c0.4,0.2,2.1,0.2,2.6-0.5
			s0.1-3.5-0.1-4S60.2,200.2,59.7,200.3z"/>
		<path id="XMLID_184_" class="st15" d="M27.3,243.9c-0.3,0-0.4-0.2-0.3-1.9s0.8-2.3,0.8-2.3c-0.7-0.1-1.7-0.7-2.5-0.5
			c-0.7,0.2-1.1,1.3-1,2.7c0.1,1.3,0.8,1.7,0.3,3c-0.5,1.2-0.1,3.1,0.2,4.2c0.2,1.1,1,1.7,1.3,1.1c0.3-0.5,1.4-4.6,1.9-6.2
			C27.8,243.9,27.5,243.9,27.3,243.9z"/>
		<path id="XMLID_185_" class="st15" d="M61.6,259.7c-0.8-0.2-4.6,0-5.6-0.2c-0.8-0.2-1.1-0.3-1.4-0.4c-0.2,0.1-0.5,0.3-0.5,0.7
			c-0.2,1-0.2,1.9-0.2,1.9s-1.6,1-2.6,1.3c-0.2,0.1-0.3,0.1-0.5,0.1c0.5,1.8,0.9,3.3,1.4,3.5c0.7,0.2,8.4-4.7,9-5.2
			C61.8,260.7,62.4,260,61.6,259.7z"/>
		<path id="XMLID_177_" class="st18" d="M37.9,211.3c0,0-3.2,2.5-3,3.2s0.8,1,0.2,1.7s-1.2,0.9-1.2,1.4c0.1,0.5,1.7,4,2.5,4.6"/>
		<path id="XMLID_180_" class="st18" d="M45.2,214.2c0,0-1,1.2-0.7,1.7s1.9,0.3,1,1.2s-2.1,1.2-1.3,1.6c0.7,0.3,1.4,0.5,1.4,0.5"/>
	</g>
</g>
<g id="XMLID_231_">
	<path id="XMLID_181_" class="st13" d="M226.1,94.4c-0.3,0-2.8-0.6-4.8,1.4c-2.1,2-1.4,4.5-1,5.8s0.4,1.8,0.2,2.3
		c-0.3,0.4-1.5,1.8-1.7,2.2c-0.2,0.4,3.4,2.3,3.4,2.3l2.8-1.7c0,0,2.5,1.5,2.8,1.4s1.1-1.4,1.8-4.5c0.8-3.1,0.6-5.4-0.4-7.2
		S226.1,94.4,226.1,94.4z"/>
	<path id="XMLID_186_" class="st19" d="M224.4,101.1c0,0-0.4-1.3-1.2-0.2c-0.8,1.1-0.5,1.9-0.2,2.1s0.3,0.2,0.3,0.2
		s-0.2,0.8,0.3,1.8s1.3,1.8,1.3,1.8"/>
	<path id="XMLID_190_" class="st11" d="M229.8,98.3c-0.1-0.7-0.4-1.2-0.7-1.8c-1-1.8-3.1-2.1-3.1-2.1c-0.3,0-2.8-0.6-4.8,1.4
		c-2.1,2-1.4,4.5-1,5.8c0.3,1,0.4,1.5,0.3,1.9c0.5,0,1.3,0,1.9-0.1c1.3-0.3,1.5-1.8,1.3-2.3c-0.3-0.5,0.4-1,0.4-1s0.5,1.3,1.1,0.5
		s-0.4-2,0.6-2.7s2.1-0.7,3.3,0C229.4,98.1,229.6,98.2,229.8,98.3z"/>
	<path id="XMLID_187_" class="st11" d="M229.8,98.3c0,0,0.6,0.4,1.4-0.7c0.8-1.1,0.8-3,0.2-2.5c-0.7,0.5-0.9,0.8-0.9,0.8
		s-0.7-2.9-1.6-2.6c-0.9,0.3-0.9,1.2-0.9,1.2s-1.8-1.3-2.1-0.9s-0.6,0.6-0.6,0.6s0.2,0.1-0.3,0.3s-0.9,0.8-0.9,0.8s2.8,0.3,3.6,1.2
		C228.5,97.1,229.8,98.3,229.8,98.3z"/>
	<path id="XMLID_194_" class="st11" d="M223.9,112.2c0,0,1.5,0.5,1.6,3s2,8.9,2,8.9s2.3-2.5,2.7-3s1.3-0.7,2.1,0.8
		c0.8,1.4,0.6,3.1-0.7,5.1c-1.3,2-3.6,5-5.5,4.7s-5.1-6.1-5.2-6.8c-0.1-0.7,1.5-7.4,1.8-8.5C222.9,115.3,223.9,112.2,223.9,112.2z"
		/>
	<path id="XMLID_196_" class="st13" d="M205.5,136.3c0,0-1.2,1.6-0.8,3.1s1.1,2.9,1.1,2.9s-2.8,8.9-3.4,10.8c-0.7,1.8-0.2,2-1.9,3.1
		c-1.8,1.1-5.6,2.6-6.8,6.6c-1.3,4-2.9,7.8-3.4,8.8s-0.8,1.6-1.8,1.6c-1.1,0-2.9-0.5-3.1,0.9c-0.2,1.4,0,3.5,0,4s-1.3,1.3-0.8,3.1
		s1.4,3.3,1.9,3.5s1.4-0.1,1.5-0.5s-0.9-1.1-0.4-2.6s3-3.9,4.4-5.3c1.4-1.3,4.8-7.3,7.3-9.9c2.5-2.7,5.3-6,7.4-7.8
		c2-1.8,6.1-8.5,6.9-10c0.8-1.5,1.8-3.6,1.8-3.6s8.8,1.7,10.3,1.9c1.5,0.3,3,0.8,3,0.8s-2.6,2.3-3.3,5.8s-2.2,9.9-2.9,11.9
		c-0.8,2.1-1.3,3.3-1.8,4.4c-0.5,1.1-1.3,2.5-0.8,3.2c0.6,0.7,3.8,1.1,5.3,1.3c1.6,0.3,4.7,0.2,5.3-0.4c0.7-0.6,0.8-0.9,0.3-1
		s-2.8-1.6-3.4-2.2c-0.7-0.6-1.2-1.6-1.1-2c0.1-0.4,3.8-8.7,5.5-12s3.5-9.2,4-10.5s0.7-1.6,0.2-2.3s-3.6-3-8.8-5.8s-8-2.9-9.6-3.2
		s-4.3-2.7-7.9-1.1C206.2,135.4,205.5,136.3,205.5,136.3z"/>
	<path id="XMLID_189_" class="st11" d="M224.2,111.4c0,0,0.3,3.2-0.3,7.6s-3.8,11-4,12.6c-0.3,1.6,0.8,2.6,0.5,3.1s-1,0.7-1.8,0.7
		s-4.1-0.8-6.7-0.3c-2.6,0.5-5.4,2.8-6,2.6c-0.6-0.3-1.5-1.3-0.9-2.3s1.2-1.6,1.7-2.6s3-8.9,3.6-11.5s0.3-5.6,0.3-7.7
		c-0.1-2.1,1.7-5.5,3-6s5.1,0.5,5.5,0.5C219.4,108,223.4,109.3,224.2,111.4z"/>
	<path id="XMLID_188_" class="st16" d="M222.2,110.7c0,0,1.9,2.4,2.2,2.3c0.3-0.2,1.2-1,0.4-3s-2.5-3.3-4.3-4.9s-3.8-4-5-2.6
		c-1.3,1.4-3.6,4.7-2.6,5.8c1,1.1,6.3,1.3,7.4,1.8C221.4,110.4,222.2,110.7,222.2,110.7z"/>
	<path id="XMLID_192_" class="st13" d="M201.3,128.2c0,0,0.3,1,0.9,2.1c0.7,1.1,1,2.3,0.6,2.7s-0.4,0.4-2.1,0.9
		c-1.7,0.5-2.3,0.2-2.5-0.3c-0.2-0.4,0.5-0.9,0.5-0.9s-1.1-0.3-1.1-1.3c0-1.1,0.3-3.3,0.3-3.3l3.3-0.3L201.3,128.2z"/>
	<path id="XMLID_183_" class="st16" d="M197.4,126.5c0,0-0.1,1.7,0.4,2.1c0.5,0.4,3.2,0,3.5-0.3s0.4-2.5,0.4-2.5L197.4,126.5z"/>
	<path id="XMLID_191_" class="st11" d="M217.7,110.1c0,0-1.2-1.3-2.9-1.8c-1.8-0.6-7.3-0.2-11.1,0.8s-5.4,0.9-6,2.4
		s-1.5,13.2-1.3,14.5s2.8,1.4,4.1,1.1s2.3-1.2,2.7-2.9s0.3-8,0.9-8.7c0.6-0.7,7.5-0.3,9.4-0.5c1.9-0.3,3.3-0.8,3.6-1.3"/>
	<path id="XMLID_193_" class="st16" d="M231.3,120.5c0,0-1.4,0.8-1.2,2c0.3,1.3,1.5,2.2,2,2.1s1.5-1.4,1.5-1.4
		S233.8,119.9,231.3,120.5z"/>
	<path id="XMLID_195_" class="st13" d="M231.1,121.5c0,0,0.7,1.9,1.5,2s1.3-0.4,2.3-1.4s2-1.8,2-3.1c0-1.3-0.3-3.2-1.1-3.3
		c-0.8-0.1-1.3,0.2-1.3,0.2s-0.3-0.5-1,0.1c-0.8,0.6-0.6,1-1,1.8s-0.5,1.1-0.4,1.8c0.1,0.7,0.1,0.9,0.1,0.9L231.1,121.5z"/>
	<path id="XMLID_197_" class="st19" d="M234.4,115.9c0.3,0.4,0.7,2.7,0.3,3c-0.3,0.3-0.9,1-1.1,0.3c-0.2-0.8-0.5-1.8-0.5-1.8"/>
	<path id="XMLID_202_" class="st15" d="M227.2,138.1c-5.2-2.8-8-2.9-9.6-3.2s-4.3-2.7-7.9-1.1c-3.6,1.6-4.3,2.5-4.3,2.5
		s-1.2,1.6-0.8,3.1s1.1,2.9,1.1,2.9s-2.8,8.9-3.4,10.8c0,0.1-0.1,0.2-0.1,0.3c0.7,0.3,1.6,0.6,2.6,1c1.7,0.7,2.6,1.8,3.1,2.7
		c2.1-2.7,4.9-7.3,5.5-8.5c0.8-1.5,1.8-3.6,1.8-3.6s8.8,1.7,10.3,1.9c0.5,0.1,1,0.2,1.5,0.3c0.2-1.3,0.7-3,1.5-4.7
		c0.8-1.5,1.6-2.2,2.1-2.5C229.7,139.5,228.5,138.8,227.2,138.1z"/>
	<path id="XMLID_204_" class="st20" d="M230.5,173.9c0.7-0.6,0.8-0.9,0.3-1c-0.4-0.1-2.8-1.6-3.4-2.2c-0.7-0.6-1.2-1.6-1.1-2
		c0-0.1,0.4-1.1,1-2.4c-0.7,0.2-1.5,0.3-2.2,0.3c-0.8-0.1-2-0.5-2.9-0.8c-0.7,1.9-1.2,3.1-1.7,4.1c-0.5,1.1-1.3,2.5-0.8,3.2
		c0.6,0.7,3.8,1.1,5.3,1.3C226.7,174.6,229.8,174.5,230.5,173.9z"/>
	<path id="XMLID_203_" class="st11" d="M230.8,172.9c-0.4-0.1-2.8-1.6-3.4-2.2c-0.7-0.6-1.2-1.6-1.1-2c0,0-0.3-1.1-1.1-1.3
		s-1.1,2.1-1.1,2.1l-3.2-0.6c-0.1,0.3-0.3,0.6-0.4,0.9c-0.5,1.1-1.3,2.5-0.8,3.2c0.6,0.7,3.8,1.1,5.3,1.3c1.6,0.3,4.7,0.2,5.3-0.4
		C231.2,173.3,231.3,173,230.8,172.9z"/>
	<path id="XMLID_206_" class="st20" d="M191.2,174.4c-0.7-0.5-1.2-1.5-1.4-2.1c-0.3,0.6-0.7,0.9-1.5,0.9c-1.1,0-2.9-0.5-3.1,0.9
		c-0.2,1.4,0,3.5,0,4s-1.3,1.3-0.8,3.1s1.4,3.3,1.9,3.5s1.4-0.1,1.5-0.5s-0.9-1.1-0.4-2.6s3-3.9,4.4-5.3c0.3-0.2,0.6-0.6,0.9-1.1
		C192.4,175.1,191.8,174.8,191.2,174.4z"/>
	<path id="XMLID_205_" class="st11" d="M190,178.4c-0.1-0.1-0.1-0.2-0.2-0.3c-0.5-0.7-1.3,0.1-1.3,0.1s-0.8-0.9-0.8-2.2
		c0.1-1,0.9-2.3,1.3-2.8c-0.2,0-0.3,0.1-0.6,0.1c-1.1,0-2.9-0.5-3.1,0.9c-0.2,1.4,0,3.5,0,4s-1.3,1.3-0.8,3.1s1.4,3.3,1.9,3.5
		s1.4-0.1,1.5-0.5s-0.9-1.1-0.4-2.6C187.9,180.7,188.9,179.5,190,178.4z"/>
</g>
<g>
	<g id="XMLID_125_">
		<path id="XMLID_156_" class="st21" d="M366.1,269.4c0,0-5.5,5-8.1,6.8s-4.6,3.4-3.9,5.5s4.8,10.2,5.3,11.1s2.7-0.7,2.9-1.4
			c0.2-0.7,1.2-3.7,0.6-5.1s-1.7-4.4-1.7-4.4l4.2-2.8c0,0,0.9-2.9,1.5-5.6S368.2,266.7,366.1,269.4z"/>
		<path id="XMLID_162_" class="st22" d="M371.9,320.8l5.1-0.9l5.6-2.9c0,0-3.9-2.2-6.5-1.5S372.1,319.8,371.9,320.8z"/>
		<path id="XMLID_163_" class="st13" d="M355.7,318.8c0,0-1.6-1-5.5-0.4s-8.4,1.5-11.7,1.5c-3.3,0-5.1,0.3-5.7,0s-3.1-3.7-3.5-3.1
			s-2.6,4.6-3.2,7.5s-1.3,4.3-0.2,4.4c1.1,0.1,4.5-4.8,4.8-5s10.7,0,16.5,0.6c5.7,0.6,11.1,1.2,13.4,0c2.2-1.2,3.3-2.2,2.6-3.5
			C362.4,319.7,355.7,318.8,355.7,318.8z"/>
		<path id="XMLID_164_" class="st13" d="M374.2,316.2c0,0,1.1,3.6,1.8,7.8c0.7,4.2,1.5,6.9,3.8,9.4s4.4,5.5,4.7,6.4
			c0.3,0.9,1.4,4.4,1.9,4.5s3.4-1.4,4.4-2s3.7-1.7,4.4-2.7c0.7-0.9,1.4-2.4,0.7-2.4s-4.6,1-5.9,0.9s-1.8-0.6-2.6-1.9
			c-0.7-1.3-3.5-7.9-4.6-11.3c-1.1-3.5-1.1-7.5-1.8-9c-0.7-1.5-0.4-2.7-2.9-2.9C375.7,312.8,374.2,316.2,374.2,316.2z"/>
		<path id="XMLID_161_" class="st11" d="M359.8,297.2c0,0-1.4,1.8-1.4,4.1c0,2.2,0.3,4.1,0.2,4.7c-0.1,0.6-4.1,12-4.1,12.3
			s2.7,3.4,5.7,4.2c3.1,0.8,3.6,0.6,3.6,0.6l5.7-13.6l2.5,11.3c0,0,3.5-3.3,4.8-4.1c1.3-0.8,5.9,0.3,5.9,0.3s-1.5-4.5-4.1-10
			s-3-6.9-3.1-9.1c-0.1-2.1,0-3.3,0-3.3L359.8,297.2z"/>
		<path id="XMLID_160_" class="st21" d="M360.1,293.9l-1.1,4c0,0,3.7,2.4,8,1.6c4.3-0.7,8.6-1.6,8.6-1.6v-1.5L360.1,293.9z"/>
		<path id="XMLID_153_" class="st15" d="M365.9,270.2c0,0-1.3,8.9-3.6,14.7c-2.2,5.8-4.6,8.5-1.7,10.1s12.5,2.1,14.1,2.1
			s1.7-0.7,2.4-3c0.6-2.2,4.2-21.4,3.6-23.4s-0.9-3-2.2-3.9s-8.9-0.5-10.1,0.5C367,268.5,365.9,270.2,365.9,270.2z"/>
		<path id="XMLID_148_" class="st14" d="M375.5,261.1l-1.4,3.8l3,2.7l1.7-5.3C378.8,262.2,377,259.9,375.5,261.1z"/>
		<path id="XMLID_149_" class="st13" d="M375.6,262.1c0,0-1.2-0.9-1.6-4.5c-0.4-3.6,3.1-5.9,5.5-6.1c2.5-0.2,4.8,1.4,5,3
			c0.2,1.5-0.4,3.7-0.4,4s0.9,3,0.6,3.4s-0.9,0.9-0.9,0.9s-0.5,5.8-1.1,6.7c-0.6,0.9-1.2,1.1-2.2,0.4s-2.9-2.5-3.4-3.9
			s0.2-3.6,0.2-3.6S376,262.9,375.6,262.1z"/>
		<path id="XMLID_155_" class="st11" d="M382.7,269.5c0.6-0.9,1.1-6.7,1.1-6.7s0.1-0.1,0.3-0.2c-0.4-0.1-1.1,0.2-1.8,0.7
			c-1,0.6-1.9,1.6-3.3,1c-1.3-0.6-0.1-1.8,0.1-4c0.2-2.1,0.1-1.2,0.5-2.1s0-0.8-0.6-1.4s-0.1-1.4,2.6-1.9c1.5-0.3,2.4,0.1,3,0.6
			c0-0.3,0-0.6,0-0.8c-0.2-1.5-2.6-3.2-5-3c-2.5,0.2-5.9,2.6-5.5,6.1c0.4,3.6,1.6,4.5,1.6,4.5c0.4,0.8,1.6,0.3,1.6,0.3
			s-0.7,2.1-0.2,3.6c0.5,1.4,2.4,3.2,3.4,3.9C381.4,270.6,382.1,270.4,382.7,269.5z"/>
		<path id="XMLID_150_" class="st13" d="M377.8,261.9c0,0-0.1-2.1-0.7-2.5c-0.6-0.3-1.3-0.2-0.8,1S377.8,261.9,377.8,261.9z"/>
		<path id="XMLID_152_" class="st21" d="M380.4,269.9c0,0-1.4-3-4.2-5.3c-2.8-2.4-4.8-4.2-6.2-3.5c-1.4,0.7-4.1,4.9-4.7,7.1
			c-0.6,2.1-1.1,3.5-0.7,3.7s8.2-3.1,8.9-3.2C374.2,268.6,380.4,269.9,380.4,269.9z"/>
		<path id="XMLID_159_" class="st13" d="M390.9,287.8c0,0,2.9-1.9,3.5-2.2c0.6-0.3,2.4,1.1,2.4,1.1s1.3-0.2,1.5,0.4s0.3,1.5,0,1.6
			s-0.7,0.2-0.8,0.5c-0.1,0.3-0.2,1.4-0.9,1.9c-0.7,0.5-2.1,0.5-3.2,0.4c-1-0.1-2.4-0.3-2.4-0.3L390.9,287.8z"/>
		<polygon id="XMLID_157_" class="st21" points="388.5,287.7 390.9,287.8 391.2,292.1 388.7,292.3 		"/>
		<path id="XMLID_154_" class="st15" d="M373.7,272c-0.4,0-2.4-0.7-2.7,2.5c-0.3,3.2-0.7,15.2-0.1,16.9c0.6,1.6,1.9,2.1,3.5,2.1
			c1.5,0,13.6-0.2,14.3-1.2c0.7-1,1.2-4.1-0.2-4.6c-1.4-0.5-9.5-0.9-9.9-2.1s1.1-7.5,0.4-9.8c-0.7-2.4-1.9-3.5-1.9-3.5"/>
		<path id="XMLID_167_" class="st15" d="M329.3,316.9c-0.4,0.6-2.6,4.6-3.2,7.5s-1.3,4.3-0.2,4.4c1.1,0.1,4.1-4.2,4.7-4.9
			c-0.1-0.2-0.1-0.5-0.3-0.8c-0.4-0.7-1.4,0-1.4,0s0.7-1.5,1.8-2.7c1-1,1.8-0.6,2-0.4C332.1,319.5,329.7,316.3,329.3,316.9z"/>
		<path id="XMLID_169_" class="st15" d="M395.2,339.6c0.7-0.9,1.4-2.4,0.7-2.4s-4.6,1-5.9,0.9c-0.6,0-1.1-0.2-1.4-0.5
			c-0.4,0.2-0.8,0.5-0.8,0.8c-0.1,0.6,0.1,1.2,0.1,1.2s-0.3,0.2-1.5,0.8c-0.5,0.2-1,0.4-1.4,0.6c0.5,1.3,1.1,3.1,1.5,3.2
			c0.5,0.1,3.4-1.4,4.4-2C391.9,341.6,394.5,340.5,395.2,339.6z"/>
	</g>
</g>
<g>
	<g id="XMLID_21_">
		<path id="XMLID_38_" class="st21" d="M836.6,212.4c0,0-5.5,5-8.1,6.8s-4.6,3.4-3.9,5.5s4.8,10.2,5.3,11.1c0.5,0.9,2.7-0.7,2.9-1.4
			s1.2-3.7,0.6-5.1c-0.6-1.4-1.7-4.4-1.7-4.4l4.2-2.8c0,0,0.9-2.9,1.5-5.6C838,213.8,838.6,209.7,836.6,212.4z"/>
		<path id="XMLID_37_" class="st22" d="M842.4,263.8l5.1-0.9l5.6-2.9c0,0-3.9-2.2-6.5-1.5S842.6,262.8,842.4,263.8z"/>
		<path id="XMLID_36_" class="st13" d="M826.2,261.8c0,0-1.6-1-5.5-0.4s-8.4,1.5-11.7,1.5s-5.1,0.3-5.7,0c-0.6-0.3-3.1-3.7-3.5-3.1
			s-2.6,4.6-3.2,7.5s-1.3,4.3-0.2,4.4s4.5-4.8,4.8-5s10.7,0,16.5,0.6c5.7,0.6,11.1,1.2,13.4,0c2.2-1.2,3.3-2.2,2.6-3.5
			C832.9,262.6,826.2,261.8,826.2,261.8z"/>
		<path id="XMLID_35_" class="st13" d="M844.7,259.2c0,0,1.1,3.6,1.8,7.8c0.7,4.2,1.5,6.9,3.8,9.4s4.4,5.5,4.7,6.4s1.4,4.4,1.9,4.5
			s3.4-1.4,4.4-2s3.7-1.7,4.4-2.7c0.7-0.9,1.4-2.4,0.7-2.4s-4.6,1-5.9,0.9c-1.3-0.1-1.8-0.6-2.6-1.9c-0.7-1.3-3.5-7.9-4.6-11.3
			c-1.1-3.5-1.1-7.5-1.8-9s-0.4-2.7-2.9-2.9C846.2,255.8,844.7,259.2,844.7,259.2z"/>
		<path id="XMLID_34_" class="st11" d="M830.3,240.2c0,0-1.4,1.8-1.4,4.1c0,2.2,0.3,4.1,0.2,4.7c-0.1,0.6-4.1,12-4.1,12.3
			s2.7,3.4,5.7,4.2c3.1,0.8,3.6,0.6,3.6,0.6l5.7-13.6l2.5,11.3c0,0,3.5-3.3,4.8-4.1s5.9,0.3,5.9,0.3s-1.5-4.5-4.1-10s-3-6.9-3.1-9.1
			s0-3.3,0-3.3L830.3,240.2z"/>
		<path id="XMLID_33_" class="st21" d="M830.6,236.9l-1.1,4c0,0,3.7,2.4,8,1.6c4.3-0.7,8.6-1.6,8.6-1.6v-1.5L830.6,236.9z"/>
		<path id="XMLID_32_" class="st15" d="M836.4,213.2c0,0-1.3,8.9-3.6,14.7c-2.2,5.8-4.6,8.5-1.7,10.1c2.9,1.6,12.5,2.1,14.1,2.1
			s1.7-0.7,2.4-3c0.6-2.2,4.2-21.4,3.6-23.4s-0.9-3-2.2-3.9s-8.9-0.5-10.1,0.5C837.5,211.4,836.4,213.2,836.4,213.2z"/>
		<path id="XMLID_31_" class="st14" d="M846,204.1l-1.4,3.8l3,2.7l1.7-5.3C849.3,205.2,847.5,202.9,846,204.1z"/>
		<path id="XMLID_30_" class="st13" d="M846.1,205.1c0,0-1.2-0.9-1.6-4.5c-0.4-3.6,3.1-5.9,5.5-6.1c2.5-0.2,4.8,1.4,5,3
			c0.2,1.5-0.4,3.7-0.4,4s0.9,3,0.6,3.4c-0.3,0.4-0.9,0.9-0.9,0.9s-0.5,5.8-1.1,6.7s-1.2,1.1-2.2,0.4c-1-0.7-2.9-2.5-3.4-3.9
			s0.2-3.6,0.2-3.6S846.5,205.9,846.1,205.1z"/>
		<path id="XMLID_29_" class="st11" d="M853.1,212.5c0.6-0.9,1.1-6.7,1.1-6.7s0.1-0.1,0.3-0.2c-0.4-0.1-1.1,0.2-1.8,0.7
			c-1,0.6-1.9,1.6-3.3,1c-1.3-0.6-0.1-1.8,0.1-4c0.2-2.1,0.1-1.2,0.5-2.1c0.4-0.9,0-0.8-0.6-1.4c-0.6-0.6-0.1-1.4,2.6-1.9
			c1.5-0.3,2.4,0.1,3,0.6c0-0.3,0-0.6,0-0.8c-0.2-1.5-2.6-3.2-5-3c-2.5,0.2-5.9,2.6-5.5,6.1c0.4,3.6,1.6,4.5,1.6,4.5
			c0.4,0.8,1.6,0.3,1.6,0.3s-0.7,2.1-0.2,3.6c0.5,1.4,2.4,3.2,3.4,3.9C851.9,213.6,852.5,213.4,853.1,212.5z"/>
		<path id="XMLID_28_" class="st13" d="M848.2,204.9c0,0-0.1-2.1-0.7-2.5c-0.6-0.3-1.3-0.2-0.8,1
			C847.2,204.7,848.2,204.9,848.2,204.9z"/>
		<path id="XMLID_27_" class="st21" d="M850.9,212.9c0,0-1.4-3-4.2-5.3c-2.8-2.4-4.8-4.2-6.2-3.5s-4.1,4.9-4.7,7.1s-1.1,3.5-0.7,3.7
			c0.4,0.2,8.2-3.1,8.9-3.2C844.7,211.5,850.9,212.9,850.9,212.9z"/>
		<path id="XMLID_26_" class="st13" d="M861.4,230.8c0,0,2.9-1.9,3.5-2.2s2.4,1.1,2.4,1.1s1.3-0.2,1.5,0.4c0.2,0.6,0.3,1.5,0,1.6
			s-0.7,0.2-0.8,0.5s-0.2,1.4-0.9,1.9s-2.1,0.5-3.2,0.4s-2.4-0.3-2.4-0.3L861.4,230.8z"/>
		<polygon id="XMLID_25_" class="st21" points="859,230.7 861.4,230.8 861.6,235.1 859.2,235.3 		"/>
		<path id="XMLID_24_" class="st15" d="M844.2,215c-0.4,0-2.4-0.7-2.7,2.5s-0.7,15.2-0.1,16.9c0.6,1.6,1.9,2.1,3.5,2.1
			s13.6-0.2,14.3-1.2s1.2-4.1-0.2-4.6s-9.5-0.9-9.9-2.1s1.1-7.5,0.4-9.8c-0.7-2.4-1.9-3.5-1.9-3.5"/>
		<path id="XMLID_23_" class="st15" d="M799.8,259.9c-0.4,0.6-2.6,4.6-3.2,7.5c-0.6,2.9-1.3,4.3-0.2,4.4s4.1-4.2,4.7-4.9
			c-0.1-0.2-0.1-0.5-0.3-0.8c-0.4-0.7-1.4,0-1.4,0s0.7-1.5,1.8-2.7c1-1,1.8-0.6,2-0.4C802.6,262.5,800.2,259.3,799.8,259.9z"/>
		<path id="XMLID_22_" class="st15" d="M865.7,282.6c0.7-0.9,1.4-2.4,0.7-2.4s-4.6,1-5.9,0.9c-0.6,0-1.1-0.2-1.4-0.5
			c-0.4,0.2-0.8,0.5-0.8,0.8c-0.1,0.6,0.1,1.2,0.1,1.2s-0.3,0.2-1.5,0.8c-0.5,0.2-1,0.4-1.4,0.6c0.5,1.3,1.1,3.1,1.5,3.2
			c0.5,0.1,3.4-1.4,4.4-2C862.3,284.6,865,283.5,865.7,282.6z"/>
	</g>
</g>
<g>
	<g id="XMLID_233_">
		<path id="XMLID_228_" class="st23" d="M553.1,353.9c0,0,2.8,6.7,4.6,10.3c1.9,3.6,2,6.2,2.3,7.6s2.6,15.2,3.4,18.2
			c0.8,3,1.3,4,2,4.1c0.6,0.1,4.2,0,6.1-0.4c1.9-0.4,2.4-0.1,2.3,0.8c-0.1,0.9-4.2,3.2-6,4.3s-3.3,1.7-3.9,1.4
			c-0.6-0.2-1.8-3.4-2.6-5.2c-0.8-1.8-4.2-7.9-6.3-12.5c-2.1-4.5-1.9-10.5-2.8-12.7c-0.9-2.2-4.5-6.3-5.3-7.1
			c-0.7-0.8-0.9-6.5,0.3-8.9C548.4,351.6,552,352.2,553.1,353.9z"/>
		<path id="XMLID_230_" class="st16" d="M551.4,355.1c0,0-2.5,7.4-4.6,13c-2.2,5.6-8.3,14.3-9.7,14.3s-12.3-7.1-14.6-9.2
			c-2.4-2.1-8.3-6.2-9.2-6.8c-0.9-0.6-1.5-0.7-1.5-0.7s-4.4,4.5-5,4.5c-0.5,0-0.5-0.7-0.3-1.5s2.5-5.5,3.2-6.9s2.1-2.6,3.3-1.3
			c3.6,3.6,7.8,5.8,12.1,7.1c4.1,1.3,6.1,4.2,8.1,5.2c2.1,0.9,2.3-0.5,2.7-1.7c0.4-1.1,2-10.4,2-12.7c0-2.3-0.8-7.1,0-8.4
			c0.8-1.2,8.3,3,9.8,3.6C549.2,354.3,551.4,355.1,551.4,355.1z"/>
		<path id="XMLID_229_" class="st21" d="M540,320.8c0,0-2.8,2.3-3.9,4.6c-1.1,2.4-5.4,8.7-5.6,9.8c-0.2,1.1,2.6,4.8,3.9,7.3
			s3.5,5.8,3.8,6s2.6-2.1,2.6-2.1s-3.2-6.4-3.8-7.7c-0.6-1.3-0.7-2.3-0.7-2.8s4.4-6.4,4.7-6.9C541.3,328.5,540,320.8,540,320.8z"/>
		<path id="XMLID_224_" class="st15" d="M552.4,321.2c0,0,1.7,5.4,2.3,10.4c0.6,5.1-1.2,20.6-1.2,20.6s1.7,2.3,0.9,2.9
			c-0.7,0.6-7.1,1.5-10.4,0.3s-7.2-4.4-6.8-5.4c0.4-0.9,2.6-3.9,3.7-6.5c1.1-2.6,2-3.2,1.2-5c-0.7-1.8-2.8-13-2.8-15.7
			s1.4-2.7,3-3.7c1.5-1,4.7-1.4,6.3-0.9C550.1,318.8,552.4,321.2,552.4,321.2z"/>
		<path id="XMLID_219_" class="st11" d="M544.8,306.4c0,0-0.2-3.2-6.1-4.5c-5.9-1.3-11,0.4-11.2,5.3c-0.2,4.8,2.9,8,3.7,8.4
			c0.8,0.3,0.4-1.7,1.1-1.9c0.7-0.2,3.1,3,2.8,4.5s-6,0.5-7-0.1s0.3,1.5,1.4,3.4c1.1,1.9,3.7,4.6,7.7,2.7c4-2,4.6-6.5,3.6-8.8
			s-1.7-4.8-0.1-6.5c1.5-1.7,3.7-0.8,3.7-0.8S545.1,307.7,544.8,306.4z"/>
		<path id="XMLID_221_" class="st13" d="M547.3,313.7c0,0-2-1.8-2.6-5.1c-0.6-3.3,2.4-5.7,4.6-6.4c2.3-0.7,5.6,1.1,6.7,2.8
			c1.1,1.7,0.3,3.2,0.4,3.9c0.1,0.7,1,1.9,0.9,2.4s-1,1-1,1s-1.3,2.9-1.9,3.3c-0.5,0.4-3.2-0.5-3.2-0.5l-1.2,3.7l-4.7-1.2
			L547.3,313.7z"/>
		<path id="XMLID_225_" class="st11" d="M547.3,313.7c0,0-2-1.8-2.6-5.1c-0.6-3.3,2.4-5.7,4.6-6.4c1.5-0.5,3.5,0.2,4.9,1.2
			c-0.5,0-1,0.1-1.4,0.5c-1.5,1.3-1.8,4.6-1.8,4.6s-1.8-1.2-2,0.2c-0.2,1.4,0,2.1,0.4,2.3c0.4,0.2,0.4,0.2,0.4,0.2s-0.4,1.9-0.8,2.2
			C548.9,313.5,548.1,313.7,547.3,313.7L547.3,313.7z"/>
		<path id="XMLID_222_" class="st20" d="M545.8,315.5c0.3,0.1,4.2,1.9,6.3,3.7c2.1,1.9,1.8,3.3,1.5,3.6c-0.2,0.3-3.8-3.2-5.2-3.6
			c-1.3-0.4-6.7,1.4-7.4,1.5s-1-0.9-0.2-2.5C541.6,316.8,543.9,314.7,545.8,315.5z"/>
		<path id="XMLID_226_" class="st13" d="M568.8,325.1c0,0,1.5-1.8,2-2.3c0.4-0.5,1,0,0.9,0.6s-0.4,1.2-0.4,1.2L568.8,325.1z"/>
		<path id="XMLID_227_" class="st13" d="M567.1,328.1c0,0,0.9-2.3,1.7-3c0.7-0.7,4.5-1.5,5.1-0.8c0.5,0.7,0.8,2.8,0.1,3.2
			c-0.7,0.4-1.2-0.2-1.7,0.1s-2,2-2.6,2.5s-1.7,0-1.7,0L567.1,328.1z"/>
		<path id="XMLID_223_" class="st15" d="M548.9,322.8c0.3-0.1,1.9-1.9,3.8-0.3c1.9,1.6,6.8,16.7,6.8,16.7s2.8-2.4,3.6-4.4
			c0.8-2.1,3.8-6.2,4-6.7s2.2,0.5,2.6,2s0.3,1.4-0.5,4.1s-8.5,10.5-10.4,10.9c-2,0.4-9-13.3-9.7-14.2"/>
		<path id="XMLID_236_" class="st13" d="M563.4,390L563.4,390c0.8,3,1.4,4.1,2,4.2s4.2,0,6.1-0.4c1.9-0.4,2.4-0.1,2.3,0.8
			c-0.1,0.9-4.2,3.2-6,4.3c-1.8,1.1-3.3,1.7-3.9,1.4c-0.6-0.2-1.8-3.4-2.6-5.2c-0.3-0.6-1-1.9-1.8-3.4
			C561,391.3,562.4,390.6,563.4,390z"/>
		<path id="XMLID_235_" class="st11" d="M571.5,393.7c1.9-0.4,2.4-0.1,2.3,0.8c-0.1,0.9-4.2,3.2-6,4.3c-1.8,1.1-3.3,1.7-3.9,1.4
			c-0.5-0.2-1.3-2.1-2-3.8l2.4-0.2c0,0,0,0,0.2-1.4c0.1-0.8,0.4-0.9,0.6-0.9c0.1,0.1,0.2,0.2,0.3,0.2
			C566,394.2,569.6,394.1,571.5,393.7z"/>
		<path id="XMLID_237_" class="st13" d="M509.7,361.8c0.7-1.4,2.1-2.6,3.3-1.3c1.7,1.7,3.6,3.1,5.6,4.3c-0.5,0.4-1,0.9-1.5,1.7
			c-0.4,0.7-0.8,1.4-1,2c-1.4-1-2.5-1.7-2.8-2c-0.9-0.6-1.5-0.7-1.5-0.7s-4.4,4.5-5,4.5c-0.5,0-0.5-0.7-0.3-1.5
			C506.7,367.9,508.9,363.3,509.7,361.8z"/>
		<path id="XMLID_238_" class="st11" d="M509.7,361.8c0.7-1.4,2.1-2.6,3.3-1.3c0.3,0.3,0.6,0.5,0.8,0.8c-0.3-0.1-0.7-0.1-1.1,0.6
			c-0.8,1.2-2.2,3.5-2.2,3.5s1.2-0.2,1.2,0.4c0,0-4.4,4.5-5,4.5c-0.5,0-0.5-0.7-0.3-1.5C506.7,367.9,508.9,363.3,509.7,361.8z"/>
	</g>
</g>
<g>
	<g id="XMLID_1_">
		<path id="XMLID_20_" class="st13" d="M708.1,154.1c-0.3,0-3.2-0.7-5.6,1.6c-2.4,2.3-1.6,5.2-1.2,6.7c0.5,1.5,0.5,2.1,0.2,2.6
			s-1.7,2-1.9,2.5s3.9,2.7,3.9,2.7l3.3-1.9c0,0,2.9,1.7,3.2,1.6c0.3-0.1,1.3-1.6,2.1-5.2c0.9-3.6,0.7-6.3-0.5-8.3
			C710.5,154.5,708.1,154.1,708.1,154.1z"/>
		<path id="XMLID_19_" class="st24" d="M706.1,161.8c0,0-0.5-1.4-1.3-0.2c-0.9,1.3-0.6,2.2-0.2,2.4c0.4,0.2,0.4,0.2,0.4,0.2
			s-0.2,1,0.4,2.1c0.6,1.2,1.4,2,1.4,2"/>
		<path id="XMLID_18_" class="st11" d="M712.4,158.6c-0.2-0.8-0.4-1.4-0.8-2.1c-1.2-2-3.6-2.4-3.6-2.4c-0.3,0-3.2-0.7-5.6,1.6
			c-2.4,2.3-1.6,5.2-1.2,6.7c0.4,1.1,0.4,1.8,0.4,2.2c0.6,0.1,1.4,0,2.2-0.2c1.4-0.4,1.7-2,1.4-2.6s0.5-1.2,0.5-1.2s0.6,1.5,1.3,0.6
			c0.7-1-0.5-2.3,0.7-3.1s2.4-0.8,3.9,0C711.9,158.4,712.2,158.5,712.4,158.6z"/>
		<path id="XMLID_17_" class="st11" d="M712.4,158.6c0,0,0.7,0.4,1.6-0.8c1-1.3,1-3.5,0.2-2.9s-1.1,0.9-1.1,0.9s-0.8-3.4-1.8-3
			c-1.1,0.4-1.1,1.3-1.1,1.3s-2-1.5-2.4-1.1c-0.4,0.5-0.7,0.7-0.7,0.7s0.2,0.1-0.4,0.3c-0.6,0.2-1.1,0.9-1.1,0.9s3.2,0.4,4.1,1.3
			C710.9,157.2,712.4,158.6,712.4,158.6z"/>
		<path id="XMLID_16_" class="st11" d="M705.6,174.7c0,0,1.7,0.6,1.8,3.5s2.3,10.3,2.3,10.3s2.6-2.9,3.1-3.5s1.4-0.8,2.4,0.9
			c1,1.6,0.7,3.6-0.8,5.9c-1.4,2.3-4.1,5.8-6.4,5.4c-2.2-0.4-5.9-7-6-7.8s1.7-8.6,2-9.8C704.4,178.2,705.6,174.7,705.6,174.7z"/>
		<path id="XMLID_15_" class="st13" d="M684.4,202.5c0,0-1.3,1.8-0.9,3.6c0.5,1.7,1.3,3.4,1.3,3.4s-3.2,10.3-3.9,12.4
			c-0.8,2.1-0.2,2.3-2.2,3.6s-6.5,3-7.9,7.6s-3.4,9-3.9,10.1c-0.6,1.2-0.9,1.8-2.1,1.8c-1.3,0-3.4-0.6-3.6,1.1c-0.2,1.6,0,4,0,4.6
			s-1.4,1.5-0.9,3.6c0.6,2,1.6,3.9,2.2,4c0.6,0.2,1.6-0.1,1.7-0.6c0.1-0.5-1.1-1.3-0.5-3c0.6-1.7,3.5-4.5,5.1-6.1
			c1.6-1.5,5.5-8.4,8.4-11.5s6.2-6.9,8.5-9s7-9.8,8-11.6c1-1.7,2-4.1,2-4.1s10.1,1.9,11.8,2.2s3.5,0.9,3.5,0.9s-3,2.6-3.8,6.6
			s-2.5,11.4-3.4,13.8c-0.9,2.4-1.5,3.9-2.1,5.1c-0.6,1.3-1.5,2.9-0.9,3.7c0.7,0.8,4.3,1.3,6.2,1.5c1.8,0.3,5.4,0.2,6.2-0.5
			s0.9-1.1,0.4-1.2c-0.5-0.1-3.2-1.8-3.9-2.5s-1.3-1.8-1.3-2.3c0.1-0.5,4.4-10,6.4-13.9c1.9-3.9,4-10.6,4.6-12.1s0.8-1.8,0.2-2.6
			s-4.1-3.5-10.1-6.7c-6-3.3-9.2-3.4-11.1-3.7c-1.8-0.3-4.9-3.1-9.1-1.3C685.1,201.4,684.4,202.5,684.4,202.5z"/>
		<path id="XMLID_14_" class="st11" d="M705.9,173.7c0,0,0.4,3.7-0.3,8.8s-4.3,12.7-4.6,14.5s1,3,0.6,3.6s-1.2,0.8-2.1,0.8
			s-4.7-1-7.7-0.4s-6.3,3.3-6.9,3c-0.7-0.3-1.7-1.4-1.1-2.6c0.7-1.2,1.3-1.8,1.9-3c0.6-1.2,3.5-10.3,4.1-13.3c0.7-3,0.4-6.5,0.3-8.9
			c-0.1-2.4,1.9-6.4,3.5-6.9c1.5-0.6,5.9,0.6,6.4,0.6S705,171.3,705.9,173.7z"/>
		<path id="XMLID_13_" class="st16" d="M703.5,172.9c0,0,2.2,2.8,2.5,2.6s1.3-1.2,0.5-3.5s-2.9-3.9-5-5.7s-4.3-4.6-5.8-3
			c-1.4,1.6-4.1,5.4-3,6.6c1.2,1.3,7.2,1.5,8.6,2S703.5,172.9,703.5,172.9z"/>
		<path id="XMLID_12_" class="st13" d="M679.6,193.2c0,0,0.3,1.2,1.1,2.4c0.8,1.3,1.2,2.6,0.7,3.1s-0.5,0.5-2.4,1.1
			s-2.7,0.2-2.9-0.3s0.6-1.1,0.6-1.1s-1.3-0.3-1.3-1.5c0-1.3,0.4-3.8,0.4-3.8l3.8-0.3L679.6,193.2z"/>
		<path id="XMLID_11_" class="st16" d="M675,191.1c0,0-0.1,1.9,0.5,2.4s3.7,0,4-0.4c0.4-0.4,0.5-2.9,0.5-2.9L675,191.1z"/>
		<path id="XMLID_10_" class="st11" d="M698.4,172.2c0,0-1.3-1.4-3.4-2.1c-2-0.7-8.4-0.2-12.8,1c-4.4,1.2-6.3,1.1-6.9,2.8
			c-0.7,1.7-1.7,15.2-1.5,16.8s3.3,1.6,4.7,1.3c1.4-0.4,2.6-1.3,3.1-3.4c0.5-2,0.4-9.2,1.1-10c0.7-0.8,8.7-0.3,10.9-0.6
			s3.8-1,4.1-1.5"/>
		<path id="XMLID_9_" class="st16" d="M714,184.3c0,0-1.6,0.9-1.3,2.3s1.7,2.5,2.3,2.4s1.7-1.6,1.7-1.6S716.9,183.5,714,184.3z"/>
		<path id="XMLID_8_" class="st13" d="M713.8,185.3c0,0,0.8,2.2,1.7,2.3c1,0.1,1.4-0.5,2.6-1.6c1.2-1.2,2.3-2,2.3-3.6
			c0-1.5-0.4-3.7-1.3-3.8c-0.9-0.1-1.5,0.2-1.5,0.2s-0.3-0.6-1.2,0.1c-0.9,0.7-0.7,1.2-1.2,2c-0.5,0.9-0.6,1.3-0.5,2
			c0.1,0.8,0.1,1.1,0.1,1.1L713.8,185.3z"/>
		<path id="XMLID_7_" class="st24" d="M717.7,178.9c0.3,0.5,0.8,3.1,0.4,3.5c-0.4,0.4-1.1,1.2-1.3,0.3s-0.6-2.1-0.6-2.1"/>
		<path id="XMLID_6_" class="st15" d="M709.4,204.5c-6-3.3-9.2-3.4-11.1-3.7c-1.8-0.3-4.9-3.1-9.1-1.3c-4.1,1.8-4.9,2.9-4.9,2.9
			s-1.3,1.8-0.9,3.6c0.5,1.7,1.3,3.4,1.3,3.4s-3.2,10.3-3.9,12.4c0,0.1-0.1,0.2-0.1,0.3c0.8,0.3,1.8,0.7,3,1.2
			c1.9,0.8,3,2.1,3.5,3.1c2.4-3.1,5.6-8.4,6.4-9.7c1-1.7,2-4.1,2-4.1s10.1,1.9,11.8,2.2c0.6,0.1,1.2,0.2,1.7,0.4
			c0.2-1.5,0.8-3.5,1.8-5.4c1-1.7,1.8-2.5,2.5-2.9C712.3,206.1,710.9,205.3,709.4,204.5z"/>
		<path id="XMLID_5_" class="st20" d="M713.2,245.8c0.8-0.7,0.9-1.1,0.4-1.2c-0.5-0.1-3.2-1.8-3.9-2.5c-0.8-0.7-1.3-1.8-1.3-2.3
			c0-0.2,0.5-1.3,1.2-2.8c-0.8,0.2-1.7,0.4-2.5,0.3c-1-0.1-2.3-0.6-3.3-1c-0.8,2.2-1.4,3.5-2,4.7c-0.6,1.3-1.5,2.9-0.9,3.7
			c0.7,0.8,4.3,1.3,6.2,1.5C708.8,246.6,712.4,246.5,713.2,245.8z"/>
		<path id="XMLID_4_" class="st11" d="M713.6,244.7c-0.5-0.1-3.2-1.8-3.9-2.5c-0.8-0.7-1.3-1.8-1.3-2.3c0,0-0.4-1.3-1.3-1.4
			c-0.9-0.2-1.3,2.4-1.3,2.4l-3.7-0.7c-0.2,0.4-0.3,0.7-0.5,1c-0.6,1.3-1.5,2.9-0.9,3.7c0.7,0.8,4.3,1.3,6.2,1.5
			c1.8,0.3,5.4,0.2,6.2-0.5S714,244.8,713.6,244.7z"/>
		<path id="XMLID_3_" class="st20" d="M667.9,246.4c-0.9-0.6-1.3-1.7-1.6-2.5c-0.4,0.6-0.8,1-1.7,1c-1.3,0-3.4-0.6-3.6,1.1
			c-0.2,1.6,0,4,0,4.6s-1.4,1.5-0.9,3.6c0.6,2,1.6,3.9,2.2,4c0.6,0.2,1.6-0.1,1.7-0.6c0.1-0.5-1.1-1.3-0.5-3
			c0.6-1.7,3.5-4.5,5.1-6.1c0.3-0.3,0.7-0.7,1.1-1.3C669.2,247.2,668.5,246.9,667.9,246.4z"/>
		<path id="XMLID_2_" class="st11" d="M666.4,251c-0.1-0.1-0.1-0.3-0.3-0.4c-0.6-0.8-1.5,0.1-1.5,0.1s-1-1.1-0.9-2.5
			c0.1-1.1,1.1-2.6,1.5-3.3c-0.2,0.1-0.4,0.1-0.7,0.1c-1.3,0-3.4-0.6-3.6,1.1c-0.2,1.6,0,4,0,4.6s-1.4,1.5-0.9,3.6
			c0.6,2,1.6,3.9,2.2,4c0.6,0.2,1.6-0.1,1.7-0.6c0.1-0.5-1.1-1.3-0.5-3C664,253.7,665.2,252.3,666.4,251z"/>
	</g>
</g>
<g>
	<g id="e3c3f85a-8d35-4580-8713-0eda15df28dc">
		<g id="b697b06b-f2e5-495f-8c90-2355475d909e">
			
				<radialGradient id="SVGID_3_" cx="47.1" cy="-134.41" r="19.8" gradientTransform="matrix(1 0 0 -1 0 3.29)" gradientUnits="userSpaceOnUse">
				<stop  offset="0.55" style="stop-color:#45C1F1"/>
				<stop  offset="1" style="stop-color:#027295"/>
			</radialGradient>
			<circle class="st25" cx="47.1" cy="137.7" r="19.8"/>
			
				<linearGradient id="SVGID_4_" gradientUnits="userSpaceOnUse" x1="35.9277" y1="-145.5823" x2="58.3523" y2="-123.1577" gradientTransform="matrix(1 0 0 -1 0 3.29)">
				<stop  offset="0.38" style="stop-color:#45C1F1"/>
				<stop  offset="1" style="stop-color:#027295"/>
			</linearGradient>
			<circle class="st26" cx="47.1" cy="137.7" r="15.8"/>
			<path class="st6" d="M41.8,132.6v-5.8h9.5v20.5h-6.5v-14.7H41.8z"/>
		</g>
	</g>
</g>
<g>
	<g id="f96298fe-52c7-42ee-8274-0eaf4dc1df00">
		<g id="b7a8e8ff-1b79-4cbc-93d0-2cd412714cfc">
			
				<radialGradient id="SVGID_5_" cx="224.4428" cy="688.7479" r="19.8726" gradientTransform="matrix(1 0 0 1 0 -628)" gradientUnits="userSpaceOnUse">
				<stop  offset="0.55" style="stop-color:#F10A73"/>
				<stop  offset="1" style="stop-color:#95024B"/>
			</radialGradient>
			<circle class="st27" cx="224.4" cy="60.7" r="19.8"/>
			
				<linearGradient id="SVGID_6_" gradientUnits="userSpaceOnUse" x1="213.157" y1="699.943" x2="235.643" y2="677.457" gradientTransform="matrix(1 0 0 1 0 -628)">
				<stop  offset="0.38" style="stop-color:#F10A73"/>
				<stop  offset="1" style="stop-color:#95024B"/>
			</linearGradient>
			<circle class="st28" cx="224.4" cy="60.7" r="15.9"/>
			<path class="st6" d="M223.2,59.4c1.4-1.5,2.2-2.9,2.2-4.3c0-0.4-0.1-0.7-0.3-1c-0.2-0.2-0.5-0.4-0.8-0.4c-0.4,0-0.7,0.2-0.9,0.6
				c-0.2,0.5-0.3,1.1-0.2,1.7h-6c0-1.5,0.4-3,1.1-4.3c0.7-1.1,1.6-1.9,2.8-2.5c1.1-0.5,2.4-0.8,3.7-0.8c2.4,0,4.1,0.6,5.3,1.7
				c1.1,1.2,1.7,2.8,1.7,4.4c0,1.9-0.7,3.8-1.8,5.4c-1.2,1.7-2.8,3.1-4.5,4.2h6.4V69h-14.7v-4.7C219.4,62.9,221.4,61.2,223.2,59.4z"
				/>
		</g>
	</g>
</g>
<g>
	<g id="ff96064a-54cd-474d-9a58-249dffdcd29d">
		<g id="aa162951-2ab6-491c-a72b-7c2ffcb63702">
			
				<radialGradient id="SVGID_7_" cx="379.4" cy="-217.91" r="19.8249" gradientTransform="matrix(1 0 0 -1 0 1.29)" gradientUnits="userSpaceOnUse">
				<stop  offset="0.55" style="stop-color:#F7C043"/>
				<stop  offset="1" style="stop-color:#C48600"/>
			</radialGradient>
			<circle class="st29" cx="379.4" cy="219.2" r="19.8"/>
			
				<linearGradient id="SVGID_8_" gradientUnits="userSpaceOnUse" x1="368.1832" y1="-229.1269" x2="390.624" y2="-206.686" gradientTransform="matrix(1 0 0 -1 0 1.29)">
				<stop  offset="0.38" style="stop-color:#F7C043"/>
				<stop  offset="1" style="stop-color:#C48600"/>
			</linearGradient>
			<circle class="st30" cx="379.4" cy="219.2" r="15.8"/>
			<path class="st6" d="M374.4,210.6c1.3-1.2,3-1.8,5.3-1.8c1.3,0,2.6,0.2,3.8,0.8c1,0.4,1.8,1.1,2.4,2c0.5,0.9,0.8,1.9,0.8,2.9
				c0.1,2-1.1,3.9-3,4.6v0.1c2.3,0.8,3.3,2.4,3.3,4.7c0,1.1-0.3,2.2-0.8,3.2c-0.6,1-1.4,1.7-2.4,2.2c-1.1,0.5-2.4,0.8-3.7,0.8
				c-2.5,0-4.4-0.6-5.7-1.7c-1.4-1.1-2.1-3-2.2-5.4h6c-0.1,0.5,0.1,1.1,0.3,1.6c0.3,0.4,0.8,0.6,1.2,0.5c0.3,0,0.7-0.1,0.8-0.4
				c0.2-0.3,0.4-0.7,0.4-1c0-0.5-0.2-0.9-0.5-1.2c-0.5-0.3-1.1-0.5-1.7-0.4h-1v-5h1c1.3,0.1,1.9-0.4,1.9-1.5
				c0.1-0.4-0.1-0.8-0.3-1.1c-0.2-0.2-0.5-0.4-0.7-0.4c-0.7,0-1,0.6-1,1.7h-6.1C372.5,213.5,373.1,211.8,374.4,210.6z"/>
		</g>
	</g>
</g>
<g id="b7d7ba8e-ff7f-4cf4-a9c1-fa4478cf9447">
	<g id="ad3e13cc-0d89-4449-9f39-56ab6942d994">
		
			<radialGradient id="SVGID_9_" cx="547.1" cy="-266.81" r="19.8645" gradientTransform="matrix(1 0 0 -1 0 -0.71)" gradientUnits="userSpaceOnUse">
			<stop  offset="0.55" style="stop-color:#4AE29A"/>
			<stop  offset="1" style="stop-color:#00A851"/>
		</radialGradient>
		<circle class="st31" cx="547.1" cy="266.1" r="19.8"/>
		
			<linearGradient id="SVGID_10_" gradientUnits="userSpaceOnUse" x1="535.857" y1="-278.053" x2="558.343" y2="-255.567" gradientTransform="matrix(1 0 0 -1 0 -0.71)">
			<stop  offset="0.38" style="stop-color:#4AE29A"/>
			<stop  offset="1" style="stop-color:#00A851"/>
		</linearGradient>
		<circle class="st32" cx="547.1" cy="266.1" r="15.9"/>
		<path class="st6" d="M537.4,272.8v-5.2l8.4-12h6.7v11.7h2v5.4h-2v3.1h-6.3v-3.1L537.4,272.8z M546.7,262.7l-3,4.7h3V262.7z"/>
	</g>
</g>
<g>
	<g id="ac7eaa53-57fb-4010-b6a6-2ce4f98c4d49">
		<g id="b23c03b0-0895-4128-9c82-d6c2eadd5fc2">
			
				<radialGradient id="SVGID_11_" cx="705.6" cy="747.6" r="19.8" gradientTransform="matrix(1 0 0 1 0 -630)" gradientUnits="userSpaceOnUse">
				<stop  offset="0.55" style="stop-color:#3D81D6"/>
				<stop  offset="1" style="stop-color:#023C7A"/>
			</radialGradient>
			<circle class="st33" cx="705.6" cy="117.6" r="19.8"/>
			
				<linearGradient id="SVGID_12_" gradientUnits="userSpaceOnUse" x1="694.3778" y1="758.8221" x2="716.7929" y2="736.4071" gradientTransform="matrix(1 0 0 1 0 -630)">
				<stop  offset="0.38" style="stop-color:#3D81D6"/>
				<stop  offset="1" style="stop-color:#023C7A"/>
			</linearGradient>
			<circle class="st34" cx="705.6" cy="117.6" r="15.8"/>
			<path class="st6" d="M712.7,113.5h-8.1v2.4c0.4-0.4,0.8-0.6,1.4-0.8c0.6-0.2,1.3-0.3,1.9-0.3c1.1-0.1,2.2,0.3,3.2,0.9
				c0.9,0.6,1.6,1.5,1.9,2.4c0.4,1,0.7,2.2,0.7,3.3c0,2.2-0.6,4-1.9,5.2c-1.3,1.3-3,1.9-5.2,1.9c-1.5,0.1-2.8-0.2-4.2-0.8
				c-1.1-0.5-2-1.3-2.7-2.3c-0.6-1-0.9-2.2-0.8-3.4h6c0,0.3,0.1,0.6,0.3,0.8c0.2,0.3,0.6,0.4,1,0.4s0.8-0.2,1-0.5
				c0.2-0.4,0.4-0.8,0.4-1.3c0-0.4-0.1-0.8-0.4-1.2c-0.3-0.3-0.7-0.4-1.1-0.4c-0.3,0-0.7,0.1-0.9,0.3c-0.2,0.2-0.3,0.4-0.3,0.7h-6
				v-12.7h13.7L712.7,113.5L712.7,113.5z"/>
		</g>
	</g>
</g>
<g>
	<g id="a05d0ef8-3784-4265-b34f-b4793f9c7eb7">
		<g id="e76f8991-1459-46c6-b606-1dd54ebfbd27">
			
				<radialGradient id="SVGID_13_" cx="850.9" cy="-163.824" r="19.9094" gradientTransform="matrix(1 0 0 -1 0 -2.71)" gradientUnits="userSpaceOnUse">
				<stop  offset="0.55" style="stop-color:#F363C0"/>
				<stop  offset="1" style="stop-color:#A31D79"/>
			</radialGradient>
			<circle class="st35" cx="850.9" cy="161.1" r="19.8"/>
			
				<linearGradient id="SVGID_14_" gradientUnits="userSpaceOnUse" x1="839.6918" y1="-175.0322" x2="862.1778" y2="-152.5463" gradientTransform="matrix(1 0 0 -1 0 -2.71)">
				<stop  offset="0.38" style="stop-color:#F363C0"/>
				<stop  offset="1" style="stop-color:#A31D79"/>
			</linearGradient>
			<circle class="st36" cx="850.9" cy="161.1" r="15.9"/>
			<path class="st6" d="M851.5,155.2c-0.3-0.3-0.6-0.4-1-0.4c-0.7-0.1-1.3,0.4-1.4,1.1c-0.3,1.1-0.4,2.2-0.4,3.3
				c0.4-0.6,0.9-1,1.4-1.3c0.7-0.3,1.4-0.4,2.1-0.4c1.6-0.1,3.1,0.5,4.3,1.6c1.1,1.1,1.6,2.7,1.6,4.8c0,1.3-0.3,2.5-0.9,3.6
				c-0.6,1-1.4,1.9-2.5,2.4c-1.2,0.6-2.5,0.9-3.8,0.8c-3,0-5-0.9-6.1-2.7s-1.7-4.3-1.7-7.6c-0.1-2.1,0.2-4.2,0.8-6.2
				c0.4-1.4,1.3-2.6,2.5-3.5c1.3-0.8,2.8-1.2,4.4-1.1c2.2,0,3.9,0.6,5,1.9c1.1,1.3,1.8,3,1.9,4.7H852
				C851.9,156,851.8,155.6,851.5,155.2z M849.6,162.8c-0.3,0.3-0.5,0.8-0.4,1.2c-0.1,0.4,0.1,0.9,0.4,1.3c0.3,0.3,0.8,0.4,1.2,0.4
				s0.9-0.1,1.2-0.4s0.5-0.8,0.4-1.3c0-0.4-0.1-0.9-0.4-1.2C851.3,162.2,850.3,162.2,849.6,162.8z"/>
		</g>
	</g>
</g>
</svg>
