<svg xmlns="http://www.w3.org/2000/svg" width="27.776" height="19.248" viewBox="0 0 27.776 19.248">
  <g id="_001-silueta-de-natacin" data-name="001-silueta-de-natacin" transform="translate(0 -6.935)">
    <g id="Grupo_89" data-name="Grupo 89" transform="translate(0 6.935)">
      <g id="Grupo_88" data-name="Grupo 88">
        <path id="Trazado_68" data-name="Trazado 68" d="M15.182,17.371a15.451,15.451,0,0,1,4.582,1.379c.687.321,1.422.742,2,1.07s1.163.647,1.755.946l-3.59-7.107-.758-1.333L16.49,7.632A1.38,1.38,0,1,0,14.093,9l2.963,5.195-.758.673-4.529,2.583-.1.058A10.7,10.7,0,0,1,15.182,17.371Z" transform="translate(-4.492 -6.935)" fill="#1a2ec9"/>
        <path id="Trazado_69" data-name="Trazado 69" d="M32.877,19.948a2.98,2.98,0,1,0-4.066-1.113A2.984,2.984,0,0,0,32.877,19.948Z" transform="translate(-10.945 -9.801)" fill="#1a2ec9"/>
        <path id="Trazado_70" data-name="Trazado 70" d="M27.579,26.46a6.4,6.4,0,0,1-2.042,3.381,3.785,3.785,0,0,1-3.143.482,14.885,14.885,0,0,1-3.538-1.332c-.6-.3-1.182-.608-1.76-.95s-1.313-.748-2-1.069a15.456,15.456,0,0,0-4.583-1.379,10.128,10.128,0,0,0-4.956.558A8.75,8.75,0,0,0,1.7,29.123,9,9,0,0,0,0,33.334,10.742,10.742,0,0,1,6.389,28.9a11.973,11.973,0,0,1,7.146,1.388c.616.28,1.135.562,1.814.926.683.344,1.381.679,2.1.959a13.227,13.227,0,0,0,4.7,1.024,6.731,6.731,0,0,0,2.6-.468,4.762,4.762,0,0,0,2.121-1.679A5.7,5.7,0,0,0,27.579,26.46Z" transform="translate(0 -14.086)" fill="#1a2ec9"/>
      </g>
    </g>
  </g>
</svg>
