<svg xmlns="http://www.w3.org/2000/svg" xmlns:xlink="http://www.w3.org/1999/xlink" viewBox="0 0 66.09 66.09"><defs><radialGradient id="b5c937f5-5ed2-4770-b97e-78fd2b68bf38" cx="33.05" cy="33.05" r="33.05" gradientUnits="userSpaceOnUse"><stop offset="0.55" stop-color="#45c1f1"/><stop offset="1" stop-color="#027295"/></radialGradient><linearGradient id="f9b3fb53-9476-4b35-bd4c-0625986fa82d" x1="14.35" y1="51.74" x2="51.74" y2="14.35" gradientUnits="userSpaceOnUse"><stop offset="0.38" stop-color="#45c1f1"/><stop offset="1" stop-color="#027295"/></linearGradient></defs><g style="isolation:isolate"><g id="f96298fe-52c7-42ee-8274-0eaf4dc1df00" data-name="Layer 2"><g id="b7a8e8ff-1b79-4cbc-93d0-2cd412714cfc" data-name="textos"><circle cx="33.05" cy="33.05" r="33.05" style="fill:url(#b5c937f5-5ed2-4770-b97e-78fd2b68bf38)"/><circle cx="33.05" cy="33.05" r="26.44" style="fill:url(#f9b3fb53-9476-4b35-bd4c-0625986fa82d)"/><circle cx="33.05" cy="33.05" r="33.05" style="fill:#3862fa;mix-blend-mode:color"/><path d="M31,30.75q3.65-3.81,3.64-7.13a2.68,2.68,0,0,0-.49-1.73,1.6,1.6,0,0,0-1.29-.61,1.64,1.64,0,0,0-1.47,1A5.31,5.31,0,0,0,31,25.16H21A14.25,14.25,0,0,1,22.88,18a10.59,10.59,0,0,1,4.56-4.11,14.4,14.4,0,0,1,6.17-1.31c4,0,6.91,1,8.76,2.87a10.19,10.19,0,0,1,2.78,7.37,14.76,14.76,0,0,1-3,8.86,27.15,27.15,0,0,1-7.55,7h10.7V47H21.12v-7.8A81.62,81.62,0,0,0,31,30.75Z" style="fill:#fff"/></g></g></g></svg>