<svg xmlns="http://www.w3.org/2000/svg" xmlns:xlink="http://www.w3.org/1999/xlink" viewBox="0 0 63.08 63.08"><defs><radialGradient id="b6b5380e-e065-45d1-ba73-01f28bbb5a5b" cx="31.54" cy="31.54" r="31.54" gradientUnits="userSpaceOnUse"><stop offset="0.55" stop-color="#45c1f1"/><stop offset="1" stop-color="#027295"/></radialGradient><linearGradient id="a6cd7d11-6c34-49ff-a63f-74a4a704454b" x1="13.7" y1="49.38" x2="49.38" y2="13.7" gradientUnits="userSpaceOnUse"><stop offset="0.38" stop-color="#45c1f1"/><stop offset="1" stop-color="#027295"/></linearGradient></defs><g style="isolation:isolate"><g id="a05d0ef8-3784-4265-b34f-b4793f9c7eb7" data-name="Layer 2"><g id="e76f8991-1459-46c6-b606-1dd54ebfbd27" data-name="textos"><circle cx="31.54" cy="31.54" r="31.54" style="fill:url(#b6b5380e-e065-45d1-ba73-01f28bbb5a5b)"/><circle cx="31.54" cy="31.54" r="25.23" style="fill:url(#a6cd7d11-6c34-49ff-a63f-74a4a704454b)"/><circle cx="31.54" cy="31.54" r="31.54" style="fill:#ee750f;mix-blend-mode:color"/><path d="M32.47,22.21a1.92,1.92,0,0,0-1.58-.63,2.21,2.21,0,0,0-2.26,1.72,18.71,18.71,0,0,0-.56,5.33,5.49,5.49,0,0,1,2.32-2A7.93,7.93,0,0,1,33.83,26a9.1,9.1,0,0,1,6.85,2.63c1.71,1.75,2.56,4.3,2.56,7.63A11.66,11.66,0,0,1,41.84,42a9.53,9.53,0,0,1-4,3.81,13.09,13.09,0,0,1-6.12,1.34q-7,0-9.72-4.3T19.29,30.82A31.91,31.91,0,0,1,20.53,21a10.24,10.24,0,0,1,3.95-5.53,12.53,12.53,0,0,1,7-1.78q5.31,0,8,3a11.89,11.89,0,0,1,3,7.45H33.25A4.53,4.53,0,0,0,32.47,22.21Zm-3,12a2.43,2.43,0,0,0-.72,1.87,2.56,2.56,0,0,0,.7,2,2.72,2.72,0,0,0,1.94.65,2.74,2.74,0,0,0,1.94-.65,2.6,2.6,0,0,0,.69-2,2.43,2.43,0,0,0-.72-1.87,3.07,3.07,0,0,0-3.83,0Z" style="fill:#fff"/></g></g></g></svg>