<?xml version="1.0" encoding="utf-8"?>
<!-- Generator: Adobe Illustrator 24.1.0, SVG Export Plug-In . SVG Version: 6.00 Build 0)  -->
<svg version="1.1" id="Capa_1" xmlns="http://www.w3.org/2000/svg" xmlns:xlink="http://www.w3.org/1999/xlink" x="0px" y="0px"
	 viewBox="0 0 891 88.4" style="enable-background:new 0 0 891 88.4;" xml:space="preserve">
<style type="text/css">
	.st0{fill:url(#SVGID_1_);stroke:url(#SVGID_2_);stroke-width:0.1604;stroke-miterlimit:10;}
	.st1{fill:#F8A600;}
	.st2{fill:#CEF8F4;}
	.st3{fill:#44CBC1;}
	.st4{font-family:'Poppins-Medium';}
	.st5{font-size:10.4271px;}
	.st6{opacity:0.39;}
	.st7{fill:#FFFFFF;}
	.st8{fill:#3D4646;}
	.st9{fill:#58869D;}
	.st10{opacity:0.5;fill:#3D4646;enable-background:new    ;}
</style>
<linearGradient id="SVGID_1_" gradientUnits="userSpaceOnUse" x1="219.2288" y1="39.8653" x2="630.5424" y2="39.8653" gradientTransform="matrix(1 0 0 -1 0 95.5834)">
	<stop  offset="0" style="stop-color:#F8A600"/>
	<stop  offset="3.410077e-02" style="stop-color:#F3B11F"/>
	<stop  offset="8.913231e-02" style="stop-color:#EBBF4C"/>
	<stop  offset="0.1499" style="stop-color:#E4CD74"/>
	<stop  offset="0.215" style="stop-color:#DED997"/>
	<stop  offset="0.2857" style="stop-color:#D9E2B4"/>
	<stop  offset="0.3639" style="stop-color:#D5EACB"/>
	<stop  offset="0.4527" style="stop-color:#D2F0DE"/>
	<stop  offset="0.5583" style="stop-color:#D0F5EA"/>
	<stop  offset="0.6974" style="stop-color:#CEF7F2"/>
	<stop  offset="1" style="stop-color:#CEF8F4"/>
</linearGradient>
<linearGradient id="SVGID_2_" gradientUnits="userSpaceOnUse" x1="219.1485" y1="39.8653" x2="630.6226" y2="39.8653" gradientTransform="matrix(1 0 0 -1 0 95.5834)">
	<stop  offset="0" style="stop-color:#FA8D00"/>
	<stop  offset="4.061592e-02" style="stop-color:#FB9E1E"/>
	<stop  offset="0.1029" style="stop-color:#FCB545"/>
	<stop  offset="0.1716" style="stop-color:#FDC968"/>
	<stop  offset="0.2462" style="stop-color:#FDDA85"/>
	<stop  offset="0.3287" style="stop-color:#FEE89C"/>
	<stop  offset="0.4224" style="stop-color:#FEF2AF"/>
	<stop  offset="0.5338" style="stop-color:#FFF9BB"/>
	<stop  offset="0.6806" style="stop-color:#FFFEC3"/>
	<stop  offset="1" style="stop-color:#FFFFC5"/>
</linearGradient>
<rect x="219.2" y="53.4" class="st0" width="411.3" height="4.6"/>
<circle class="st1" cx="219.2" cy="55.7" r="5.7"/>
<circle class="st1" cx="280.2" cy="55.7" r="5.7"/>
<circle class="st2" cx="333.3" cy="55.7" r="5.7"/>
<circle class="st2" cx="384" cy="55.7" r="5.7"/>
<circle class="st2" cx="436.6" cy="55.7" r="5.7"/>
<circle class="st2" cx="485.7" cy="55.7" r="5.7"/>
<circle class="st2" cx="540.8" cy="55.7" r="5.7"/>
<circle class="st2" cx="587.2" cy="55.7" r="5.7"/>
<circle class="st2" cx="631.4" cy="55.7" r="5.7"/>
<text transform="matrix(1 0 0 1 213.4994 82.4253)" class="st3 st4 st5">La carrera apenas comienza</text>
<path class="st1" d="M229.6,15.6c0,0-0.2,0.1-0.1-0.2c0.1-0.2-0.1-0.4,0.2-0.5c0.4-0.2,0.8-0.4,0.7-0.5c0-0.2-0.1-0.3,0-0.4
	c0.1-0.1,0.1-0.2,0.1-0.3c-0.1-0.1-0.3-0.1-0.2-0.2c0.1-0.2,0.2-0.3,0.2-0.4s-0.3-0.1-0.1-0.3c0.2-0.2,0.5-0.5,0.4-0.6
	c-0.1-0.1-0.7-0.5-0.7-0.6c0-0.2,0-0.4-0.1-0.6c-0.2-0.2-0.2-0.3-0.3-0.5c0-0.2,0.2-0.6-0.2-0.8c-0.4-0.2-0.4-0.1-1.1-0.2
	c-0.8-0.1-2.2-0.1-2.7,0.5c-0.6,0.6-0.5,1.1-0.6,1.6c-0.1,0.5,0.1,1,0.4,1.3c0.3,0.4,0.8,0.5,0.9,1.1c0.2,0.6,0.4,0.5,0.2,0.8
	c-0.2,0.2-0.4,0.8-0.8,0.7c-0.4-0.1-0.5,0.1-0.8,0.2c-0.4,0.1-0.4,0.1-0.6,0.3c-0.2,0.2-0.5,0.5-0.6,0.7c-0.1,0.2-1.5,0.9-2.5,1.8
	s-0.9,0.9-1.3,1.2c-0.4,0.2-0.6,0.4-0.6,0.8s-0.2,1.5-0.1,2.6c0.2,1.1,0.2,1.6,0.2,2c0.1,0.5,0.1,0.5-0.2,0.8
	c-0.3,0.3-0.3,0.6-0.4,0.9c-0.1,0.3-0.2,0.5-0.1,0.7c0.1,0.2,0.3,0.2,0.4,0.2c0.1,0-0.1,0.2,0.1,0.3c0.2,0.1,0.2,0,0.2,0
	s-0.1,0.1,0.1,0.2c0.1,0.1,0.3,0.1,0.4,0.1c0.1-0.1,0,0.1,0.2,0.2c0.2,0.1,0.3,0.1,0.5-0.1c0.1-0.1,0.1-0.4,0.2-0.6
	c0.1-0.2,0.3-0.5,0.4-0.4c0.1,0.2-0.1,0.1-0.2,0.2c-0.1,0.1-0.2,0.6,0.1,0.5c0.4-0.1,0.2-0.1,0.4-0.1s0.2-0.1,0.2-0.3
	c0.1-0.2,0.2-0.7,0-0.8c-0.2-0.1-0.6-0.4-0.6-0.7c-0.1-0.4-0.2-1.4-0.1-2.1c0.1-0.7,0.1-1,0.2-1.4c0.1-0.5,0.1-1.1,0.2-1.3
	c0.1-0.2,0-0.5,0.4-0.6s1.6-0.6,2-0.9s0.9-0.5,0.9-0.1c0.1,0.5,0.4,2,0.5,2.6c0.1,0.6,0.2,1.3,0.4,1.6c0.1,0.3,0.2,0.1,0.2,0.5
	c-0.1,0.4-0.2,0.2-0.1,0.6c0.1,0.4,0.1,0.2-0.1,0.6c-0.1,0.4-0.1,0-0.1,0.4c-0.1,0.4,0.2,0.6,0,0.9c-0.2,0.3-1.6,1.7-1.1,3.4
	c0,0,0.1,0.4-0.1,0.6c-0.2,0.4-1.3,1.9-1.7,2.9c-0.4,1-0.6,1.3-0.8,1.5c-0.2,0.3-0.4,0.5-0.6,0.7c-0.2,0.2-0.1,0.3-0.8,0.6
	c-0.6,0.4-1.9,0.9-2.7,1.6s-1.2,1.2-2.1,1.8s-1.8,1.5-2.6,1.5c-0.8,0-1.6-0.4-1.9,0.1s-0.1,1.5,0,2c0.1,0.5-0.1,1.3-0.1,1.8
	s0,2,0.2,2.6c0.2,0.5,0.9,0.5,1.1-0.1c0.1-0.5-0.1-1.2,0.5-2.2c0.5-0.9,1.1-1.3,1.2-1.5c0.1-0.3,0.5-0.8,1.2-1.3
	c0.7-0.5,1.7-1.1,2.6-1.5c0.9-0.4,2.8-1.6,3.6-2c0.8-0.4,1.3-0.5,1.9-0.8c0.5-0.3,0.7-0.4,1.2-1.2c0.5-0.8,1.1-1.2,1.9-2
	s2-2.5,2.3-2.9c0.2-0.4,0.2-0.4,0.5-0.3c0.4,0.1,1,0.3,2.3,0.4c1.3,0.1,3.3,0.4,3,0.5c-0.3,0.1-0.8,0.6-0.8,1.7
	c-0.1,1.1-0.3,1.8-0.5,2.7c-0.2,0.9-0.4,1.8-0.8,2.7c-0.5,0.9-0.5,1-0.6,1c-0.1,0-0.3,0.2-0.5,0.5c-0.2,0.4-0.6,1.2,0.1,1.5
	c0.8,0.2,1.3,0.5,2.2,0.9s2.1,0.7,2.7,0.6c0.6-0.1,0.6-0.5,0.4-0.7c-0.2-0.2-1.1-0.8-1.5-1.3c-0.5-0.5-1.2-1.6-0.9-2.6
	c0.4-1.1,1.1-2.5,1.7-3.6c0.6-1.1,0.9-1.9,1.3-2.7c0.4-0.8,0.9-1.6,0.8-2.1c-0.2-0.4-1-1.3-2-2c-1.1-0.8-2.9-1.3-3.6-1.6
	c-0.7-0.4-1-0.4-1-0.4s-0.4-0.2-0.1-1.1s0.4-1.5,0.5-2.5c0.1-1,0.4-2.7,0.4-3.3c0-0.6-0.1-1,0.2-0.7c0.3,0.3,0.5,0.4,1.2,0.8
	c0.7,0.4,1.3,0.9,1.6,1.1c0.4,0.2,0.6,0.3,0.9,0.3c0.3,0,0.3,0.1,0.8-0.5c0.5-0.6,1.2-1.8,1.7-2.9s0.7-1.3,1-1.5
	c0.2-0.2,0.8-0.8,0.6-1c-0.1-0.2-0.1-0.5-0.2-0.5c-0.1-0.1-0.1,0-0.2-0.2c-0.1-0.2-0.3-0.3-0.4-0.2c-0.2,0-0.1-0.2-0.2-0.2
	s-0.2,0-0.3-0.1c0-0.1,0.2-0.2-0.1-0.2c-0.2,0-0.2,0.1-0.4,0.2c-0.2,0.2-0.3,0.3-0.5,0.5c-0.2,0.2-0.2,0.2-0.2,0.5
	c0,0.4-0.1,0.6,0,0.8c0.1,0.1,0.2,0.1-0.2,0.5c-0.3,0.4-0.5,0.8-0.9,1.2c-0.4,0.4-0.9,0.6-1,0.7c-0.1,0.1-0.2,0.1-0.4-0.1
	c-0.1-0.2-0.6-0.8-0.8-0.9c-0.2-0.1,0.4-0.3-0.1-0.6c-0.5-0.3-0.5-0.4-1-0.9c-0.5-0.5-0.7-0.6-0.9-0.9c-0.3-0.4-0.4-0.6-0.9-0.6
	C230.4,15.6,230.2,15.4,229.6,15.6z"/>
<g class="st6">
	<g>
		<g>
			<path class="st7" d="M649.5,24.3c-7-7.2-14,3.7-21,2.6v12.6c7,1.1,14-9.9,21-2.6C649.5,32.7,649.5,28.5,649.5,24.3z"/>
			<g>
				<g>
					<g>
						<path class="st8" d="M630.5,37c-0.7,0.1-1.4,0.1-2.1,0c0-0.8,0-1.7,0-2.5c0.7,0.1,1.4,0.1,2.1,0
							C630.5,35.3,630.5,36.2,630.5,37z"/>
					</g>
					<g>
						<path class="st8" d="M632.6,33.9c-0.7,0.2-1.4,0.5-2.1,0.5c0-0.8,0-1.7,0-2.5c0.7-0.1,1.4-0.3,2.1-0.5
							C632.6,32.2,632.6,33.1,632.6,33.9z"/>
					</g>
				</g>
				<g>
					<g>
						<path class="st8" d="M632.6,39c-0.7,0.2-1.4,0.5-2.1,0.5c0-0.8,0-1.7,0-2.5c0.7-0.1,1.4-0.3,2.1-0.5
							C632.6,37.3,632.6,38.1,632.6,39z"/>
					</g>
				</g>
				<g>
					<path class="st8" d="M630.5,31.9c-0.7,0.1-1.4,0.1-2.1,0c0-0.8,0-1.7,0-2.5c0.7,0.1,1.4,0.1,2.1,0
						C630.5,30.3,630.5,31.1,630.5,31.9z"/>
				</g>
				<g>
					<path class="st8" d="M632.6,28.9c-0.7,0.2-1.4,0.5-2.1,0.5c0-0.8,0-1.7,0-2.5c0.7-0.1,1.4-0.3,2.1-0.5
						C632.6,27.2,632.6,28,632.6,28.9z"/>
				</g>
			</g>
			<g>
				<g>
					<g>
						<path class="st8" d="M634.7,35.6c-0.7,0.4-1.4,0.6-2.1,0.9c0-0.8,0-1.7,0-2.5c0.7-0.2,1.4-0.6,2.1-0.9
							C634.7,33.9,634.7,34.8,634.7,35.6z"/>
					</g>
					<g>
						<path class="st8" d="M636.8,32c-0.7,0.4-1.4,0.8-2.1,1.1c0-0.8,0-1.7,0-2.5c0.7-0.4,1.4-0.7,2.1-1.1
							C636.8,30.3,636.8,31.2,636.8,32z"/>
						<path class="st8" d="M639,33.4c-0.7,0.4-1.4,0.7-2.1,1.1c0-0.8,0-1.7,0-2.5c0.7-0.4,1.4-0.8,2.1-1.1
							C639,31.8,639,32.6,639,33.4z"/>
					</g>
					<g>
						<path class="st8" d="M641.1,30c-0.7,0.2-1.4,0.6-2.1,0.9c0-0.8,0-1.7,0-2.5c0.7-0.4,1.4-0.6,2.1-0.9
							C641.1,28.3,641.1,29.1,641.1,30z"/>
					</g>
				</g>
				<g>
					<g>
						<path class="st8" d="M636.9,37c-0.7,0.4-1.4,0.8-2.1,1.1c0-0.8,0-1.7,0-2.5c0.7-0.4,1.4-0.7,2.1-1.1
							C636.8,35.3,636.9,36.2,636.9,37z"/>
					</g>
					<g>
						<path class="st8" d="M641.1,35c-0.7,0.2-1.4,0.6-2.1,0.9c0-0.8,0-1.7,0-2.5c0.7-0.4,1.4-0.6,2.1-0.9
							C641.1,33.3,641.1,34.2,641.1,35z"/>
					</g>
				</g>
				<path class="st8" d="M634.7,30.6c-0.7,0.4-1.4,0.6-2.1,0.9c0-0.8,0-1.7,0-2.5c0.7-0.2,1.4-0.6,2.1-0.9
					C634.7,28.9,634.7,29.7,634.7,30.6z"/>
				<g>
					<path class="st8" d="M636.8,27c-0.7,0.4-1.4,0.8-2.1,1.1c0-0.8,0-1.7,0-2.5c0.7-0.4,1.4-0.7,2.1-1.1
						C636.8,25.3,636.8,26.1,636.8,27z"/>
					<path class="st8" d="M639,28.4c-0.7,0.4-1.4,0.7-2.1,1.1c0-0.8,0-1.7,0-2.5c0.7-0.4,1.4-0.8,2.1-1.1
						C639,26.7,639,27.5,639,28.4z"/>
				</g>
				<g>
					<path class="st8" d="M641.1,24.9c-0.7,0.2-1.4,0.6-2.1,0.9c0-0.8,0-1.7,0-2.5c0.7-0.4,1.4-0.6,2.1-0.9
						C641.1,23.2,641.1,24.1,641.1,24.9z"/>
				</g>
			</g>
			<g>
				<g>
					<g>
						<path class="st8" d="M643.2,32c-0.7,0.1-1.4,0.3-2.1,0.5c0-0.8,0-1.7,0-2.5c0.7-0.2,1.4-0.5,2.1-0.5
							C643.1,30.3,643.2,31.2,643.2,32z"/>
					</g>
					<g>
						<path class="st8" d="M645.3,29.5c-0.7-0.1-1.4-0.1-2.1,0c0-0.8,0-1.7,0-2.5c0.7-0.1,1.4-0.1,2.1,0
							C645.3,27.8,645.3,28.7,645.3,29.5z"/>
						<path class="st8" d="M647.4,32.8c-0.7-0.4-1.4-0.6-2.1-0.8c0-0.8,0-1.7,0-2.5c0.7,0.1,1.4,0.4,2.1,0.8
							C647.4,31.1,647.4,32,647.4,32.8z"/>
					</g>
					<g>
						<path class="st8" d="M649.5,32c-0.7-0.8-1.4-1.3-2.1-1.7c0-0.8,0-1.7,0-2.5c0.7,0.4,1.4,0.9,2.1,1.7
							C649.5,30.3,649.5,31.1,649.5,32z"/>
					</g>
				</g>
				<g>
					<g>
						<path class="st8" d="M645.3,34.6c-0.7-0.1-1.4-0.1-2.1,0c0-0.8,0-1.7,0-2.5c0.7-0.1,1.4-0.1,2.1,0
							C645.3,32.9,645.3,33.7,645.3,34.6z"/>
					</g>
					<g>
						<path class="st8" d="M649.5,37c-0.7-0.8-1.4-1.3-2.1-1.7c0-0.8,0-1.7,0-2.5c0.7,0.4,1.4,0.9,2.1,1.7
							C649.5,35.3,649.5,36.2,649.5,37z"/>
					</g>
				</g>
				<path class="st8" d="M643.1,27c-0.7,0.1-1.4,0.3-2.1,0.5c0-0.8,0-1.7,0-2.5c0.7-0.2,1.4-0.5,2.1-0.5
					C643.1,25.3,643.1,26.1,643.1,27z"/>
				<g>
					<path class="st8" d="M645.2,24.4c-0.7-0.1-1.4-0.1-2.1,0c0-0.8,0-1.7,0-2.5c0.7-0.1,1.4-0.1,2.1,0
						C645.2,22.7,645.2,23.6,645.2,24.4z"/>
					<path class="st8" d="M647.4,27.7c-0.7-0.4-1.4-0.6-2.1-0.8c0-0.8,0-1.7,0-2.5c0.7,0.1,1.4,0.4,2.1,0.8
						C647.4,26,647.4,26.9,647.4,27.7z"/>
				</g>
				<g>
					<path class="st8" d="M649.5,26.9c-0.7-0.8-1.4-1.3-2.1-1.7c0-0.8,0-1.7,0-2.5c0.7,0.4,1.4,0.9,2.1,1.7
						C649.5,25.2,649.5,26,649.5,26.9z"/>
				</g>
			</g>
		</g>
		
			<rect x="627.5" y="26.1" transform="matrix(1 -3.170417e-03 3.170417e-03 1 -0.1111 1.9913)" class="st9" width="1.1" height="19.9"/>
		
			<rect x="627.4" y="26.9" transform="matrix(1 -3.174700e-03 3.174700e-03 1 -0.1026 1.9939)" class="st8" width="1.2" height="12.8"/>
		
			<rect x="628.6" y="26.9" transform="matrix(1 -3.178623e-03 3.178623e-03 1 -0.1027 1.9993)" class="st10" width="0.8" height="12.8"/>
	</g>
</g>
</svg>
