<?xml version="1.0" encoding="utf-8"?>
<!-- Generator: Adobe Illustrator 24.0.1, SVG Export Plug-In . SVG Version: 6.00 Build 0)  -->
<svg version="1.1" id="Capa_1" xmlns="http://www.w3.org/2000/svg" xmlns:xlink="http://www.w3.org/1999/xlink" x="0px" y="0px"
	 viewBox="0 0 512 512" style="enable-background:new 0 0 512 512;" xml:space="preserve">
<style type="text/css">
	.st0{fill:#4169E1;}
</style>
<g>
	<g>
		<path class="st0" d="M121,68.5H45c-8.3,0-15,6.7-15,15s6.7,15,15,15h76c8.3,0,15-6.7,15-15S129.3,68.5,121,68.5z"/>
	</g>
</g>
<g>
	<g>
		<path class="st0" d="M121,188.5H45c-8.3,0-15,6.7-15,15s6.7,15,15,15h76c8.3,0,15-6.7,15-15S129.3,188.5,121,188.5z"/>
	</g>
</g>
<g>
	<g>
		<path class="st0" d="M91,128.5H15c-8.3,0-15,6.7-15,15s6.7,15,15,15h76c8.3,0,15-6.7,15-15S99.3,128.5,91,128.5z"/>
	</g>
</g>
<g>
	<g>
		<path class="st0" d="M482,203.5h-91v-60c0-26.3-32.2-40.2-51.2-21.2l-120,120c-11.7,11.7-11.7,30.7,0,42.4l68.8,68.8l-83.8,83.8
			c-11.7,11.7-11.7,30.7,0,42.4c11.7,11.7,30.7,11.7,42.4,0l105-105c11.7-11.7,11.7-30.7,0-42.4l-68.8-68.8l47.6-47.6v17.6
			c0,16.6,13.4,30,30,30h121c16.6,0,30-13.4,30-30S498.6,203.5,482,203.5z"/>
	</g>
</g>
<g>
	<g>
		<path class="st0" d="M280.1,51c-11.9-7.9-27.7-6.4-37.9,3.8l-82.5,82.5c-11.7,11.7-11.7,30.7,0,42.4s30.7,11.7,42.4,0l65.1-65.1
			l21.9,15.8l29.3-29.3c4.9-4.9,10.7-8.7,17-11.7L280.1,51z"/>
	</g>
</g>
<g>
	<g>
		<path class="st0" d="M198.6,305.9c-7.6-7.6-12.7-17-15.4-27.1L24.8,437.3c-11.7,11.7-11.7,30.7,0,42.4c11.7,11.7,30.7,11.7,42.4,0
			l152.6-152.6L198.6,305.9z"/>
	</g>
</g>
<g>
	<g>
		<circle class="st0" cx="406" cy="68.5" r="45"/>
	</g>
</g>
</svg>
