<?xml version="1.0" encoding="utf-8"?>
<!-- Generator: Adobe Illustrator 24.1.0, SVG Export Plug-In . SVG Version: 6.00 Build 0)  -->
<svg version="1.1" id="Capa_1" xmlns="http://www.w3.org/2000/svg" xmlns:xlink="http://www.w3.org/1999/xlink" x="0px" y="0px"
	 viewBox="0 0 481 88.4" style="enable-background:new 0 0 481 88.4;" xml:space="preserve">
<style type="text/css">
	.st0{fill:#CEF8F4;}
	.st1{fill:#3255C7;}
	.st2{enable-background:new    ;}
	.st3{opacity:0.39;}
	.st4{fill:#FFFFFF;}
	.st5{fill:#3D4646;}
	.st6{fill:#58869D;}
	.st7{opacity:0.5;fill:#3D4646;enable-background:new    ;}
</style>
<rect x="75.1" y="53.4" class="st0" width="365.4" height="4.6"/>
<rect x="26.6" y="53.4" class="st1" width="48.5" height="4.6"/>
<circle class="st1" cx="29.2" cy="55.7" r="5.7"/>
<circle class="st1" cx="75" cy="55.7" r="5.7"/>
<circle class="st0" cx="120.8" cy="55.7" r="5.7"/>
<circle class="st0" cx="166.6" cy="55.7" r="5.7"/>
<ellipse transform="matrix(0.4473 -0.8944 0.8944 0.4473 92.8896 261.7387)" class="st0" cx="258.2" cy="55.7" rx="5.7" ry="5.7"/>
<circle class="st0" cx="212.4" cy="55.7" r="5.7"/>
<circle class="st0" cx="304" cy="55.7" r="5.7"/>
<circle class="st0" cx="349.8" cy="55.7" r="5.7"/>
<circle class="st0" cx="395.6" cy="55.7" r="5.7"/>
<circle class="st0" cx="441.4" cy="55.7" r="5.7"/>
<g>
	<g class="st2">
		<path class="st1" d="M49.4,74.4c0.1,0.1,0.2,0.3,0.2,0.5c0,0.2-0.1,0.3-0.2,0.5s-0.3,0.2-0.5,0.2c-0.2,0-0.3-0.1-0.5-0.2
			s-0.2-0.3-0.2-0.5c0-0.2,0.1-0.3,0.2-0.5s0.3-0.2,0.5-0.2C49.1,74.3,49.3,74.3,49.4,74.4z M48.5,76.2h0.9l0.1,4.4h-1.1L48.5,76.2z
			"/>
		<path class="st1" d="M55.3,76.7c0.2,0.3,0.4,0.6,0.4,1c0,0.3-0.1,0.6-0.2,0.9S55,79,54.7,79.1c-0.3,0.1-0.7,0.2-1.1,0.2h-2.5v-6.3
			h2.4c0.4,0,0.8,0.1,1.1,0.2c0.3,0.1,0.5,0.3,0.7,0.6c0.2,0.2,0.2,0.5,0.2,0.8c0,0.4-0.1,0.7-0.3,0.9s-0.4,0.4-0.8,0.5
			C54.7,76.2,55,76.4,55.3,76.7z M52.1,75.7h1.3c0.3,0,0.6-0.1,0.8-0.2s0.3-0.4,0.3-0.7c0-0.3-0.1-0.5-0.3-0.7s-0.5-0.2-0.8-0.2
			h-1.3V75.7z M54.3,78.3c0.2-0.2,0.3-0.4,0.3-0.7c0-0.3-0.1-0.5-0.3-0.7c-0.2-0.2-0.5-0.3-0.8-0.3h-1.3v2h1.4
			C53.8,78.5,54.1,78.4,54.3,78.3z"/>
		<path class="st1" d="M61.2,74.4v5h-1v-0.6c-0.2,0.2-0.4,0.4-0.6,0.5c-0.3,0.1-0.5,0.2-0.8,0.2c-0.4,0-0.7-0.1-1-0.2
			s-0.6-0.4-0.7-0.7c-0.2-0.3-0.3-0.7-0.3-1.2v-2.9h1v2.8c0,0.4,0.1,0.8,0.3,1c0.2,0.2,0.5,0.4,0.9,0.4c0.4,0,0.7-0.1,0.9-0.4
			c0.2-0.2,0.3-0.6,0.3-1v-2.8H61.2z"/>
		<path class="st1" d="M67.1,77.3h-3.8c0,0.4,0.2,0.7,0.4,1c0.3,0.2,0.6,0.4,1,0.4c0.6,0,0.9-0.2,1.2-0.7H67
			c-0.1,0.5-0.4,0.8-0.8,1.1s-0.9,0.4-1.5,0.4c-0.5,0-0.9-0.1-1.3-0.3c-0.4-0.2-0.7-0.5-0.9-0.9s-0.3-0.8-0.3-1.3
			c0-0.5,0.1-1,0.3-1.3c0.2-0.4,0.5-0.7,0.9-0.9s0.8-0.3,1.3-0.3c0.5,0,0.9,0.1,1.3,0.3c0.4,0.2,0.7,0.5,0.9,0.9
			c0.2,0.4,0.3,0.8,0.3,1.3C67.1,76.9,67.1,77.1,67.1,77.3z M66,76.4c0-0.4-0.1-0.7-0.4-0.9c-0.3-0.2-0.6-0.3-1-0.3
			c-0.4,0-0.7,0.1-0.9,0.3c-0.3,0.2-0.4,0.5-0.5,0.9H66z"/>
		<path class="st1" d="M71.7,74.6c0.3,0.2,0.6,0.4,0.7,0.7c0.2,0.3,0.3,0.7,0.3,1.2v2.9h-1v-2.8c0-0.4-0.1-0.8-0.3-1
			c-0.2-0.2-0.5-0.4-0.9-0.4c-0.4,0-0.7,0.1-0.9,0.4c-0.2,0.2-0.3,0.6-0.3,1v2.8h-1v-5h1V75c0.2-0.2,0.4-0.4,0.6-0.5
			c0.3-0.1,0.5-0.2,0.8-0.2C71,74.3,71.4,74.4,71.7,74.6z"/>
		<path class="st1" d="M76.4,73.6c-0.1-0.1-0.2-0.3-0.2-0.5c0-0.2,0.1-0.3,0.2-0.5s0.3-0.2,0.5-0.2c0.2,0,0.3,0.1,0.5,0.2
			c0.1,0.1,0.2,0.3,0.2,0.5c0,0.2-0.1,0.3-0.2,0.5c-0.1,0.1-0.3,0.2-0.5,0.2C76.6,73.7,76.5,73.7,76.4,73.6z M77.3,74.4v5h-1v-5
			H77.3z"/>
		<path class="st1" d="M82.2,74.6c0.3,0.2,0.6,0.4,0.7,0.7c0.2,0.3,0.3,0.7,0.3,1.2v2.9h-1v-2.8c0-0.4-0.1-0.8-0.3-1
			c-0.2-0.2-0.5-0.4-0.9-0.4c-0.4,0-0.7,0.1-0.9,0.4c-0.2,0.2-0.3,0.6-0.3,1v2.8h-1v-5h1V75c0.2-0.2,0.4-0.4,0.6-0.5
			c0.3-0.1,0.5-0.2,0.8-0.2C81.6,74.3,81.9,74.4,82.2,74.6z"/>
		<path class="st1" d="M84.6,73.6c-0.1-0.1-0.2-0.3-0.2-0.5c0-0.2,0.1-0.3,0.2-0.5s0.3-0.2,0.5-0.2c0.2,0,0.3,0.1,0.5,0.2
			c0.1,0.1,0.2,0.3,0.2,0.5c0,0.2-0.1,0.3-0.2,0.5c-0.1,0.1-0.3,0.2-0.5,0.2C84.9,73.7,84.7,73.7,84.6,73.6z M85.6,74.4v5h-1v-5
			H85.6z"/>
		<path class="st1" d="M86.9,75.5c0.2-0.4,0.5-0.7,0.9-0.9s0.8-0.3,1.3-0.3c0.6,0,1.1,0.1,1.5,0.4s0.7,0.7,0.8,1.2h-1.1
			c-0.1-0.2-0.2-0.4-0.4-0.6c-0.2-0.1-0.4-0.2-0.7-0.2c-0.4,0-0.8,0.1-1,0.4s-0.4,0.7-0.4,1.2c0,0.5,0.1,1,0.4,1.3
			c0.2,0.3,0.6,0.5,1,0.5c0.6,0,1-0.3,1.2-0.8h1.1c-0.1,0.5-0.4,0.9-0.8,1.2s-0.9,0.4-1.5,0.4c-0.5,0-0.9-0.1-1.3-0.3
			s-0.7-0.5-0.9-0.9s-0.3-0.8-0.3-1.3C86.6,76.4,86.7,75.9,86.9,75.5z"/>
		<path class="st1" d="M92.4,73.6c-0.1-0.1-0.2-0.3-0.2-0.5c0-0.2,0.1-0.3,0.2-0.5s0.3-0.2,0.5-0.2c0.2,0,0.3,0.1,0.5,0.2
			c0.1,0.1,0.2,0.3,0.2,0.5c0,0.2-0.1,0.3-0.2,0.5c-0.1,0.1-0.3,0.2-0.5,0.2C92.6,73.7,92.5,73.7,92.4,73.6z M93.3,74.4v5h-1v-5
			H93.3z"/>
		<path class="st1" d="M95.6,79.1c-0.4-0.2-0.7-0.5-0.9-0.9s-0.3-0.8-0.3-1.3c0-0.5,0.1-1,0.3-1.3c0.2-0.4,0.5-0.7,0.9-0.9
			s0.8-0.3,1.3-0.3c0.5,0,0.9,0.1,1.3,0.3c0.4,0.2,0.7,0.5,0.9,0.9c0.2,0.4,0.3,0.8,0.3,1.3s-0.1,1-0.3,1.3
			c-0.2,0.4-0.5,0.7-0.9,0.9s-0.8,0.3-1.3,0.3C96.4,79.4,95.9,79.3,95.6,79.1z M97.6,78.4c0.2-0.1,0.4-0.3,0.6-0.6s0.2-0.6,0.2-0.9
			c0-0.4-0.1-0.7-0.2-0.9c-0.1-0.2-0.3-0.4-0.5-0.6s-0.5-0.2-0.7-0.2s-0.5,0.1-0.7,0.2s-0.4,0.3-0.5,0.6s-0.2,0.6-0.2,0.9
			c0,0.5,0.1,0.9,0.4,1.2s0.6,0.4,1,0.4C97.1,78.6,97.3,78.5,97.6,78.4z"/>
		<path class="st1" d="M100.7,79.2c-0.1-0.1-0.2-0.3-0.2-0.5c0-0.2,0.1-0.3,0.2-0.5c0.1-0.1,0.3-0.2,0.5-0.2c0.2,0,0.3,0.1,0.5,0.2
			c0.1,0.1,0.2,0.3,0.2,0.5c0,0.2-0.1,0.3-0.2,0.5s-0.3,0.2-0.5,0.2C101,79.4,100.9,79.4,100.7,79.2z M101.7,73.1l-0.1,4.4h-0.9
			l-0.1-4.4H101.7z"/>
	</g>
</g>
<g class="st3">
	<g>
		<g>
			<path class="st4" d="M459.5,24.3c-7-7.2-14,3.7-21,2.6v12.6c7,1.1,14-9.9,21-2.6C459.5,32.7,459.5,28.5,459.5,24.3z"/>
			<g>
				<g>
					<g>
						<path class="st5" d="M440.5,37c-0.7,0.1-1.4,0.1-2.1,0c0-0.8,0-1.7,0-2.5c0.7,0.1,1.4,0.1,2.1,0
							C440.5,35.3,440.5,36.2,440.5,37z"/>
					</g>
					<g>
						<path class="st5" d="M442.6,33.9c-0.7,0.2-1.4,0.5-2.1,0.5c0-0.8,0-1.7,0-2.5c0.7-0.1,1.4-0.3,2.1-0.5
							C442.6,32.2,442.6,33.1,442.6,33.9z"/>
					</g>
				</g>
				<g>
					<g>
						<path class="st5" d="M442.6,39c-0.7,0.2-1.4,0.5-2.1,0.5c0-0.8,0-1.7,0-2.5c0.7-0.1,1.4-0.3,2.1-0.5
							C442.6,37.3,442.6,38.1,442.6,39z"/>
					</g>
				</g>
				<g>
					<path class="st5" d="M440.5,31.9c-0.7,0.1-1.4,0.1-2.1,0c0-0.8,0-1.7,0-2.5c0.7,0.1,1.4,0.1,2.1,0
						C440.5,30.3,440.5,31.1,440.5,31.9z"/>
				</g>
				<g>
					<path class="st5" d="M442.6,28.9c-0.7,0.2-1.4,0.5-2.1,0.5c0-0.8,0-1.7,0-2.5c0.7-0.1,1.4-0.3,2.1-0.5
						C442.6,27.2,442.6,28,442.6,28.9z"/>
				</g>
			</g>
			<g>
				<g>
					<g>
						<path class="st5" d="M444.7,35.6c-0.7,0.4-1.4,0.6-2.1,0.9c0-0.8,0-1.7,0-2.5c0.7-0.2,1.4-0.6,2.1-0.9
							C444.7,33.9,444.7,34.8,444.7,35.6z"/>
					</g>
					<g>
						<path class="st5" d="M446.8,32c-0.7,0.4-1.4,0.8-2.1,1.1c0-0.8,0-1.7,0-2.5c0.7-0.4,1.4-0.7,2.1-1.1
							C446.8,30.3,446.8,31.2,446.8,32z"/>
						<path class="st5" d="M449,33.4c-0.7,0.4-1.4,0.7-2.1,1.1c0-0.8,0-1.7,0-2.5c0.7-0.4,1.4-0.8,2.1-1.1
							C449,31.8,449,32.6,449,33.4z"/>
					</g>
					<g>
						<path class="st5" d="M451.1,30c-0.7,0.2-1.4,0.6-2.1,0.9c0-0.8,0-1.7,0-2.5c0.7-0.4,1.4-0.6,2.1-0.9
							C451.1,28.3,451.1,29.1,451.1,30z"/>
					</g>
				</g>
				<g>
					<g>
						<path class="st5" d="M446.9,37c-0.7,0.4-1.4,0.8-2.1,1.1c0-0.8,0-1.7,0-2.5c0.7-0.4,1.4-0.7,2.1-1.1
							C446.8,35.3,446.9,36.2,446.9,37z"/>
					</g>
					<g>
						<path class="st5" d="M451.1,35c-0.7,0.2-1.4,0.6-2.1,0.9c0-0.8,0-1.7,0-2.5c0.7-0.4,1.4-0.6,2.1-0.9
							C451.1,33.3,451.1,34.2,451.1,35z"/>
					</g>
				</g>
				<path class="st5" d="M444.7,30.6c-0.7,0.4-1.4,0.6-2.1,0.9c0-0.8,0-1.7,0-2.5c0.7-0.2,1.4-0.6,2.1-0.9
					C444.7,28.9,444.7,29.7,444.7,30.6z"/>
				<g>
					<path class="st5" d="M446.8,27c-0.7,0.4-1.4,0.8-2.1,1.1c0-0.8,0-1.7,0-2.5c0.7-0.4,1.4-0.7,2.1-1.1
						C446.8,25.3,446.8,26.1,446.8,27z"/>
					<path class="st5" d="M449,28.4c-0.7,0.4-1.4,0.7-2.1,1.1c0-0.8,0-1.7,0-2.5c0.7-0.4,1.4-0.8,2.1-1.1
						C449,26.7,449,27.5,449,28.4z"/>
				</g>
				<g>
					<path class="st5" d="M451.1,24.9c-0.7,0.2-1.4,0.6-2.1,0.9c0-0.8,0-1.7,0-2.5c0.7-0.4,1.4-0.6,2.1-0.9
						C451.1,23.2,451.1,24.1,451.1,24.9z"/>
				</g>
			</g>
			<g>
				<g>
					<g>
						<path class="st5" d="M453.2,32c-0.7,0.1-1.4,0.3-2.1,0.5c0-0.8,0-1.7,0-2.5c0.7-0.2,1.4-0.5,2.1-0.5
							C453.1,30.3,453.2,31.2,453.2,32z"/>
					</g>
					<g>
						<path class="st5" d="M455.3,29.5c-0.7-0.1-1.4-0.1-2.1,0c0-0.8,0-1.7,0-2.5c0.7-0.1,1.4-0.1,2.1,0
							C455.3,27.8,455.3,28.7,455.3,29.5z"/>
						<path class="st5" d="M457.4,32.8c-0.7-0.4-1.4-0.6-2.1-0.8c0-0.8,0-1.7,0-2.5c0.7,0.1,1.4,0.4,2.1,0.8
							C457.4,31.1,457.4,32,457.4,32.8z"/>
					</g>
					<g>
						<path class="st5" d="M459.5,32c-0.7-0.8-1.4-1.3-2.1-1.7c0-0.8,0-1.7,0-2.5c0.7,0.4,1.4,0.9,2.1,1.7
							C459.5,30.3,459.5,31.1,459.5,32z"/>
					</g>
				</g>
				<g>
					<g>
						<path class="st5" d="M455.3,34.6c-0.7-0.1-1.4-0.1-2.1,0c0-0.8,0-1.7,0-2.5c0.7-0.1,1.4-0.1,2.1,0
							C455.3,32.9,455.3,33.7,455.3,34.6z"/>
					</g>
					<g>
						<path class="st5" d="M459.5,37c-0.7-0.8-1.4-1.3-2.1-1.7c0-0.8,0-1.7,0-2.5c0.7,0.4,1.4,0.9,2.1,1.7
							C459.5,35.3,459.5,36.2,459.5,37z"/>
					</g>
				</g>
				<path class="st5" d="M453.1,27c-0.7,0.1-1.4,0.3-2.1,0.5c0-0.8,0-1.7,0-2.5c0.7-0.2,1.4-0.5,2.1-0.5
					C453.1,25.3,453.1,26.1,453.1,27z"/>
				<g>
					<path class="st5" d="M455.2,24.4c-0.7-0.1-1.4-0.1-2.1,0c0-0.8,0-1.7,0-2.5c0.7-0.1,1.4-0.1,2.1,0
						C455.2,22.7,455.2,23.6,455.2,24.4z"/>
					<path class="st5" d="M457.4,27.7c-0.7-0.4-1.4-0.6-2.1-0.8c0-0.8,0-1.7,0-2.5c0.7,0.1,1.4,0.4,2.1,0.8
						C457.4,26,457.4,26.9,457.4,27.7z"/>
				</g>
				<g>
					<path class="st5" d="M459.5,26.9c-0.7-0.8-1.4-1.3-2.1-1.7c0-0.8,0-1.7,0-2.5c0.7,0.4,1.4,0.9,2.1,1.7
						C459.5,25.2,459.5,26,459.5,26.9z"/>
				</g>
			</g>
		</g>
		
			<rect x="437.5" y="26.1" transform="matrix(1 -3.170353e-03 3.170353e-03 1 -0.1121 1.389)" class="st6" width="1.1" height="19.9"/>
		
			<rect x="437.4" y="26.9" transform="matrix(1 -3.174636e-03 3.174636e-03 1 -0.1035 1.3907)" class="st5" width="1.2" height="12.8"/>
		
			<rect x="438.6" y="26.9" transform="matrix(1 -3.178559e-03 3.178559e-03 1 -0.1036 1.3956)" class="st7" width="0.8" height="12.8"/>
	</g>
</g>
<path class="st1" d="M84.8,41.2c-0.3,0.4-0.8,0.6-1.3,0.6s-1-0.2-1.3-0.6c-1-1.2-2.5-1.9-4.2-1.9s-3.2,0.7-4.2,1.9
	c-0.3,0.4-0.8,0.6-1.3,0.6s-1-0.2-1.3-0.6c-1-1.2-2.5-1.9-4.2-1.9s-3.2,0.7-4.2,1.9c-0.3,0.4-0.8,0.6-1.3,0.6l0,0
	c-0.5,0-1-0.2-1.3-0.6c-0.8-0.9-1.9-1.6-3.2-1.8v3.4c0.3,0.1,0.5,0.3,0.7,0.6c1,1.1,2.3,1.7,3.7,1.7s2.8-0.6,3.7-1.7
	c0.5-0.5,1.1-0.8,1.8-0.8c0.7,0,1.3,0.3,1.8,0.8c1,1.1,2.3,1.7,3.7,1.7s2.8-0.6,3.7-1.7c0.5-0.5,1.1-0.8,1.8-0.8
	c0.9,0,1.5,0.5,1.8,0.8c0.9,1.1,2.3,1.7,3.8,1.7c1.4,0,2.8-0.6,3.8-1.7c0.2-0.2,0.5-0.5,1.1-0.7v-3.3C87,39.5,85.7,40.2,84.8,41.2z"
	/>
<circle class="st1" cx="81.4" cy="34" r="4"/>
<path class="st1" d="M72,40.4c0.2,0.3,0.7,0.3,0.9,0c1-1.2,2.4-1.9,3.9-2.2c0.1-0.6,0.1-1.3-0.2-1.9c-0.1-0.3-1.4-4.7-1.4-4.7
	s-0.2-0.9,0.4-1.7c0.5-0.8,1.7-1.3,3.3-1.6c0.9-0.1,1.5-1,1.4-1.9s-1-1.5-1.9-1.4c-2.6,0.4-4.4,1.4-5.5,3c-1.4,2-0.9,4-0.9,4.3
	l0.3,1.4c-0.2,0-0.4,0.1-0.6,0.2l-6.6,2.3c-1.5,0.5-2.4,1.9-2.5,3.3c1.2-1,2.7-1.5,4.3-1.5C68.9,38.2,70.7,39,72,40.4z"/>
</svg>
