<?xml version="1.0" encoding="utf-8"?>
<!-- Generator: Adobe Illustrator 24.1.0, SVG Export Plug-In . SVG Version: 6.00 Build 0)  -->
<svg version="1.1" id="Layer_1" xmlns="http://www.w3.org/2000/svg" xmlns:xlink="http://www.w3.org/1999/xlink" x="0px" y="0px"
	 viewBox="0 0 492.9 288" style="enable-background:new 0 0 492.9 288;" xml:space="preserve">
<style type="text/css">
	.st0{fill:#F5F5F5;}
	.st1{fill:#FFFFFF;}
	.st2{fill:url(#SVGID_1_);}
	.st3{fill:#FF3654;}
	.st4{fill:#D9DFF2;}
	.st5{fill:url(#SVGID_2_);}
	.st6{fill:#1D39CF;}
	.st7{fill:url(#SVGID_3_);}
	.st8{fill:#FF9D00;}
	.st9{fill:url(#SVGID_4_);}
	.st10{fill:#7AC90A;}
	.st11{fill:none;}
	.st12{font-family:'Raleway-Bold';}
	.st13{font-size:11.3382px;}
	.st14{font-family:'Raleway-Regular';}
	.st15{font-size:7.5588px;}
</style>
<rect x="0.6" y="-0.2" class="st0" width="492.3" height="288.2"/>
<rect x="10.5" y="6.1" class="st1" width="476.2" height="272.1"/>
<radialGradient id="SVGID_1_" cx="160.0591" cy="-1076.818" r="47.4744" gradientTransform="matrix(1.1227 0.2854 -0.6229 2.45 -823.0926 2715.4131)" gradientUnits="userSpaceOnUse">
	<stop  offset="0.3599" style="stop-color:#ACC2D4"/>
	<stop  offset="0.4428" style="stop-color:#BBCDDC"/>
	<stop  offset="0.6833" style="stop-color:#E0E8EF"/>
	<stop  offset="0.8776" style="stop-color:#F7F9FB"/>
	<stop  offset="1" style="stop-color:#FFFFFF"/>
</radialGradient>
<path class="st2" d="M81.4,33.4L32.1,227.3c19.7-17.2,38.2-50.4,48.5-90.9S90.5,57.9,81.4,33.4z"/>
<polygon class="st3" points="118,60.2 109.5,95.6 65.6,95.6 74.6,60.2 "/>
<g>
	<path class="st4" d="M75,132.1c-1.8-1.1-3.2-2.7-4.2-4.8c-1-2.1-1.5-4.6-1.5-7.5c0-2.9,0.5-5.4,1.5-7.5c1-2.1,2.4-3.7,4.2-4.8
		c1.8-1.1,3.9-1.7,6.2-1.7c2.3,0,4.3,0.6,6.1,1.7c1.8,1.1,3.2,2.7,4.2,4.8c1,2.1,1.5,4.6,1.5,7.5c0,2.9-0.5,5.4-1.5,7.5
		c-1,2.1-2.4,3.7-4.2,4.8c-1.8,1.1-3.8,1.7-6.1,1.7C78.9,133.7,76.8,133.2,75,132.1z M84.3,125.6c0.8-1.2,1.1-3.2,1.1-5.9
		c0-2.7-0.4-4.7-1.1-5.9c-0.8-1.2-1.8-1.9-3.1-1.9c-1.3,0-2.3,0.6-3.1,1.9c-0.8,1.2-1.1,3.2-1.1,5.9c0,2.7,0.4,4.7,1.1,5.9
		c0.8,1.2,1.8,1.9,3.1,1.9C82.5,127.5,83.5,126.9,84.3,125.6z"/>
	<path class="st4" d="M108.1,106.2v27h-7.6v-21.1h-5v-5.9H108.1z"/>
</g>
<radialGradient id="SVGID_2_" cx="250.4167" cy="-1087.3436" r="47.4743" gradientTransform="matrix(1.1227 0.2854 -0.6229 2.45 -823.0926 2715.4131)" gradientUnits="userSpaceOnUse">
	<stop  offset="0.3599" style="stop-color:#ACC2D4"/>
	<stop  offset="0.4428" style="stop-color:#BBCDDC"/>
	<stop  offset="0.6833" style="stop-color:#E0E8EF"/>
	<stop  offset="0.8776" style="stop-color:#F7F9FB"/>
	<stop  offset="1" style="stop-color:#FFFFFF"/>
</radialGradient>
<path class="st5" d="M189.4,33.4l-49.3,193.9c19.7-17.2,38.2-50.4,48.5-90.9C199,95.9,198.5,57.9,189.4,33.4z"/>
<polygon class="st6" points="226,60.2 217.5,95.6 173.6,95.6 182.6,60.2 "/>
<g>
	<path class="st4" d="M183,132.1c-1.8-1.1-3.2-2.7-4.2-4.8c-1-2.1-1.5-4.6-1.5-7.5c0-2.9,0.5-5.4,1.5-7.5c1-2.1,2.4-3.7,4.2-4.8
		c1.8-1.1,3.9-1.7,6.2-1.7c2.3,0,4.3,0.6,6.1,1.7c1.8,1.1,3.2,2.7,4.2,4.8c1,2.1,1.5,4.6,1.5,7.5c0,2.9-0.5,5.4-1.5,7.5
		c-1,2.1-2.4,3.7-4.2,4.8c-1.8,1.1-3.8,1.7-6.1,1.7C186.9,133.7,184.8,133.2,183,132.1z M192.3,125.6c0.8-1.2,1.1-3.2,1.1-5.9
		c0-2.7-0.4-4.7-1.1-5.9c-0.8-1.2-1.8-1.9-3.1-1.9c-1.3,0-2.3,0.6-3.1,1.9c-0.8,1.2-1.1,3.2-1.1,5.9c0,2.7,0.4,4.7,1.1,5.9
		c0.8,1.2,1.8,1.9,3.1,1.9C190.5,127.5,191.5,126.9,192.3,125.6z"/>
	<path class="st4" d="M225.4,127.1v6h-21v-4.8l10.1-9.4c1-0.9,1.6-1.7,2-2.4c0.3-0.7,0.5-1.3,0.5-2c0-0.9-0.3-1.6-0.9-2
		c-0.6-0.5-1.5-0.7-2.6-0.7c-1,0-1.9,0.2-2.8,0.7c-0.8,0.5-1.5,1.1-2.1,1.9l-5.7-3.2c1.1-1.7,2.5-3.1,4.4-4.1c1.9-1,4.1-1.5,6.7-1.5
		c2.1,0,3.9,0.3,5.5,1c1.6,0.7,2.8,1.6,3.7,2.9c0.9,1.2,1.3,2.7,1.3,4.3c0,1.5-0.3,2.8-0.9,4.1c-0.6,1.3-1.8,2.8-3.6,4.4l-5.1,4.7
		H225.4z"/>
</g>
<radialGradient id="SVGID_3_" cx="340.7741" cy="-1097.8694" r="47.4743" gradientTransform="matrix(1.1227 0.2854 -0.6229 2.45 -823.0926 2715.4131)" gradientUnits="userSpaceOnUse">
	<stop  offset="0.3599" style="stop-color:#ACC2D4"/>
	<stop  offset="0.4428" style="stop-color:#BBCDDC"/>
	<stop  offset="0.6833" style="stop-color:#E0E8EF"/>
	<stop  offset="0.8776" style="stop-color:#F7F9FB"/>
	<stop  offset="1" style="stop-color:#FFFFFF"/>
</radialGradient>
<path class="st7" d="M297.4,33.4l-49.3,193.9c19.7-17.2,38.2-50.4,48.5-90.9C307,95.9,306.5,57.9,297.4,33.4z"/>
<polygon class="st8" points="334,60.2 325.5,95.6 281.6,95.6 290.6,60.2 "/>
<g>
	<path class="st4" d="M291,132.1c-1.8-1.1-3.2-2.7-4.2-4.8c-1-2.1-1.5-4.6-1.5-7.5c0-2.9,0.5-5.4,1.5-7.5c1-2.1,2.4-3.7,4.2-4.8
		c1.8-1.1,3.9-1.7,6.2-1.7c2.3,0,4.3,0.6,6.1,1.7c1.8,1.1,3.2,2.7,4.2,4.8c1,2.1,1.5,4.6,1.5,7.5c0,2.9-0.5,5.4-1.5,7.5
		c-1,2.1-2.4,3.7-4.2,4.8c-1.8,1.1-3.8,1.7-6.1,1.7C294.9,133.7,292.8,133.2,291,132.1z M300.3,125.6c0.8-1.2,1.1-3.2,1.1-5.9
		c0-2.7-0.4-4.7-1.1-5.9c-0.8-1.2-1.8-1.9-3.1-1.9c-1.3,0-2.3,0.6-3.1,1.9c-0.8,1.2-1.1,3.2-1.1,5.9c0,2.7,0.4,4.7,1.1,5.9
		c0.8,1.2,1.8,1.9,3.1,1.9C298.5,127.5,299.5,126.9,300.3,125.6z"/>
	<path class="st4" d="M331.4,119.8c1.2,1.4,1.8,3,1.8,5c0,1.6-0.4,3.1-1.3,4.4c-0.9,1.4-2.2,2.5-3.9,3.3c-1.8,0.8-3.9,1.3-6.5,1.3
		c-1.9,0-3.8-0.2-5.6-0.7c-1.9-0.5-3.5-1.1-4.8-2l2.8-5.7c1.1,0.7,2.2,1.3,3.6,1.7c1.3,0.4,2.6,0.6,3.9,0.6c1.3,0,2.4-0.2,3.1-0.7
		c0.8-0.5,1.2-1.2,1.2-2.1c0-1.7-1.4-2.6-4.1-2.6h-3.2v-4.8l4.8-5.2h-10.6v-5.9h19.5v4.8l-5.6,6
		C328.5,117.5,330.2,118.4,331.4,119.8z"/>
</g>
<radialGradient id="SVGID_4_" cx="431.1314" cy="-1108.3951" r="47.4744" gradientTransform="matrix(1.1227 0.2854 -0.6229 2.45 -823.0926 2715.4131)" gradientUnits="userSpaceOnUse">
	<stop  offset="0.3599" style="stop-color:#ACC2D4"/>
	<stop  offset="0.4428" style="stop-color:#BBCDDC"/>
	<stop  offset="0.6833" style="stop-color:#E0E8EF"/>
	<stop  offset="0.8776" style="stop-color:#F7F9FB"/>
	<stop  offset="1" style="stop-color:#FFFFFF"/>
</radialGradient>
<path class="st9" d="M405.4,33.4l-49.3,193.9c19.7-17.2,38.2-50.4,48.5-90.9C415,95.9,414.5,57.9,405.4,33.4z"/>
<polygon class="st10" points="442,60.2 433.5,95.6 389.6,95.6 398.6,60.2 "/>
<g>
	<path class="st4" d="M399,132.1c-1.8-1.1-3.2-2.7-4.2-4.8c-1-2.1-1.5-4.6-1.5-7.5c0-2.9,0.5-5.4,1.5-7.5c1-2.1,2.4-3.7,4.2-4.8
		c1.8-1.1,3.9-1.7,6.2-1.7c2.3,0,4.3,0.6,6.1,1.7c1.8,1.1,3.2,2.7,4.2,4.8c1,2.1,1.5,4.6,1.5,7.5c0,2.9-0.5,5.4-1.5,7.5
		c-1,2.1-2.4,3.7-4.2,4.8c-1.8,1.1-3.8,1.7-6.1,1.7C402.9,133.7,400.8,133.2,399,132.1z M408.3,125.6c0.8-1.2,1.1-3.2,1.1-5.9
		c0-2.7-0.4-4.7-1.1-5.9c-0.8-1.2-1.8-1.9-3.1-1.9c-1.3,0-2.3,0.6-3.1,1.9c-0.8,1.2-1.1,3.2-1.1,5.9c0,2.7,0.4,4.7,1.1,5.9
		c0.8,1.2,1.8,1.9,3.1,1.9C406.5,127.5,407.5,126.9,408.3,125.6z"/>
	<path class="st4" d="M446.3,128h-4v5.2h-7.4V128h-14.3v-5l12.1-16.8h7.9l-11,15.8h5.5v-4.6h7.2v4.6h4V128z"/>
</g>
<rect x="60.2" y="146.3" class="st11" width="100.3" height="12.8"/>
<text transform="matrix(1 0 0 1 60.2231 154.5498)" class="st3 st12 st13">Nivel de Inicio</text>
<rect x="167.1" y="143.9" class="st11" width="100.3" height="23.7"/>
<text transform="matrix(1 0 0 1 167.0796 152.1338)"><tspan x="0" y="0" class="st6 st12 st13">Nivel en </tspan><tspan x="0" y="9.4" class="st6 st12 st13">progreso</tspan></text>
<rect x="272" y="146.3" class="st11" width="100.3" height="12.8"/>
<text transform="matrix(1 0 0 1 271.9834 154.5498)" class="st8 st12 st13">Nivel intermedio</text>
<rect x="383.3" y="146.3" class="st11" width="100.3" height="12.8"/>
<text transform="matrix(1 0 0 1 383.2969 154.5498)" class="st10 st12 st13">Nivel avanzado</text>
<rect x="60.2" y="161.3" class="st11" width="85.1" height="44"/>
<text transform="matrix(1 0 0 1 60.2231 166.8584)"><tspan x="0" y="0" class="st14 st15">Nombra los elementos </tspan><tspan x="0" y="9.1" class="st14 st15">que hacen parte de la </tspan><tspan x="0" y="18.1" class="st14 st15">planificación de la </tspan><tspan x="0" y="27.2" class="st14 st15">evaluación.</tspan></text>
<rect x="166.3" y="167.5" class="st11" width="85.1" height="44"/>
<text transform="matrix(1 0 0 1 166.3335 173.0635)"><tspan x="0" y="0" class="st14 st15">Ordena los elementos </tspan><tspan x="0" y="9.1" class="st14 st15">que hacen parte del </tspan><tspan x="0" y="18.1" class="st14 st15">proceso de </tspan><tspan x="0" y="27.2" class="st14 st15">planificación de manera </tspan><tspan x="0" y="36.3" class="st14 st15">secuencial.</tspan></text>
<rect x="272" y="161.3" class="st11" width="85.7" height="61.3"/>
<text transform="matrix(1 0 0 1 271.9834 166.8584)"><tspan x="0" y="0" class="st14 st15">Asocia las </tspan><tspan x="0" y="9.1" class="st14 st15">intencionalidades de </tspan><tspan x="0" y="18.1" class="st14 st15">cada uno de los </tspan><tspan x="0" y="27.2" class="st14 st15">elementos que hacen </tspan><tspan x="0" y="36.3" class="st14 st15">parte de la planificación </tspan><tspan x="0" y="45.4" class="st14 st15">con sus propósitos.</tspan></text>
<rect x="383.3" y="161.3" class="st11" width="85.7" height="61.3"/>
<text transform="matrix(1 0 0 1 383.2969 166.8584)"><tspan x="0" y="0" class="st14 st15">Valida los elementos </tspan><tspan x="0" y="9.1" class="st14 st15">que hacen parte de la </tspan><tspan x="0" y="18.1" class="st14 st15">planificación con sus </tspan><tspan x="0" y="27.2" class="st14 st15">propósitos.</tspan></text>
<g id="XMLID_26748_">
	<path id="XMLID_26749_" class="st1" d="M103.3,90.1c-3.4,0-6.9,0-10.3,0c1.1-1.1,2.2-2.3,3.3-3.4c0.1,0,0.1,0,0.2,0c0,0,0,0,0,0
		c0,0,0,0,0,0c0.1,0,0.2-0.1,0.3-0.3c2.2-5.3,4.4-10.6,6.6-15.8c0.3-0.7,0.6-1.5,0.9-2.2c0-0.1,0-0.1,0-0.1c0.4-1.4-0.1-3-1.6-3.6
		c-1.4-0.6-3.1,0.1-3.7,1.5c-2.2,5.3-4.4,10.6-6.6,15.8c-0.3,0.7-0.6,1.5-0.9,2.2c-0.1,0.2,0,0.4,0.1,0.5c0,0.4,0,0.9,0,1.3
		c0,0.2,0,0.4,0,0.6c0,1.2,0,2.3-0.1,3.5c-4.9,0-9.9,0-14.8,0c-0.7,0-0.7,1.4,0,1.4c8.8,0,17.7,0,26.5,0
		C104,91.5,104,90.1,103.3,90.1z M103.5,67.3c-1.1-0.4-2.1-0.9-3.2-1.3C101.3,64.6,103.7,65.6,103.5,67.3z M99.1,68.7
		c0.2-0.6,0.5-1.2,0.7-1.8c1.1,0.5,2.2,0.9,3.3,1.4c-2.1,5.1-4.3,10.2-6.4,15.4c-0.2,0.6-0.5,1.2-0.7,1.8c-1.1-0.5-2.2-0.9-3.3-1.4
		C94.8,78.9,97,73.8,99.1,68.7z M92.7,85.4c0.8,0.3,1.6,0.7,2.5,1c-0.5,0.5-0.9,1-1.4,1.5c-0.4-0.2-0.7-0.3-1.1-0.5
		C92.6,86.7,92.7,86,92.7,85.4z"/>
</g>
<g id="XMLID_28171_">
	<path id="XMLID_28181_" class="st1" d="M213.3,85.1c0.4,0.1,0.7-0.2,0.8-0.5l0.5-2.9c0-0.2,0-0.3-0.1-0.5c-0.1-0.1-0.2-0.2-0.4-0.3
		l-1.1-0.2c-0.1-0.6-0.2-1.2-0.4-1.8l0.9-0.6c0.3-0.2,0.4-0.6,0.2-0.9l-1.6-2.4c-0.1-0.1-0.2-0.2-0.4-0.3c-0.2,0-0.3,0-0.5,0.1
		l-0.9,0.6c-0.5-0.4-1-0.7-1.5-1l0.2-1.1c0.1-0.4-0.2-0.7-0.5-0.8l-2.9-0.5c-0.2,0-0.3,0-0.5,0.1c-0.1,0.1-0.2,0.2-0.3,0.4l-0.2,1.1
		c-0.6,0.1-1.2,0.2-1.8,0.4l-0.6-0.9c-0.1-0.1-0.2-0.2-0.4-0.3c-0.2,0-0.3,0-0.5,0.1l-2.4,1.6c-0.1,0.1-0.2,0.2-0.3,0.4
		c0,0.2,0,0.3,0.1,0.5l0.6,0.9c-0.4,0.5-0.7,1-1,1.5l-1.1-0.2c-0.2,0-0.3,0-0.5,0.1c-0.1,0.1-0.2,0.2-0.3,0.4l-0.5,2.9
		c-0.1,0.4,0.2,0.7,0.5,0.8l1.1,0.2c0.1,0.6,0.2,1.2,0.4,1.8l-0.9,0.6c-0.1,0.1-0.2,0.2-0.3,0.4c0,0.2,0,0.3,0.1,0.5l1.6,2.4
		c0.1,0.1,0.2,0.2,0.4,0.3c0.2,0,0.3,0,0.5-0.1l0.9-0.6c0.5,0.4,1,0.7,1.5,1l-0.2,1.1c-0.1,0.4,0.2,0.7,0.5,0.8l2.9,0.5
		c0,0,0.1,0,0.1,0c0.3,0,0.6-0.2,0.6-0.5l0.2-1.1c0.6-0.1,1.2-0.2,1.8-0.4l0.6,0.9c0.1,0.1,0.2,0.2,0.4,0.3c0.2,0,0.3,0,0.5-0.1
		l2.4-1.6c0.3-0.2,0.4-0.6,0.2-0.9l-0.6-0.9c0.4-0.5,0.7-1,1-1.5L213.3,85.1z M211.2,83.9c-0.3,0.7-0.8,1.4-1.3,2
		c-0.2,0.2-0.2,0.6-0.1,0.8l0.6,0.8l-1.3,0.9l-0.6-0.8c-0.2-0.3-0.5-0.4-0.8-0.2c-0.8,0.3-1.5,0.5-2.3,0.5c-0.3,0-0.6,0.2-0.6,0.5
		l-0.2,1l-1.6-0.3l0.2-1c0.1-0.3-0.1-0.6-0.4-0.7c-0.7-0.3-1.4-0.8-2-1.3c-0.2-0.2-0.6-0.2-0.8-0.1l-0.8,0.6l-0.9-1.3l0.8-0.6
		c0.3-0.2,0.4-0.5,0.2-0.8c-0.3-0.8-0.5-1.5-0.5-2.3c0-0.3-0.2-0.6-0.5-0.6l-1-0.2l0.3-1.6l1,0.2c0.3,0.1,0.6-0.1,0.7-0.4
		c0.3-0.7,0.8-1.4,1.3-2c0.2-0.2,0.2-0.6,0.1-0.8l-0.6-0.8l1.3-0.9l0.6,0.8c0.2,0.3,0.5,0.4,0.8,0.2c0.8-0.3,1.5-0.5,2.3-0.5
		c0.3,0,0.6-0.2,0.6-0.5l0.2-1l1.6,0.3l-0.2,1c-0.1,0.3,0.1,0.6,0.4,0.7c0.7,0.3,1.4,0.8,2,1.3c0.2,0.2,0.6,0.2,0.8,0.1l0.8-0.6
		l0.9,1.3l-0.8,0.6c-0.3,0.2-0.4,0.5-0.2,0.8c0.3,0.8,0.5,1.5,0.5,2.3c0,0.3,0.2,0.6,0.5,0.6l1,0.2l-0.3,1.6l-1-0.2
		C211.6,83.4,211.3,83.6,211.2,83.9z"/>
	<path id="XMLID_28178_" class="st1" d="M206.1,76.8c-1.2-0.2-2.5,0-3.5,0.7c-1,0.7-1.7,1.8-2,3c-0.2,1.2,0,2.5,0.7,3.5
		c0.7,1,1.8,1.7,3,2l0,0c0.3,0.1,0.6,0.1,0.9,0.1c2.2,0,4.2-1.6,4.6-3.8C210.3,79.7,208.6,77.2,206.1,76.8z M208.5,82
		c-0.2,0.9-0.7,1.7-1.4,2.2c-0.7,0.5-1.6,0.7-2.5,0.5l0,0c-0.9-0.2-1.7-0.7-2.2-1.4c-0.5-0.7-0.7-1.6-0.5-2.5
		c0.2-0.9,0.7-1.7,1.4-2.2c0.6-0.4,1.2-0.6,1.9-0.6c0.2,0,0.4,0,0.6,0.1C207.7,78.4,208.9,80.2,208.5,82z"/>
	<path id="XMLID_28175_" class="st1" d="M184.4,74.3c0,0.3,0.3,0.5,0.6,0.4l0.8-0.1c0.2,0.4,0.4,0.8,0.7,1.2l-0.5,0.7
		c-0.1,0.1-0.1,0.2-0.1,0.4c0,0.1,0.1,0.2,0.2,0.3l1.8,1.3c0.2,0.2,0.5,0.1,0.7-0.1l0.5-0.7c0.4,0.2,0.9,0.3,1.3,0.3l0.1,0.8
		c0,0.1,0.1,0.2,0.2,0.3c0.1,0.1,0.2,0.1,0.3,0.1c0,0,0,0,0.1,0l2.2-0.3c0.3,0,0.5-0.3,0.4-0.6l-0.1-0.8c0.4-0.2,0.8-0.4,1.2-0.7
		l0.7,0.5c0.2,0.2,0.5,0.1,0.7-0.1l1.3-1.8c0.2-0.2,0.1-0.5-0.1-0.7l-0.7-0.5c0.2-0.4,0.3-0.9,0.3-1.3l0.8-0.1
		c0.1,0,0.2-0.1,0.3-0.2c0.1-0.1,0.1-0.2,0.1-0.4l-0.3-2.2c0-0.3-0.3-0.5-0.6-0.4l-0.8,0.1c-0.2-0.4-0.4-0.8-0.7-1.2l0.5-0.7
		c0.1-0.1,0.1-0.2,0.1-0.4c0-0.1-0.1-0.2-0.2-0.3l-1.8-1.3c-0.1-0.1-0.2-0.1-0.4-0.1c-0.1,0-0.2,0.1-0.3,0.2l-0.5,0.7
		c-0.4-0.2-0.9-0.3-1.3-0.3l-0.1-0.8c0-0.3-0.3-0.5-0.6-0.4l-2.2,0.3c-0.1,0-0.2,0.1-0.3,0.2c-0.1,0.1-0.1,0.2-0.1,0.4l0.1,0.8
		c-0.4,0.2-0.8,0.4-1.2,0.7l-0.7-0.5c-0.1-0.1-0.2-0.1-0.4-0.1c-0.1,0-0.2,0.1-0.3,0.2l-1.3,1.8c-0.1,0.1-0.1,0.2-0.1,0.4
		c0,0.1,0.1,0.2,0.2,0.3l0.7,0.5c-0.2,0.4-0.3,0.9-0.3,1.3l-0.8,0.1c-0.1,0-0.2,0.1-0.3,0.2c-0.1,0.1-0.1,0.2-0.1,0.4L184.4,74.3z
		 M185.8,72.4c0.2,0,0.4-0.2,0.4-0.5c0-0.6,0.2-1.2,0.4-1.7c0.1-0.2,0-0.5-0.2-0.6l-0.6-0.4l0.7-1l0.6,0.4c0.2,0.1,0.4,0.1,0.6,0
		c0.5-0.4,1-0.7,1.5-0.9c0.2-0.1,0.4-0.3,0.3-0.5l-0.1-0.7l1.2-0.2L191,67c0,0.2,0.2,0.4,0.5,0.4c0.6,0,1.2,0.2,1.7,0.4
		c0.2,0.1,0.5,0,0.6-0.2l0.4-0.6l1,0.7l-0.4,0.6c-0.1,0.2-0.1,0.4,0,0.6c0.4,0.5,0.7,1,0.9,1.5c0.1,0.2,0.3,0.4,0.5,0.3l0.7-0.1
		l0.2,1.2l-0.7,0.1c-0.2,0-0.4,0.2-0.4,0.5c0,0.6-0.2,1.2-0.4,1.7c-0.1,0.2,0,0.5,0.2,0.6l0.6,0.4l-0.7,1l-0.6-0.4
		c-0.2-0.1-0.4-0.1-0.6,0c-0.5,0.4-1,0.7-1.5,0.9c-0.2,0.1-0.4,0.3-0.3,0.5l0.1,0.7l-1.2,0.2l-0.1-0.7c0-0.2-0.2-0.4-0.5-0.4
		c-0.6,0-1.2-0.2-1.7-0.4c-0.1,0-0.1,0-0.2,0c-0.2,0-0.3,0.1-0.4,0.2l-0.4,0.6l-1-0.7l0.4-0.6c0.1-0.2,0.1-0.4,0-0.6
		c-0.4-0.5-0.7-1-0.9-1.5c-0.1-0.2-0.3-0.4-0.5-0.3l-0.7,0.1l-0.2-1.2L185.8,72.4z"/>
	<path id="XMLID_28172_" class="st1" d="M191.1,75.8c0.2,0,0.3,0,0.5,0c1.9-0.3,3.3-2.1,3-4c-0.3-1.9-2.1-3.3-4-3
		c-1.9,0.3-3.3,2.1-3,4C187.9,74.5,189.4,75.8,191.1,75.8z M190.7,69.7c0.1,0,0.2,0,0.4,0c1.2,0,2.3,0.9,2.5,2.2
		c0.2,1.4-0.8,2.7-2.2,2.9c-1.4,0.2-2.7-0.8-2.9-2.2C188.4,71.2,189.4,69.9,190.7,69.7z"/>
</g>
<g id="XMLID_26276_">
	<path id="XMLID_26277_" class="st1" d="M414,91.9c6.2,0,11.3-5.1,11.3-11.3c0-2.9-1.1-5.6-3-7.6l2.1-2.1c0.1,0.1,0.2,0.2,0.3,0.2
		l4.4,0.5c0,0,0,0,0.1,0c0.2,0,0.4-0.2,0.5-0.4c0-0.3-0.2-0.5-0.4-0.5l-4.2-0.5l1.2-1.2c0,0,0,0,0.1,0l4.4,0.5c0,0,0,0,0.1,0
		c0.2,0,0.4-0.2,0.5-0.4c0-0.3-0.2-0.5-0.4-0.5l-3.8-0.4l2.3-2.3c0.2-0.2,0.2-0.5,0-0.7c-0.2-0.2-0.5-0.2-0.7,0l-2.3,2.3l-1.2-3.2
		c-0.1-0.2-0.4-0.4-0.6-0.3c-0.2,0.1-0.4,0.4-0.3,0.6l1.4,3.5c0,0,0,0,0,0l-1,1l-1.2-3.3c-0.1-0.2-0.4-0.4-0.6-0.3
		c-0.2,0.1-0.4,0.4-0.3,0.6l1.4,3.6c0,0,0,0,0,0l-2.4,2.4c-2-1.9-4.7-3-7.6-3c-6.2,0-11.3,5.1-11.3,11.3
		C402.7,86.9,407.8,91.9,414,91.9z M414,70.3c2.7,0,5.1,1,7,2.7l-2.2,2.2c-1.3-1.1-2.9-1.8-4.7-1.8c-4,0-7.2,3.2-7.2,7.2
		c0,4,3.2,7.2,7.2,7.2c4,0,7.2-3.2,7.2-7.2c0-1.8-0.7-3.5-1.8-4.7l2.2-2.2c1.7,1.8,2.7,4.3,2.7,7c0,5.7-4.6,10.3-10.3,10.3
		c-5.7,0-10.3-4.6-10.3-10.3C403.7,74.9,408.3,70.3,414,70.3z M413.7,81c0.1,0.1,0.2,0.1,0.3,0.1c0.1,0,0.2,0,0.3-0.1l1.5-1.5
		c0.2,0.3,0.3,0.7,0.3,1.1c0,1.2-1,2.1-2.1,2.1c-1.2,0-2.1-1-2.1-2.1c0-1.2,1-2.1,2.1-2.1c0.4,0,0.8,0.1,1.1,0.3l-1.5,1.5
		C413.5,80.5,413.5,80.8,413.7,81z M415.8,78.2c-0.5-0.4-1.1-0.6-1.8-0.6c-1.7,0-3.1,1.4-3.1,3.1c0,1.7,1.4,3.1,3.1,3.1
		c1.7,0,3.1-1.4,3.1-3.1c0-0.7-0.2-1.3-0.6-1.8l2.3-2.3c0.9,1.1,1.5,2.5,1.5,4.1c0,3.4-2.8,6.2-6.2,6.2c-3.4,0-6.2-2.8-6.2-6.2
		c0-3.4,2.8-6.2,6.2-6.2c1.5,0,3,0.6,4.1,1.5L415.8,78.2z"/>
</g>
<g id="XMLID_26707_">
	<path id="XMLID_26714_" class="st1" d="M320.7,69.6c0-0.1-0.1-0.1-0.1-0.1l0,0c-0.2-0.2-0.5-0.3-0.8-0.2c-0.3,0.1-0.5,0.3-0.6,0.6
		c-0.1,0.2-0.2,0.5-0.4,0.6c-0.4,0.3-0.9,0.4-1.4,0.3c-0.5-0.2-0.9-0.6-0.9-1.3c0,0,0-0.1,0-0.1c0.1-0.7,0.6-1.1,1.1-1.2
		c0.3-0.1,0.5-0.3,0.6-0.5c0.1-0.3,0-0.6-0.2-0.8l-1.9-2c-0.1-0.1-0.2-0.2-0.4-0.2c0,0-0.1,0-0.1,0c-0.2,0-0.4,0.1-0.5,0.2l-1.8,1.6
		c-0.1-0.2-0.2-0.5-0.4-0.7c-0.8-0.9-2.3-1-3.2-0.1c-0.9,0.9-1,2.3-0.1,3.2c0.2,0.2,0.4,0.4,0.6,0.5l-1.8,1.7c0,0-0.1,0.1-0.1,0.1
		c-0.1,0.1-0.1,0.3-0.2,0.4c0,0,0,0.1,0,0.1c0,0.2,0.1,0.3,0.2,0.4l1.9,2.1c0.2,0.2,0.5,0.3,0.8,0.2c0.3-0.1,0.5-0.3,0.6-0.6
		c0.2-0.6,0.6-0.9,1.3-1c0,0,0.1,0,0.1,0c0.6,0.1,1,0.5,1.2,1c0.1,0.5,0,1-0.4,1.3c-0.2,0.2-0.4,0.3-0.7,0.3c-0.3,0-0.5,0.3-0.6,0.5
		c-0.1,0.3,0,0.6,0.2,0.8l0,0c0,0,0.1,0.1,0.1,0.1l1.8,1.9c0.1,0.1,0.3,0.2,0.5,0.2c0,0,0,0,0.1,0c0,0,0,0,0.1,0
		c0.1,0,0.2,0,0.3-0.1c0,0,0.1-0.1,0.2-0.1l2-1.8c0,0,0,0,0.1-0.1c0.1-0.2,0.2-0.5,0.1-0.7c-0.1-0.2-0.2-0.4-0.5-0.5
		c-0.2-0.1-0.4-0.2-0.5-0.3c-0.2-0.3-0.4-0.6-0.3-1c0-0.4,0.2-0.7,0.5-0.9c0,0,0,0,0,0c0.3-0.3,0.6-0.4,1-0.4c0.4,0,0.7,0.2,1,0.4
		c0.1,0.2,0.2,0.3,0.3,0.5c0.1,0.2,0.2,0.4,0.5,0.5c0.2,0.1,0.5,0.1,0.7-0.1c0,0,0.1,0,0.1-0.1l1.9-1.8c0.1-0.1,0.2-0.2,0.2-0.4
		c0,0,0-0.1,0-0.1c0-0.2-0.1-0.4-0.2-0.5L320.7,69.6z M320.1,73.5c-0.1-0.2-0.2-0.4-0.4-0.6c-0.4-0.5-1-0.7-1.7-0.7
		c-0.6,0-1.2,0.2-1.7,0.7c-0.5,0.4-0.8,1-0.8,1.6c0,0.6,0.2,1.2,0.6,1.7c0.2,0.2,0.4,0.3,0.6,0.5l-1.5,1.4l-1.5-1.7
		c0.3-0.1,0.6-0.3,0.8-0.5c0.6-0.6,0.9-1.5,0.7-2.3c-0.2-0.9-0.9-1.5-1.9-1.7c-0.1,0-0.3,0-0.4,0c-0.9,0.1-1.7,0.7-2,1.4l-1.5-1.6
		l1.8-1.7c0.1-0.1,0.1-0.2,0.2-0.2c0.1-0.2,0.1-0.4,0.1-0.6c-0.1-0.2-0.2-0.4-0.5-0.5c-0.2-0.1-0.4-0.2-0.5-0.3
		c-0.5-0.5-0.5-1.4,0.1-1.9c0.5-0.5,1.4-0.4,1.9,0.1c0.1,0.2,0.2,0.3,0.3,0.5c0.1,0.2,0.2,0.4,0.4,0.5c0.2,0.1,0.4,0.1,0.6,0
		c0.1,0,0.2-0.1,0.3-0.2l1.8-1.6l1.5,1.6c-0.8,0.3-1.4,0.9-1.6,1.9c0,0.1,0,0.3,0,0.4c0.1,1,0.7,1.7,1.6,2c0.8,0.3,1.7,0.1,2.3-0.5
		c0.2-0.2,0.4-0.5,0.5-0.8l1.5,1.7L320.1,73.5z"/>
	<path id="XMLID_26708_" class="st1" d="M296.3,91.1c0,0.4,0.4,0.8,0.8,0.8c0,0,0,0,0,0l9-0.1c0,0,0,0,0.1,0c0.1,0,0.2,0.1,0.3,0.1
		l2.8,0c0,0,0.1,0,0.1,0c0.2,0,0.4-0.2,0.5-0.4c0.1-0.2,0.1-0.5,0-0.7c-0.1-0.3-0.3-0.8,0.2-1.6c0,0,0-0.1,0.1-0.1
		c0.3-0.2,0.6-0.3,1-0.3c0.7,0,1.3,0.6,1.3,1.3c0,0.2,0,0.4-0.1,0.6c-0.1,0.2-0.1,0.5,0,0.7c0.1,0.2,0.3,0.4,0.6,0.4
		c0,0,0.1,0,0.1,0l2.7,0c0.2,0,0.4-0.1,0.6-0.2c0.1-0.1,0.2-0.3,0.2-0.6l0-2.8c0-0.4-0.3-0.8-0.8-0.8c-0.2,0-0.3,0-0.4,0.1
		c-0.2,0.1-0.5,0.2-0.7,0.2c-0.5,0-1-0.3-1.2-0.7c-0.3-0.5-0.2-1,0.2-1.6c0,0,0-0.1,0.1-0.1c0.3-0.2,0.6-0.3,1-0.3
		c0.3,0,0.5,0.1,0.7,0.2c0.3,0.2,0.7,0.1,1-0.1c0.1-0.1,0.2-0.3,0.2-0.5l0-2.8c0-0.4-0.4-0.8-0.8-0.8l-2.4,0
		c0.1-0.2,0.1-0.5,0.1-0.8c0-1.3-1-2.3-2.3-2.3c-0.5,0-1,0.2-1.5,0.5c0.1-0.1,0.1-0.2,0.2-0.3c0.4-0.8,0.3-1.8-0.2-2.6
		c-0.1-0.1-0.2-0.2-0.3-0.3c-0.7-0.5-1.5-0.6-2.3-0.4l0-2.4c0-0.4-0.4-0.8-0.8-0.8l-2.4,0c0.3-0.7,0.1-1.6-0.4-2.3
		c-0.1-0.1-0.2-0.2-0.3-0.3c-0.5-0.3-1-0.5-1.5-0.5c0,0,0,0,0,0c-0.6,0-1.2,0.2-1.6,0.7c-0.4,0.4-0.7,1-0.7,1.6c0,0.3,0,0.5,0.1,0.8
		l-2.4,0c-0.2,0-0.4,0.1-0.6,0.2c-0.1,0.1-0.2,0.3-0.2,0.6l0,2.8c0,0,0,0.1,0,0.1c0.1,0.4,0.4,0.6,0.8,0.6c0.1,0,0.2,0,0.4-0.1
		c0.5-0.2,1-0.2,1.6,0.2c0,0,0.1,0,0.1,0.1c0.4,0.5,0.4,1.1,0.2,1.6c-0.2,0.4-0.7,0.7-1.2,0.7c-0.2,0-0.4,0-0.6-0.1
		c-0.1-0.1-0.2-0.1-0.3-0.1c-0.4,0-0.7,0.3-0.8,0.6c0,0,0,0.1,0,0.1l0,2.7c0,0.1,0,0.1,0,0.2c0,0,0,0,0,0l0,2.3
		c-0.7-0.3-1.6-0.1-2.3,0.4c-0.1,0.1-0.2,0.2-0.3,0.3c-0.6,0.8-0.6,1.8-0.2,2.6c0.4,0.8,1.2,1.2,2.1,1.2c0.3,0,0.5,0,0.8-0.1
		L296.3,91.1z M309.8,81.8c0.1-0.2,0.2-0.5,0-0.8c-0.1-0.3-0.3-0.8,0.2-1.5c0,0,0-0.1,0.1-0.1c0.3-0.2,0.6-0.3,1-0.3
		c0.7,0,1.3,0.6,1.3,1.3c0,0.2,0,0.4-0.1,0.6c-0.1,0.2-0.1,0.5,0,0.7c0.1,0.2,0.4,0.4,0.7,0.4l2.5,0l0,2.3c-0.8-0.3-1.7-0.2-2.4,0.3
		c-0.1,0.1-0.2,0.2-0.3,0.3c-0.6,0.8-0.6,1.8-0.2,2.6c0.4,0.8,1.2,1.2,2.1,1.2c0.3,0,0.7-0.1,1-0.2l0,2.3l-2.1,0
		c0.1-0.2,0.1-0.5,0.1-0.8c0-1.3-1-2.3-2.3-2.3c-0.5,0-1,0.2-1.5,0.5c-0.1,0.1-0.2,0.2-0.3,0.3c-0.5,0.7-0.6,1.5-0.4,2.3l-2.3,0
		l0-2.5c0-0.4-0.4-0.8-0.8-0.8c-0.1,0-0.2,0-0.4,0.1c-0.2,0.1-0.4,0.2-0.6,0.2c-0.5,0-1-0.3-1.2-0.7c-0.3-0.5-0.2-1,0.2-1.6
		c0,0,0-0.1,0.1-0.1c0.5-0.4,1.1-0.4,1.6-0.2c0.3,0.2,0.7,0.1,0.9-0.1c0.1-0.1,0.2-0.3,0.2-0.6l0-2.5l2.5,0
		C309.4,82.1,309.6,82,309.8,81.8z M308.8,81.2l-1.9,0l0-1.8c0.2,0.1,0.5,0.1,0.8,0.1c0.5,0,1.1-0.2,1.5-0.5
		C308.7,79.7,308.6,80.5,308.8,81.2z M298,79.6c0.9,0,1.6-0.5,2-1.2c0.4-0.8,0.3-1.8-0.2-2.6c-0.1-0.1-0.2-0.2-0.3-0.3
		c-0.7-0.5-1.5-0.6-2.3-0.4l0-2.3l2.5,0c0.3,0,0.5-0.1,0.7-0.4c0.1-0.2,0.1-0.5,0-0.8c-0.1-0.2-0.2-0.4-0.2-0.6c0-0.4,0.1-0.7,0.4-1
		c0.3-0.3,0.6-0.4,1-0.4h0c0.3,0,0.6,0.1,0.9,0.3c0,0,0.1,0,0.1,0.1c0.4,0.5,0.4,1.1,0.2,1.6c-0.1,0.2-0.1,0.5,0,0.8
		c0.1,0.2,0.4,0.4,0.7,0.4l2.5,0l0,2.5c0,0.4,0.4,0.8,0.8,0.8c0.1,0,0.2,0,0.4-0.1c0.5-0.2,1-0.2,1.6,0.2c0,0,0.1,0,0.1,0.1
		c0.4,0.5,0.4,1.1,0.2,1.6c-0.2,0.4-0.7,0.7-1.2,0.7c-0.2,0-0.4,0-0.6-0.1c-0.3-0.1-0.7-0.1-0.9,0.1c-0.1,0.1-0.2,0.3-0.2,0.6l0,2.3
		c0,0-0.1,0.1-0.1,0.1v0h0l0,0c0,0,0,0.1,0,0.1l-2.4,0c-0.1,0-0.2-0.1-0.3-0.1c-0.1-0.1,0-0.2,0-0.3c0.4-0.7,0.4-1.5-0.1-2.2
		c-0.1-0.1-0.1-0.1-0.2-0.2c-0.4-0.3-0.8-0.4-1.2-0.4c-0.5,0-0.9,0.2-1.3,0.5c-0.3,0.3-0.5,0.8-0.5,1.3c0,0.3,0.1,0.7,0.3,1
		c0.1,0.1,0.1,0.2,0,0.3c-0.1,0.1-0.1,0.2-0.3,0.2l-2.6,0l0-2.1C297.4,79.6,297.7,79.6,298,79.6z M295.5,87.9c-0.5,0-1-0.3-1.2-0.7
		c-0.3-0.5-0.2-1,0.2-1.6c0,0,0,0,0.1-0.1c0.5-0.4,1.1-0.4,1.6-0.2c0.2,0.1,0.5,0.1,0.8,0c0.2-0.1,0.4-0.4,0.4-0.7l0-2l2.6,0
		c0.5,0,0.9-0.3,1.1-0.7c0.2-0.4,0.2-0.9-0.1-1.3c-0.1-0.1-0.1-0.3-0.1-0.5c0-0.2,0.1-0.4,0.2-0.6c0.3-0.3,0.8-0.3,1.2,0
		c0.2,0.2,0.4,0.7,0.1,1.1c-0.2,0.4-0.3,0.9,0,1.3c0.2,0.4,0.6,0.6,1.1,0.6l2.3,0l0,1.8c-0.7-0.3-1.6-0.1-2.3,0.4
		c-0.1,0.1-0.2,0.2-0.3,0.3c-0.6,0.8-0.6,1.8-0.2,2.6c0.4,0.8,1.2,1.2,2.1,1.2c0.3,0,0.5,0,0.8-0.1l0,2.1c0,0,0,0-0.1,0.1l-8.4,0
		l0-2.5c0-0.3-0.1-0.5-0.4-0.7c-0.2-0.1-0.5-0.1-0.8,0C296,87.8,295.8,87.9,295.5,87.9z"/>
</g>
</svg>
