<svg xmlns="http://www.w3.org/2000/svg" xmlns:xlink="http://www.w3.org/1999/xlink" viewBox="0 0 1697.54 540.57"><defs><linearGradient id="b13e5879-bdb8-4669-be81-589afbccd1b0" x1="1429.29" y1="34.57" x2="1429.29" y2="461.81" gradientUnits="userSpaceOnUse"><stop offset="0" stop-color="#ff8731"/><stop offset="0.16" stop-color="#ff972e"/><stop offset="0.44" stop-color="#ffab2a"/><stop offset="0.72" stop-color="#ffb728"/><stop offset="1" stop-color="#ffbb27"/></linearGradient><linearGradient id="b0af19a7-3297-4d78-a3e1-c3ed935d5a34" x1="413.13" y1="-1443.45" x2="520.04" y2="-1443.45" gradientTransform="translate(-631.7 26.03) rotate(90)" gradientUnits="userSpaceOnUse"><stop offset="0" stop-color="#0067a4"/><stop offset="0.18" stop-color="#0070b1"/><stop offset="0.71" stop-color="#0086d5"/><stop offset="1" stop-color="#008fe2"/></linearGradient><linearGradient id="e1164628-c786-4f4c-b1c0-0f8465bb105a" x1="811.75" y1="466.89" x2="811.75" gradientUnits="userSpaceOnUse"><stop offset="0" stop-color="#00bbde"/><stop offset="1" stop-color="#008fe2"/></linearGradient><linearGradient id="bdac2555-40bf-4ca8-87c0-d408f7458ff1" x1="1429.29" y1="512.09" x2="1429.29" y2="472.41" gradientUnits="userSpaceOnUse"><stop offset="0" stop-color="#ffbb27"/><stop offset="0.29" stop-color="#ffa22b"/><stop offset="0.75" stop-color="#ff7e32"/><stop offset="1" stop-color="#ff7134"/></linearGradient><linearGradient id="e7ba4f32-f309-4f9c-b1ce-28de61e076e6" x1="588.13" y1="111.78" x2="608.13" y2="111.78" gradientUnits="userSpaceOnUse"><stop offset="0" stop-color="#008fe2"/><stop offset="1" stop-color="#00bbde"/></linearGradient><linearGradient id="bf7bba97-31b3-4ea3-b191-483e8c66ae38" x1="588.13" y1="218.75" x2="608.13" y2="218.75" xlink:href="#e7ba4f32-f309-4f9c-b1ce-28de61e076e6"/><linearGradient id="ed7b2ba5-478f-4adf-a10e-0bbcb2870916" x1="1212.13" y1="111.75" x2="1232.13" y2="111.75" gradientUnits="userSpaceOnUse"><stop offset="0" stop-color="#ffbb27"/><stop offset="0.28" stop-color="#ffb728"/><stop offset="0.56" stop-color="#ffab2a"/><stop offset="0.84" stop-color="#ff972e"/><stop offset="1" stop-color="#ff8731"/></linearGradient><linearGradient id="f6cd95a6-c14e-4a3d-a967-f33fd8253fa7" x1="1212.13" y1="211.75" x2="1232.13" y2="211.75" xlink:href="#ed7b2ba5-478f-4adf-a10e-0bbcb2870916"/><linearGradient id="ab3edbf3-0d93-43f1-8af0-3b0bf5aee271" x1="1212.13" y1="313.75" x2="1232.13" y2="313.75" xlink:href="#ed7b2ba5-478f-4adf-a10e-0bbcb2870916"/><linearGradient id="be6698a1-8ee3-4830-8e7e-4b34d54cb1c1" x1="588.13" y1="313.75" x2="608.13" y2="313.75" xlink:href="#e7ba4f32-f309-4f9c-b1ce-28de61e076e6"/></defs><g id="bbe3ae5b-68c9-464d-843c-9683b3d344a5" data-name="Layer 2"><g id="bc30928a-d185-48d5-8393-3305f3195628" data-name="textos"><rect x="1161.03" width="536.51" height="466.89" rx="17.3" style="fill:url(#b13e5879-bdb8-4669-be81-589afbccd1b0)"/><path d="M730.25,539.48,909.42,463.7l-41.88-.23H714.09V533.2C714.09,539,723.17,542.48,730.25,539.48Z" style="fill:url(#b0af19a7-3297-4d78-a3e1-c3ed935d5a34)"/><rect x="543.5" width="536.51" height="466.89" rx="17.3" style="fill:url(#e1164628-c786-4f4c-b1c0-0f8465bb105a)"/><rect x="570.13" y="64.75" width="475" height="358" rx="32.15" style="fill:#fff"/><rect x="1192.13" y="64.75" width="475" height="358" rx="32.15" style="fill:#fff"/><path d="M1347.78,539.48,1527,463.7l-41.88-.23H1331.62V533.2C1331.62,539,1340.7,542.48,1347.78,539.48Z" style="fill:url(#bdac2555-40bf-4ca8-87c0-d408f7458ff1)"/><text transform="translate(716.74 45.54)" style="font-size:29px;fill:#fff;font-family:Poppins-Black, Poppins;font-weight:800">EL PROFESOR</text><text transform="translate(1320 45.54)" style="font-size:29px;fill:#fff;font-family:Poppins-Black, Poppins;font-weight:800">EL ESTUDIANTE</text><text transform="translate(29.95 118.85)" style="font-size:26px;fill:#1d1d1b;font-family:Poppins-Regular, Poppins">Feed up</text><text transform="translate(18.37 223.82)" style="font-size:26px;fill:#1d1d1b;font-family:Poppins-Regular, Poppins">Feedback</text><text transform="translate(0 325.83)" style="font-size:26px;fill:#1d1d1b;font-family:Poppins-Regular, Poppins">Feedforward</text><text transform="translate(261.85 118.85)" style="font-size:26px;fill:#1d1d1b;font-family:Poppins-Regular, Poppins">¿Dónde voy?</text><text transform="translate(264.46 223.82)" style="font-size:26px;fill:#1d1d1b;font-family:Poppins-Regular, Poppins">¿Cómo voy?</text><text transform="translate(252.17 325.83)" style="font-size:26px;fill:#1d1d1b;font-family:Poppins-Regular, Poppins">¿Y ahora qué?</text><text transform="translate(620.25 117.06)" style="font-size:18px;fill:#2e2d2c;font-family:Poppins-Regular, Poppins">Información<tspan x="109.21" y="0" style="letter-spacing:0.2805989583333333em"> </tspan><tspan x="119.06" y="0">que</tspan><tspan x="153.91" y="0" style="letter-spacing:0.2805989583333333em"> </tspan><tspan x="163.77" y="0">indica</tspan><tspan x="219.4" y="0" style="letter-spacing:0.2805989583333333em"> </tspan><tspan x="229.26" y="0" style="text-decoration:underline">hasta</tspan><tspan x="281.06" y="0" style="text-decoration:underline;letter-spacing:0.2805989583333333em"> </tspan><tspan x="290.92" y="0" style="text-decoration:underline">dónde</tspan><tspan x="349.46" y="0" style="text-decoration:underline;letter-spacing:0.2805989583333333em"> </tspan><tspan x="359.31" y="0">ha </tspan><tspan x="0" y="21.6">alcanzado</tspan><tspan x="95.26" y="21.6" style="letter-spacing:0.2526041666666667em"> </tspan><tspan x="104.61" y="21.6">el</tspan><tspan x="120.2" y="21.6" style="letter-spacing:0.2526312934027778em"> </tspan><tspan x="129.55" y="21.6">resultado</tspan><tspan x="215.17" y="21.6" style="letter-spacing:0.2526041666666667em"> </tspan><tspan x="224.53" y="21.6">de</tspan><tspan x="247.86" y="21.6" style="letter-spacing:0.2526041666666667em"> </tspan><tspan x="257.21" y="21.6">aprendizaje</tspan><tspan x="363.52" y="21.6" style="letter-spacing:0.2526312934027778em"> </tspan><tspan x="372.87" y="21.6">y </tspan><tspan x="0" y="43.2">cuál</tspan><tspan x="39.04" y="43.2" style="letter-spacing:0.3245713975694444em"> </tspan><tspan x="49.69" y="43.2">es</tspan><tspan x="70.25" y="43.2" style="letter-spacing:0.3245985243055556em"> </tspan><tspan x="80.9" y="43.2">la</tspan><tspan x="97.49" y="43.2" style="letter-spacing:0.3245713975694444em"> </tspan><tspan x="108.14" y="43.2">diferencia</tspan><tspan x="198.73" y="43.2" style="letter-spacing:0.3245985243055556em"> </tspan><tspan x="209.38" y="43.2">con</tspan><tspan x="243.35" y="43.2" style="letter-spacing:0.3245713975694444em"> </tspan><tspan x="254" y="43.2">respecto</tspan><tspan x="333.59" y="43.2" style="letter-spacing:0.3245985243055556em"> </tspan><tspan x="344.24" y="43.2">a</tspan><tspan x="356.41" y="43.2" style="letter-spacing:0.3245713975694444em"> </tspan><tspan x="367.06" y="43.2">lo </tspan><tspan x="0" y="64.8">esperado. </tspan></text><text transform="translate(620.79 222.03)" style="font-size:18px;fill:#2e2d2c;font-family:Poppins-Regular, Poppins">Información<tspan x="109.21" y="0" style="letter-spacing:0.4829915364583333em"> </tspan><tspan x="122.71" y="0">que</tspan><tspan x="157.55" y="0" style="letter-spacing:0.4829915364583333em"> </tspan><tspan x="171.05" y="0">le</tspan><tspan x="186.64" y="0" style="letter-spacing:0.4829915364583333em"> </tspan><tspan x="200.14" y="0">indica</tspan><tspan x="255.78" y="0" style="letter-spacing:0.4829915364583333em"> </tspan><tspan x="269.28" y="0" style="text-decoration:underline">cómo</tspan><tspan x="321.78" y="0" style="text-decoration:underline;letter-spacing:0.4829915364583333em"> </tspan><tspan x="335.28" y="0" xml:space="preserve" style="text-decoration:underline">debe </tspan><tspan x="0" y="21.6">mejorar</tspan><tspan x="71.28" y="21.6" style="letter-spacing:0.5755208333333334em"> </tspan><tspan x="86.45" y="21.6">los</tspan><tspan x="111.79" y="21.6" style="letter-spacing:0.5754937065972222em"> </tspan><tspan x="126.95" y="21.6">resultados</tspan><tspan x="221.98" y="21.6" style="letter-spacing:0.5755208333333334em"> </tspan><tspan x="237.14" y="21.6">de</tspan><tspan x="260.47" y="21.6" style="letter-spacing:0.5754937065972222em"> </tspan><tspan x="275.63" y="21.6">aprendizaje </tspan><tspan x="0" y="43.2">alcanzados y cuál es el camino a seguir.</tspan></text><text transform="translate(620.79 317.03)" style="font-size:18px;fill:#2e2d2c;font-family:Poppins-Regular, Poppins">Información<tspan x="109.21" y="0" style="letter-spacing:0.08070203993055555em"> </tspan><tspan x="115.46" y="0">que</tspan><tspan x="150.31" y="0" style="letter-spacing:0.08070203993055555em"> </tspan><tspan x="156.57" y="0">le</tspan><tspan x="172.16" y="0" style="letter-spacing:0.08072916666666667em"> </tspan><tspan x="178.42" y="0">permite</tspan><tspan x="249.14" y="0" style="letter-spacing:0.08070203993055555em"> </tspan><tspan x="255.4" y="0">ir</tspan><tspan x="266.54" y="0" style="letter-spacing:0.08070203993055555em"> </tspan><tspan x="272.8" y="0">más</tspan><tspan x="312.9" y="0" style="letter-spacing:0.08070203993055555em"> </tspan><tspan x="319.16" y="0">allá</tspan><tspan x="352.35" y="0" style="letter-spacing:0.08070203993055555em"> </tspan><tspan x="358.61" y="0">de </tspan><tspan x="0" y="21.6">los</tspan><tspan x="25.34" y="21.6" style="letter-spacing:0.197509765625em"> </tspan><tspan x="33.71" y="21.6">resultados</tspan><tspan x="128.73" y="21.6" style="letter-spacing:0.1974826388888889em"> </tspan><tspan x="137.09" y="21.6">alcanzados</tspan><tspan x="241.74" y="21.6" style="letter-spacing:0.197509765625em"> </tspan><tspan x="250.1" y="21.6">y</tspan><tspan x="260.23" y="21.6" style="letter-spacing:0.1974826388888889em"> </tspan><tspan x="268.59" y="21.6">autorregular </tspan><tspan x="0" y="43.2">el</tspan><tspan x="15.59" y="43.2" style="letter-spacing:-0.039008246527777776em"> </tspan><tspan x="19.69" y="43.2">aprendizaje</tspan><tspan x="126" y="43.2" style="letter-spacing:-0.039008246527777776em"> </tspan><tspan x="130.1" y="43.2">para</tspan><tspan x="173.32" y="43.2" style="letter-spacing:-0.039008246527777776em"> </tspan><tspan x="177.42" y="43.2">alcanzar</tspan><tspan x="255.71" y="43.2" style="letter-spacing:-0.039008246527777776em"> </tspan><tspan x="259.81" y="43.2">lo</tspan><tspan x="275.76" y="43.2" style="letter-spacing:-0.039008246527777776em"> </tspan><tspan x="279.86" y="43.2">esperado</tspan><tspan x="366.31" y="43.2" style="letter-spacing:-0.039008246527777776em"> </tspan><tspan x="370.42" y="43.2">o </tspan><tspan x="0" y="64.8">superar lo esperado.</tspan></text><text transform="translate(1246.79 117.03)" style="font-size:18px;fill:#2e2d2c;font-family:Poppins-Regular, Poppins">Reflexiona<tspan x="91.87" y="0" style="letter-spacing:-0.028700086805555556em"> </tspan><tspan x="96.16" y="0">sobre</tspan><tspan x="147.12" y="0" style="letter-spacing:-0.028727213541666668em"> </tspan><tspan x="151.41" y="0">los</tspan><tspan x="176.75" y="0" style="letter-spacing:-0.028700086805555556em"> </tspan><tspan x="181.04" y="0">resultados</tspan><tspan x="276.06" y="0" style="letter-spacing:-0.028700086805555556em"> </tspan><tspan x="280.35" y="0">alcanzados </tspan><tspan x="0" y="21.6">con respecto a los esperados.</tspan></text><path d="M1255.59,214.24h-5.47l-1,2.79h-1.73l4.54-12.47h1.89l4.52,12.47h-1.73Zm-.47-1.33-2.27-6.33-2.26,6.33Z" style="fill:#2e2d2c"/><path d="M1268,208.08a4.19,4.19,0,0,1,1.11,3.14V217h-1.62v-5.58a3.2,3.2,0,0,0-.73-2.26,2.67,2.67,0,0,0-2-.78,2.7,2.7,0,0,0-2.06.81,3.32,3.32,0,0,0-.77,2.36V217h-1.63v-9.86h1.63v1.4a3.36,3.36,0,0,1,1.33-1.17,4.14,4.14,0,0,1,1.84-.41A4,4,0,0,1,1268,208.08Z" style="fill:#2e2d2c"/><path d="M1271.83,209.41a4.35,4.35,0,0,1,1.68-1.77,4.6,4.6,0,0,1,2.38-.63,4.27,4.27,0,0,1,2.25.56,3.77,3.77,0,0,1,1.43,1.4v-1.8h1.65V217h-1.65V215.2a4,4,0,0,1-1.45,1.43,4.34,4.34,0,0,1-2.24.57,4.45,4.45,0,0,1-4.05-2.47,5.64,5.64,0,0,1-.62-2.66A5.53,5.53,0,0,1,1271.83,209.41Zm7.29.73a3.18,3.18,0,0,0-1.22-1.27,3.46,3.46,0,0,0-3.36,0,3.17,3.17,0,0,0-1.2,1.26,4,4,0,0,0-.45,1.95,4.12,4.12,0,0,0,.45,2,3.2,3.2,0,0,0,1.2,1.27,3.36,3.36,0,0,0,3.36,0,3.18,3.18,0,0,0,1.22-1.27,4.08,4.08,0,0,0,.45-2A4,4,0,0,0,1279.12,210.14Z" style="fill:#2e2d2c"/><path d="M1285.63,203.71V217H1284V203.71Z" style="fill:#2e2d2c"/><path d="M1288.47,205.24a1.09,1.09,0,0,1-.32-.79,1.1,1.1,0,0,1,.32-.79,1.09,1.09,0,0,1,.8-.32,1,1,0,0,1,.76.32,1.1,1.1,0,0,1,.32.79,1.09,1.09,0,0,1-.32.79,1,1,0,0,1-.76.33A1.09,1.09,0,0,1,1288.47,205.24Zm1.59,1.93V217h-1.64v-9.86Z" style="fill:#2e2d2c"/><path d="M1294.07,215.68h4.85V217h-6.72v-1.35l4.79-7.18h-4.75v-1.33h6.64v1.33Z" style="fill:#2e2d2c"/><path d="M1301,209.41a4.48,4.48,0,0,1,1.68-1.77,4.64,4.64,0,0,1,2.39-.63,4.32,4.32,0,0,1,2.25.56,3.75,3.75,0,0,1,1.42,1.4v-1.8h1.66V217h-1.66V215.2a3.9,3.9,0,0,1-1.45,1.43,4.31,4.31,0,0,1-2.24.57,4.45,4.45,0,0,1-4-2.47,5.64,5.64,0,0,1-.61-2.66A5.53,5.53,0,0,1,1301,209.41Zm7.29.73a3.18,3.18,0,0,0-1.22-1.27,3.34,3.34,0,0,0-1.68-.44,3.27,3.27,0,0,0-1.67.43,3.13,3.13,0,0,0-1.21,1.26,4,4,0,0,0-.45,1.95,4.12,4.12,0,0,0,.45,2,3.16,3.16,0,0,0,1.21,1.27,3.19,3.19,0,0,0,1.67.45,3.25,3.25,0,0,0,1.68-.45,3.18,3.18,0,0,0,1.22-1.27,4.08,4.08,0,0,0,.45-2A4,4,0,0,0,1308.33,210.14Z" style="fill:#2e2d2c"/><path d="M1316.08,207.46a3.8,3.8,0,0,1,2-.47v1.69h-.43c-1.84,0-2.76,1-2.76,3V217h-1.63v-9.86h1.63v1.6A3.13,3.13,0,0,1,1316.08,207.46Z" style="fill:#2e2d2c"/><path d="M1329,203.71V217h-1.64V203.71Z" style="fill:#2e2d2c"/><path d="M1333.53,216.57a4.42,4.42,0,0,1-1.76-1.8,5.43,5.43,0,0,1-.64-2.69,5.31,5.31,0,0,1,.66-2.67,4.44,4.44,0,0,1,1.79-1.78,5.49,5.49,0,0,1,5.07,0,4.48,4.48,0,0,1,1.79,1.77,5.3,5.3,0,0,1,.66,2.68,5.15,5.15,0,0,1-.68,2.69,4.63,4.63,0,0,1-1.82,1.8,5.25,5.25,0,0,1-2.56.63A5.06,5.06,0,0,1,1333.53,216.57Zm4.17-1.23a3.17,3.17,0,0,0,1.25-1.24,4,4,0,0,0,.48-2,4,4,0,0,0-.47-2,3.06,3.06,0,0,0-1.23-1.24,3.56,3.56,0,0,0-3.28,0,3,3,0,0,0-1.2,1.24,4.15,4.15,0,0,0-.45,2,4.33,4.33,0,0,0,.44,2,3,3,0,0,0,1.18,1.23,3.3,3.3,0,0,0,1.62.41A3.44,3.44,0,0,0,1337.7,215.34Z" style="fill:#2e2d2c"/><path d="M1344.72,216.81a3.41,3.41,0,0,1-1.42-1.08,2.88,2.88,0,0,1-.58-1.59h1.69a1.64,1.64,0,0,0,.7,1.2,2.62,2.62,0,0,0,1.62.47,2.35,2.35,0,0,0,1.48-.42,1.25,1.25,0,0,0,.54-1,1,1,0,0,0-.58-1,7.68,7.68,0,0,0-1.78-.62,12.48,12.48,0,0,1-1.79-.59,3.22,3.22,0,0,1-1.19-.88,2.3,2.3,0,0,1-.49-1.54,2.32,2.32,0,0,1,.45-1.38,3,3,0,0,1,1.28-1,4.52,4.52,0,0,1,1.89-.37,4,4,0,0,1,2.64.83,3,3,0,0,1,1.08,2.26h-1.64a1.67,1.67,0,0,0-.62-1.24,2.32,2.32,0,0,0-1.52-.47,2.35,2.35,0,0,0-1.4.38,1.16,1.16,0,0,0-.52,1,1.07,1.07,0,0,0,.31.8,2.34,2.34,0,0,0,.79.51c.32.12.76.26,1.33.42a13.26,13.26,0,0,1,1.72.57,3,3,0,0,1,1.15.83,2.27,2.27,0,0,1,.49,1.46,2.5,2.5,0,0,1-.45,1.46,3,3,0,0,1-1.27,1,4.6,4.6,0,0,1-1.88.37A5.07,5.07,0,0,1,1344.72,216.81Z" style="fill:#2e2d2c"/><path d="M1360.05,209.41a4.48,4.48,0,0,1,1.68-1.77,4.61,4.61,0,0,1,2.39-.63,4.32,4.32,0,0,1,2.25.56,3.75,3.75,0,0,1,1.42,1.4v-1.8h1.65V217h-1.65V215.2a4,4,0,0,1-1.45,1.43,4.31,4.31,0,0,1-2.24.57,4.45,4.45,0,0,1-4-2.47,5.64,5.64,0,0,1-.61-2.66A5.53,5.53,0,0,1,1360.05,209.41Zm7.29.73a3.18,3.18,0,0,0-1.22-1.27,3.34,3.34,0,0,0-1.68-.44,3.27,3.27,0,0,0-1.67.43,3.13,3.13,0,0,0-1.21,1.26,4,4,0,0,0-.45,1.95,4.12,4.12,0,0,0,.45,2,3.16,3.16,0,0,0,1.21,1.27,3.19,3.19,0,0,0,1.67.45,3.25,3.25,0,0,0,1.68-.45,3.18,3.18,0,0,0,1.22-1.27,4.08,4.08,0,0,0,.45-2A4,4,0,0,0,1367.34,210.14Z" style="fill:#2e2d2c"/><path d="M1373.67,216.81a3.47,3.47,0,0,1-1.42-1.08,2.79,2.79,0,0,1-.57-1.59h1.69a1.66,1.66,0,0,0,.69,1.2,2.65,2.65,0,0,0,1.63.47,2.37,2.37,0,0,0,1.48-.42,1.25,1.25,0,0,0,.54-1,1,1,0,0,0-.58-1,7.86,7.86,0,0,0-1.78-.62,12.48,12.48,0,0,1-1.79-.59,3.14,3.14,0,0,1-1.19-.88,2.3,2.3,0,0,1-.5-1.54,2.32,2.32,0,0,1,.45-1.38,3,3,0,0,1,1.28-1,4.52,4.52,0,0,1,1.89-.37,4,4,0,0,1,2.65.83,3,3,0,0,1,1.08,2.26h-1.64a1.7,1.7,0,0,0-.62-1.24,2.34,2.34,0,0,0-1.52-.47,2.38,2.38,0,0,0-1.41.38,1.18,1.18,0,0,0-.52,1,1.08,1.08,0,0,0,.32.8,2.34,2.34,0,0,0,.79.51q.48.18,1.32.42a13,13,0,0,1,1.73.57,3,3,0,0,1,1.14.83,2.28,2.28,0,0,1,.5,1.46,2.5,2.5,0,0,1-.45,1.46,3.09,3.09,0,0,1-1.27,1,4.64,4.64,0,0,1-1.88.37A5.08,5.08,0,0,1,1373.67,216.81Z" style="fill:#2e2d2c"/><path d="M1384.7,207.57a4.41,4.41,0,0,1,2.24-.56,4.58,4.58,0,0,1,2.38.63,4.43,4.43,0,0,1,1.69,1.77,5.53,5.53,0,0,1,.61,2.66,5.64,5.64,0,0,1-.61,2.66,4.51,4.51,0,0,1-4.07,2.47,4.27,4.27,0,0,1-2.22-.57,4.07,4.07,0,0,1-1.47-1.41v6.49h-1.64V207.17h1.64V209A3.88,3.88,0,0,1,1384.7,207.57Zm4.8,2.55a3.15,3.15,0,0,0-1.22-1.26,3.44,3.44,0,0,0-3.35,0,3.14,3.14,0,0,0-1.22,1.28,3.91,3.91,0,0,0-.46,1.93,4,4,0,0,0,.46,2,3.18,3.18,0,0,0,1.22,1.27,3.34,3.34,0,0,0,3.35,0,3.18,3.18,0,0,0,1.22-1.27,4.24,4.24,0,0,0,.45-2A4.13,4.13,0,0,0,1389.5,210.12Z" style="fill:#2e2d2c"/><path d="M1402.73,212.71h-7.89a3.1,3.1,0,0,0,3.2,3.1,3.06,3.06,0,0,0,1.78-.5,2.69,2.69,0,0,0,1-1.32h1.76a4.2,4.2,0,0,1-1.58,2.31,4.76,4.76,0,0,1-3,.9,4.94,4.94,0,0,1-2.5-.63,4.44,4.44,0,0,1-1.74-1.8,5.54,5.54,0,0,1-.63-2.69,5.61,5.61,0,0,1,.61-2.68,4.26,4.26,0,0,1,1.72-1.77A5.06,5.06,0,0,1,1398,207a4.94,4.94,0,0,1,2.49.61,4.26,4.26,0,0,1,1.66,1.68,5,5,0,0,1,.59,2.42C1402.78,212,1402.76,212.37,1402.73,212.71Zm-2.06-2.94a2.72,2.72,0,0,0-1.12-1,3.59,3.59,0,0,0-1.58-.35,3.07,3.07,0,0,0-2.11.79,3.25,3.25,0,0,0-1,2.2h6.23A3,3,0,0,0,1400.67,209.77Z" style="fill:#2e2d2c"/><path d="M1404.94,209.41a4.39,4.39,0,0,1,1.7-1.77,5.41,5.41,0,0,1,5.49.25,4.13,4.13,0,0,1,1.56,2.45h-1.77a2.49,2.49,0,0,0-1-1.42,3,3,0,0,0-1.81-.53,2.86,2.86,0,0,0-2.26,1,3.92,3.92,0,0,0-.87,2.72,4,4,0,0,0,.87,2.76,2.86,2.86,0,0,0,2.26,1,3,3,0,0,0,1.8-.51,2.52,2.52,0,0,0,1-1.43h1.77a4.43,4.43,0,0,1-1.59,2.42,4.77,4.77,0,0,1-3,.91,4.9,4.9,0,0,1-2.49-.63,4.38,4.38,0,0,1-1.7-1.79,5.61,5.61,0,0,1-.61-2.7A5.54,5.54,0,0,1,1404.94,209.41Z" style="fill:#2e2d2c"/><path d="M1417.86,208.52v5.81a1.37,1.37,0,0,0,.31,1,1.49,1.49,0,0,0,1.06.3h1.21V217H1419a2.94,2.94,0,0,1-2-.63,2.69,2.69,0,0,1-.69-2.07v-5.81H1415v-1.35h1.27v-2.49h1.64v2.49h2.58v1.35Z" style="fill:#2e2d2c"/><path d="M1424.21,216.57a4.51,4.51,0,0,1-1.77-1.8,5.54,5.54,0,0,1-.64-2.69,5.31,5.31,0,0,1,.66-2.67,4.57,4.57,0,0,1,1.79-1.78,5.51,5.51,0,0,1,5.08,0,4.55,4.55,0,0,1,1.79,1.77,5.3,5.3,0,0,1,.66,2.68,5.24,5.24,0,0,1-.68,2.69,4.7,4.7,0,0,1-1.82,1.8,5.28,5.28,0,0,1-2.56.63A5,5,0,0,1,1424.21,216.57Zm4.17-1.23a3.17,3.17,0,0,0,1.25-1.24,4.05,4.05,0,0,0,.47-2,3.93,3.93,0,0,0-.47-2,3.1,3.1,0,0,0-1.22-1.24,3.4,3.4,0,0,0-1.64-.4,3.35,3.35,0,0,0-1.64.4,3,3,0,0,0-1.2,1.24,4.15,4.15,0,0,0-.45,2,4.22,4.22,0,0,0,.44,2,2.93,2.93,0,0,0,1.18,1.23,3.3,3.3,0,0,0,1.62.41A3.44,3.44,0,0,0,1428.38,215.34Z" style="fill:#2e2d2c"/><path d="M1435.39,216.81a3.47,3.47,0,0,1-1.42-1.08,2.79,2.79,0,0,1-.57-1.59h1.69a1.66,1.66,0,0,0,.69,1.2,2.67,2.67,0,0,0,1.63.47,2.35,2.35,0,0,0,1.48-.42,1.25,1.25,0,0,0,.54-1,1,1,0,0,0-.58-1,7.86,7.86,0,0,0-1.78-.62,12.48,12.48,0,0,1-1.79-.59,3.22,3.22,0,0,1-1.19-.88,2.3,2.3,0,0,1-.5-1.54,2.32,2.32,0,0,1,.45-1.38,3,3,0,0,1,1.28-1,4.55,4.55,0,0,1,1.89-.37,4,4,0,0,1,2.65.83,3,3,0,0,1,1.08,2.26h-1.64a1.7,1.7,0,0,0-.62-1.24,2.34,2.34,0,0,0-1.52-.47,2.38,2.38,0,0,0-1.41.38,1.18,1.18,0,0,0-.52,1,1.08,1.08,0,0,0,.32.8,2.34,2.34,0,0,0,.79.51q.48.18,1.32.42a13,13,0,0,1,1.73.57,2.92,2.92,0,0,1,1.14.83,2.22,2.22,0,0,1,.5,1.46,2.5,2.5,0,0,1-.45,1.46,3,3,0,0,1-1.27,1,4.64,4.64,0,0,1-1.88.37A5.08,5.08,0,0,1,1435.39,216.81Z" style="fill:#2e2d2c"/><path d="M1450.72,209.41a4.43,4.43,0,0,1,1.69-1.77,4.6,4.6,0,0,1,2.38-.63,4.27,4.27,0,0,1,2.25.56,3.68,3.68,0,0,1,1.42,1.4v-1.8h1.66V217h-1.66V215.2a3.87,3.87,0,0,1-1.44,1.43,4.35,4.35,0,0,1-2.25.57,4.49,4.49,0,0,1-2.37-.65,4.55,4.55,0,0,1-1.68-1.82,5.76,5.76,0,0,1-.61-2.66A5.64,5.64,0,0,1,1450.72,209.41Zm7.29.73a3.16,3.16,0,0,0-1.21-1.27,3.34,3.34,0,0,0-1.68-.44,3.31,3.31,0,0,0-1.68.43,3.17,3.17,0,0,0-1.2,1.26,4,4,0,0,0-.45,1.95,4.12,4.12,0,0,0,.45,2,3.2,3.2,0,0,0,2.88,1.72,3.25,3.25,0,0,0,1.68-.45A3.16,3.16,0,0,0,1458,214a4.08,4.08,0,0,0,.45-2A4,4,0,0,0,1458,210.14Z" style="fill:#2e2d2c"/><path d="M1484.2,207.47a3.38,3.38,0,0,1,1.42,1.43,4.74,4.74,0,0,1,.52,2.32V217h-1.62v-5.58a3.2,3.2,0,0,0-.73-2.26,2.55,2.55,0,0,0-2-.78,2.61,2.61,0,0,0-2,.82,3.36,3.36,0,0,0-.76,2.37V217h-1.62v-5.58a3.2,3.2,0,0,0-.73-2.26,2.55,2.55,0,0,0-2-.78,2.61,2.61,0,0,0-2,.82,3.36,3.36,0,0,0-.76,2.37V217h-1.64v-9.86h1.64v1.42a3.34,3.34,0,0,1,1.31-1.19A4,4,0,0,1,1475,207a4.27,4.27,0,0,1,2.19.56,3.39,3.39,0,0,1,1.42,1.63,3.27,3.27,0,0,1,1.37-1.61,4,4,0,0,1,2.13-.58A4.31,4.31,0,0,1,1484.2,207.47Z" style="fill:#2e2d2c"/><path d="M1497.77,212.71h-7.88a3.22,3.22,0,0,0,1,2.28,3.19,3.19,0,0,0,2.21.82,3,3,0,0,0,1.77-.5,2.58,2.58,0,0,0,1-1.32h1.77a4.26,4.26,0,0,1-1.59,2.31,4.73,4.73,0,0,1-3,.9,5,5,0,0,1-2.51-.63,4.44,4.44,0,0,1-1.74-1.8,5.54,5.54,0,0,1-.63-2.69,5.73,5.73,0,0,1,.61-2.68,4.26,4.26,0,0,1,1.72-1.77,5.07,5.07,0,0,1,2.55-.62,4.9,4.9,0,0,1,2.48.61,4.28,4.28,0,0,1,1.67,1.68,5,5,0,0,1,.58,2.42A8.42,8.42,0,0,1,1497.77,212.71Zm-2-2.94a2.74,2.74,0,0,0-1.13-1,3.55,3.55,0,0,0-1.57-.35,3.08,3.08,0,0,0-2.12.79,3.29,3.29,0,0,0-1,2.2h6.23A3.08,3.08,0,0,0,1495.72,209.77Z" style="fill:#2e2d2c"/><path d="M1501.68,219.18a2.51,2.51,0,0,1-.67,1.92,2.75,2.75,0,0,1-1.94.61h-1v-1.38h.69a1.38,1.38,0,0,0,1-.27,1.24,1.24,0,0,0,.28-.92v-12h1.64Zm-1.6-13.94a1.08,1.08,0,0,1-.31-.79,1.09,1.09,0,0,1,.31-.79,1.12,1.12,0,0,1,1.57,0,1.09,1.09,0,0,1,.31.79,1.08,1.08,0,0,1-.31.79,1.1,1.1,0,0,1-1.57,0Z" style="fill:#2e2d2c"/><path d="M1506.24,216.57a4.51,4.51,0,0,1-1.77-1.8,5.54,5.54,0,0,1-.63-2.69,5.31,5.31,0,0,1,.65-2.67,4.57,4.57,0,0,1,1.79-1.78,5.51,5.51,0,0,1,5.08,0,4.48,4.48,0,0,1,1.79,1.77,5.3,5.3,0,0,1,.66,2.68,5.24,5.24,0,0,1-.68,2.69,4.7,4.7,0,0,1-1.82,1.8,5.25,5.25,0,0,1-2.56.63A5.06,5.06,0,0,1,1506.24,216.57Zm4.17-1.23a3.17,3.17,0,0,0,1.25-1.24,4.6,4.6,0,0,0,0-4,3.12,3.12,0,0,0-1.23-1.24,3.4,3.4,0,0,0-1.64-.4,3.35,3.35,0,0,0-1.64.4,3,3,0,0,0-1.2,1.24,4.15,4.15,0,0,0-.45,2,4.33,4.33,0,0,0,.44,2,3,3,0,0,0,1.18,1.23,3.3,3.3,0,0,0,1.62.41A3.44,3.44,0,0,0,1510.41,215.34Z" style="fill:#2e2d2c"/><path d="M1518.84,207.46a3.8,3.8,0,0,1,2-.47v1.69h-.43c-1.84,0-2.75,1-2.75,3V217H1516v-9.86h1.64v1.6A3.05,3.05,0,0,1,1518.84,207.46Z" style="fill:#2e2d2c"/><path d="M1522.68,209.41a4.43,4.43,0,0,1,1.69-1.77,4.58,4.58,0,0,1,2.38-.63,4.32,4.32,0,0,1,2.25.56,3.68,3.68,0,0,1,1.42,1.4v-1.8h1.66V217h-1.66V215.2a3.83,3.83,0,0,1-1.45,1.43,4.31,4.31,0,0,1-2.24.57,4.46,4.46,0,0,1-2.37-.65,4.55,4.55,0,0,1-1.68-1.82,5.64,5.64,0,0,1-.61-2.66A5.53,5.53,0,0,1,1522.68,209.41Zm7.29.73a3.16,3.16,0,0,0-1.21-1.27,3.35,3.35,0,0,0-1.69-.44,3.27,3.27,0,0,0-1.67.43,3.2,3.2,0,0,0-1.21,1.26,4,4,0,0,0-.45,1.95,4.12,4.12,0,0,0,.45,2,3.23,3.23,0,0,0,2.88,1.72,3.26,3.26,0,0,0,1.69-.45A3.16,3.16,0,0,0,1530,214a4.08,4.08,0,0,0,.45-2A4,4,0,0,0,1530,210.14Z" style="fill:#2e2d2c"/><path d="M1537.72,207.46a3.83,3.83,0,0,1,2-.47v1.69h-.43c-1.83,0-2.75,1-2.75,3V217h-1.64v-9.86h1.64v1.6A3.17,3.17,0,0,1,1537.72,207.46Z" style="fill:#2e2d2c"/><path d="M1552,207.57a4.41,4.41,0,0,1,2.24-.56,4.64,4.64,0,0,1,2.39.63,4.48,4.48,0,0,1,1.68,1.77,5.53,5.53,0,0,1,.61,2.66,5.64,5.64,0,0,1-.61,2.66,4.48,4.48,0,0,1-4.07,2.47,4.27,4.27,0,0,1-2.22-.57,4.16,4.16,0,0,1-1.47-1.41v6.49H1549V207.17h1.63V209A4,4,0,0,1,1552,207.57Zm4.8,2.55a3.15,3.15,0,0,0-1.22-1.26,3.34,3.34,0,0,0-1.68-.43,3.3,3.3,0,0,0-1.66.44,3.23,3.23,0,0,0-1.23,1.28,4,4,0,0,0-.46,1.93,4.08,4.08,0,0,0,.46,2,3.27,3.27,0,0,0,1.23,1.27,3.21,3.21,0,0,0,1.66.45,3.25,3.25,0,0,0,1.68-.45,3.18,3.18,0,0,0,1.22-1.27,4.12,4.12,0,0,0,.45-2A4,4,0,0,0,1556.84,210.12Z" style="fill:#2e2d2c"/><path d="M1569.87,207.17V217h-1.64v-1.45a3.14,3.14,0,0,1-1.3,1.17,3.94,3.94,0,0,1-1.85.43,4.42,4.42,0,0,1-2.07-.48,3.5,3.5,0,0,1-1.45-1.43A4.76,4.76,0,0,1,1561,213v-5.78h1.62v5.56a3.15,3.15,0,0,0,.74,2.24,2.64,2.64,0,0,0,2,.79,2.71,2.71,0,0,0,2.07-.81,3.36,3.36,0,0,0,.75-2.36v-5.42Z" style="fill:#2e2d2c"/><path d="M1580.37,208.08a4.19,4.19,0,0,1,1.11,3.14V217h-1.62v-5.58a3.16,3.16,0,0,0-.74-2.26,2.63,2.63,0,0,0-2-.78,2.69,2.69,0,0,0-2.06.81,3.32,3.32,0,0,0-.77,2.36V217h-1.64v-9.86h1.64v1.4a3.4,3.4,0,0,1,1.32-1.17,4.22,4.22,0,0,1,1.85-.41A4,4,0,0,1,1580.37,208.08Z" style="fill:#2e2d2c"/><path d="M1586.16,208.52v5.81a1.37,1.37,0,0,0,.31,1,1.49,1.49,0,0,0,1.06.3h1.21V217h-1.48a2.93,2.93,0,0,1-2-.63,2.69,2.69,0,0,1-.69-2.07v-5.81h-1.27v-1.35h1.27v-2.49h1.64v2.49h2.58v1.35Z" style="fill:#2e2d2c"/><path d="M1599.46,207.17V217h-1.63v-1.45a3.23,3.23,0,0,1-1.31,1.17,3.93,3.93,0,0,1-1.84.43,4.39,4.39,0,0,1-2.07-.48,3.39,3.39,0,0,1-1.45-1.43,4.66,4.66,0,0,1-.54-2.32v-5.78h1.63v5.56A3.15,3.15,0,0,0,1593,215a2.66,2.66,0,0,0,2,.79,2.7,2.7,0,0,0,2.07-.81,3.36,3.36,0,0,0,.76-2.36v-5.42Z" style="fill:#2e2d2c"/><path d="M1602.24,209.41a4.35,4.35,0,0,1,1.68-1.77,4.6,4.6,0,0,1,2.38-.63,4.27,4.27,0,0,1,2.25.56A3.68,3.68,0,0,1,1610,209v-1.8h1.66V217H1610V215.2a3.87,3.87,0,0,1-1.44,1.43,4.34,4.34,0,0,1-2.24.57,4.45,4.45,0,0,1-4-2.47,5.64,5.64,0,0,1-.62-2.66A5.53,5.53,0,0,1,1602.24,209.41Zm7.29.73a3.25,3.25,0,0,0-1.22-1.27,3.46,3.46,0,0,0-3.36,0,3.17,3.17,0,0,0-1.2,1.26,4,4,0,0,0-.45,1.95,4.12,4.12,0,0,0,.45,2,3.2,3.2,0,0,0,1.2,1.27,3.3,3.3,0,0,0,4.58-1.27,4.2,4.2,0,0,0,.44-2A4.11,4.11,0,0,0,1609.53,210.14Z" style="fill:#2e2d2c"/><path d="M1616,203.71V217h-1.64V203.71Z" style="fill:#2e2d2c"/><path d="M1618.88,205.24a1.09,1.09,0,0,1-.32-.79,1.1,1.1,0,0,1,.32-.79,1.09,1.09,0,0,1,.8-.32,1,1,0,0,1,.76.32,1.1,1.1,0,0,1,.32.79,1.09,1.09,0,0,1-.32.79,1,1,0,0,1-.76.33A1.09,1.09,0,0,1,1618.88,205.24Zm1.59,1.93V217h-1.64v-9.86Z" style="fill:#2e2d2c"/><path d="M1630.1,209.74v1.39h-7.18v-1.39Z" style="fill:#2e2d2c"/><path d="M1249.4,237.28h4.84v1.35h-6.71v-1.35l4.78-7.18h-4.75v-1.33h6.64v1.33Z" style="fill:#2e2d2c"/><path d="M1256.36,231a4.43,4.43,0,0,1,1.69-1.77,4.6,4.6,0,0,1,2.38-.63,4.32,4.32,0,0,1,2.25.56,3.68,3.68,0,0,1,1.42,1.4v-1.8h1.66v9.86h-1.66V236.8a3.83,3.83,0,0,1-1.45,1.43,4.29,4.29,0,0,1-2.24.57,4.49,4.49,0,0,1-2.37-.65,4.55,4.55,0,0,1-1.68-1.82,5.76,5.76,0,0,1-.61-2.66A5.64,5.64,0,0,1,1256.36,231Zm7.29.73a3.16,3.16,0,0,0-1.21-1.27,3.34,3.34,0,0,0-1.68-.44,3.31,3.31,0,0,0-1.68.43,3.17,3.17,0,0,0-1.2,1.26,4,4,0,0,0-.45,1.95,4.12,4.12,0,0,0,.45,2,3.2,3.2,0,0,0,2.88,1.72,3.25,3.25,0,0,0,1.68-.45,3.16,3.16,0,0,0,1.21-1.27,4.08,4.08,0,0,0,.45-2A4,4,0,0,0,1263.65,231.74Z" style="fill:#2e2d2c"/><path d="M1276.25,229.68a4.16,4.16,0,0,1,1.12,3.14v5.81h-1.62v-5.58a3.2,3.2,0,0,0-.74-2.26,2.63,2.63,0,0,0-2-.78,2.71,2.71,0,0,0-2.07.81,3.32,3.32,0,0,0-.76,2.36v5.45h-1.64v-9.86h1.64v1.4a3.26,3.26,0,0,1,1.32-1.17,4.22,4.22,0,0,1,1.85-.41A4,4,0,0,1,1276.25,229.68Z" style="fill:#2e2d2c"/><path d="M1280.05,231a4.48,4.48,0,0,1,1.68-1.77,4.69,4.69,0,0,1,2.41-.63,4.38,4.38,0,0,1,2.14.53,3.84,3.84,0,0,1,1.51,1.39v-5.22h1.66v13.32h-1.66v-1.85a3.78,3.78,0,0,1-1.44,1.45,4.28,4.28,0,0,1-2.23.57,4.48,4.48,0,0,1-4.07-2.47,5.64,5.64,0,0,1-.61-2.66A5.53,5.53,0,0,1,1280.05,231Zm7.29.73a3.16,3.16,0,0,0-1.21-1.27,3.35,3.35,0,0,0-1.69-.44,3.27,3.27,0,0,0-1.67.43,3.2,3.2,0,0,0-1.21,1.26,4,4,0,0,0-.45,1.95,4.12,4.12,0,0,0,.45,2,3.23,3.23,0,0,0,2.88,1.72,3.26,3.26,0,0,0,1.69-.45,3.16,3.16,0,0,0,1.21-1.27,4.08,4.08,0,0,0,.45-2A4,4,0,0,0,1287.34,231.74Z" style="fill:#2e2d2c"/><path d="M1294,238.17a4.42,4.42,0,0,1-1.76-1.8,5.89,5.89,0,0,1,0-5.36,4.53,4.53,0,0,1,1.8-1.78,5.49,5.49,0,0,1,5.07,0,4.48,4.48,0,0,1,1.79,1.77,5.3,5.3,0,0,1,.66,2.68,5.24,5.24,0,0,1-.68,2.69,4.57,4.57,0,0,1-1.82,1.8,5.25,5.25,0,0,1-2.56.63A5.06,5.06,0,0,1,1294,238.17Zm4.17-1.23a3.17,3.17,0,0,0,1.25-1.24,4,4,0,0,0,.48-2,4,4,0,0,0-.47-2,3.12,3.12,0,0,0-1.23-1.24,3.56,3.56,0,0,0-3.28,0,3,3,0,0,0-1.2,1.24,4.15,4.15,0,0,0-.45,2,4.33,4.33,0,0,0,.44,2,3,3,0,0,0,1.18,1.23,3.3,3.3,0,0,0,1.62.41A3.44,3.44,0,0,0,1298.18,236.94Z" style="fill:#2e2d2c"/><path d="M1314.89,225.31v13.32h-1.64V225.31Z" style="fill:#2e2d2c"/><path d="M1319.47,238.17a4.42,4.42,0,0,1-1.76-1.8,5.89,5.89,0,0,1,0-5.36,4.53,4.53,0,0,1,1.8-1.78,5.49,5.49,0,0,1,5.07,0,4.48,4.48,0,0,1,1.79,1.77,5.3,5.3,0,0,1,.66,2.68,5.24,5.24,0,0,1-.68,2.69,4.7,4.7,0,0,1-1.82,1.8,5.25,5.25,0,0,1-2.56.63A5.06,5.06,0,0,1,1319.47,238.17Zm4.17-1.23a3.17,3.17,0,0,0,1.25-1.24,4,4,0,0,0,.48-2,4,4,0,0,0-.47-2,3.06,3.06,0,0,0-1.23-1.24,3.56,3.56,0,0,0-3.28,0,3,3,0,0,0-1.2,1.24,4.15,4.15,0,0,0-.45,2,4.33,4.33,0,0,0,.44,2,3,3,0,0,0,1.18,1.23,3.3,3.3,0,0,0,1.62.41A3.44,3.44,0,0,0,1323.64,236.94Z" style="fill:#2e2d2c"/><path d="M1330.66,238.41a3.41,3.41,0,0,1-1.42-1.08,2.88,2.88,0,0,1-.58-1.59h1.69a1.66,1.66,0,0,0,.69,1.2,2.67,2.67,0,0,0,1.63.47,2.41,2.41,0,0,0,1.48-.41,1.28,1.28,0,0,0,.54-1.05,1,1,0,0,0-.58-1,7.86,7.86,0,0,0-1.78-.62,12.48,12.48,0,0,1-1.79-.59,3.22,3.22,0,0,1-1.19-.88,2.3,2.3,0,0,1-.49-1.54,2.38,2.38,0,0,1,.45-1.39,3,3,0,0,1,1.28-1,4.52,4.52,0,0,1,1.89-.37,4,4,0,0,1,2.64.82,3,3,0,0,1,1.08,2.27h-1.64a1.67,1.67,0,0,0-.62-1.24,2.32,2.32,0,0,0-1.52-.47,2.35,2.35,0,0,0-1.4.38,1.16,1.16,0,0,0-.52,1,1.09,1.09,0,0,0,.31.8,2.34,2.34,0,0,0,.79.51c.32.12.76.26,1.33.42a13.26,13.26,0,0,1,1.72.57,3,3,0,0,1,1.15.83,2.29,2.29,0,0,1,.49,1.46,2.5,2.5,0,0,1-.45,1.46,3,3,0,0,1-1.27,1,4.6,4.6,0,0,1-1.88.37A5.07,5.07,0,0,1,1330.66,238.41Z" style="fill:#2e2d2c"/><path d="M1357.05,234.31h-7.88a3.1,3.1,0,0,0,3.2,3.1,3.06,3.06,0,0,0,1.78-.5,2.62,2.62,0,0,0,1-1.32h1.77a4.25,4.25,0,0,1-1.58,2.31,4.78,4.78,0,0,1-3,.9,5,5,0,0,1-2.51-.63,4.44,4.44,0,0,1-1.74-1.8,6.17,6.17,0,0,1,0-5.37,4.26,4.26,0,0,1,1.72-1.77,5,5,0,0,1,2.54-.62,4.94,4.94,0,0,1,2.49.61,4.26,4.26,0,0,1,1.66,1.68,5,5,0,0,1,.59,2.42A8.47,8.47,0,0,1,1357.05,234.31Zm-2-2.94a2.78,2.78,0,0,0-1.12-1,3.59,3.59,0,0,0-1.58-.35,3,3,0,0,0-2.11.8,3.16,3.16,0,0,0-1,2.19h6.23A3,3,0,0,0,1355,231.37Z" style="fill:#2e2d2c"/><path d="M1362.14,229.06a3.8,3.8,0,0,1,1.95-.47v1.69h-.43c-1.84,0-2.76,1-2.76,3v5.36h-1.63v-9.86h1.63v1.6A3.13,3.13,0,0,1,1362.14,229.06Z" style="fill:#2e2d2c"/><path d="M1368.85,229.06a3.86,3.86,0,0,1,2-.47v1.69h-.43c-1.83,0-2.75,1-2.75,3v5.36H1366v-9.86h1.64v1.6A3.17,3.17,0,0,1,1368.85,229.06Z" style="fill:#2e2d2c"/><path d="M1374.49,238.17a4.51,4.51,0,0,1-1.77-1.8,5.43,5.43,0,0,1-.64-2.69,5.31,5.31,0,0,1,.66-2.67,4.51,4.51,0,0,1,1.79-1.78,5.51,5.51,0,0,1,5.08,0,4.55,4.55,0,0,1,1.79,1.77,5.29,5.29,0,0,1,.65,2.68,5.24,5.24,0,0,1-.67,2.69,4.66,4.66,0,0,1-1.83,1.8,5.21,5.21,0,0,1-2.55.63A5,5,0,0,1,1374.49,238.17Zm4.16-1.23a3,3,0,0,0,1.25-1.24,4,4,0,0,0,.48-2,4,4,0,0,0-.47-2,3.1,3.1,0,0,0-1.22-1.24,3.58,3.58,0,0,0-3.29,0,3,3,0,0,0-1.19,1.24,4.15,4.15,0,0,0-.45,2,4.22,4.22,0,0,0,.44,2,2.87,2.87,0,0,0,1.18,1.23,3.3,3.3,0,0,0,1.62.41A3.4,3.4,0,0,0,1378.65,236.94Z" style="fill:#2e2d2c"/><path d="M1387.09,229.06a3.8,3.8,0,0,1,2-.47v1.69h-.43c-1.84,0-2.76,1-2.76,3v5.36h-1.64v-9.86h1.64v1.6A3.13,3.13,0,0,1,1387.09,229.06Z" style="fill:#2e2d2c"/><path d="M1399.88,234.31H1392a3.1,3.1,0,0,0,3.2,3.1,3.06,3.06,0,0,0,1.78-.5,2.69,2.69,0,0,0,1-1.32h1.76a4.2,4.2,0,0,1-1.58,2.31,4.78,4.78,0,0,1-3,.9,5,5,0,0,1-2.51-.63,4.48,4.48,0,0,1-1.73-1.8,5.54,5.54,0,0,1-.63-2.69,5.61,5.61,0,0,1,.61-2.68,4.26,4.26,0,0,1,1.72-1.77,5,5,0,0,1,2.54-.62,4.94,4.94,0,0,1,2.49.61,4.26,4.26,0,0,1,1.66,1.68,5,5,0,0,1,.59,2.42C1399.93,233.64,1399.91,234,1399.88,234.31Zm-2.06-2.94a2.72,2.72,0,0,0-1.12-1,3.59,3.59,0,0,0-1.58-.35,3,3,0,0,0-2.11.8,3.2,3.2,0,0,0-1,2.19h6.23A3,3,0,0,0,1397.82,231.37Z" style="fill:#2e2d2c"/><path d="M1403.55,238.41a3.5,3.5,0,0,1-1.43-1.08,2.87,2.87,0,0,1-.57-1.59h1.69a1.66,1.66,0,0,0,.69,1.2,2.67,2.67,0,0,0,1.63.47A2.41,2.41,0,0,0,1407,237a1.28,1.28,0,0,0,.54-1.05,1,1,0,0,0-.58-1,7.86,7.86,0,0,0-1.78-.62,12.48,12.48,0,0,1-1.79-.59,3.22,3.22,0,0,1-1.19-.88,2.3,2.3,0,0,1-.49-1.54,2.38,2.38,0,0,1,.45-1.39,3,3,0,0,1,1.27-1,4.59,4.59,0,0,1,1.89-.37,4,4,0,0,1,2.65.82,3,3,0,0,1,1.08,2.27h-1.64a1.67,1.67,0,0,0-.62-1.24,2.73,2.73,0,0,0-2.92-.09,1.17,1.17,0,0,0-.53,1,1.09,1.09,0,0,0,.32.8,2.34,2.34,0,0,0,.79.51q.48.18,1.32.42a13,13,0,0,1,1.73.57,3,3,0,0,1,1.15.83,2.29,2.29,0,0,1,.49,1.46,2.5,2.5,0,0,1-.45,1.46,3,3,0,0,1-1.27,1,4.6,4.6,0,0,1-1.88.37A5,5,0,0,1,1403.55,238.41Z" style="fill:#2e2d2c"/><path d="M1421,231a4.33,4.33,0,0,1,1.7-1.77,5.41,5.41,0,0,1,5.49.25,4.17,4.17,0,0,1,1.55,2.45H1428a2.55,2.55,0,0,0-1-1.43,3.09,3.09,0,0,0-1.81-.52,2.89,2.89,0,0,0-2.27,1,4,4,0,0,0-.86,2.72,4.05,4.05,0,0,0,.86,2.76,2.89,2.89,0,0,0,2.27,1,3.11,3.11,0,0,0,1.8-.5,2.58,2.58,0,0,0,1-1.44h1.76a4.36,4.36,0,0,1-1.58,2.42,4.77,4.77,0,0,1-3,.91,4.85,4.85,0,0,1-2.49-.63,4.32,4.32,0,0,1-1.7-1.79,5.61,5.61,0,0,1-.62-2.7A5.54,5.54,0,0,1,1421,231Z" style="fill:#2e2d2c"/><path d="M1433.71,238.17a4.49,4.49,0,0,1-1.76-1.8,5.43,5.43,0,0,1-.64-2.69A5.31,5.31,0,0,1,1432,231a4.51,4.51,0,0,1,1.79-1.78,5.49,5.49,0,0,1,5.07,0,4.42,4.42,0,0,1,1.79,1.77,5.3,5.3,0,0,1,.66,2.68,5.24,5.24,0,0,1-.67,2.69,4.66,4.66,0,0,1-1.83,1.8,5.25,5.25,0,0,1-2.56.63A5.06,5.06,0,0,1,1433.71,238.17Zm4.17-1.23a3.1,3.1,0,0,0,1.25-1.24,4,4,0,0,0,.48-2,4,4,0,0,0-.47-2,3.1,3.1,0,0,0-1.22-1.24,3.58,3.58,0,0,0-3.29,0,3,3,0,0,0-1.2,1.24,4.15,4.15,0,0,0-.45,2,4.22,4.22,0,0,0,.45,2,2.9,2.9,0,0,0,1.17,1.23,3.36,3.36,0,0,0,1.62.41A3.44,3.44,0,0,0,1437.88,236.94Z" style="fill:#2e2d2c"/><path d="M1457.36,229.07a3.38,3.38,0,0,1,1.42,1.43,4.74,4.74,0,0,1,.52,2.32v5.81h-1.62v-5.58a3.2,3.2,0,0,0-.73-2.26,2.57,2.57,0,0,0-2-.78,2.61,2.61,0,0,0-2,.82,3.36,3.36,0,0,0-.76,2.37v5.43h-1.62v-5.58a3.2,3.2,0,0,0-.73-2.26,2.55,2.55,0,0,0-2-.78,2.61,2.61,0,0,0-2,.82,3.36,3.36,0,0,0-.76,2.37v5.43h-1.64v-9.86h1.64v1.42a3.31,3.31,0,0,1,1.3-1.19,4,4,0,0,1,1.81-.41,4.31,4.31,0,0,1,2.2.56,3.37,3.37,0,0,1,1.42,1.64,3.21,3.21,0,0,1,1.37-1.62,4,4,0,0,1,2.12-.58A4.32,4.32,0,0,1,1457.36,229.07Z" style="fill:#2e2d2c"/><path d="M1470.93,234.31H1463a3.21,3.21,0,0,0,1,2.28,3.17,3.17,0,0,0,2.21.82,3,3,0,0,0,1.77-.5,2.58,2.58,0,0,0,1-1.32h1.76a4.2,4.2,0,0,1-1.58,2.31,4.75,4.75,0,0,1-3,.9,5,5,0,0,1-2.51-.63,4.44,4.44,0,0,1-1.74-1.8,5.54,5.54,0,0,1-.63-2.69A5.61,5.61,0,0,1,1462,231a4.26,4.26,0,0,1,1.72-1.77,5.07,5.07,0,0,1,2.55-.62,4.93,4.93,0,0,1,2.48.61,4.28,4.28,0,0,1,1.67,1.68,5,5,0,0,1,.58,2.42C1471,233.64,1471,234,1470.93,234.31Zm-2-2.94a2.8,2.8,0,0,0-1.13-1,3.55,3.55,0,0,0-1.57-.35,3,3,0,0,0-2.12.8,3.24,3.24,0,0,0-1,2.19h6.23A3.08,3.08,0,0,0,1468.88,231.37Z" style="fill:#2e2d2c"/><path d="M1475.14,230.12v5.81a1.37,1.37,0,0,0,.31,1,1.48,1.48,0,0,0,1.06.3h1.2v1.38h-1.47a2.93,2.93,0,0,1-2-.63,2.69,2.69,0,0,1-.69-2.07v-5.81h-1.28v-1.35h1.28v-2.48h1.64v2.48h2.57v1.35Z" style="fill:#2e2d2c"/><path d="M1479.75,226.84a1.12,1.12,0,0,1,.79-1.91,1,1,0,0,1,.76.33,1.14,1.14,0,0,1,0,1.58,1,1,0,0,1-.76.33A1.06,1.06,0,0,1,1479.75,226.84Zm1.58,1.93v9.86h-1.64v-9.86Z" style="fill:#2e2d2c"/><path d="M1484.12,231a4.48,4.48,0,0,1,1.68-1.77,4.69,4.69,0,0,1,2.41-.63,4.41,4.41,0,0,1,2.14.53,3.84,3.84,0,0,1,1.51,1.39v-5.22h1.66v13.32h-1.66v-1.85a3.78,3.78,0,0,1-1.44,1.45,4.25,4.25,0,0,1-2.23.57,4.48,4.48,0,0,1-4.07-2.47,5.64,5.64,0,0,1-.61-2.66A5.53,5.53,0,0,1,1484.12,231Zm7.29.73a3.16,3.16,0,0,0-1.21-1.27,3.38,3.38,0,0,0-1.69-.44,3.27,3.27,0,0,0-1.67.43,3.2,3.2,0,0,0-1.21,1.26,4,4,0,0,0-.45,1.95,4.12,4.12,0,0,0,.45,2,3.23,3.23,0,0,0,2.88,1.72,3.29,3.29,0,0,0,1.69-.45,3.16,3.16,0,0,0,1.21-1.27,4.08,4.08,0,0,0,.45-2A4,4,0,0,0,1491.41,231.74Z" style="fill:#2e2d2c"/><path d="M1498.08,238.17a4.42,4.42,0,0,1-1.76-1.8,5.89,5.89,0,0,1,0-5.36,4.57,4.57,0,0,1,1.79-1.78,5.16,5.16,0,0,1,2.54-.62,5.11,5.11,0,0,1,2.54.62A4.48,4.48,0,0,1,1505,231a5.3,5.3,0,0,1,.66,2.68,5.24,5.24,0,0,1-.68,2.69,4.63,4.63,0,0,1-1.82,1.8,5.25,5.25,0,0,1-2.56.63A5.06,5.06,0,0,1,1498.08,238.17Zm4.17-1.23a3.17,3.17,0,0,0,1.25-1.24,4,4,0,0,0,.47-2,4,4,0,0,0-.46-2,3.06,3.06,0,0,0-1.23-1.24,3.56,3.56,0,0,0-3.28,0,3,3,0,0,0-1.2,1.24,4.15,4.15,0,0,0-.45,2,4.33,4.33,0,0,0,.44,2A3,3,0,0,0,1499,237a3.3,3.3,0,0,0,1.62.41A3.44,3.44,0,0,0,1502.25,236.94Z" style="fill:#2e2d2c"/><path d="M1509.27,238.41a3.41,3.41,0,0,1-1.42-1.08,2.8,2.8,0,0,1-.58-1.59H1509a1.66,1.66,0,0,0,.69,1.2,2.67,2.67,0,0,0,1.63.47,2.41,2.41,0,0,0,1.48-.41,1.28,1.28,0,0,0,.54-1.05,1,1,0,0,0-.58-1,7.68,7.68,0,0,0-1.78-.62,12.48,12.48,0,0,1-1.79-.59,3.22,3.22,0,0,1-1.19-.88,2.3,2.3,0,0,1-.49-1.54,2.38,2.38,0,0,1,.45-1.39,3,3,0,0,1,1.28-1,4.52,4.52,0,0,1,1.89-.37,4,4,0,0,1,2.64.82,3,3,0,0,1,1.08,2.27h-1.64a1.67,1.67,0,0,0-.62-1.24,2.73,2.73,0,0,0-2.92-.09,1.16,1.16,0,0,0-.52,1,1.09,1.09,0,0,0,.31.8,2.34,2.34,0,0,0,.79.51c.32.12.76.26,1.33.42a13.26,13.26,0,0,1,1.72.57,3,3,0,0,1,1.15.83,2.29,2.29,0,0,1,.49,1.46,2.5,2.5,0,0,1-.45,1.46,3,3,0,0,1-1.27,1,4.6,4.6,0,0,1-1.88.37A5,5,0,0,1,1509.27,238.41Z" style="fill:#2e2d2c"/><path d="M1529.8,229.17a4.43,4.43,0,0,1,2.24-.56,4.61,4.61,0,0,1,2.39.63,4.41,4.41,0,0,1,1.68,1.77,5.53,5.53,0,0,1,.61,2.66,5.64,5.64,0,0,1-.61,2.66,4.48,4.48,0,0,1-1.68,1.82,4.53,4.53,0,0,1-2.39.65,4.29,4.29,0,0,1-2.22-.57,4,4,0,0,1-1.46-1.41v6.49h-1.64V228.77h1.64v1.82A3.85,3.85,0,0,1,1529.8,229.17Zm4.8,2.55a3.13,3.13,0,0,0-1.21-1.26,3.37,3.37,0,0,0-1.69-.43,3.3,3.3,0,0,0-1.66.44,3.23,3.23,0,0,0-1.23,1.28,4,4,0,0,0-.45,1.93,4.08,4.08,0,0,0,.45,2,3.27,3.27,0,0,0,1.23,1.27,3.21,3.21,0,0,0,1.66.45,3.29,3.29,0,0,0,1.69-.45,3.16,3.16,0,0,0,1.21-1.27,4.12,4.12,0,0,0,.45-2A4,4,0,0,0,1534.6,231.72Z" style="fill:#2e2d2c"/><path d="M1538.88,231a4.43,4.43,0,0,1,1.69-1.77,4.6,4.6,0,0,1,2.38-.63,4.27,4.27,0,0,1,2.25.56,3.68,3.68,0,0,1,1.42,1.4v-1.8h1.66v9.86h-1.66V236.8a3.87,3.87,0,0,1-1.44,1.43,4.34,4.34,0,0,1-2.24.57,4.5,4.5,0,0,1-2.38-.65,4.55,4.55,0,0,1-1.68-1.82,5.76,5.76,0,0,1-.61-2.66A5.64,5.64,0,0,1,1538.88,231Zm7.29.73a3.09,3.09,0,0,0-1.21-1.27,3.46,3.46,0,0,0-3.36,0,3.17,3.17,0,0,0-1.2,1.26,4,4,0,0,0-.45,1.95,4.12,4.12,0,0,0,.45,2,3.2,3.2,0,0,0,1.2,1.27,3.36,3.36,0,0,0,3.36,0,3.09,3.09,0,0,0,1.21-1.27,4.08,4.08,0,0,0,.45-2A4,4,0,0,0,1546.17,231.74Z" style="fill:#2e2d2c"/><path d="M1553.92,229.06a3.87,3.87,0,0,1,2-.47v1.69h-.43c-1.84,0-2.76,1-2.76,3v5.36h-1.64v-9.86h1.64v1.6A3.17,3.17,0,0,1,1553.92,229.06Z" style="fill:#2e2d2c"/><path d="M1557.77,231a4.41,4.41,0,0,1,1.68-1.77,4.6,4.6,0,0,1,2.38-.63,4.27,4.27,0,0,1,2.25.56,3.7,3.7,0,0,1,1.43,1.4v-1.8h1.65v9.86h-1.65V236.8a4,4,0,0,1-1.45,1.43,4.31,4.31,0,0,1-2.24.57,4.45,4.45,0,0,1-4-2.47,5.64,5.64,0,0,1-.62-2.66A5.53,5.53,0,0,1,1557.77,231Zm7.29.73a3.18,3.18,0,0,0-1.22-1.27,3.46,3.46,0,0,0-3.36,0,3.17,3.17,0,0,0-1.2,1.26,4,4,0,0,0-.45,1.95,4.12,4.12,0,0,0,.45,2,3.2,3.2,0,0,0,1.2,1.27,3.36,3.36,0,0,0,3.36,0,3.18,3.18,0,0,0,1.22-1.27,4.08,4.08,0,0,0,.45-2A4,4,0,0,0,1565.06,231.74Z" style="fill:#2e2d2c"/><path d="M1582.53,229.17a4.44,4.44,0,0,1,2.25-.56,4.6,4.6,0,0,1,2.38.63,4.41,4.41,0,0,1,1.68,1.77,5.53,5.53,0,0,1,.62,2.66,5.64,5.64,0,0,1-.62,2.66,4.48,4.48,0,0,1-4.06,2.47,4.3,4.3,0,0,1-2.23-.57,4.16,4.16,0,0,1-1.47-1.41v6.49h-1.63V228.77h1.63v1.82A4,4,0,0,1,1582.53,229.17Zm4.8,2.55a3.13,3.13,0,0,0-1.21-1.26,3.37,3.37,0,0,0-1.69-.43,3.3,3.3,0,0,0-1.66.44,3.23,3.23,0,0,0-1.23,1.28,4,4,0,0,0-.46,1.93,4.08,4.08,0,0,0,.46,2,3.27,3.27,0,0,0,1.23,1.27,3.21,3.21,0,0,0,1.66.45,3.29,3.29,0,0,0,1.69-.45,3.16,3.16,0,0,0,1.21-1.27,4.12,4.12,0,0,0,.45-2A4,4,0,0,0,1587.33,231.72Z" style="fill:#2e2d2c"/><path d="M1593.41,238.17a4.51,4.51,0,0,1-1.77-1.8,5.54,5.54,0,0,1-.64-2.69,5.31,5.31,0,0,1,.66-2.67,4.57,4.57,0,0,1,1.79-1.78,5.51,5.51,0,0,1,5.08,0,4.55,4.55,0,0,1,1.79,1.77,5.29,5.29,0,0,1,.65,2.68,5.24,5.24,0,0,1-.67,2.69,4.66,4.66,0,0,1-1.83,1.8,5.21,5.21,0,0,1-2.55.63A5,5,0,0,1,1593.41,238.17Zm4.16-1.23a3,3,0,0,0,1.25-1.24,4,4,0,0,0,.48-2,4,4,0,0,0-.47-2,3.1,3.1,0,0,0-1.22-1.24,3.58,3.58,0,0,0-3.29,0,3,3,0,0,0-1.19,1.24,4.15,4.15,0,0,0-.45,2,4.22,4.22,0,0,0,.44,2,2.87,2.87,0,0,0,1.18,1.23,3.3,3.3,0,0,0,1.62.41A3.4,3.4,0,0,0,1597.57,236.94Z" style="fill:#2e2d2c"/><path d="M1603.13,231a4.43,4.43,0,0,1,1.69-1.77,4.62,4.62,0,0,1,2.4-.63,4.38,4.38,0,0,1,2.14.53,3.87,3.87,0,0,1,1.52,1.39v-5.22h1.65v13.32h-1.65v-1.85a3.92,3.92,0,0,1-1.44,1.45,4.31,4.31,0,0,1-2.24.57,4.51,4.51,0,0,1-4.07-2.47,5.76,5.76,0,0,1-.61-2.66A5.64,5.64,0,0,1,1603.13,231Zm7.29.73a3.16,3.16,0,0,0-1.21-1.27,3.46,3.46,0,0,0-3.36,0,3.17,3.17,0,0,0-1.2,1.26,4,4,0,0,0-.45,1.95,4.12,4.12,0,0,0,.45,2,3.2,3.2,0,0,0,1.2,1.27,3.36,3.36,0,0,0,3.36,0,3.16,3.16,0,0,0,1.21-1.27,4.08,4.08,0,0,0,.46-2A4,4,0,0,0,1610.42,231.74Z" style="fill:#2e2d2c"/><path d="M1624.25,234.31h-7.88a3.09,3.09,0,0,0,3.2,3.1,3,3,0,0,0,1.77-.5,2.58,2.58,0,0,0,1-1.32h1.77a4.26,4.26,0,0,1-1.59,2.31,4.73,4.73,0,0,1-3,.9,5,5,0,0,1-2.51-.63,4.44,4.44,0,0,1-1.74-1.8,5.54,5.54,0,0,1-.63-2.69,5.61,5.61,0,0,1,.61-2.68,4.26,4.26,0,0,1,1.72-1.77,5.07,5.07,0,0,1,2.55-.62,4.93,4.93,0,0,1,2.48.61,4.28,4.28,0,0,1,1.67,1.68,5,5,0,0,1,.58,2.42A8.42,8.42,0,0,1,1624.25,234.31Zm-2-2.94a2.74,2.74,0,0,0-1.13-1,3.55,3.55,0,0,0-1.57-.35,3,3,0,0,0-2.12.8,3.24,3.24,0,0,0-1,2.19h6.23A3.08,3.08,0,0,0,1622.2,231.37Z" style="fill:#2e2d2c"/><path d="M1629.33,229.06a3.87,3.87,0,0,1,2-.47v1.69h-.44c-1.83,0-2.75,1-2.75,3v5.36h-1.64v-9.86h1.64v1.6A3.17,3.17,0,0,1,1629.33,229.06Z" style="fill:#2e2d2c"/><path d="M1248.17,252.61a4.42,4.42,0,0,1,1.71-1.77,5.41,5.41,0,0,1,5.49.25,4.17,4.17,0,0,1,1.55,2.45h-1.76a2.54,2.54,0,0,0-1-1.42,3,3,0,0,0-1.81-.53,2.89,2.89,0,0,0-2.27,1,3.91,3.91,0,0,0-.86,2.72,4,4,0,0,0,.86,2.76,2.89,2.89,0,0,0,2.27,1,3.11,3.11,0,0,0,1.8-.5,2.58,2.58,0,0,0,1-1.44h1.76a4.36,4.36,0,0,1-1.58,2.42,4.79,4.79,0,0,1-3,.91,4.85,4.85,0,0,1-2.49-.63,4.41,4.41,0,0,1-1.71-1.79,5.72,5.72,0,0,1-.61-2.7A5.66,5.66,0,0,1,1248.17,252.61Z" style="fill:#2e2d2c"/><path d="M1260.89,259.77a4.42,4.42,0,0,1-1.76-1.8,5.89,5.89,0,0,1,0-5.36,4.53,4.53,0,0,1,1.8-1.78,5.49,5.49,0,0,1,5.07,0,4.48,4.48,0,0,1,1.79,1.77,5.3,5.3,0,0,1,.66,2.68,5.24,5.24,0,0,1-.68,2.69,4.7,4.7,0,0,1-1.82,1.8,5.25,5.25,0,0,1-2.56.63A5.06,5.06,0,0,1,1260.89,259.77Zm4.17-1.23a3.17,3.17,0,0,0,1.25-1.24,4,4,0,0,0,.48-2,4,4,0,0,0-.47-2,3.06,3.06,0,0,0-1.23-1.24,3.56,3.56,0,0,0-3.28,0,3,3,0,0,0-1.2,1.24,4.15,4.15,0,0,0-.45,2,4.33,4.33,0,0,0,.44,2,3,3,0,0,0,1.18,1.23,3.3,3.3,0,0,0,1.62.41A3.44,3.44,0,0,0,1265.06,258.54Z" style="fill:#2e2d2c"/><path d="M1273.49,250.66a3.83,3.83,0,0,1,2-.47v1.69H1275c-1.83,0-2.75,1-2.75,3v5.36h-1.64v-9.86h1.64V252A3.11,3.11,0,0,1,1273.49,250.66Z" style="fill:#2e2d2c"/><path d="M1280.2,250.66a3.87,3.87,0,0,1,2-.47v1.69h-.44c-1.83,0-2.75,1-2.75,3v5.36h-1.64v-9.86H1279V252A3.17,3.17,0,0,1,1280.2,250.66Z" style="fill:#2e2d2c"/><path d="M1293,255.91h-7.88a3.1,3.1,0,0,0,3.2,3.1,3.06,3.06,0,0,0,1.78-.5,2.62,2.62,0,0,0,1-1.32h1.77a4.25,4.25,0,0,1-1.58,2.31,4.78,4.78,0,0,1-3,.9,5,5,0,0,1-2.51-.63,4.44,4.44,0,0,1-1.74-1.8,5.54,5.54,0,0,1-.62-2.69,5.61,5.61,0,0,1,.61-2.68,4.26,4.26,0,0,1,1.72-1.77,5,5,0,0,1,2.54-.62,4.94,4.94,0,0,1,2.49.61,4.26,4.26,0,0,1,1.66,1.68,5,5,0,0,1,.59,2.42A8.47,8.47,0,0,1,1293,255.91Zm-2-2.94a2.72,2.72,0,0,0-1.12-1,3.59,3.59,0,0,0-1.58-.35,3,3,0,0,0-2.11.8,3.16,3.16,0,0,0-1,2.19h6.23A3,3,0,0,0,1290.94,253Z" style="fill:#2e2d2c"/><path d="M1301.52,250.77a3.77,3.77,0,0,1,1.43,1.4v-1.8h1.65v10.08a5,5,0,0,1-.57,2.4,4.22,4.22,0,0,1-1.65,1.65,5,5,0,0,1-2.49.59,5.46,5.46,0,0,1-3.24-.91,3.57,3.57,0,0,1-1.53-2.51h1.62a2.57,2.57,0,0,0,1.11,1.45,3.64,3.64,0,0,0,2,.55,3,3,0,0,0,2.2-.84,3.21,3.21,0,0,0,.86-2.38v-2.07a4,4,0,0,1-1.44,1.44,4.28,4.28,0,0,1-2.23.58,4.48,4.48,0,0,1-4.07-2.47,5.64,5.64,0,0,1-.62-2.66,5.53,5.53,0,0,1,.62-2.66,4.48,4.48,0,0,1,1.68-1.77,4.61,4.61,0,0,1,2.39-.63A4.33,4.33,0,0,1,1301.52,250.77Zm1,2.57a3.18,3.18,0,0,0-1.22-1.27,3.46,3.46,0,0,0-3.36,0,3.17,3.17,0,0,0-1.2,1.26,4,4,0,0,0-.45,2,4.12,4.12,0,0,0,.45,2,3.2,3.2,0,0,0,1.2,1.27,3.36,3.36,0,0,0,3.36,0,3.18,3.18,0,0,0,1.22-1.27,4.08,4.08,0,0,0,.45-2A4,4,0,0,0,1302.5,253.34Z" style="fill:#2e2d2c"/><path d="M1307.43,248.44a1,1,0,0,1-.32-.79,1.06,1.06,0,0,1,.32-.79,1,1,0,0,1,.79-.32,1,1,0,0,1,.77.32,1.09,1.09,0,0,1,.31.79,1.08,1.08,0,0,1-.31.79,1,1,0,0,1-.77.33A1.06,1.06,0,0,1,1307.43,248.44Zm1.58,1.93v9.86h-1.63v-9.86Z" style="fill:#2e2d2c"/><path d="M1314.67,250.66a3.87,3.87,0,0,1,2-.47v1.69h-.44c-1.83,0-2.75,1-2.75,3v5.36h-1.64v-9.86h1.64V252A3.17,3.17,0,0,1,1314.67,250.66Z" style="fill:#2e2d2c"/><path d="M1320.15,246.91v13.32h-1.63V246.91Z" style="fill:#2e2d2c"/><path d="M1324.73,259.77A4.49,4.49,0,0,1,1323,258a5.43,5.43,0,0,1-.64-2.69,5.31,5.31,0,0,1,.66-2.67,4.51,4.51,0,0,1,1.79-1.78,5.51,5.51,0,0,1,5.08,0,4.55,4.55,0,0,1,1.79,1.77,5.4,5.4,0,0,1,.65,2.68,5.24,5.24,0,0,1-.67,2.69,4.66,4.66,0,0,1-1.83,1.8,5.24,5.24,0,0,1-2.55.63A5.07,5.07,0,0,1,1324.73,259.77Zm4.17-1.23a3.1,3.1,0,0,0,1.25-1.24,4,4,0,0,0,.48-2,4,4,0,0,0-.47-2,3.1,3.1,0,0,0-1.22-1.24,3.58,3.58,0,0,0-3.29,0,3,3,0,0,0-1.19,1.24,4.15,4.15,0,0,0-.45,2,4.22,4.22,0,0,0,.44,2,2.87,2.87,0,0,0,1.18,1.23,3.3,3.3,0,0,0,1.62.41A3.4,3.4,0,0,0,1328.9,258.54Z" style="fill:#2e2d2c"/><path d="M1335.92,260a3.47,3.47,0,0,1-1.42-1.08,2.88,2.88,0,0,1-.58-1.59h1.7a1.6,1.6,0,0,0,.69,1.2,2.65,2.65,0,0,0,1.63.47,2.34,2.34,0,0,0,1.47-.42,1.25,1.25,0,0,0,.54-1,1,1,0,0,0-.57-1,8,8,0,0,0-1.78-.62,12.67,12.67,0,0,1-1.8-.59,3.18,3.18,0,0,1-1.18-.88,2.3,2.3,0,0,1-.5-1.54,2.32,2.32,0,0,1,.45-1.38,3,3,0,0,1,1.28-1,4.52,4.52,0,0,1,1.89-.37,4,4,0,0,1,2.65.83,3,3,0,0,1,1.08,2.26h-1.64a1.74,1.74,0,0,0-.62-1.24,2.34,2.34,0,0,0-1.52-.47,2.38,2.38,0,0,0-1.41.38,1.16,1.16,0,0,0-.52,1,1.08,1.08,0,0,0,.32.8,2.34,2.34,0,0,0,.79.51q.48.18,1.32.42a13.47,13.47,0,0,1,1.73.57,3,3,0,0,1,1.14.83,2.3,2.3,0,0,1,.5,1.46,2.5,2.5,0,0,1-.45,1.46,3.09,3.09,0,0,1-1.27,1,4.67,4.67,0,0,1-1.88.37A5.08,5.08,0,0,1,1335.92,260Z" style="fill:#2e2d2c"/><path d="M1343.59,260a1.15,1.15,0,0,1,0-1.59,1.1,1.1,0,0,1,.79-.32,1.06,1.06,0,0,1,.77.32,1.17,1.17,0,0,1,0,1.59,1.06,1.06,0,0,1-.77.32A1.1,1.1,0,0,1,1343.59,260Z" style="fill:#2e2d2c"/><path d="M1248.39,309.45a6,6,0,0,1,2.26-2.3,6.23,6.23,0,0,1,3.18-.82,6.46,6.46,0,0,1,3.58,1,5.63,5.63,0,0,1,2.23,2.8h-2a3.94,3.94,0,0,0-1.5-1.74,4.36,4.36,0,0,0-2.35-.62,4.54,4.54,0,0,0-2.36.62,4.22,4.22,0,0,0-1.64,1.73,6.16,6.16,0,0,0,0,5.26,4.3,4.3,0,0,0,1.64,1.74,4.63,4.63,0,0,0,2.36.61,4.44,4.44,0,0,0,2.35-.6,3.94,3.94,0,0,0,1.5-1.74h2a5.62,5.62,0,0,1-2.23,2.78,6.54,6.54,0,0,1-3.58,1,6.23,6.23,0,0,1-3.18-.82,5.94,5.94,0,0,1-2.26-2.27,7,7,0,0,1,0-6.6Z" style="fill:#2e2d2c"/><path d="M1262.07,311.41a4.48,4.48,0,0,1,1.68-1.77,4.64,4.64,0,0,1,2.39-.63,4.32,4.32,0,0,1,2.25.56,3.75,3.75,0,0,1,1.42,1.4v-1.8h1.66V319h-1.66V317.2a3.9,3.9,0,0,1-1.45,1.43,4.31,4.31,0,0,1-2.24.56,4.49,4.49,0,0,1-2.38-.64,4.67,4.67,0,0,1-1.67-1.82,5.64,5.64,0,0,1-.61-2.66A5.53,5.53,0,0,1,1262.07,311.41Zm7.29.73a3.18,3.18,0,0,0-1.22-1.27,3.34,3.34,0,0,0-1.68-.44,3.27,3.27,0,0,0-1.67.43,3.13,3.13,0,0,0-1.21,1.26,4,4,0,0,0-.45,1.95,4.12,4.12,0,0,0,.45,2,3.16,3.16,0,0,0,1.21,1.27,3.19,3.19,0,0,0,1.67.45,3.25,3.25,0,0,0,1.68-.45,3.18,3.18,0,0,0,1.22-1.27,4.08,4.08,0,0,0,.45-2A4,4,0,0,0,1269.36,312.14Z" style="fill:#2e2d2c"/><path d="M1288.15,309.47a3.32,3.32,0,0,1,1.42,1.43,4.74,4.74,0,0,1,.53,2.32V319h-1.62v-5.58a3.25,3.25,0,0,0-.73-2.26,2.58,2.58,0,0,0-2-.78,2.63,2.63,0,0,0-2,.82,3.4,3.4,0,0,0-.75,2.37V319h-1.62v-5.58a3.25,3.25,0,0,0-.73-2.26,2.58,2.58,0,0,0-2-.78,2.63,2.63,0,0,0-2,.82,3.4,3.4,0,0,0-.75,2.37V319h-1.64v-9.86h1.64v1.42a3.25,3.25,0,0,1,1.3-1.19A4,4,0,0,1,1279,309a4.31,4.31,0,0,1,2.2.56,3.44,3.44,0,0,1,1.42,1.63,3.18,3.18,0,0,1,1.37-1.61,4,4,0,0,1,2.12-.58A4.28,4.28,0,0,1,1288.15,309.47Z" style="fill:#2e2d2c"/><path d="M1295.89,309.57a4.31,4.31,0,0,1,2.22-.56,4.61,4.61,0,0,1,2.39.63,4.39,4.39,0,0,1,1.67,1.77,5.53,5.53,0,0,1,.62,2.66,5.64,5.64,0,0,1-.62,2.66,4.45,4.45,0,0,1-4.06,2.46,4.38,4.38,0,0,1-2.24-.55,3.81,3.81,0,0,1-1.45-1.42V319h-1.64V305.71h1.64V311A3.77,3.77,0,0,1,1295.89,309.57Zm4.77,2.55a3.13,3.13,0,0,0-1.21-1.26,3.35,3.35,0,0,0-1.69-.43,3.3,3.3,0,0,0-1.66.44,3.14,3.14,0,0,0-1.22,1.28,3.91,3.91,0,0,0-.46,1.93,4,4,0,0,0,.46,2,3.26,3.26,0,0,0,2.88,1.72,3.26,3.26,0,0,0,1.69-.45,3.16,3.16,0,0,0,1.21-1.27,4.12,4.12,0,0,0,.45-2A4,4,0,0,0,1300.66,312.12Z" style="fill:#2e2d2c"/><path d="M1305,307.24a1.14,1.14,0,0,1,0-1.58,1.06,1.06,0,0,1,.79-.32,1,1,0,0,1,.77.32,1.16,1.16,0,0,1,0,1.58,1,1,0,0,1-.77.33A1.07,1.07,0,0,1,1305,307.24Zm1.58,1.93V319H1305v-9.86Z" style="fill:#2e2d2c"/><path d="M1309.37,311.41a4.43,4.43,0,0,1,1.69-1.77,4.6,4.6,0,0,1,2.38-.63,4.27,4.27,0,0,1,2.25.56,3.68,3.68,0,0,1,1.42,1.4v-1.8h1.66V319h-1.66V317.2a3.83,3.83,0,0,1-1.45,1.43,4.28,4.28,0,0,1-2.24.56,4.48,4.48,0,0,1-2.37-.64,4.62,4.62,0,0,1-1.68-1.82,5.76,5.76,0,0,1-.61-2.66A5.64,5.64,0,0,1,1309.37,311.41Zm7.29.73a3.16,3.16,0,0,0-1.21-1.27,3.34,3.34,0,0,0-1.68-.44,3.31,3.31,0,0,0-1.68.43,3.17,3.17,0,0,0-1.2,1.26,4,4,0,0,0-.45,1.95,4.12,4.12,0,0,0,.45,2,3.2,3.2,0,0,0,2.88,1.72,3.25,3.25,0,0,0,1.68-.45,3.16,3.16,0,0,0,1.21-1.27,4.08,4.08,0,0,0,.45-2A4,4,0,0,0,1316.66,312.14Z" style="fill:#2e2d2c"/><path d="M1324.41,309.46a3.87,3.87,0,0,1,2-.47v1.69h-.44c-1.83,0-2.75,1-2.75,3V319h-1.64v-9.86h1.64v1.6A3.17,3.17,0,0,1,1324.41,309.46Z" style="fill:#2e2d2c"/><path d="M1337.55,318.81a3.47,3.47,0,0,1-1.42-1.08,2.88,2.88,0,0,1-.58-1.59h1.7a1.6,1.6,0,0,0,.69,1.2,2.63,2.63,0,0,0,1.63.47,2.34,2.34,0,0,0,1.47-.42,1.25,1.25,0,0,0,.54-1,1,1,0,0,0-.57-1,8,8,0,0,0-1.79-.62,12.92,12.92,0,0,1-1.79-.59,3.18,3.18,0,0,1-1.18-.88,2.3,2.3,0,0,1-.5-1.54,2.38,2.38,0,0,1,.45-1.39,3,3,0,0,1,1.28-1,4.52,4.52,0,0,1,1.89-.37,4,4,0,0,1,2.65.83,3,3,0,0,1,1.08,2.26h-1.64a1.74,1.74,0,0,0-.62-1.24,2.75,2.75,0,0,0-2.93-.09,1.16,1.16,0,0,0-.52,1,1.07,1.07,0,0,0,.31.8,2.39,2.39,0,0,0,.8.51q.46.18,1.32.42a13.47,13.47,0,0,1,1.73.57,3,3,0,0,1,1.14.83,2.28,2.28,0,0,1,.5,1.46,2.44,2.44,0,0,1-.46,1.46,3,3,0,0,1-1.26,1,4.69,4.69,0,0,1-1.89.36A5.07,5.07,0,0,1,1337.55,318.81Z" style="fill:#2e2d2c"/><path d="M1354.24,309.17V319h-1.64v-1.45a3.17,3.17,0,0,1-1.31,1.17,3.9,3.9,0,0,1-1.84.43,4.39,4.39,0,0,1-2.07-.48,3.44,3.44,0,0,1-1.45-1.43,4.76,4.76,0,0,1-.53-2.32v-5.78H1347v5.56a3.11,3.11,0,0,0,.74,2.24,3,3,0,0,0,4.08,0,3.27,3.27,0,0,0,.76-2.35v-5.42Z" style="fill:#2e2d2c"/><path d="M1358.47,318.81a3.5,3.5,0,0,1-1.43-1.08,2.87,2.87,0,0,1-.57-1.59h1.69a1.66,1.66,0,0,0,.69,1.2,2.67,2.67,0,0,0,1.63.47,2.35,2.35,0,0,0,1.48-.42,1.25,1.25,0,0,0,.54-1,1,1,0,0,0-.58-1,7.68,7.68,0,0,0-1.78-.62,12.48,12.48,0,0,1-1.79-.59,3.22,3.22,0,0,1-1.19-.88,2.3,2.3,0,0,1-.49-1.54,2.38,2.38,0,0,1,.45-1.39,3,3,0,0,1,1.27-1,4.6,4.6,0,0,1,1.9-.37,4,4,0,0,1,2.64.83,3,3,0,0,1,1.08,2.26h-1.64a1.67,1.67,0,0,0-.62-1.24,2.73,2.73,0,0,0-2.92-.09,1.17,1.17,0,0,0-.53,1,1.08,1.08,0,0,0,.32.8,2.34,2.34,0,0,0,.79.51q.48.18,1.32.42a13,13,0,0,1,1.73.57,3,3,0,0,1,1.15.83,2.27,2.27,0,0,1,.49,1.46,2.5,2.5,0,0,1-.45,1.46,3,3,0,0,1-1.27,1,4.6,4.6,0,0,1-1.88.36A5.07,5.07,0,0,1,1358.47,318.81Z" style="fill:#2e2d2c"/><path d="M1383.19,314.71h-7.89a3.23,3.23,0,0,0,1,2.28,3.17,3.17,0,0,0,2.21.82,3,3,0,0,0,1.77-.5,2.58,2.58,0,0,0,1-1.32H1383a4.2,4.2,0,0,1-1.58,2.31,4.74,4.74,0,0,1-3,.89,5,5,0,0,1-2.51-.62,4.44,4.44,0,0,1-1.74-1.8,5.54,5.54,0,0,1-.63-2.69,5.61,5.61,0,0,1,.61-2.68,4.26,4.26,0,0,1,1.72-1.77,5.07,5.07,0,0,1,2.55-.62,4.93,4.93,0,0,1,2.48.61,4.28,4.28,0,0,1,1.67,1.68,5,5,0,0,1,.58,2.42C1383.24,314,1383.22,314.36,1383.19,314.71Zm-2-2.94a2.74,2.74,0,0,0-1.13-1,3.55,3.55,0,0,0-1.57-.35,3.08,3.08,0,0,0-2.12.79,3.27,3.27,0,0,0-1,2.2h6.23A3.08,3.08,0,0,0,1381.14,311.77Z" style="fill:#2e2d2c"/><path d="M1386.86,318.81a3.47,3.47,0,0,1-1.42-1.08,2.88,2.88,0,0,1-.58-1.59h1.69a1.64,1.64,0,0,0,.7,1.2,2.65,2.65,0,0,0,1.63.47,2.34,2.34,0,0,0,1.47-.42,1.25,1.25,0,0,0,.54-1,1,1,0,0,0-.57-1,8,8,0,0,0-1.78-.62,12.67,12.67,0,0,1-1.8-.59,3.18,3.18,0,0,1-1.18-.88,2.3,2.3,0,0,1-.5-1.54,2.38,2.38,0,0,1,.45-1.39,3,3,0,0,1,1.28-1,4.52,4.52,0,0,1,1.89-.37,4,4,0,0,1,2.64.83,2.91,2.91,0,0,1,1.08,2.26h-1.63a1.74,1.74,0,0,0-.62-1.24,2.75,2.75,0,0,0-2.93-.09,1.16,1.16,0,0,0-.52,1,1.07,1.07,0,0,0,.31.8,2.39,2.39,0,0,0,.8.51q.46.18,1.32.42a13.47,13.47,0,0,1,1.73.57,3,3,0,0,1,1.14.83,2.22,2.22,0,0,1,.49,1.46,2.5,2.5,0,0,1-.45,1.46,3.06,3.06,0,0,1-1.26,1,4.69,4.69,0,0,1-1.89.36A5.07,5.07,0,0,1,1386.86,318.81Z" style="fill:#2e2d2c"/><path d="M1396.8,310.52v5.81a1.41,1.41,0,0,0,.3,1,1.51,1.51,0,0,0,1.06.3h1.21V319h-1.48a2.94,2.94,0,0,1-2.05-.63,2.73,2.73,0,0,1-.68-2.07v-5.81h-1.28v-1.35h1.28v-2.49h1.64v2.49h2.57v1.35Z" style="fill:#2e2d2c"/><path d="M1404.22,309.46a3.86,3.86,0,0,1,2-.47v1.69h-.43c-1.83,0-2.75,1-2.75,3V319h-1.64v-9.86H1403v1.6A3.17,3.17,0,0,1,1404.22,309.46Z" style="fill:#2e2d2c"/><path d="M1408.06,311.41a4.43,4.43,0,0,1,1.69-1.77,4.6,4.6,0,0,1,2.38-.63,4.27,4.27,0,0,1,2.25.56,3.68,3.68,0,0,1,1.42,1.4v-1.8h1.66V319h-1.66V317.2a3.87,3.87,0,0,1-1.44,1.43,4.35,4.35,0,0,1-2.25.56,4.48,4.48,0,0,1-2.37-.64,4.62,4.62,0,0,1-1.68-1.82,5.76,5.76,0,0,1-.61-2.66A5.64,5.64,0,0,1,1408.06,311.41Zm7.29.73a3.16,3.16,0,0,0-1.21-1.27,3.34,3.34,0,0,0-1.68-.44,3.31,3.31,0,0,0-1.68.43,3.17,3.17,0,0,0-1.2,1.26,4,4,0,0,0-.45,1.95,4.12,4.12,0,0,0,.45,2,3.2,3.2,0,0,0,2.88,1.72,3.25,3.25,0,0,0,1.68-.45,3.16,3.16,0,0,0,1.21-1.27,4.08,4.08,0,0,0,.45-2A4,4,0,0,0,1415.35,312.14Z" style="fill:#2e2d2c"/><path d="M1422.23,310.52v5.81a1.37,1.37,0,0,0,.31,1,1.48,1.48,0,0,0,1.06.3h1.2V319h-1.47a2.93,2.93,0,0,1-2-.63,2.69,2.69,0,0,1-.69-2.07v-5.81h-1.28v-1.35h1.28v-2.49h1.64v2.49h2.57v1.35Z" style="fill:#2e2d2c"/><path d="M1435.73,314.71h-7.88a3.22,3.22,0,0,0,1,2.28,3.19,3.19,0,0,0,2.21.82,3,3,0,0,0,1.77-.5,2.58,2.58,0,0,0,1-1.32h1.77a4.26,4.26,0,0,1-1.59,2.31,4.72,4.72,0,0,1-3,.89,5,5,0,0,1-2.51-.62,4.44,4.44,0,0,1-1.74-1.8,5.54,5.54,0,0,1-.63-2.69,5.73,5.73,0,0,1,.61-2.68,4.32,4.32,0,0,1,1.72-1.77,5.07,5.07,0,0,1,2.55-.62,4.9,4.9,0,0,1,2.48.61,4.28,4.28,0,0,1,1.67,1.68,5,5,0,0,1,.58,2.42A8.63,8.63,0,0,1,1435.73,314.71Zm-2-2.94a2.74,2.74,0,0,0-1.13-1,3.55,3.55,0,0,0-1.57-.35,3.09,3.09,0,0,0-2.12.79,3.27,3.27,0,0,0-1,2.2h6.23A3.08,3.08,0,0,0,1433.68,311.77Z" style="fill:#2e2d2c"/><path d="M1444.25,309.57a3.7,3.7,0,0,1,1.43,1.4v-1.8h1.66v10.08a4.84,4.84,0,0,1-.58,2.4,4.13,4.13,0,0,1-1.64,1.65,5.16,5.16,0,0,1-2.5.59,5.44,5.44,0,0,1-3.24-.92,3.6,3.6,0,0,1-1.53-2.5h1.62a2.58,2.58,0,0,0,1.12,1.45,3.61,3.61,0,0,0,2,.55,3,3,0,0,0,2.21-.85,3.17,3.17,0,0,0,.85-2.37v-2.07a3.83,3.83,0,0,1-1.44,1.44,4.25,4.25,0,0,1-2.23.57,4.52,4.52,0,0,1-2.38-.64,4.57,4.57,0,0,1-1.69-1.82,5.76,5.76,0,0,1-.61-2.66,5.64,5.64,0,0,1,.61-2.66,4.43,4.43,0,0,1,1.69-1.77A4.6,4.6,0,0,1,1442,309,4.31,4.31,0,0,1,1444.25,309.57Zm1,2.57a3.16,3.16,0,0,0-1.21-1.27,3.34,3.34,0,0,0-1.68-.44,3.31,3.31,0,0,0-1.68.43,3.17,3.17,0,0,0-1.2,1.26,4,4,0,0,0-.45,1.95,4.12,4.12,0,0,0,.45,2,3.2,3.2,0,0,0,2.88,1.72,3.25,3.25,0,0,0,1.68-.45,3.16,3.16,0,0,0,1.21-1.27,4.08,4.08,0,0,0,.45-2A4,4,0,0,0,1445.23,312.14Z" style="fill:#2e2d2c"/><path d="M1450.17,307.24a1.11,1.11,0,0,1,.79-1.9,1,1,0,0,1,.76.32,1.14,1.14,0,0,1,0,1.58,1,1,0,0,1-.76.33A1.06,1.06,0,0,1,1450.17,307.24Zm1.58,1.93V319h-1.64v-9.86Z" style="fill:#2e2d2c"/><path d="M1454.54,311.41a4.48,4.48,0,0,1,1.68-1.77,4.64,4.64,0,0,1,2.39-.63,4.32,4.32,0,0,1,2.25.56,3.75,3.75,0,0,1,1.42,1.4v-1.8h1.66V319h-1.66V317.2a3.9,3.9,0,0,1-1.45,1.43,4.31,4.31,0,0,1-2.24.56,4.49,4.49,0,0,1-2.38-.64,4.67,4.67,0,0,1-1.67-1.82,5.64,5.64,0,0,1-.61-2.66A5.53,5.53,0,0,1,1454.54,311.41Zm7.29.73a3.18,3.18,0,0,0-1.22-1.27,3.34,3.34,0,0,0-1.68-.44,3.27,3.27,0,0,0-1.67.43,3.13,3.13,0,0,0-1.21,1.26,4,4,0,0,0-.45,1.95,4.12,4.12,0,0,0,.45,2,3.16,3.16,0,0,0,1.21,1.27,3.19,3.19,0,0,0,1.67.45,3.25,3.25,0,0,0,1.68-.45,3.18,3.18,0,0,0,1.22-1.27,4.08,4.08,0,0,0,.45-2A4,4,0,0,0,1461.83,312.14Z" style="fill:#2e2d2c"/><path d="M1468.17,318.81a3.44,3.44,0,0,1-1.43-1.08,2.79,2.79,0,0,1-.57-1.59h1.69a1.66,1.66,0,0,0,.69,1.2,2.67,2.67,0,0,0,1.63.47,2.37,2.37,0,0,0,1.48-.42,1.25,1.25,0,0,0,.54-1,1,1,0,0,0-.58-1,7.86,7.86,0,0,0-1.78-.62,12.48,12.48,0,0,1-1.79-.59,3.22,3.22,0,0,1-1.19-.88,2.3,2.3,0,0,1-.49-1.54,2.38,2.38,0,0,1,.45-1.39,3,3,0,0,1,1.27-1A4.55,4.55,0,0,1,1470,309a4,4,0,0,1,2.65.83,3,3,0,0,1,1.08,2.26h-1.64a1.67,1.67,0,0,0-.62-1.24,2.73,2.73,0,0,0-2.92-.09,1.17,1.17,0,0,0-.53,1,1.08,1.08,0,0,0,.32.8,2.34,2.34,0,0,0,.79.51q.48.18,1.32.42a13,13,0,0,1,1.73.57,2.85,2.85,0,0,1,1.14.83,2.22,2.22,0,0,1,.5,1.46,2.5,2.5,0,0,1-.45,1.46,3,3,0,0,1-1.27,1,4.64,4.64,0,0,1-1.88.36A5,5,0,0,1,1468.17,318.81Z" style="fill:#2e2d2c"/><path d="M1483.94,311.41a4.48,4.48,0,0,1,1.68-1.77A4.69,4.69,0,0,1,1488,309a4.41,4.41,0,0,1,2.14.53,3.84,3.84,0,0,1,1.51,1.39v-5.22h1.66V319h-1.66v-1.85a3.78,3.78,0,0,1-1.44,1.45,4.25,4.25,0,0,1-2.23.56,4.55,4.55,0,0,1-2.39-.64,4.62,4.62,0,0,1-1.68-1.82,5.64,5.64,0,0,1-.61-2.66A5.53,5.53,0,0,1,1483.94,311.41Zm7.29.73a3.16,3.16,0,0,0-1.21-1.27,3.35,3.35,0,0,0-1.69-.44,3.27,3.27,0,0,0-1.67.43,3.2,3.2,0,0,0-1.21,1.26,4,4,0,0,0-.45,1.95,4.12,4.12,0,0,0,.45,2,3.23,3.23,0,0,0,2.88,1.72,3.26,3.26,0,0,0,1.69-.45,3.16,3.16,0,0,0,1.21-1.27,4.08,4.08,0,0,0,.45-2A4,4,0,0,0,1491.23,312.14Z" style="fill:#2e2d2c"/><path d="M1505.05,314.71h-7.88a3.1,3.1,0,0,0,3.21,3.1,3.05,3.05,0,0,0,1.77-.5,2.63,2.63,0,0,0,1-1.32h1.76a4.2,4.2,0,0,1-1.58,2.31,4.74,4.74,0,0,1-2.95.89,5,5,0,0,1-2.52-.62,4.48,4.48,0,0,1-1.73-1.8,5.54,5.54,0,0,1-.63-2.69,5.61,5.61,0,0,1,.61-2.68,4.26,4.26,0,0,1,1.72-1.77,5.07,5.07,0,0,1,2.55-.62,4.93,4.93,0,0,1,2.48.61,4.26,4.26,0,0,1,1.66,1.68,5,5,0,0,1,.59,2.42A8.74,8.74,0,0,1,1505.05,314.71Zm-2-2.94a2.72,2.72,0,0,0-1.12-1,3.59,3.59,0,0,0-1.58-.35,3.05,3.05,0,0,0-2.11.79,3.22,3.22,0,0,0-1,2.2h6.23A3,3,0,0,0,1503,311.77Z" style="fill:#2e2d2c"/><path d="M1515.11,311.41a4.41,4.41,0,0,1,1.68-1.77,4.6,4.6,0,0,1,2.38-.63,4.27,4.27,0,0,1,2.25.56,3.7,3.7,0,0,1,1.43,1.4v-1.8h1.65V319h-1.65V317.2a4,4,0,0,1-1.45,1.43,4.31,4.31,0,0,1-2.24.56,4.42,4.42,0,0,1-4.05-2.46,5.64,5.64,0,0,1-.62-2.66A5.53,5.53,0,0,1,1515.11,311.41Zm7.29.73a3.18,3.18,0,0,0-1.22-1.27,3.46,3.46,0,0,0-3.36,0,3.17,3.17,0,0,0-1.2,1.26,4,4,0,0,0-.45,1.95,4.12,4.12,0,0,0,.45,2,3.2,3.2,0,0,0,1.2,1.27,3.36,3.36,0,0,0,3.36,0,3.18,3.18,0,0,0,1.22-1.27,4.08,4.08,0,0,0,.45-2A4,4,0,0,0,1522.4,312.14Z" style="fill:#2e2d2c"/><path d="M1536,309.17V319h-1.64v-1.45a3.14,3.14,0,0,1-1.3,1.17,3.94,3.94,0,0,1-1.85.43,4.45,4.45,0,0,1-2.07-.48,3.42,3.42,0,0,1-1.44-1.43,4.66,4.66,0,0,1-.54-2.32v-5.78h1.62v5.56a3.15,3.15,0,0,0,.74,2.24,3,3,0,0,0,4.09,0,3.32,3.32,0,0,0,.75-2.35v-5.42Z" style="fill:#2e2d2c"/><path d="M1540.79,310.52v5.81a1.37,1.37,0,0,0,.31,1,1.49,1.49,0,0,0,1.06.3h1.21V319h-1.48a2.93,2.93,0,0,1-2.05-.63,2.69,2.69,0,0,1-.69-2.07v-5.81h-1.27v-1.35h1.27v-2.49h1.64v2.49h2.58v1.35Z" style="fill:#2e2d2c"/><path d="M1547.14,318.57a4.51,4.51,0,0,1-1.77-1.8,5.54,5.54,0,0,1-.64-2.69,5.31,5.31,0,0,1,.66-2.67,4.57,4.57,0,0,1,1.79-1.78,5.51,5.51,0,0,1,5.08,0,4.55,4.55,0,0,1,1.79,1.77,5.3,5.3,0,0,1,.66,2.68,5.24,5.24,0,0,1-.68,2.69,4.7,4.7,0,0,1-1.82,1.8,5.27,5.27,0,0,1-2.56.62A5,5,0,0,1,1547.14,318.57Zm4.16-1.23a3.13,3.13,0,0,0,1.26-1.24,4.08,4.08,0,0,0,.47-2,3.93,3.93,0,0,0-.47-2,3,3,0,0,0-1.22-1.24,3.4,3.4,0,0,0-1.64-.4,3.35,3.35,0,0,0-1.64.4,2.94,2.94,0,0,0-1.2,1.24,4.15,4.15,0,0,0-.45,2,4.22,4.22,0,0,0,.44,2,2.93,2.93,0,0,0,1.18,1.23,3.3,3.3,0,0,0,1.62.41A3.37,3.37,0,0,0,1551.3,317.34Z" style="fill:#2e2d2c"/><path d="M1559.74,309.46a3.8,3.8,0,0,1,2-.47v1.69h-.43c-1.84,0-2.76,1-2.76,3V319h-1.63v-9.86h1.63v1.6A3.13,3.13,0,0,1,1559.74,309.46Z" style="fill:#2e2d2c"/><path d="M1566.45,309.46a3.86,3.86,0,0,1,2-.47v1.69H1568c-1.83,0-2.75,1-2.75,3V319h-1.64v-9.86h1.64v1.6A3.17,3.17,0,0,1,1566.45,309.46Z" style="fill:#2e2d2c"/><path d="M1579.24,314.71h-7.88a3.19,3.19,0,0,0,1,2.28,3.14,3.14,0,0,0,2.2.82,3,3,0,0,0,1.77-.5,2.58,2.58,0,0,0,1-1.32h1.77a4.26,4.26,0,0,1-1.59,2.31,4.72,4.72,0,0,1-3,.89,5,5,0,0,1-2.51-.62,4.44,4.44,0,0,1-1.74-1.8,5.54,5.54,0,0,1-.63-2.69,5.73,5.73,0,0,1,.61-2.68,4.32,4.32,0,0,1,1.72-1.77,5.07,5.07,0,0,1,2.55-.62,4.9,4.9,0,0,1,2.48.61,4.28,4.28,0,0,1,1.67,1.68,5,5,0,0,1,.58,2.42A8.63,8.63,0,0,1,1579.24,314.71Zm-2-2.94a2.74,2.74,0,0,0-1.13-1,3.55,3.55,0,0,0-1.57-.35,3.09,3.09,0,0,0-2.12.79,3.27,3.27,0,0,0-1,2.2h6.23A3.08,3.08,0,0,0,1577.19,311.77Z" style="fill:#2e2d2c"/><path d="M1587.76,309.57a3.7,3.7,0,0,1,1.43,1.4v-1.8h1.66v10.08a4.84,4.84,0,0,1-.58,2.4,4.13,4.13,0,0,1-1.64,1.65,5.16,5.16,0,0,1-2.5.59,5.44,5.44,0,0,1-3.24-.92,3.6,3.6,0,0,1-1.53-2.5H1583a2.58,2.58,0,0,0,1.12,1.45,3.61,3.61,0,0,0,2,.55,3,3,0,0,0,2.21-.85,3.17,3.17,0,0,0,.85-2.37v-2.07a3.83,3.83,0,0,1-1.44,1.44,4.25,4.25,0,0,1-2.23.57,4.52,4.52,0,0,1-2.38-.64,4.57,4.57,0,0,1-1.69-1.82,5.76,5.76,0,0,1-.61-2.66,5.64,5.64,0,0,1,.61-2.66,4.43,4.43,0,0,1,1.69-1.77,4.6,4.6,0,0,1,2.38-.63A4.31,4.31,0,0,1,1587.76,309.57Zm1,2.57a3.16,3.16,0,0,0-1.21-1.27,3.34,3.34,0,0,0-1.68-.44,3.31,3.31,0,0,0-1.68.43,3.17,3.17,0,0,0-1.2,1.26,4,4,0,0,0-.45,1.95,4.12,4.12,0,0,0,.45,2,3.2,3.2,0,0,0,2.88,1.72,3.25,3.25,0,0,0,1.68-.45,3.16,3.16,0,0,0,1.21-1.27,4.08,4.08,0,0,0,.45-2A4,4,0,0,0,1588.74,312.14Z" style="fill:#2e2d2c"/><path d="M1602.37,309.17V319h-1.64v-1.45a3.21,3.21,0,0,1-1.3,1.17,4,4,0,0,1-1.85.43,4.39,4.39,0,0,1-2.07-.48,3.5,3.5,0,0,1-1.45-1.43,4.76,4.76,0,0,1-.53-2.32v-5.78h1.62v5.56a3.15,3.15,0,0,0,.74,2.24,2.64,2.64,0,0,0,2,.79,2.68,2.68,0,0,0,2.07-.82,3.32,3.32,0,0,0,.75-2.35v-5.42Z" style="fill:#2e2d2c"/><path d="M1606.78,305.71V319h-1.64V305.71Z" style="fill:#2e2d2c"/><path d="M1609.57,311.41a4.48,4.48,0,0,1,1.68-1.77,4.64,4.64,0,0,1,2.39-.63,4.32,4.32,0,0,1,2.25.56,3.75,3.75,0,0,1,1.42,1.4v-1.8H1619V319h-1.66V317.2a3.9,3.9,0,0,1-1.45,1.43,4.31,4.31,0,0,1-2.24.56,4.49,4.49,0,0,1-2.38-.64,4.67,4.67,0,0,1-1.67-1.82,5.64,5.64,0,0,1-.61-2.66A5.53,5.53,0,0,1,1609.57,311.41Zm7.29.73a3.18,3.18,0,0,0-1.22-1.27,3.34,3.34,0,0,0-1.68-.44,3.27,3.27,0,0,0-1.67.43,3.13,3.13,0,0,0-1.21,1.26,4,4,0,0,0-.45,1.95,4.12,4.12,0,0,0,.45,2,3.16,3.16,0,0,0,1.21,1.27,3.19,3.19,0,0,0,1.67.45,3.25,3.25,0,0,0,1.68-.45,3.18,3.18,0,0,0,1.22-1.27,4.08,4.08,0,0,0,.45-2A4,4,0,0,0,1616.86,312.14Z" style="fill:#2e2d2c"/><path d="M1628.58,311.74v1.39h-7.18v-1.39Z" style="fill:#2e2d2c"/><path d="M1248.17,333a4.42,4.42,0,0,1,1.71-1.77,5.41,5.41,0,0,1,5.49.25,4.17,4.17,0,0,1,1.55,2.45h-1.76a2.6,2.6,0,0,0-1-1.43,3.09,3.09,0,0,0-1.81-.52,2.89,2.89,0,0,0-2.27,1,3.91,3.91,0,0,0-.86,2.72,4,4,0,0,0,.86,2.76,2.89,2.89,0,0,0,2.27,1,3.11,3.11,0,0,0,1.8-.5,2.58,2.58,0,0,0,1-1.44h1.76a4.36,4.36,0,0,1-1.58,2.42,4.77,4.77,0,0,1-3,.91,4.85,4.85,0,0,1-2.49-.63,4.41,4.41,0,0,1-1.71-1.79,5.72,5.72,0,0,1-.61-2.7A5.66,5.66,0,0,1,1248.17,333Z" style="fill:#2e2d2c"/><path d="M1259.15,328.84a1.12,1.12,0,0,1,.8-1.91,1,1,0,0,1,.76.33,1.14,1.14,0,0,1,0,1.58,1,1,0,0,1-.76.33A1.08,1.08,0,0,1,1259.15,328.84Zm1.59,1.93v9.86h-1.64v-9.86Z" style="fill:#2e2d2c"/><path d="M1265.32,340.17a4.51,4.51,0,0,1-1.77-1.8,5.54,5.54,0,0,1-.63-2.69,5.31,5.31,0,0,1,.65-2.67,4.57,4.57,0,0,1,1.79-1.78,5.51,5.51,0,0,1,5.08,0,4.48,4.48,0,0,1,1.79,1.77,5.3,5.3,0,0,1,.66,2.68,5.24,5.24,0,0,1-.68,2.69,4.7,4.7,0,0,1-1.82,1.8,5.25,5.25,0,0,1-2.56.63A5.06,5.06,0,0,1,1265.32,340.17Zm4.17-1.23a3.17,3.17,0,0,0,1.25-1.24,4.6,4.6,0,0,0,0-4,3.12,3.12,0,0,0-1.23-1.24,3.4,3.4,0,0,0-1.64-.4,3.35,3.35,0,0,0-1.64.4,3,3,0,0,0-1.2,1.24,4.15,4.15,0,0,0-.45,2,4.33,4.33,0,0,0,.44,2,2.93,2.93,0,0,0,1.18,1.23,3.3,3.3,0,0,0,1.62.4A3.43,3.43,0,0,0,1269.49,338.94Zm.18-11.09-3.84,2.06v-1.23l3.84-2.25Z" style="fill:#2e2d2c"/><path d="M1282.77,331.68a4.19,4.19,0,0,1,1.12,3.14v5.81h-1.62v-5.58a3.2,3.2,0,0,0-.74-2.26,2.65,2.65,0,0,0-2-.78,2.7,2.7,0,0,0-2.06.81,3.32,3.32,0,0,0-.76,2.36v5.45h-1.64v-9.86h1.64v1.4A3.26,3.26,0,0,1,1278,331a4.17,4.17,0,0,1,1.84-.41A4,4,0,0,1,1282.77,331.68Z" style="fill:#2e2d2c"/><path d="M1301.09,330.77l-5.94,14.51h-1.69l1.94-4.76-4-9.75h1.82l3.1,8,3.06-8Z" style="fill:#2e2d2c"/><path d="M1322.66,331.07a3.4,3.4,0,0,1,1.43,1.43,4.85,4.85,0,0,1,.52,2.32v5.81H1323v-5.58a3.25,3.25,0,0,0-.73-2.26,2.57,2.57,0,0,0-2-.78,2.65,2.65,0,0,0-2,.82,3.4,3.4,0,0,0-.75,2.37v5.43h-1.62v-5.58a3.25,3.25,0,0,0-.73-2.26,2.57,2.57,0,0,0-2-.78,2.65,2.65,0,0,0-2,.82,3.4,3.4,0,0,0-.75,2.37v5.43h-1.64v-9.86h1.64v1.42a3.31,3.31,0,0,1,1.3-1.19,4,4,0,0,1,1.81-.41,4.21,4.21,0,0,1,2.2.56,3.44,3.44,0,0,1,1.42,1.63,3.22,3.22,0,0,1,1.37-1.61,4,4,0,0,1,2.12-.58A4.28,4.28,0,0,1,1322.66,331.07Z" style="fill:#2e2d2c"/><path d="M1336.24,336.31h-7.89a3.1,3.1,0,0,0,3.21,3.1,3.05,3.05,0,0,0,1.77-.5,2.63,2.63,0,0,0,1-1.32h1.76a4.2,4.2,0,0,1-1.58,2.31,4.75,4.75,0,0,1-3,.9,5,5,0,0,1-2.52-.63,4.48,4.48,0,0,1-1.73-1.8,5.54,5.54,0,0,1-.63-2.69,5.61,5.61,0,0,1,.61-2.68,4.26,4.26,0,0,1,1.72-1.77,5.07,5.07,0,0,1,2.55-.62,4.93,4.93,0,0,1,2.48.61,4.35,4.35,0,0,1,1.67,1.68,5.09,5.09,0,0,1,.58,2.42C1336.29,335.64,1336.27,336,1336.24,336.31Zm-2.06-2.94a2.72,2.72,0,0,0-1.12-1,3.59,3.59,0,0,0-1.58-.35,3.07,3.07,0,0,0-2.11.79,3.25,3.25,0,0,0-1,2.2h6.23A3,3,0,0,0,1334.18,333.37Z" style="fill:#2e2d2c"/><path d="M1340.45,332.12v5.81a1.41,1.41,0,0,0,.3,1,1.52,1.52,0,0,0,1.07.3h1.2v1.38h-1.47a3,3,0,0,1-2.06-.63,2.73,2.73,0,0,1-.68-2.07v-5.81h-1.28v-1.35h1.28v-2.49h1.64v2.49H1343v1.35Z" style="fill:#2e2d2c"/><path d="M1345,333a4.48,4.48,0,0,1,1.68-1.77,4.64,4.64,0,0,1,2.39-.63,4.32,4.32,0,0,1,2.25.56,3.68,3.68,0,0,1,1.42,1.4v-1.8h1.66v9.86h-1.66V338.8a3.9,3.9,0,0,1-1.45,1.43,4.31,4.31,0,0,1-2.24.57,4.46,4.46,0,0,1-2.37-.65,4.55,4.55,0,0,1-1.68-1.82,5.64,5.64,0,0,1-.61-2.66A5.53,5.53,0,0,1,1345,333Zm7.29.73a3.16,3.16,0,0,0-1.21-1.27,3.35,3.35,0,0,0-1.69-.44,3.27,3.27,0,0,0-1.67.43,3.2,3.2,0,0,0-1.21,1.26,4,4,0,0,0-.45,1.95,4.12,4.12,0,0,0,.45,2,3.22,3.22,0,0,0,1.21,1.27,3.18,3.18,0,0,0,1.67.44,3.26,3.26,0,0,0,1.69-.44,3.16,3.16,0,0,0,1.21-1.27,4.08,4.08,0,0,0,.45-2A4,4,0,0,0,1352.29,333.74Z" style="fill:#2e2d2c"/><path d="M1357.17,333a4.39,4.39,0,0,1,1.7-1.77,5.41,5.41,0,0,1,5.49.25,4.13,4.13,0,0,1,1.56,2.45h-1.77a2.5,2.5,0,0,0-1-1.43,3.07,3.07,0,0,0-1.81-.52,2.86,2.86,0,0,0-2.26,1,3.92,3.92,0,0,0-.87,2.72,4,4,0,0,0,.87,2.76,2.86,2.86,0,0,0,2.26,1,3.11,3.11,0,0,0,1.8-.5,2.58,2.58,0,0,0,1-1.44h1.77a4.43,4.43,0,0,1-1.59,2.42,4.77,4.77,0,0,1-3,.91,4.9,4.9,0,0,1-2.49-.63,4.38,4.38,0,0,1-1.7-1.79,5.61,5.61,0,0,1-.61-2.7A5.54,5.54,0,0,1,1357.17,333Z" style="fill:#2e2d2c"/><path d="M1369.89,340.17a4.51,4.51,0,0,1-1.77-1.8,5.54,5.54,0,0,1-.64-2.69,5.31,5.31,0,0,1,.66-2.67,4.57,4.57,0,0,1,1.79-1.78,5.51,5.51,0,0,1,5.08,0,4.55,4.55,0,0,1,1.79,1.77,5.3,5.3,0,0,1,.66,2.68,5.24,5.24,0,0,1-.68,2.69,4.66,4.66,0,0,1-1.83,1.8,5.21,5.21,0,0,1-2.55.63A5,5,0,0,1,1369.89,340.17Zm4.16-1.23a3,3,0,0,0,1.25-1.24,4,4,0,0,0,.48-2,4,4,0,0,0-.47-2,3.1,3.1,0,0,0-1.22-1.24,3.58,3.58,0,0,0-3.29,0,3,3,0,0,0-1.19,1.24,4.15,4.15,0,0,0-.45,2,4.22,4.22,0,0,0,.44,2,2.93,2.93,0,0,0,1.18,1.23,3.3,3.3,0,0,0,1.62.4A3.37,3.37,0,0,0,1374.05,338.94Z" style="fill:#2e2d2c"/><path d="M1385.92,331.17a3.73,3.73,0,0,1,1.44,1.4v-1.8H1389v10.08a5,5,0,0,1-.57,2.4,4.22,4.22,0,0,1-1.65,1.65,5.05,5.05,0,0,1-2.5.59,5.45,5.45,0,0,1-3.23-.91,3.57,3.57,0,0,1-1.53-2.51h1.62a2.57,2.57,0,0,0,1.11,1.45,3.63,3.63,0,0,0,2,.55,3,3,0,0,0,2.21-.85,3.17,3.17,0,0,0,.86-2.37v-2.07a4.05,4.05,0,0,1-1.44,1.44,4.29,4.29,0,0,1-2.24.58,4.53,4.53,0,0,1-2.38-.65,4.42,4.42,0,0,1-1.68-1.82,5.64,5.64,0,0,1-.62-2.66,5.53,5.53,0,0,1,.62-2.66,4.35,4.35,0,0,1,1.68-1.77,4.6,4.6,0,0,1,2.38-.63A4.28,4.28,0,0,1,1385.92,331.17Zm1,2.57a3.18,3.18,0,0,0-1.22-1.27,3.46,3.46,0,0,0-3.36,0,3.17,3.17,0,0,0-1.2,1.26,4,4,0,0,0-.45,1.95,4.12,4.12,0,0,0,.45,2,3.2,3.2,0,0,0,1.2,1.27,3.43,3.43,0,0,0,3.36,0,3.18,3.18,0,0,0,1.22-1.27,4.08,4.08,0,0,0,.45-2A4,4,0,0,0,1386.91,333.74Z" style="fill:#2e2d2c"/><path d="M1399.51,331.68a4.19,4.19,0,0,1,1.11,3.14v5.81H1399v-5.58a3.16,3.16,0,0,0-.74-2.26,2.63,2.63,0,0,0-2-.78,2.69,2.69,0,0,0-2.06.81,3.32,3.32,0,0,0-.77,2.36v5.45h-1.64v-9.86h1.64v1.4a3.4,3.4,0,0,1,1.32-1.17,4.22,4.22,0,0,1,1.85-.41A4,4,0,0,1,1399.51,331.68Z" style="fill:#2e2d2c"/><path d="M1403.36,328.84a1.12,1.12,0,0,1,.79-1.91,1,1,0,0,1,.76.33,1.14,1.14,0,0,1,0,1.58,1,1,0,0,1-.76.33A1.06,1.06,0,0,1,1403.36,328.84Zm1.58,1.93v9.86h-1.64v-9.86Z" style="fill:#2e2d2c"/><path d="M1407.73,333a4.46,4.46,0,0,1,1.7-1.77,4.91,4.91,0,0,1,2.5-.63,4.82,4.82,0,0,1,3,.88,4.13,4.13,0,0,1,1.56,2.45h-1.77a2.5,2.5,0,0,0-1-1.43,3.06,3.06,0,0,0-1.8-.52,2.87,2.87,0,0,0-2.27,1,3.92,3.92,0,0,0-.87,2.72,4,4,0,0,0,.87,2.76,2.87,2.87,0,0,0,2.27,1,3.07,3.07,0,0,0,1.79-.5,2.49,2.49,0,0,0,1-1.44h1.77a4.38,4.38,0,0,1-1.59,2.42,4.76,4.76,0,0,1-3,.91,4.91,4.91,0,0,1-2.5-.63,4.45,4.45,0,0,1-1.7-1.79,5.61,5.61,0,0,1-.61-2.7A5.54,5.54,0,0,1,1407.73,333Z" style="fill:#2e2d2c"/><path d="M1418.71,328.84a1.14,1.14,0,0,1,0-1.58,1.07,1.07,0,0,1,.79-.33,1,1,0,0,1,.77.33,1.16,1.16,0,0,1,0,1.58,1,1,0,0,1-.77.33A1.07,1.07,0,0,1,1418.71,328.84Zm1.58,1.93v9.86h-1.63v-9.86Z" style="fill:#2e2d2c"/><path d="M1424.88,340.17a4.45,4.45,0,0,1-1.77-1.8,5.54,5.54,0,0,1-.64-2.69,5.31,5.31,0,0,1,.66-2.67,4.51,4.51,0,0,1,1.79-1.78,5.51,5.51,0,0,1,5.08,0,4.55,4.55,0,0,1,1.79,1.77,5.3,5.3,0,0,1,.66,2.68,5.24,5.24,0,0,1-.68,2.69,4.66,4.66,0,0,1-1.83,1.8,5.24,5.24,0,0,1-2.55.63A5,5,0,0,1,1424.88,340.17Zm4.16-1.23a3,3,0,0,0,1.25-1.24,4.51,4.51,0,0,0,0-4,3.1,3.1,0,0,0-1.22-1.24,3.58,3.58,0,0,0-3.29,0,3,3,0,0,0-1.19,1.24,4.15,4.15,0,0,0-.45,2,4.22,4.22,0,0,0,.44,2,2.87,2.87,0,0,0,1.18,1.23,3.3,3.3,0,0,0,1.62.4A3.39,3.39,0,0,0,1429,338.94Zm.18-11.09-3.83,2.06v-1.23l3.83-2.25Z" style="fill:#2e2d2c"/><path d="M1442.33,331.68a4.19,4.19,0,0,1,1.11,3.14v5.81h-1.62v-5.58a3.16,3.16,0,0,0-.74-2.26,2.63,2.63,0,0,0-2-.78,2.7,2.7,0,0,0-2.06.81,3.32,3.32,0,0,0-.77,2.36v5.45h-1.63v-9.86h1.63v1.4a3.36,3.36,0,0,1,1.33-1.17,4.14,4.14,0,0,1,1.84-.41A4,4,0,0,1,1442.33,331.68Z" style="fill:#2e2d2c"/><path d="M1447.82,338.36l-2,4.85h-1.1l1.32-4.85Z" style="fill:#2e2d2c"/><path d="M1470.23,330.77l-5.94,14.51h-1.69l1.94-4.76-4-9.75h1.81l3.1,8,3.06-8Z" style="fill:#2e2d2c"/><path d="M1477.89,333a4.42,4.42,0,0,1,1.71-1.77,5.41,5.41,0,0,1,5.49.25,4.17,4.17,0,0,1,1.55,2.45h-1.76a2.6,2.6,0,0,0-1-1.43,3.09,3.09,0,0,0-1.81-.52,2.89,2.89,0,0,0-2.27,1,3.91,3.91,0,0,0-.86,2.72,4,4,0,0,0,.86,2.76,2.89,2.89,0,0,0,2.27,1,3.11,3.11,0,0,0,1.8-.5,2.58,2.58,0,0,0,1-1.44h1.76a4.36,4.36,0,0,1-1.58,2.42,4.77,4.77,0,0,1-3,.91,4.85,4.85,0,0,1-2.49-.63,4.41,4.41,0,0,1-1.71-1.79,5.72,5.72,0,0,1-.61-2.7A5.66,5.66,0,0,1,1477.89,333Z" style="fill:#2e2d2c"/><path d="M1490.61,340.17a4.42,4.42,0,0,1-1.76-1.8,5.43,5.43,0,0,1-.64-2.69,5.31,5.31,0,0,1,.66-2.67,4.44,4.44,0,0,1,1.79-1.78,5.49,5.49,0,0,1,5.07,0,4.48,4.48,0,0,1,1.79,1.77,5.3,5.3,0,0,1,.66,2.68,5.15,5.15,0,0,1-.68,2.69,4.63,4.63,0,0,1-1.82,1.8,5.25,5.25,0,0,1-2.56.63A5.06,5.06,0,0,1,1490.61,340.17Zm4.17-1.23a3.17,3.17,0,0,0,1.25-1.24,4,4,0,0,0,.48-2,4,4,0,0,0-.47-2,3.06,3.06,0,0,0-1.23-1.24,3.56,3.56,0,0,0-3.28,0,3,3,0,0,0-1.2,1.24,4.15,4.15,0,0,0-.45,2,4.33,4.33,0,0,0,.44,2,3,3,0,0,0,1.18,1.23,3.3,3.3,0,0,0,1.62.4A3.43,3.43,0,0,0,1494.78,338.94Z" style="fill:#2e2d2c"/><path d="M1503.21,331.06a3.86,3.86,0,0,1,2-.47v1.69h-.43c-1.83,0-2.75,1-2.75,3v5.36h-1.64v-9.86H1502v1.6A3.17,3.17,0,0,1,1503.21,331.06Z" style="fill:#2e2d2c"/><path d="M1509.92,331.06a3.87,3.87,0,0,1,2-.47v1.69h-.43c-1.84,0-2.76,1-2.76,3v5.36h-1.64v-9.86h1.64v1.6A3.17,3.17,0,0,1,1509.92,331.06Z" style="fill:#2e2d2c"/><path d="M1522.71,336.31h-7.88a3.19,3.19,0,0,0,1,2.28,3.14,3.14,0,0,0,2.2.82,3.06,3.06,0,0,0,1.78-.5,2.69,2.69,0,0,0,1-1.32h1.76a4.2,4.2,0,0,1-1.58,2.31,4.78,4.78,0,0,1-3,.9,5,5,0,0,1-2.51-.63,4.48,4.48,0,0,1-1.73-1.8,5.54,5.54,0,0,1-.63-2.69,5.61,5.61,0,0,1,.61-2.68,4.26,4.26,0,0,1,1.72-1.77,5,5,0,0,1,2.54-.62,4.94,4.94,0,0,1,2.49.61,4.26,4.26,0,0,1,1.66,1.68,5,5,0,0,1,.59,2.42A8.47,8.47,0,0,1,1522.71,336.31Zm-2-2.94a2.72,2.72,0,0,0-1.12-1A3.59,3.59,0,0,0,1518,332a3.05,3.05,0,0,0-2.11.79,3.2,3.2,0,0,0-1,2.2h6.23A3,3,0,0,0,1520.66,333.37Z" style="fill:#2e2d2c"/><path d="M1531.24,331.17a3.7,3.7,0,0,1,1.43,1.4v-1.8h1.65v10.08a5,5,0,0,1-.57,2.4,4.22,4.22,0,0,1-1.65,1.65,5,5,0,0,1-2.49.59,5.46,5.46,0,0,1-3.24-.91,3.57,3.57,0,0,1-1.53-2.51h1.62a2.57,2.57,0,0,0,1.11,1.45,3.66,3.66,0,0,0,2,.55,3,3,0,0,0,2.2-.85,3.17,3.17,0,0,0,.86-2.37v-2.07a4.05,4.05,0,0,1-1.44,1.44,4.28,4.28,0,0,1-2.23.58,4.48,4.48,0,0,1-4.07-2.47,5.64,5.64,0,0,1-.61-2.66,5.53,5.53,0,0,1,.61-2.66,4.48,4.48,0,0,1,1.68-1.77,4.61,4.61,0,0,1,2.39-.63A4.33,4.33,0,0,1,1531.24,331.17Zm1,2.57a3.18,3.18,0,0,0-1.22-1.27,3.34,3.34,0,0,0-1.68-.44,3.27,3.27,0,0,0-1.67.43,3.13,3.13,0,0,0-1.21,1.26,4,4,0,0,0-.45,1.95,4.12,4.12,0,0,0,.45,2,3.19,3.19,0,0,0,2.88,1.71,3.24,3.24,0,0,0,1.68-.44,3.18,3.18,0,0,0,1.22-1.27,4.08,4.08,0,0,0,.45-2A4,4,0,0,0,1532.22,333.74Z" style="fill:#2e2d2c"/><path d="M1537.15,328.84a1.14,1.14,0,0,1,0-1.58,1.07,1.07,0,0,1,.79-.33,1,1,0,0,1,.77.33,1.16,1.16,0,0,1,0,1.58,1,1,0,0,1-.77.33A1.07,1.07,0,0,1,1537.15,328.84Zm1.58,1.93v9.86h-1.63v-9.86Z" style="fill:#2e2d2c"/><path d="M1544.39,331.06a3.87,3.87,0,0,1,2-.47v1.69h-.43c-1.84,0-2.76,1-2.76,3v5.36h-1.64v-9.86h1.64v1.6A3.17,3.17,0,0,1,1544.39,331.06Z" style="fill:#2e2d2c"/><path d="M1555.9,327.31v13.32h-1.64V327.31Z" style="fill:#2e2d2c"/><path d="M1560.48,340.17a4.42,4.42,0,0,1-1.76-1.8,5.89,5.89,0,0,1,0-5.36,4.53,4.53,0,0,1,1.8-1.78,5.49,5.49,0,0,1,5.07,0,4.48,4.48,0,0,1,1.79,1.77,5.3,5.3,0,0,1,.66,2.68,5.24,5.24,0,0,1-.68,2.69,4.7,4.7,0,0,1-1.82,1.8,5.25,5.25,0,0,1-2.56.63A5.06,5.06,0,0,1,1560.48,340.17Zm4.17-1.23a3.17,3.17,0,0,0,1.25-1.24,4,4,0,0,0,.48-2,4,4,0,0,0-.47-2,3.06,3.06,0,0,0-1.23-1.24,3.56,3.56,0,0,0-3.28,0,3,3,0,0,0-1.2,1.24,4.15,4.15,0,0,0-.45,2,4.33,4.33,0,0,0,.44,2,3,3,0,0,0,1.18,1.23,3.3,3.3,0,0,0,1.62.4A3.43,3.43,0,0,0,1564.65,338.94Z" style="fill:#2e2d2c"/><path d="M1571.67,340.41a3.41,3.41,0,0,1-1.42-1.08,2.88,2.88,0,0,1-.58-1.59h1.69a1.66,1.66,0,0,0,.69,1.2,2.67,2.67,0,0,0,1.63.47,2.41,2.41,0,0,0,1.48-.41,1.28,1.28,0,0,0,.54-1.05,1,1,0,0,0-.58-1,7.86,7.86,0,0,0-1.78-.62,12.48,12.48,0,0,1-1.79-.59,3.22,3.22,0,0,1-1.19-.88,2.3,2.3,0,0,1-.49-1.54,2.38,2.38,0,0,1,.45-1.39,3,3,0,0,1,1.28-1,4.52,4.52,0,0,1,1.89-.37,4,4,0,0,1,2.64.82,3,3,0,0,1,1.08,2.27h-1.64a1.67,1.67,0,0,0-.62-1.24,2.32,2.32,0,0,0-1.52-.47,2.35,2.35,0,0,0-1.4.38,1.16,1.16,0,0,0-.52,1,1.09,1.09,0,0,0,.31.8,2.34,2.34,0,0,0,.79.51c.32.12.76.26,1.33.42a13.26,13.26,0,0,1,1.72.57,3,3,0,0,1,1.15.83,2.27,2.27,0,0,1,.49,1.46,2.5,2.5,0,0,1-.45,1.46,3,3,0,0,1-1.27,1,4.6,4.6,0,0,1-1.88.37A5.07,5.07,0,0,1,1571.67,340.41Z" style="fill:#2e2d2c"/><path d="M1594.58,336.31h-7.89a3.1,3.1,0,0,0,3.2,3.1,3.06,3.06,0,0,0,1.78-.5,2.69,2.69,0,0,0,1-1.32h1.76a4.2,4.2,0,0,1-1.58,2.31,4.78,4.78,0,0,1-3,.9,5,5,0,0,1-2.51-.63,4.48,4.48,0,0,1-1.73-1.8,5.54,5.54,0,0,1-.63-2.69,5.61,5.61,0,0,1,.61-2.68,4.26,4.26,0,0,1,1.72-1.77,5.06,5.06,0,0,1,2.54-.62,4.94,4.94,0,0,1,2.49.61,4.26,4.26,0,0,1,1.66,1.68,5,5,0,0,1,.59,2.42C1594.63,335.64,1594.61,336,1594.58,336.31Zm-2.06-2.94a2.72,2.72,0,0,0-1.12-1,3.59,3.59,0,0,0-1.58-.35,3.07,3.07,0,0,0-2.11.79,3.25,3.25,0,0,0-1,2.2h6.23A3,3,0,0,0,1592.52,333.37Z" style="fill:#2e2d2c"/><path d="M1599.66,331.06a3.83,3.83,0,0,1,1.95-.47v1.69h-.43c-1.83,0-2.75,1-2.75,3v5.36h-1.64v-9.86h1.64v1.6A3.11,3.11,0,0,1,1599.66,331.06Z" style="fill:#2e2d2c"/><path d="M1606.37,331.06a3.87,3.87,0,0,1,2-.47v1.69h-.44c-1.83,0-2.75,1-2.75,3v5.36h-1.64v-9.86h1.64v1.6A3.17,3.17,0,0,1,1606.37,331.06Z" style="fill:#2e2d2c"/><path d="M1612,340.17a4.51,4.51,0,0,1-1.77-1.8,5.54,5.54,0,0,1-.63-2.69,5.31,5.31,0,0,1,.65-2.67,4.57,4.57,0,0,1,1.79-1.78,5.51,5.51,0,0,1,5.08,0,4.55,4.55,0,0,1,1.79,1.77,5.3,5.3,0,0,1,.66,2.68,5.24,5.24,0,0,1-.68,2.69,4.7,4.7,0,0,1-1.82,1.8,5.25,5.25,0,0,1-2.56.63A5,5,0,0,1,1612,340.17Zm4.17-1.23a3.17,3.17,0,0,0,1.25-1.24,4.6,4.6,0,0,0,0-4,3.19,3.19,0,0,0-1.23-1.24,3.4,3.4,0,0,0-1.64-.4,3.35,3.35,0,0,0-1.64.4,3,3,0,0,0-1.2,1.24,4.15,4.15,0,0,0-.45,2,4.33,4.33,0,0,0,.44,2,2.93,2.93,0,0,0,1.18,1.23,3.3,3.3,0,0,0,1.62.4A3.43,3.43,0,0,0,1616.18,338.94Z" style="fill:#2e2d2c"/><path d="M1628.58,333.34v1.39h-7.19v-1.39Z" style="fill:#2e2d2c"/><path d="M1251,352.66a3.77,3.77,0,0,1,2-.47v1.69h-.43c-1.84,0-2.76,1-2.76,3v5.36h-1.64v-9.86h1.64V354A3.17,3.17,0,0,1,1251,352.66Z" style="fill:#2e2d2c"/><path d="M1263.83,357.91H1256a3.1,3.1,0,0,0,3.2,3.1,3.06,3.06,0,0,0,1.78-.5,2.69,2.69,0,0,0,1-1.32h1.76a4.2,4.2,0,0,1-1.58,2.31,4.78,4.78,0,0,1-3,.9,5,5,0,0,1-2.51-.64,4.39,4.39,0,0,1-1.73-1.79,5.54,5.54,0,0,1-.63-2.69,5.61,5.61,0,0,1,.61-2.68,4.26,4.26,0,0,1,1.72-1.77,5,5,0,0,1,2.54-.62,4.94,4.94,0,0,1,2.49.61,4.26,4.26,0,0,1,1.66,1.68,5,5,0,0,1,.59,2.42A8.47,8.47,0,0,1,1263.83,357.91Zm-2-2.94a2.72,2.72,0,0,0-1.12-1,3.59,3.59,0,0,0-1.58-.35,3,3,0,0,0-2.11.8,3.16,3.16,0,0,0-1,2.19h6.23A3,3,0,0,0,1261.78,355Z" style="fill:#2e2d2c"/><path d="M1267.51,362a3.5,3.5,0,0,1-1.43-1.08,2.9,2.9,0,0,1-.57-1.59h1.69a1.66,1.66,0,0,0,.69,1.2,2.67,2.67,0,0,0,1.63.47,2.35,2.35,0,0,0,1.48-.42,1.25,1.25,0,0,0,.54-1,1,1,0,0,0-.58-1,7.86,7.86,0,0,0-1.78-.62,13.88,13.88,0,0,1-1.79-.59,3.22,3.22,0,0,1-1.19-.88,2.3,2.3,0,0,1-.49-1.54,2.32,2.32,0,0,1,.45-1.38,3,3,0,0,1,1.27-1,4.59,4.59,0,0,1,1.89-.37,4,4,0,0,1,2.65.82,3,3,0,0,1,1.08,2.27h-1.64a1.67,1.67,0,0,0-.62-1.24,2.73,2.73,0,0,0-2.92-.09,1.17,1.17,0,0,0-.53,1,1.09,1.09,0,0,0,.32.8,2.34,2.34,0,0,0,.79.51q.48.18,1.32.42a13,13,0,0,1,1.73.57,2.85,2.85,0,0,1,1.14.83,2.24,2.24,0,0,1,.5,1.46,2.5,2.5,0,0,1-.45,1.46,3,3,0,0,1-1.27,1,4.6,4.6,0,0,1-1.88.37A5,5,0,0,1,1267.51,362Z" style="fill:#2e2d2c"/><path d="M1286.79,354.61a4.46,4.46,0,0,1,1.7-1.77,4.9,4.9,0,0,1,2.49-.63,4.83,4.83,0,0,1,3,.88,4.13,4.13,0,0,1,1.56,2.45h-1.77a2.5,2.5,0,0,0-1-1.43,3.07,3.07,0,0,0-1.81-.52,2.86,2.86,0,0,0-2.26,1,3.92,3.92,0,0,0-.87,2.72,4,4,0,0,0,.87,2.76,2.9,2.9,0,0,0,2.26,1,3.11,3.11,0,0,0,1.8-.5,2.58,2.58,0,0,0,1-1.44h1.77a4.38,4.38,0,0,1-1.59,2.42,4.77,4.77,0,0,1-3,.91,4.91,4.91,0,0,1-2.49-.64,4.42,4.42,0,0,1-1.7-1.78,5.61,5.61,0,0,1-.61-2.7A5.54,5.54,0,0,1,1286.79,354.61Z" style="fill:#2e2d2c"/><path d="M1299.51,361.76a4.48,4.48,0,0,1-1.77-1.79,5.54,5.54,0,0,1-.64-2.69,5.29,5.29,0,0,1,.66-2.67,4.57,4.57,0,0,1,1.79-1.78,5.51,5.51,0,0,1,5.08,0,4.55,4.55,0,0,1,1.79,1.77,5.3,5.3,0,0,1,.66,2.68,5.24,5.24,0,0,1-.68,2.69,4.63,4.63,0,0,1-1.83,1.79,5.22,5.22,0,0,1-2.55.64A5,5,0,0,1,1299.51,361.76Zm4.16-1.22a3.19,3.19,0,0,0,1.26-1.24,4.05,4.05,0,0,0,.47-2,3.93,3.93,0,0,0-.47-2,3.1,3.1,0,0,0-1.22-1.24,3.4,3.4,0,0,0-1.64-.4,3.35,3.35,0,0,0-1.64.4,3,3,0,0,0-1.2,1.24,4.15,4.15,0,0,0-.45,2,4.24,4.24,0,0,0,.44,2,2.93,2.93,0,0,0,1.18,1.23,3.3,3.3,0,0,0,1.62.41A3.37,3.37,0,0,0,1303.67,360.54Z" style="fill:#2e2d2c"/><path d="M1323.15,352.67a3.38,3.38,0,0,1,1.42,1.43,4.74,4.74,0,0,1,.52,2.32v5.81h-1.62v-5.58a3.25,3.25,0,0,0-.72-2.26,2.91,2.91,0,0,0-4,0,3.39,3.39,0,0,0-.76,2.37v5.43h-1.62v-5.58a3.2,3.2,0,0,0-.73-2.26,2.55,2.55,0,0,0-2-.78,2.61,2.61,0,0,0-2,.82,3.39,3.39,0,0,0-.76,2.37v5.43h-1.63v-9.86h1.63v1.42a3.27,3.27,0,0,1,1.31-1.19,4,4,0,0,1,1.81-.41,4.25,4.25,0,0,1,2.19.56,3.44,3.44,0,0,1,1.43,1.64,3.25,3.25,0,0,1,1.36-1.63,4.09,4.09,0,0,1,2.13-.57A4.28,4.28,0,0,1,1323.15,352.67Z" style="fill:#2e2d2c"/><path d="M1336.72,357.91h-7.88a3.1,3.1,0,0,0,3.2,3.1,3,3,0,0,0,1.77-.5,2.58,2.58,0,0,0,1-1.32h1.77a4.21,4.21,0,0,1-1.59,2.31,4.73,4.73,0,0,1-3,.9,5,5,0,0,1-2.51-.64,4.41,4.41,0,0,1-1.74-1.79,5.54,5.54,0,0,1-.63-2.69,5.61,5.61,0,0,1,.62-2.68,4.2,4.2,0,0,1,1.72-1.77,5,5,0,0,1,2.54-.62,4.94,4.94,0,0,1,2.49.61,4.26,4.26,0,0,1,1.66,1.68,5,5,0,0,1,.59,2.42A8.47,8.47,0,0,1,1336.72,357.91Zm-2-2.94a2.74,2.74,0,0,0-1.13-1,3.52,3.52,0,0,0-1.57-.35,3,3,0,0,0-2.11.8,3.16,3.16,0,0,0-1,2.19h6.22A3,3,0,0,0,1334.67,355Z" style="fill:#2e2d2c"/><path d="M1340.93,353.72v5.81a1.41,1.41,0,0,0,.31,1,1.49,1.49,0,0,0,1.06.3h1.21v1.38H1342a2.94,2.94,0,0,1-2-.63,2.69,2.69,0,0,1-.68-2.07v-5.81H1338v-1.35h1.28v-2.48h1.63v2.48h2.58v1.35Z" style="fill:#2e2d2c"/><path d="M1345.54,350.44a1.09,1.09,0,0,1-.32-.79,1.1,1.1,0,0,1,.32-.79,1.07,1.07,0,0,1,.79-.33,1,1,0,0,1,.77.33,1.09,1.09,0,0,1,.31.79,1.08,1.08,0,0,1-.31.79,1,1,0,0,1-.77.33A1.07,1.07,0,0,1,1345.54,350.44Zm1.58,1.93v9.86h-1.63v-9.86Z" style="fill:#2e2d2c"/><path d="M1349.92,354.61a4.35,4.35,0,0,1,1.68-1.77,4.62,4.62,0,0,1,2.4-.63,4.38,4.38,0,0,1,2.14.53,3.87,3.87,0,0,1,1.52,1.39v-5.22h1.65v13.32h-1.65v-1.85a3.88,3.88,0,0,1-1.45,1.45,4.25,4.25,0,0,1-2.23.57,4.53,4.53,0,0,1-2.38-.65,4.42,4.42,0,0,1-1.68-1.82,5.65,5.65,0,0,1-.62-2.67A5.52,5.52,0,0,1,1349.92,354.61Zm7.29.73a3.18,3.18,0,0,0-1.22-1.27,3.46,3.46,0,0,0-3.36,0,3.17,3.17,0,0,0-1.2,1.26,4,4,0,0,0-.45,1.94,4.13,4.13,0,0,0,.45,2,3.2,3.2,0,0,0,1.2,1.27,3.36,3.36,0,0,0,3.36,0,3.18,3.18,0,0,0,1.22-1.27,4.2,4.2,0,0,0,.45-2A4.12,4.12,0,0,0,1357.21,355.34Z" style="fill:#2e2d2c"/><path d="M1363.87,361.76a4.46,4.46,0,0,1-1.76-1.79,5.43,5.43,0,0,1-.64-2.69,5.29,5.29,0,0,1,.66-2.67,4.51,4.51,0,0,1,1.79-1.78,5.51,5.51,0,0,1,5.08,0,4.55,4.55,0,0,1,1.79,1.77,5.4,5.4,0,0,1,.65,2.68,5.24,5.24,0,0,1-.67,2.69,4.63,4.63,0,0,1-1.83,1.79,5.26,5.26,0,0,1-2.56.64A5.06,5.06,0,0,1,1363.87,361.76Zm4.17-1.22a3.17,3.17,0,0,0,1.25-1.24,4,4,0,0,0,.48-2,4,4,0,0,0-.47-2,3.1,3.1,0,0,0-1.22-1.24,3.58,3.58,0,0,0-3.29,0,2.91,2.91,0,0,0-1.19,1.24,4,4,0,0,0-.45,2,4.24,4.24,0,0,0,.44,2,2.87,2.87,0,0,0,1.18,1.23,3.29,3.29,0,0,0,1.61.41A3.41,3.41,0,0,0,1368,360.54Z" style="fill:#2e2d2c"/><path d="M1375.06,362a3.47,3.47,0,0,1-1.42-1.08,2.91,2.91,0,0,1-.58-1.59h1.7a1.6,1.6,0,0,0,.69,1.2,2.65,2.65,0,0,0,1.63.47,2.34,2.34,0,0,0,1.47-.42,1.25,1.25,0,0,0,.54-1,1,1,0,0,0-.57-1,8,8,0,0,0-1.78-.62,14.09,14.09,0,0,1-1.8-.59,3.18,3.18,0,0,1-1.18-.88,2.3,2.3,0,0,1-.5-1.54,2.32,2.32,0,0,1,.45-1.38,3,3,0,0,1,1.28-1,4.52,4.52,0,0,1,1.89-.37,4.07,4.07,0,0,1,2.65.82,3,3,0,0,1,1.08,2.27H1379a1.74,1.74,0,0,0-.62-1.24,2.34,2.34,0,0,0-1.52-.47,2.38,2.38,0,0,0-1.41.38,1.16,1.16,0,0,0-.52,1,1.09,1.09,0,0,0,.31.8,2.39,2.39,0,0,0,.8.51c.31.12.76.26,1.32.42a13.47,13.47,0,0,1,1.73.57,3,3,0,0,1,1.14.83,2.3,2.3,0,0,1,.5,1.46,2.57,2.57,0,0,1-.45,1.46,3.09,3.09,0,0,1-1.27,1,4.67,4.67,0,0,1-1.88.37A5.08,5.08,0,0,1,1375.06,362Z" style="fill:#2e2d2c"/><path d="M1394.35,354.61a4.35,4.35,0,0,1,1.68-1.77,4.62,4.62,0,0,1,2.4-.63,4.38,4.38,0,0,1,2.14.53,3.78,3.78,0,0,1,1.51,1.39v-5.22h1.66v13.32h-1.66v-1.85a3.78,3.78,0,0,1-1.44,1.45,4.25,4.25,0,0,1-2.23.57,4.53,4.53,0,0,1-2.38-.65,4.42,4.42,0,0,1-1.68-1.82,5.65,5.65,0,0,1-.62-2.67A5.52,5.52,0,0,1,1394.35,354.61Zm7.28.73a3.16,3.16,0,0,0-1.21-1.27,3.34,3.34,0,0,0-1.68-.44,3.31,3.31,0,0,0-1.68.43,3.17,3.17,0,0,0-1.2,1.26,4,4,0,0,0-.45,1.94,4.13,4.13,0,0,0,.45,2,3.2,3.2,0,0,0,2.88,1.72,3.25,3.25,0,0,0,1.68-.45,3.16,3.16,0,0,0,1.21-1.27,4.08,4.08,0,0,0,.45-2A4,4,0,0,0,1401.63,355.34Z" style="fill:#2e2d2c"/><path d="M1415.26,352.37v9.86h-1.64v-1.46a3.1,3.1,0,0,1-1.3,1.18,4,4,0,0,1-1.85.43,4.45,4.45,0,0,1-2.07-.48,3.56,3.56,0,0,1-1.45-1.43,4.76,4.76,0,0,1-.53-2.32v-5.78H1408v5.56a3.15,3.15,0,0,0,.74,2.24,2.66,2.66,0,0,0,2,.79,2.75,2.75,0,0,0,2.07-.81,3.38,3.38,0,0,0,.75-2.36v-5.42Z" style="fill:#2e2d2c"/><path d="M1420.9,352.66a3.77,3.77,0,0,1,2-.47v1.69h-.44c-1.83,0-2.75,1-2.75,3v5.36H1418v-9.86h1.64V354A3.17,3.17,0,0,1,1420.9,352.66Z" style="fill:#2e2d2c"/><path d="M1424.75,354.61a4.41,4.41,0,0,1,1.68-1.77,4.6,4.6,0,0,1,2.38-.63,4.36,4.36,0,0,1,2.25.55,3.8,3.8,0,0,1,1.43,1.41v-1.8h1.65v9.86h-1.65V360.4a4,4,0,0,1-1.45,1.43,4.31,4.31,0,0,1-2.24.57,4.45,4.45,0,0,1-4-2.47,5.65,5.65,0,0,1-.62-2.67A5.52,5.52,0,0,1,1424.75,354.61Zm7.29.73a3.18,3.18,0,0,0-1.22-1.27,3.46,3.46,0,0,0-3.36,0,3.17,3.17,0,0,0-1.2,1.26,4,4,0,0,0-.45,1.94,4.13,4.13,0,0,0,.45,2,3.2,3.2,0,0,0,1.2,1.27,3.36,3.36,0,0,0,3.36,0,3.18,3.18,0,0,0,1.22-1.27,4.08,4.08,0,0,0,.45-2A4,4,0,0,0,1432,355.34Z" style="fill:#2e2d2c"/><path d="M1444.64,353.28a4.19,4.19,0,0,1,1.11,3.14v5.81h-1.62v-5.58a3.16,3.16,0,0,0-.74-2.26,2.63,2.63,0,0,0-2-.78,2.69,2.69,0,0,0-2.06.81,3.32,3.32,0,0,0-.77,2.36v5.45h-1.63v-9.86h1.63v1.4a3.36,3.36,0,0,1,1.33-1.17,4.14,4.14,0,0,1,1.84-.41A4,4,0,0,1,1444.64,353.28Z" style="fill:#2e2d2c"/><path d="M1450.43,353.72v5.81a1.41,1.41,0,0,0,.31,1,1.49,1.49,0,0,0,1.06.3H1453v1.38h-1.48a2.93,2.93,0,0,1-2-.63,2.69,2.69,0,0,1-.69-2.07v-5.81h-1.27v-1.35h1.27v-2.48h1.64v2.48H1453v1.35Z" style="fill:#2e2d2c"/><path d="M1463.93,357.91h-7.88a3.1,3.1,0,0,0,3.2,3.1,3.06,3.06,0,0,0,1.78-.5,2.62,2.62,0,0,0,1-1.32h1.77a4.25,4.25,0,0,1-1.58,2.31,4.78,4.78,0,0,1-3,.9,5,5,0,0,1-2.51-.64A4.41,4.41,0,0,1,1455,360a5.54,5.54,0,0,1-.62-2.69,5.61,5.61,0,0,1,.61-2.68,4.2,4.2,0,0,1,1.72-1.77,5,5,0,0,1,2.54-.62,4.94,4.94,0,0,1,2.49.61,4.26,4.26,0,0,1,1.66,1.68,5,5,0,0,1,.59,2.42A8.47,8.47,0,0,1,1463.93,357.91Zm-2-2.94a2.78,2.78,0,0,0-1.12-1,3.59,3.59,0,0,0-1.58-.35,3,3,0,0,0-2.11.8,3.16,3.16,0,0,0-1,2.19h6.22A3,3,0,0,0,1461.88,355Z" style="fill:#2e2d2c"/><path d="M1479.13,348.91v13.32h-1.64V348.91Z" style="fill:#2e2d2c"/><path d="M1483.71,361.76A4.4,4.4,0,0,1,1482,360a5.89,5.89,0,0,1,0-5.36,4.53,4.53,0,0,1,1.8-1.78,5.49,5.49,0,0,1,5.07,0,4.42,4.42,0,0,1,1.79,1.77,5.75,5.75,0,0,1,0,5.37,4.63,4.63,0,0,1-1.83,1.79,5.26,5.26,0,0,1-2.56.64A5.06,5.06,0,0,1,1483.71,361.76Zm4.17-1.22a3.23,3.23,0,0,0,1.25-1.24,4,4,0,0,0,.48-2,4,4,0,0,0-.47-2,3.06,3.06,0,0,0-1.23-1.24,3.56,3.56,0,0,0-3.28,0,3,3,0,0,0-1.2,1.24,4.15,4.15,0,0,0-.45,2,4.36,4.36,0,0,0,.44,2,3,3,0,0,0,1.18,1.23,3.3,3.3,0,0,0,1.62.41A3.44,3.44,0,0,0,1487.88,360.54Z" style="fill:#2e2d2c"/><path d="M1494.9,362a3.41,3.41,0,0,1-1.42-1.08,2.91,2.91,0,0,1-.58-1.59h1.69a1.64,1.64,0,0,0,.7,1.2,2.62,2.62,0,0,0,1.62.47,2.35,2.35,0,0,0,1.48-.42,1.25,1.25,0,0,0,.54-1,1,1,0,0,0-.58-1,7.68,7.68,0,0,0-1.78-.62,13.88,13.88,0,0,1-1.79-.59,3.22,3.22,0,0,1-1.19-.88,2.3,2.3,0,0,1-.49-1.54,2.32,2.32,0,0,1,.45-1.38,3,3,0,0,1,1.28-1,4.52,4.52,0,0,1,1.89-.37,4,4,0,0,1,2.64.82,3,3,0,0,1,1.08,2.27h-1.64a1.67,1.67,0,0,0-.62-1.24,2.32,2.32,0,0,0-1.52-.47,2.35,2.35,0,0,0-1.4.38,1.16,1.16,0,0,0-.52,1,1.09,1.09,0,0,0,.31.8,2.45,2.45,0,0,0,.79.51c.32.12.76.26,1.33.42a13.26,13.26,0,0,1,1.72.57,3,3,0,0,1,1.15.83,2.23,2.23,0,0,1,.49,1.46,2.5,2.5,0,0,1-.45,1.46,3,3,0,0,1-1.27,1,4.6,4.6,0,0,1-1.88.37A5.07,5.07,0,0,1,1494.9,362Z" style="fill:#2e2d2c"/><path d="M1517.27,352.77a4.41,4.41,0,0,1,2.24-.56,4.64,4.64,0,0,1,2.39.63,4.48,4.48,0,0,1,1.68,1.77,5.51,5.51,0,0,1,.61,2.65,5.65,5.65,0,0,1-.61,2.67,4.48,4.48,0,0,1-4.07,2.47,4.27,4.27,0,0,1-2.22-.57,4.16,4.16,0,0,1-1.47-1.41v6.49h-1.64V352.37h1.64v1.82A3.88,3.88,0,0,1,1517.27,352.77Zm4.8,2.55a3.15,3.15,0,0,0-1.22-1.26,3.44,3.44,0,0,0-3.35,0,3.21,3.21,0,0,0-1.22,1.28,3.91,3.91,0,0,0-.46,1.93,4,4,0,0,0,.46,2,3.31,3.31,0,0,0,4.57,1.27,3.18,3.18,0,0,0,1.22-1.27,4.13,4.13,0,0,0,.45-2A4,4,0,0,0,1522.07,355.32Z" style="fill:#2e2d2c"/><path d="M1529.22,352.66a3.76,3.76,0,0,1,2-.47v1.69h-.43c-1.83,0-2.75,1-2.75,3v5.36h-1.64v-9.86H1528V354A3.17,3.17,0,0,1,1529.22,352.66Z" style="fill:#2e2d2c"/><path d="M1534.86,361.76a4.48,4.48,0,0,1-1.77-1.79,5.54,5.54,0,0,1-.64-2.69,5.29,5.29,0,0,1,.66-2.67,4.51,4.51,0,0,1,1.79-1.78,5.51,5.51,0,0,1,5.08,0,4.55,4.55,0,0,1,1.79,1.77,5.29,5.29,0,0,1,.65,2.68,5.24,5.24,0,0,1-.67,2.69,4.63,4.63,0,0,1-1.83,1.79,5.24,5.24,0,0,1-2.55.64A5,5,0,0,1,1534.86,361.76Zm4.16-1.22a3.11,3.11,0,0,0,1.25-1.24,4,4,0,0,0,.48-2,4,4,0,0,0-.47-2,3.1,3.1,0,0,0-1.22-1.24,3.58,3.58,0,0,0-3.29,0,3,3,0,0,0-1.19,1.24,4.15,4.15,0,0,0-.45,2,4.24,4.24,0,0,0,.44,2,2.87,2.87,0,0,0,1.18,1.23,3.3,3.3,0,0,0,1.62.41A3.4,3.4,0,0,0,1539,360.54Z" style="fill:#2e2d2c"/><path d="M1544.58,354.61a4.42,4.42,0,0,1,1.71-1.77,5.41,5.41,0,0,1,5.49.25,4.17,4.17,0,0,1,1.55,2.45h-1.76a2.6,2.6,0,0,0-1-1.43,3.09,3.09,0,0,0-1.81-.52,2.89,2.89,0,0,0-2.27,1,3.91,3.91,0,0,0-.86,2.72,4,4,0,0,0,.86,2.76,2.92,2.92,0,0,0,2.27,1,3.11,3.11,0,0,0,1.8-.5,2.58,2.58,0,0,0,1-1.44h1.76a4.36,4.36,0,0,1-1.58,2.42,4.77,4.77,0,0,1-3,.91,4.86,4.86,0,0,1-2.49-.64,4.38,4.38,0,0,1-1.71-1.78,5.72,5.72,0,0,1-.61-2.7A5.66,5.66,0,0,1,1544.58,354.61Z" style="fill:#2e2d2c"/><path d="M1564.46,357.91h-7.89a3.1,3.1,0,0,0,3.21,3.1,3.05,3.05,0,0,0,1.77-.5,2.63,2.63,0,0,0,1-1.32h1.76a4.2,4.2,0,0,1-1.58,2.31,4.75,4.75,0,0,1-3,.9,5,5,0,0,1-2.51-.64,4.41,4.41,0,0,1-1.74-1.79,5.54,5.54,0,0,1-.63-2.69,5.61,5.61,0,0,1,.61-2.68,4.26,4.26,0,0,1,1.72-1.77,5.07,5.07,0,0,1,2.55-.62,4.93,4.93,0,0,1,2.48.61,4.19,4.19,0,0,1,1.66,1.68,5,5,0,0,1,.59,2.42C1564.51,357.24,1564.49,357.57,1564.46,357.91ZM1562.4,355a2.72,2.72,0,0,0-1.12-1,3.59,3.59,0,0,0-1.58-.35,3,3,0,0,0-2.11.8,3.2,3.2,0,0,0-1,2.19h6.23A3,3,0,0,0,1562.4,355Z" style="fill:#2e2d2c"/><path d="M1568.13,362a3.41,3.41,0,0,1-1.42-1.08,2.91,2.91,0,0,1-.58-1.59h1.69a1.66,1.66,0,0,0,.69,1.2,2.67,2.67,0,0,0,1.63.47,2.35,2.35,0,0,0,1.48-.42,1.25,1.25,0,0,0,.54-1,1,1,0,0,0-.58-1,7.68,7.68,0,0,0-1.78-.62,13.88,13.88,0,0,1-1.79-.59,3.22,3.22,0,0,1-1.19-.88,2.3,2.3,0,0,1-.49-1.54,2.32,2.32,0,0,1,.45-1.38,3,3,0,0,1,1.28-1,4.52,4.52,0,0,1,1.89-.37,4,4,0,0,1,2.64.82,3,3,0,0,1,1.08,2.27H1572a1.67,1.67,0,0,0-.62-1.24,2.3,2.3,0,0,0-1.52-.47,2.35,2.35,0,0,0-1.4.38,1.16,1.16,0,0,0-.52,1,1.09,1.09,0,0,0,.31.8,2.34,2.34,0,0,0,.79.51c.32.12.76.26,1.33.42a13.26,13.26,0,0,1,1.72.57,3,3,0,0,1,1.15.83,2.29,2.29,0,0,1,.49,1.46,2.5,2.5,0,0,1-.45,1.46,3,3,0,0,1-1.27,1,4.6,4.6,0,0,1-1.88.37A5.07,5.07,0,0,1,1568.13,362Z" style="fill:#2e2d2c"/><path d="M1577.86,361.76a4.48,4.48,0,0,1-1.77-1.79,5.54,5.54,0,0,1-.64-2.69,5.29,5.29,0,0,1,.66-2.67,4.57,4.57,0,0,1,1.79-1.78,5.51,5.51,0,0,1,5.08,0,4.55,4.55,0,0,1,1.79,1.77,5.3,5.3,0,0,1,.66,2.68,5.24,5.24,0,0,1-.68,2.69,4.63,4.63,0,0,1-1.83,1.79,5.22,5.22,0,0,1-2.55.64A5,5,0,0,1,1577.86,361.76Zm4.16-1.22a3.19,3.19,0,0,0,1.26-1.24,4.05,4.05,0,0,0,.47-2,3.93,3.93,0,0,0-.47-2,3.1,3.1,0,0,0-1.22-1.24,3.4,3.4,0,0,0-1.64-.4,3.35,3.35,0,0,0-1.64.4,3,3,0,0,0-1.2,1.24,4.15,4.15,0,0,0-.45,2,4.24,4.24,0,0,0,.44,2,2.93,2.93,0,0,0,1.18,1.23,3.3,3.3,0,0,0,1.62.41A3.37,3.37,0,0,0,1582,360.54Z" style="fill:#2e2d2c"/><path d="M1589,362a3.47,3.47,0,0,1-1.42-1.08,2.82,2.82,0,0,1-.57-1.59h1.69a1.66,1.66,0,0,0,.69,1.2,2.65,2.65,0,0,0,1.63.47,2.37,2.37,0,0,0,1.48-.42,1.25,1.25,0,0,0,.54-1,1,1,0,0,0-.58-1,7.86,7.86,0,0,0-1.78-.62,13.88,13.88,0,0,1-1.79-.59,3.14,3.14,0,0,1-1.19-.88,2.3,2.3,0,0,1-.5-1.54,2.32,2.32,0,0,1,.45-1.38,3,3,0,0,1,1.28-1,4.52,4.52,0,0,1,1.89-.37,4.06,4.06,0,0,1,2.65.82,3,3,0,0,1,1.08,2.27H1593a1.7,1.7,0,0,0-.62-1.24,2.34,2.34,0,0,0-1.52-.47,2.38,2.38,0,0,0-1.41.38,1.18,1.18,0,0,0-.52,1,1.09,1.09,0,0,0,.32.8,2.34,2.34,0,0,0,.79.51q.48.18,1.32.42a13,13,0,0,1,1.73.57,2.92,2.92,0,0,1,1.14.83,2.24,2.24,0,0,1,.5,1.46,2.5,2.5,0,0,1-.45,1.46,3.09,3.09,0,0,1-1.27,1,4.64,4.64,0,0,1-1.88.37A5.08,5.08,0,0,1,1589,362Z" style="fill:#2e2d2c"/><path d="M1608.33,354.61a4.48,4.48,0,0,1,1.68-1.77,4.65,4.65,0,0,1,2.4-.63,4.35,4.35,0,0,1,2.14.53,3.87,3.87,0,0,1,1.52,1.39v-5.22h1.65v13.32h-1.65v-1.85a3.92,3.92,0,0,1-1.44,1.45,4.28,4.28,0,0,1-2.23.57,4.48,4.48,0,0,1-4.07-2.47,5.65,5.65,0,0,1-.62-2.67A5.52,5.52,0,0,1,1608.33,354.61Zm7.29.73a3.18,3.18,0,0,0-1.22-1.27,3.46,3.46,0,0,0-3.36,0,3.17,3.17,0,0,0-1.2,1.26,4,4,0,0,0-.45,1.94,4.13,4.13,0,0,0,.45,2,3.2,3.2,0,0,0,1.2,1.27,3.36,3.36,0,0,0,3.36,0,3.18,3.18,0,0,0,1.22-1.27,4.08,4.08,0,0,0,.45-2A4,4,0,0,0,1615.62,355.34Z" style="fill:#2e2d2c"/><path d="M1629.44,357.91h-7.88a3.1,3.1,0,0,0,3.2,3.1,3,3,0,0,0,1.77-.5,2.58,2.58,0,0,0,1-1.32h1.77a4.21,4.21,0,0,1-1.59,2.31,4.73,4.73,0,0,1-3,.9,5,5,0,0,1-2.51-.64,4.41,4.41,0,0,1-1.74-1.79,5.54,5.54,0,0,1-.63-2.69,5.61,5.61,0,0,1,.62-2.68,4.23,4.23,0,0,1,1.71-1.77,5.07,5.07,0,0,1,2.55-.62,4.94,4.94,0,0,1,2.49.61,4.32,4.32,0,0,1,1.66,1.68,5,5,0,0,1,.59,2.42A8.47,8.47,0,0,1,1629.44,357.91Zm-2-2.94a2.74,2.74,0,0,0-1.13-1,3.52,3.52,0,0,0-1.57-.35,3.06,3.06,0,0,0-2.12.8,3.19,3.19,0,0,0-1,2.19h6.22A3,3,0,0,0,1627.39,355Z" style="fill:#2e2d2c"/><path d="M1257.12,379.51h-7.88a3.09,3.09,0,0,0,3.2,3.1,3,3,0,0,0,1.77-.5,2.58,2.58,0,0,0,1-1.32H1257a4.26,4.26,0,0,1-1.59,2.31,4.73,4.73,0,0,1-3,.9,5,5,0,0,1-2.51-.63,4.44,4.44,0,0,1-1.74-1.8,5.54,5.54,0,0,1-.63-2.69,5.73,5.73,0,0,1,.61-2.68,4.32,4.32,0,0,1,1.72-1.77,5.07,5.07,0,0,1,2.55-.62,4.9,4.9,0,0,1,2.48.61,4.28,4.28,0,0,1,1.67,1.68,5,5,0,0,1,.58,2.42A8.42,8.42,0,0,1,1257.12,379.51Zm-2-2.94a2.74,2.74,0,0,0-1.13-1,3.55,3.55,0,0,0-1.57-.35,3,3,0,0,0-2.12.8,3.24,3.24,0,0,0-1,2.19h6.23A3.08,3.08,0,0,0,1255.07,376.57Z" style="fill:#2e2d2c"/><path d="M1263,382.32l3.06-8.35h1.74l-3.87,9.86H1262l-3.87-9.86h1.77Z" style="fill:#2e2d2c"/><path d="M1269.43,376.21a4.43,4.43,0,0,1,1.69-1.77,4.58,4.58,0,0,1,2.38-.63,4.32,4.32,0,0,1,2.25.56,3.68,3.68,0,0,1,1.42,1.4V374h1.66v9.86h-1.66V382a3.83,3.83,0,0,1-1.45,1.43,4.31,4.31,0,0,1-2.24.57,4.46,4.46,0,0,1-2.37-.65,4.55,4.55,0,0,1-1.68-1.82,5.64,5.64,0,0,1-.61-2.66A5.53,5.53,0,0,1,1269.43,376.21Zm7.29.73a3.16,3.16,0,0,0-1.21-1.27,3.35,3.35,0,0,0-1.69-.44,3.27,3.27,0,0,0-1.67.43,3.2,3.2,0,0,0-1.21,1.26,4,4,0,0,0-.45,1.95,4.12,4.12,0,0,0,.45,2,3.23,3.23,0,0,0,2.88,1.72,3.26,3.26,0,0,0,1.69-.45,3.16,3.16,0,0,0,1.21-1.27,4.08,4.08,0,0,0,.45-2A4,4,0,0,0,1276.72,376.94Z" style="fill:#2e2d2c"/><path d="M1283.24,370.51v13.32h-1.64V370.51Z" style="fill:#2e2d2c"/><path d="M1294.78,374v9.86h-1.64v-1.45a3.17,3.17,0,0,1-1.31,1.17,3.93,3.93,0,0,1-1.84.43,4.39,4.39,0,0,1-2.07-.48,3.44,3.44,0,0,1-1.45-1.43,4.76,4.76,0,0,1-.53-2.32V374h1.62v5.56a3.15,3.15,0,0,0,.73,2.24,3,3,0,0,0,4.09,0,3.32,3.32,0,0,0,.76-2.36V374Z" style="fill:#2e2d2c"/><path d="M1297.55,376.21a4.48,4.48,0,0,1,1.68-1.77,4.61,4.61,0,0,1,2.39-.63,4.32,4.32,0,0,1,2.25.56,3.75,3.75,0,0,1,1.42,1.4V374h1.65v9.86h-1.65V382a4,4,0,0,1-1.45,1.43,4.31,4.31,0,0,1-2.24.57,4.45,4.45,0,0,1-4-2.47,5.64,5.64,0,0,1-.61-2.66A5.53,5.53,0,0,1,1297.55,376.21Zm7.29.73a3.18,3.18,0,0,0-1.22-1.27,3.34,3.34,0,0,0-1.68-.44,3.27,3.27,0,0,0-1.67.43,3.13,3.13,0,0,0-1.21,1.26,4,4,0,0,0-.45,1.95,4.12,4.12,0,0,0,.45,2,3.16,3.16,0,0,0,1.21,1.27,3.19,3.19,0,0,0,1.67.45,3.25,3.25,0,0,0,1.68-.45,3.18,3.18,0,0,0,1.22-1.27,4.08,4.08,0,0,0,.45-2A4,4,0,0,0,1304.84,376.94Z" style="fill:#2e2d2c"/><path d="M1309.72,376.21a4.33,4.33,0,0,1,1.7-1.77,5.41,5.41,0,0,1,5.49.25,4.17,4.17,0,0,1,1.55,2.45h-1.76a2.49,2.49,0,0,0-1-1.42,3,3,0,0,0-1.81-.53,2.89,2.89,0,0,0-2.27,1,4,4,0,0,0-.86,2.72,4.05,4.05,0,0,0,.86,2.76,2.89,2.89,0,0,0,2.27,1,3,3,0,0,0,1.8-.51,2.52,2.52,0,0,0,1-1.43h1.76a4.36,4.36,0,0,1-1.58,2.42,4.77,4.77,0,0,1-3,.91,4.85,4.85,0,0,1-2.49-.63,4.32,4.32,0,0,1-1.7-1.79,5.61,5.61,0,0,1-.62-2.7A5.54,5.54,0,0,1,1309.72,376.21Z" style="fill:#2e2d2c"/><path d="M1320.7,372a1.06,1.06,0,0,1-.33-.79,1.07,1.07,0,0,1,.33-.79,1,1,0,0,1,.79-.32,1,1,0,0,1,.76.32,1.1,1.1,0,0,1,.32.79,1.09,1.09,0,0,1-.32.79,1,1,0,0,1-.76.33A1.06,1.06,0,0,1,1320.7,372Zm1.58,1.93v9.86h-1.64V374Z" style="fill:#2e2d2c"/><path d="M1326.86,383.37a4.42,4.42,0,0,1-1.76-1.8,5.89,5.89,0,0,1,0-5.36,4.53,4.53,0,0,1,1.8-1.78,5.49,5.49,0,0,1,5.07,0,4.48,4.48,0,0,1,1.79,1.77,5.3,5.3,0,0,1,.66,2.68,5.24,5.24,0,0,1-.68,2.69,4.63,4.63,0,0,1-1.82,1.8,5.25,5.25,0,0,1-2.56.63A5.06,5.06,0,0,1,1326.86,383.37Zm4.17-1.23a3.17,3.17,0,0,0,1.25-1.24,4,4,0,0,0,.47-2,4,4,0,0,0-.46-2,3.12,3.12,0,0,0-1.23-1.24,3.56,3.56,0,0,0-3.28,0,3,3,0,0,0-1.2,1.24,4.15,4.15,0,0,0-.45,2,4.33,4.33,0,0,0,.44,2,3,3,0,0,0,1.18,1.23,3.3,3.3,0,0,0,1.62.41A3.44,3.44,0,0,0,1331,382.14Zm.18-11.09-3.84,2.05v-1.22l3.84-2.25Z" style="fill:#2e2d2c"/><path d="M1344.31,374.88a4.19,4.19,0,0,1,1.12,3.14v5.81h-1.62v-5.58a3.2,3.2,0,0,0-.74-2.26,2.64,2.64,0,0,0-2-.78,2.7,2.7,0,0,0-2.06.81,3.32,3.32,0,0,0-.76,2.36v5.45h-1.64V374h1.64v1.4a3.26,3.26,0,0,1,1.32-1.17,4.17,4.17,0,0,1,1.84-.41A4,4,0,0,1,1344.31,374.88Z" style="fill:#2e2d2c"/><path d="M1347.84,383.62a1.15,1.15,0,0,1,0-1.59,1.09,1.09,0,0,1,.79-.32,1.06,1.06,0,0,1,.77.32,1.17,1.17,0,0,1,0,1.59,1.06,1.06,0,0,1-.77.32A1.09,1.09,0,0,1,1347.84,383.62Z" style="fill:#2e2d2c"/><circle cx="598.13" cy="111.78" r="10" style="fill:url(#e7ba4f32-f309-4f9c-b1ce-28de61e076e6)"/><circle cx="598.13" cy="218.75" r="10" style="fill:url(#bf7bba97-31b3-4ea3-b191-483e8c66ae38)"/><circle cx="1222.13" cy="111.75" r="10" style="fill:url(#ed7b2ba5-478f-4adf-a10e-0bbcb2870916)"/><circle cx="1222.13" cy="211.75" r="10" style="fill:url(#f6cd95a6-c14e-4a3d-a967-f33fd8253fa7)"/><circle cx="1222.13" cy="313.75" r="10" style="fill:url(#ab3edbf3-0d93-43f1-8af0-3b0bf5aee271)"/><circle cx="598.13" cy="313.75" r="10" style="fill:url(#be6698a1-8ee3-4830-8e7e-4b34d54cb1c1)"/><line x1="172.13" y1="113.78" x2="211.95" y2="113.78" style="fill:none;stroke:#ee750f;stroke-miterlimit:10;stroke-width:3px"/><polygon points="233.13 113.78 203.28 125.97 210.37 113.78 203.28 101.58 233.13 113.78" style="fill:#ee750f"/><line x1="172.13" y1="218.75" x2="211.95" y2="218.75" style="fill:none;stroke:#ee750f;stroke-miterlimit:10;stroke-width:3px"/><polygon points="233.13 218.75 203.28 230.95 210.37 218.75 203.28 206.56 233.13 218.75" style="fill:#ee750f"/><line x1="172.13" y1="320.75" x2="211.95" y2="320.75" style="fill:none;stroke:#ee750f;stroke-miterlimit:10;stroke-width:3px"/><polygon points="233.13 320.75 203.28 332.95 210.37 320.75 203.28 308.56 233.13 320.75" style="fill:#ee750f"/><line x1="452.13" y1="113.78" x2="491.95" y2="113.78" style="fill:none;stroke:#ee750f;stroke-miterlimit:10;stroke-width:3px"/><polygon points="513.13 113.78 483.29 125.97 490.37 113.78 483.29 101.58 513.13 113.78" style="fill:#ee750f"/><line x1="452.13" y1="218.75" x2="491.95" y2="218.75" style="fill:none;stroke:#ee750f;stroke-miterlimit:10;stroke-width:3px"/><polygon points="513.13 218.75 483.29 230.95 490.37 218.75 483.29 206.56 513.13 218.75" style="fill:#ee750f"/><line x1="452.13" y1="320.75" x2="491.95" y2="320.75" style="fill:none;stroke:#ee750f;stroke-miterlimit:10;stroke-width:3px"/><polygon points="513.13 320.75 483.29 332.95 490.37 320.75 483.29 308.56 513.13 320.75" style="fill:#ee750f"/><line x1="1093.13" y1="113.78" x2="1132.95" y2="113.78" style="fill:none;stroke:#ee750f;stroke-miterlimit:10;stroke-width:3px"/><polygon points="1154.13 113.78 1124.29 125.97 1131.37 113.78 1124.29 101.58 1154.13 113.78" style="fill:#ee750f"/><line x1="1093.13" y1="218.75" x2="1132.95" y2="218.75" style="fill:none;stroke:#ee750f;stroke-miterlimit:10;stroke-width:3px"/><polygon points="1154.13 218.75 1124.29 230.95 1131.37 218.75 1124.29 206.56 1154.13 218.75" style="fill:#ee750f"/><line x1="1093.13" y1="320.75" x2="1132.95" y2="320.75" style="fill:none;stroke:#ee750f;stroke-miterlimit:10;stroke-width:3px"/><polygon points="1154.13 320.75 1124.29 332.95 1131.37 320.75 1124.29 308.56 1154.13 320.75" style="fill:#ee750f"/></g></g></svg>