<?xml version="1.0" encoding="utf-8"?>
<!-- Generator: Adobe Illustrator 24.0.1, SVG Export Plug-In . SVG Version: 6.00 Build 0)  -->
<svg version="1.1" id="Layer_1" xmlns="http://www.w3.org/2000/svg" xmlns:xlink="http://www.w3.org/1999/xlink" x="0px" y="0px"
	 viewBox="0 0 32 32" style="enable-background:new 0 0 32 32;" xml:space="preserve">
<path d="M6.1,8.9l17,17c0.8,0.8,2,0.8,2.8,0c0.8-0.8,0.8-2,0-2.8l-17-17c-0.8-0.8-2-0.8-2.8,0S5.3,8.1,6.1,8.9z"/>
<path d="M23.1,6.1l-17,17c-0.8,0.8-0.8,2,0,2.8c0.8,0.8,2,0.8,2.8,0l17-17c0.8-0.8,0.8-2,0-2.8C25.1,5.3,23.9,5.3,23.1,6.1z"/>
</svg>
