<svg xmlns="http://www.w3.org/2000/svg" viewBox="0 0 67 66.28"><g id="bf37f043-da92-4c8c-b0a4-fa8b97790d12" data-name="Layer 2"><g id="b96f2375-6fa6-4a36-9c84-cb0fd413e50a" data-name="textos"><path d="M66.62.42C65.42-.7,57.71.58,51.28,2.18a36.12,36.12,0,0,1,7,5.19A32.86,32.86,0,0,1,64,14.08C65.68,7.93,67.9,1.54,66.62.42Z" style="fill:#fff;fill-rule:evenodd"/><path d="M20.68,23.62,17.8,22.56a3.4,3.4,0,0,0-3.39.66L.93,36.2a3.07,3.07,0,0,0,2.88,5.15L15.08,38.9a58.3,58.3,0,0,1,5.6-15.28Z" style="fill:#fff;fill-rule:evenodd"/><path d="M42.31,45.57a54.39,54.39,0,0,1-14.89,5.27l-2.53,11.7A3,3,0,0,0,30,65.34L43,52.24a3.06,3.06,0,0,0,.65-3.3l-1.3-3.37Z" style="fill:#fff;fill-rule:evenodd"/><path d="M47.13,3.31A47.66,47.66,0,0,0,31.56,14.14C21.86,24.06,19,36.05,18.2,42.89l5.05,5.16c6.68-.83,18.5-3.66,28.19-13.58A48.43,48.43,0,0,0,62,18.64a29.26,29.26,0,0,0-6.2-9.16,28.19,28.19,0,0,0-8.71-6.17Zm4.15,18a4.91,4.91,0,0,1-6.93,0,5.17,5.17,0,0,1,0-7.08,4.89,4.89,0,0,1,6.93,0,5.15,5.15,0,0,1,0,7.08Z" style="fill:#fff;fill-rule:evenodd"/><path d="M17.77,47.8c-1.3-1.39-1.14-3.75-3.82-.87S7.28,56.33,8.5,57.72s7.4-3,10.08-5.83.49-2.79-.81-4.09Z" style="fill:#fff;fill-rule:evenodd"/></g></g></svg>