<svg xmlns="http://www.w3.org/2000/svg" xmlns:xlink="http://www.w3.org/1999/xlink" viewBox="0 0 65.5 65.5"><defs><radialGradient id="edc1a809-b870-419c-944d-af1b6cdf6323" cx="32.75" cy="32.75" r="32.75" gradientUnits="userSpaceOnUse"><stop offset="0.55" stop-color="#45c1f1"/><stop offset="1" stop-color="#027295"/></radialGradient><linearGradient id="bd1dc1b8-754e-45bd-b075-e38a6ab4cc34" x1="14.22" y1="51.27" x2="51.27" y2="14.22" gradientUnits="userSpaceOnUse"><stop offset="0.38" stop-color="#45c1f1"/><stop offset="1" stop-color="#027295"/></linearGradient></defs><g style="isolation:isolate"><g id="ac7eaa53-57fb-4010-b6a6-2ce4f98c4d49" data-name="Layer 2"><g id="b23c03b0-0895-4128-9c82-d6c2eadd5fc2" data-name="textos"><circle cx="32.75" cy="32.75" r="32.75" style="fill:url(#edc1a809-b870-419c-944d-af1b6cdf6323)"/><circle cx="32.75" cy="32.75" r="26.2" style="fill:url(#bd1dc1b8-754e-45bd-b075-e38a6ab4cc34)"/><circle cx="32.75" cy="32.75" r="32.75" style="fill:#179f38;mix-blend-mode:color"/><path d="M44.52,26H31.08v3.9a6.35,6.35,0,0,1,2.29-1.26,10.48,10.48,0,0,1,3.18-.46,9.28,9.28,0,0,1,5.32,1.48,9,9,0,0,1,3.25,4,13.82,13.82,0,0,1,1.06,5.49q0,5.57-3.12,8.64c-2.09,2.06-5,3.08-8.6,3.08a15.87,15.87,0,0,1-6.88-1.38,10.14,10.14,0,0,1-4.4-3.85A10,10,0,0,1,21.77,40h10a2.18,2.18,0,0,0,.5,1.39,2,2,0,0,0,1.67.65,1.94,1.94,0,0,0,1.72-.83A4.06,4.06,0,0,0,36.22,39a3,3,0,0,0-.62-2,2.31,2.31,0,0,0-1.79-.69,2.12,2.12,0,0,0-1.48.46,1.4,1.4,0,0,0-.51,1.06h-10V17H44.52Z" style="fill:#fff"/></g></g></g></svg>