<svg xmlns="http://www.w3.org/2000/svg" viewBox="0 0 78 78.12"><g id="e5cff426-cf25-4319-84cd-834a5bc3c462" data-name="Layer 2"><g id="f388b998-0910-4a10-8aff-a2a107b51207" data-name="textos"><path d="M50.41,59.28c-6.44.19-8.78-8.11-4.2-12.89l.69-.69c4.77-4.59,13.26-2.44,13.06,4-.1,3.71,4.29,8.2,6.93,5.56L78,44.14,61.43,27.54c-2.64-2.64,1.85-7,5.55-6.94,6.44.2,8.58-8.3,4-13.08l-.68-.68C65.52,2.25,57.23,4.59,57.43,11c.1,3.72-4.29,8.21-6.93,5.57L33.93,0,22.72,11.13c-2.64,2.64,1.85,7,5.56,6.94,6.43-.2,8.77,8.1,4.19,12.89l-.68.68c-4.78,4.59-13.26,2.44-13.07-4,.1-3.72-4.29-8.21-6.92-5.57L0,34l16.57,16.6c2.64,2.64-1.85,7-5.55,6.94-6.44-.2-8.58,8.3-4,13.08l.68.69c4.78,4.59,13.07,2.24,12.87-4.2-.1-3.71,4.29-8.21,6.93-5.57l16.57,16.6L56,66.21c2.64-2.64-1.75-7-5.55-6.93Z" style="fill:#fff;fill-rule:evenodd"/></g></g></svg>