<svg xmlns="http://www.w3.org/2000/svg" xmlns:xlink="http://www.w3.org/1999/xlink" viewBox="0 0 66.38 66.38"><defs><radialGradient id="b84ba089-329b-4733-bb07-46b234f9234c" cx="33.19" cy="33.19" r="33.19" gradientUnits="userSpaceOnUse"><stop offset="0.55" stop-color="#45c1f1"/><stop offset="1" stop-color="#027295"/></radialGradient><linearGradient id="aaf0f4ee-3b64-4493-bc8a-d82f3c47aa94" x1="14.41" y1="51.96" x2="51.96" y2="14.41" gradientUnits="userSpaceOnUse"><stop offset="0.38" stop-color="#45c1f1"/><stop offset="1" stop-color="#027295"/></linearGradient></defs><g style="isolation:isolate"><g id="ff96064a-54cd-474d-9a58-249dffdcd29d" data-name="Layer 2"><g id="aa162951-2ab6-491c-a72b-7c2ffcb63702" data-name="textos"><circle cx="33.19" cy="33.19" r="33.19" style="fill:url(#b84ba089-329b-4733-bb07-46b234f9234c)"/><circle cx="33.19" cy="33.19" r="26.55" style="fill:url(#aaf0f4ee-3b64-4493-bc8a-d82f3c47aa94)"/><circle cx="33.19" cy="33.19" r="33.19" style="fill:#cc286b;mix-blend-mode:color"/><path d="M24.85,18.84q3.12-3,8.85-3A14.45,14.45,0,0,1,40,17.15a9.18,9.18,0,0,1,4,3.43,9,9,0,0,1,1.34,4.88,7.54,7.54,0,0,1-5,7.65v.19q5.63,2.12,5.63,7.84a10,10,0,0,1-1.41,5.31,9.35,9.35,0,0,1-4,3.56,13.93,13.93,0,0,1-6.17,1.27q-6.1,0-9.58-2.91t-3.57-9.11H31.35a4.19,4.19,0,0,0,.49,2.56,2.28,2.28,0,0,0,2.05.87,1.79,1.79,0,0,0,1.4-.63,2.42,2.42,0,0,0,.57-1.67,2.39,2.39,0,0,0-.87-2,4.89,4.89,0,0,0-2.94-.68H30.32v-8.4H32c2.13.12,3.19-.72,3.19-2.54A2.55,2.55,0,0,0,34.71,25a1.59,1.59,0,0,0-1.25-.57c-1.16,0-1.73,1-1.73,2.91H21.58Q21.73,21.8,24.85,18.84Z" style="fill:#fff"/></g></g></g></svg>