<svg xmlns="http://www.w3.org/2000/svg" viewBox="0 0 101.1 62.68"><g id="a592d94d-9aa1-48c8-9925-d4b4fff30082" data-name="Layer 2"><g id="f4317b97-5e46-4bc8-bf98-911f506508da" data-name="textos"><path d="M32.5,10.85A10.84,10.84,0,1,1,21.66,0,10.84,10.84,0,0,1,32.5,10.85Z" style="fill:#fff;fill-rule:evenodd"/><path d="M90.27,10.85A10.84,10.84,0,1,1,79.44,0,10.84,10.84,0,0,1,90.27,10.85Z" style="fill:#fff;fill-rule:evenodd"/><path d="M72.21,62.68V51.84a5.16,5.16,0,0,0-2.16-4.34,27,27,0,0,0-10.59-5.07A34.6,34.6,0,0,0,50.55,41a28.83,28.83,0,0,0-8.91,1.44A33.24,33.24,0,0,0,31.05,47.5a5.47,5.47,0,0,0-2.16,4.34V62.68Z" style="fill:#fff;fill-rule:evenodd"/><path d="M61.38,27.73A10.83,10.83,0,1,1,50.55,16.88,10.83,10.83,0,0,1,61.38,27.73Z" style="fill:#fff;fill-rule:evenodd"/><path d="M99,30.62a26.21,26.21,0,0,0-10.39-5.06,33,33,0,0,0-8.75-1.45,27.56,27.56,0,0,0-8.74,1.45,31.23,31.23,0,0,0-4.25,1.68v.24a15.29,15.29,0,0,1-4.25,10.61,35.77,35.77,0,0,1,10.87,5.55,8.42,8.42,0,0,1,1.89,2.17H101.1V35A5.18,5.18,0,0,0,99,30.62Z" style="fill:#fff;fill-rule:evenodd"/><path d="M28.51,43.64h0a40.58,40.58,0,0,1,11.21-5.55,15.5,15.5,0,0,1-4.39-10.61V27A31.12,31.12,0,0,0,31,25.56a35,35,0,0,0-9-1.45,29.27,29.27,0,0,0-9,1.45A39.76,39.76,0,0,0,2.19,30.62,5.13,5.13,0,0,0,0,35V45.81H26.32a9,9,0,0,1,2.19-2.17Z" style="fill:#fff;fill-rule:evenodd"/></g></g></svg>