<svg xmlns="http://www.w3.org/2000/svg" viewBox="0 0 46.21 74.76"><g id="e97efbc4-e7c1-4464-bf4c-9109bb7107a7" data-name="Layer 2"><g id="f7552e1f-51fc-4f0b-b496-1a5e2c1d30d0" data-name="textos"><path d="M14.22,51.62H32A2.67,2.67,0,0,1,32,57H14.22a2.67,2.67,0,1,1,0-5.34Z" style="fill:#fff;fill-rule:evenodd"/><path d="M14.22,60.52H32a2.67,2.67,0,0,1,0,5.34H14.22a2.67,2.67,0,0,1,0-5.34Z" style="fill:#fff;fill-rule:evenodd"/><path d="M16.88,69.42a5.8,5.8,0,0,0,11.56,0Z" style="fill:#fff;fill-rule:evenodd"/><path d="M23.11,0h0A23.32,23.32,0,0,0,0,22.87v.81a24.77,24.77,0,0,0,1.6,8,23.82,23.82,0,0,0,4,6.58C7.73,40.59,10,45.13,11,47.08a1.67,1.67,0,0,0,1.6,1h21a1.67,1.67,0,0,0,1.6-1c1-1.95,3.29-6.49,5.42-8.81a21.84,21.84,0,0,0,4-6.58,24.77,24.77,0,0,0,1.6-8v-.81A23.32,23.32,0,0,0,23.11,0ZM40.88,23.59a21.1,21.1,0,0,1-1.25,6.23,15.32,15.32,0,0,1-3,4.89,38.32,38.32,0,0,0-5.15,8H14.84a47.31,47.31,0,0,0-5.15-8,17.35,17.35,0,0,1-3-4.89,18.82,18.82,0,0,1-1.24-6.23v-.72A18,18,0,0,1,23.19,5.25h0A17.92,17.92,0,0,1,41,22.87v.72Z" style="fill:#fff;fill-rule:evenodd"/></g></g></svg>