<?xml version="1.0" encoding="utf-8"?>
<!-- Generator: Adobe Illustrator 24.1.0, SVG Export Plug-In . SVG Version: 6.00 Build 0)  -->
<svg version="1.1" id="Layer_1" xmlns="http://www.w3.org/2000/svg" xmlns:xlink="http://www.w3.org/1999/xlink" x="0px" y="0px"
	 viewBox="0 0 1361.5 406.4" style="enable-background:new 0 0 1361.5 406.4;" xml:space="preserve">
<style type="text/css">
	.st0{fill-rule:evenodd;clip-rule:evenodd;fill:#008A7C;}
	.st1{fill-rule:evenodd;clip-rule:evenodd;fill:#FFFFFF;}
	.st2{fill-rule:evenodd;clip-rule:evenodd;fill:#5C7174;}
	.st3{fill:#008A7C;}
	.st4{font-family:'Poppins-BoldItalic';}
	.st5{font-size:27.5864px;}
	.st6{fill:#5C7174;}
	.st7{fill-rule:evenodd;clip-rule:evenodd;fill:none;}
	.st8{font-family:'Poppins-Regular';}
	.st9{font-size:21.1496px;}
</style>
<polygon class="st0" points="418.6,111.9 953.4,111.9 953.4,72.5 1029.8,149 953.4,225.6 953.4,186.2 418.6,186.2 455.7,149 
	418.6,111.9 "/>
<path class="st1" d="M523.4,150.3c0-13.1,11.5-23.8,25.7-23.8c14.2,0,25.7,10.7,25.7,23.8s-11.5,23.8-25.7,23.8
	C534.9,174.1,523.4,163.5,523.4,150.3L523.4,150.3z"/>
<path class="st1" d="M667.6,149.7c0-12.8,11.5-23.2,25.7-23.2c14.2,0,25.7,10.4,25.7,23.2c0,12.8-11.5,23.2-25.7,23.2
	C679.1,172.8,667.6,162.5,667.6,149.7L667.6,149.7z"/>
<path class="st1" d="M823.8,149.7c0-12.8,11.2-23.2,25-23.2c13.8,0,25,10.4,25,23.2c0,12.8-11.2,23.2-25,23.2
	C835,172.8,823.8,162.5,823.8,149.7L823.8,149.7z"/>
<polygon class="st2" points="939.9,202.8 404.4,202.8 404.4,163.8 328.7,239.7 404.4,315.6 404.4,276.6 939.9,276.6 903.1,239.7 
	939.9,202.8 "/>
<path class="st1" d="M481.5,237.8c0-13.1,11.5-23.8,25.7-23.8c14.2,0,25.7,10.7,25.7,23.8s-11.5,23.8-25.7,23.8
	C493,261.6,481.5,250.9,481.5,237.8L481.5,237.8z"/>
<path class="st1" d="M628.1,237.1c0-12.8,11.5-23.2,25.7-23.2c14.2,0,25.7,10.4,25.7,23.2c0,12.8-11.5,23.2-25.7,23.2
	C639.6,260.3,628.1,249.9,628.1,237.1L628.1,237.1z"/>
<path class="st1" d="M808.4,238.4c0-12.8,11.5-23.2,25.7-23.2c14.2,0,25.7,10.4,25.7,23.2c0,12.8-11.5,23.2-25.7,23.2
	C819.9,261.6,808.4,251.2,808.4,238.4L808.4,238.4z"/>
<text transform="matrix(1 0 0 1 1034.7061 123.9995)"><tspan x="0" y="0" class="st3 st4 st5">PLANIFICACIÓN </tspan><tspan x="17.1" y="33.1" class="st3 st4 st5">TRADICIONAL</tspan></text>
<text transform="matrix(1 0 0 1 104.71 225.748)"><tspan x="0" y="0" class="st6 st4 st5">PLANIFICACIÓN</tspan><tspan x="45" y="33.1" class="st6 st4 st5"> INVERSA</tspan></text>
<rect x="421.4" y="6" class="st7" width="144.2" height="85.1"/>
<text transform="matrix(1 0 0 1 432.0024 21.6631)"><tspan x="0" y="0" class="st8 st9">1. Identificar </tspan><tspan x="-3.9" y="25.4" class="st8 st9">los objetivos </tspan><tspan x="-8.6" y="50.8" class="st8 st9">y contenidos.</tspan></text>
<rect x="604" y="11.3" class="st7" width="167.6" height="87.5"/>
<text transform="matrix(1 0 0 1 625.1899 26.917)"><tspan x="0" y="0" class="st8 st9">2. Definir las </tspan><tspan x="-16" y="25.4" class="st8 st9">actividades de </tspan><tspan x="5.6" y="50.8" class="st8 st9">formación.</tspan></text>
<rect x="783.6" y="18.5" class="st7" width="162.8" height="64.6"/>
<text transform="matrix(1 0 0 1 792.2988 34.1426)"><tspan x="0" y="0" class="st8 st9">3. Planificar la </tspan><tspan x="11.7" y="25.4" class="st8 st9">evaluación.</tspan></text>
<rect x="422.2" y="302.9" class="st7" width="163.7" height="97.5"/>
<text transform="matrix(1 0 0 1 425.8564 318.5449)"><tspan x="0" y="0" class="st8 st9">3. Planificar las </tspan><tspan x="11.3" y="25.4" class="st8 st9">experiencias </tspan><tspan x="-3" y="50.8" class="st8 st9">de aprendizaje.</tspan></text>
<rect x="616.1" y="299.6" class="st7" width="146.3" height="73.2"/>
<text transform="matrix(1 0 0 1 627.0156 315.2607)"><tspan x="0" y="0" class="st8 st9">2. Definir los </tspan><tspan x="3.5" y="25.4" class="st8 st9">criterios de </tspan><tspan x="1.3" y="50.8" class="st8 st9">evaluación.</tspan></text>
<rect x="787.3" y="293.7" class="st7" width="240" height="103"/>
<text transform="matrix(1 0 0 1 828.0205 309.3496)"><tspan x="0" y="0" class="st8 st9">1. Identificar los </tspan><tspan x="6.9" y="25.4" class="st8 st9">resultados de </tspan><tspan x="16.8" y="50.8" class="st8 st9">aprendizaje </tspan><tspan x="20.7" y="76.1" class="st8 st9">esperados.</tspan></text>
</svg>
