<?xml version="1.0" encoding="utf-8"?>
<!-- Generator: Adobe Illustrator 24.1.0, SVG Export Plug-In . SVG Version: 6.00 Build 0)  -->
<svg version="1.1" id="Capa_1" xmlns="http://www.w3.org/2000/svg" xmlns:xlink="http://www.w3.org/1999/xlink" x="0px" y="0px"
	 viewBox="0 0 2834.65 449.29" style="enable-background:new 0 0 2834.65 449.29;" xml:space="preserve">
<style type="text/css">
	.st0{fill:#34B6A2;}
	.st1{fill:#1925D1;}
	.st2{fill:url(#Rectángulo_175_1_);}
	.st3{fill:#CDCDCD;}
	.st4{fill:#6F6F6F;}
	.st5{font-family:'Poppins-Regular';}
	.st6{font-size:52.6861px;}
	.st7{letter-spacing:1;}
	.st8{fill:#FAFAFA;}
	.st9{fill:none;stroke:#CDCDCD;stroke-width:8.781;}
	.st10{fill:none;stroke:#1925D1;stroke-width:8.781;}
</style>
<g>
	<rect id="Rectángulo_177" x="179.69" y="205.35" class="st0" width="474.17" height="30.73"/>
	<rect id="Rectángulo_176" x="698.76" y="205.35" class="st1" width="460.01" height="30.73"/>
	
		<linearGradient id="Rectángulo_175_1_" gradientUnits="userSpaceOnUse" x1="-0.8745" y1="5904.334" x2="2.9365" y2="5904.334" gradientTransform="matrix(103 0 0 -7 1352.3229 41551.0547)">
		<stop  offset="0" style="stop-color:#7A4EE0"/>
		<stop  offset="1" style="stop-color:#CDCDCD"/>
	</linearGradient>
	<rect id="Rectángulo_175" x="1176.33" y="205.35" class="st2" width="452.22" height="30.73"/>
	<rect id="Rectángulo_174" x="1711.97" y="200.96" class="st3" width="886.88" height="30.73"/>
	<text transform="matrix(1 0 0 1 445.3145 407.3164)" class="st4 st5 st6 st7">INTRODUCCIÓN</text>
	<text transform="matrix(1 0 0 1 1551.7207 407.3164)" class="st4 st5 st6 st7">MÓDULO 1</text>
	<text transform="matrix(1 0 0 1 1042.4229 407.3164)" class="st4 st5 st6 st7">MÓDULO 1</text>
	<text transform="matrix(1 0 0 1 2061.0205 407.3164)" class="st4 st5 st6 st7">MÓDULO 1</text>
	<g id="Elipse_13" transform="translate(453 12.7)">
		<circle class="st8" cx="1741.93" cy="205.82" r="87.81"/>
		<circle class="st9" cx="1741.93" cy="205.82" r="83.42"/>
	</g>
	<g id="Elipse_14" transform="translate(337 12.7)">
		<circle class="st8" cx="1348.63" cy="205.82" r="87.81"/>
		<circle class="st9" cx="1348.63" cy="205.82" r="83.42"/>
	</g>
	<g id="Elipse_15" transform="translate(221 12.7)">
		<circle class="st1" cx="955.33" cy="205.82" r="87.81"/>
		<circle class="st10" cx="955.33" cy="205.82" r="83.42"/>
	</g>
	<g transform="matrix(1, 0, 0, 1, 0, 0)">
		<circle id="Elipse_16-2" class="st0" cx="662.64" cy="218.52" r="87.81"/>
	</g>
	<g id="bandera-de-meta" transform="translate(556.68 0)">
		<path id="Trazado_94" class="st3" d="M2085.3,112.45l8.43,13.64l-15.25,11.18l-8.68-14.02l-12.25,7.56l-7.6-12.26l12.29-7.59
			l7.59,12.26L2085.3,112.45z M2086.07,149.52l-7.57-12.26l-12.26,7.59l7.57,12.26L2086.07,149.52z M2156.32,122.95l-1.35,2.93
			c-1.83,10.69-7.95,20.17-16.94,26.23c-8.4,4.98-18.53,6.11-27.82,3.11c-8.01-2.06-16.51-0.88-23.65,3.28
			c-7.9,5.63-13.51,13.91-15.81,23.33l-0.82,3.82l48.64,78.63l-7.87,4.89l-86.62-140.03c-1.68,0.69-3.61,0.07-4.58-1.46
			c-1.11-1.78-0.56-4.12,1.22-5.22c0,0,0.01,0,0.01-0.01l6.51-4.02c1.77-1.1,4.1-0.55,5.2,1.22c0,0.01,0.01,0.01,0.01,0.02
			c0.88,1.46,0.67,3.33-0.53,4.55l2.34,3.79l0.06-0.12c3.58-10.38,10.31-19.37,19.25-25.73c8.22-5.18,18.56-5.61,27.19-1.14
			c10.89,6.34,18.64,4.3,23.22,1.46c1.1-0.66,2.11-1.47,2.99-2.4c7.35-6.67,13.14-14.87,16.99-24.02c1.9-3.89,5.27,3.6,5.27,3.6
			L2156.32,122.95z M2122.37,86.3l1.96,3.17l4.83-3.75l-3.85-6.21C2124.46,81.82,2123.48,84.09,2122.37,86.3z M2069.75,174.43
			l-2.2,1.37l1.04,1.66C2068.87,176.59,2069.31,175.53,2069.75,174.43z M2109.63,151.79l-1.68-2.72l-1.65,2.23
			C2107.38,151.42,2108.51,151.57,2109.63,151.79z M2121.52,143.56l-6.63-10.71l13.45-9.48l-7.59-12.25l-13.43,9.49l-7.87-12.73
			c-1.73,0.41-3.5,0.6-5.27,0.58l-8.84,3.98l-4.88-7.81c-0.44-0.25-0.88-0.48-1.35-0.74c-1.04-0.56-2.13-1.02-3.25-1.38l-13.63,8.44
			l-4.51-7.28c-0.82,0.39-1.61,0.83-2.38,1.32c-3.37,2.16-6.34,4.89-8.78,8.07l3.39,5.5l-10.75,6.63c-0.49,1.04-0.97,2.07-1.44,3.18
			l6.63,10.57l13.17-8.14l8.69,14.05l-13.05,8.08l7.67,12.2l12.96-8.01l3.29,5.3c2.22-2.63,4.83-4.9,7.74-6.74
			c1.24-0.73,2.51-1.39,3.83-1.97l-2.59-4.18l15.32-11.04l-7.66-12.39l13.55-5.5l7.57,12.25l-13.47,5.61l6.28,10.15L2121.52,143.56z
			 M2151.45,121.4l-0.2-0.32l-4.71,4.28l-6.54-10.55l4.93-3.85l-8.18-13.08l-4.36,4.65l-8.05-13.03l-7.1,4.39
			c-1.25,1.65-2.63,3.28-4.11,4.87l7.62,12.34l11.67-8.57l7.57,12.29l-11.65,8.56l6.63,10.72l-13.1,10.05l5.39,8.73
			c3.19-0.65,6.24-1.86,9.02-3.57c1.96-1.23,3.78-2.68,5.4-4.32l-6.73-10.88l11.56-8.72l3.85,6.22L2151.45,121.4z"/>
	</g>
	<g id="Grupo_130" transform="translate(-112.461 -1255.3)">
		<g id="Grupo_91" transform="translate(574.46 1278.928)">
			<g id="Grupo_90" transform="translate(0 0)">
				<path id="Trazado_72" class="st3" d="M1704.08,155.06h-16.24c-1.77,0-3.2,1.44-3.2,3.21c0,1.77,1.43,3.2,3.2,3.2h16.24
					c1.77,0,3.2-1.44,3.2-3.21C1707.28,156.5,1705.85,155.07,1704.08,155.06z"/>
			</g>
		</g>
		<g id="Grupo_93" transform="translate(574.46 1284.769)">
			<g id="Grupo_92" transform="translate(0 0)">
				<path id="Trazado_73" class="st3" d="M1704.08,174.87h-16.24c-1.77,0-3.21,1.43-3.21,3.21c0,1.77,1.44,3.21,3.21,3.21l0,0h16.24
					c1.77,0,3.21-1.43,3.21-3.21C1707.29,176.3,1705.85,174.87,1704.08,174.87z"/>
			</g>
		</g>
		<g id="Grupo_95" transform="translate(573 1281.848)">
			<g id="Grupo_94" transform="translate(0 0)">
				<path id="Trazado_74" class="st3" d="M1699.13,164.96h-16.24c-1.77,0-3.21,1.43-3.21,3.21c0,1.77,1.43,3.21,3.21,3.21h16.24
					c1.77,0,3.21-1.43,3.21-3.21C1702.33,166.4,1700.9,164.96,1699.13,164.96z"/>
			</g>
		</g>
		<g id="Grupo_97" transform="translate(582.541 1281.117)">
			<g id="Grupo_96">
				<path id="Trazado_75" class="st3" d="M1773.15,181.72h-19.45V168.9c-0.02-3.55-2.91-6.41-6.46-6.39
					c-1.68,0.01-3.29,0.68-4.48,1.86l-25.64,25.64c-2.5,2.5-2.5,6.56,0,9.07c0,0,0,0,0,0l14.7,14.7l-17.91,17.91
					c-2.5,2.5-2.5,6.56,0,9.07c2.5,2.5,6.56,2.5,9.07,0l22.44-22.44c2.5-2.5,2.5-6.56,0-9.07c0,0,0,0,0,0l-14.7-14.7l10.17-10.17
					v3.76c0,3.54,2.87,6.41,6.41,6.41l0,0h25.86c3.54,0,6.41-2.87,6.41-6.41C1779.57,184.59,1776.7,181.72,1773.15,181.72
					L1773.15,181.72L1773.15,181.72z"/>
			</g>
		</g>
		<g id="Grupo_99" transform="translate(580.35 1277.833)">
			<g id="Grupo_98" transform="translate(0 0)">
				<path id="Trazado_76" class="st3" d="M1732.2,152.43c-2.54-1.69-5.93-1.36-8.09,0.8l-17.63,17.63c-2.5,2.5-2.5,6.56,0,9.07
					c2.5,2.5,6.56,2.5,9.07,0l0,0l13.92-13.92l4.69,3.38l6.27-6.27c1.06-1.04,2.29-1.88,3.64-2.49L1732.2,152.43z"/>
			</g>
		</g>
		<g id="Grupo_101" transform="translate(573.779 1289.167)">
			<g id="Grupo_100" transform="translate(0 0)">
				<path id="Trazado_77" class="st3" d="M1721.34,195.57c-1.59-1.6-2.72-3.6-3.28-5.79l-33.86,33.86c-2.5,2.5-2.5,6.56,0,9.07
					c2.5,2.5,6.56,2.5,9.07,0l32.61-32.61L1721.34,195.57z"/>
			</g>
		</g>
		<g id="Grupo_103" transform="translate(590.769 1276.628)">
			<g id="Grupo_102" transform="translate(0 0)">
				<circle id="Elipse_2" class="st3" cx="1749.29" cy="156.63" r="9.36"/>
			</g>
		</g>
	</g>
	<path id="Trazado_102" class="st3" d="M1699.69,181.77c5.05,0,9.15-4.09,9.15-9.15c0-5.05-4.09-9.15-9.15-9.15
		s-9.15,4.09-9.15,9.15c-0.02,5.03,4.04,9.13,9.08,9.15C1699.65,181.77,1699.67,181.77,1699.69,181.77z M1714.94,218.36
		c-14.03,0-25.41,11.38-25.41,25.41c0,14.03,11.38,25.41,25.41,25.41c14.03,0,25.41-11.38,25.41-25.41l0,0
		c0.14-13.89-11.01-25.27-24.9-25.41C1715.27,218.36,1715.1,218.36,1714.94,218.36z M1714.94,261.55c-9.82,0-17.79-7.96-17.79-17.79
		c0-9.82,7.96-17.79,17.79-17.79c9.82,0,17.79,7.96,17.79,17.79l0,0C1732.61,253.54,1724.71,261.44,1714.94,261.55z M1693.6,208.2
		h21.34v-9.15h-16.24l-9.66-16.77c-2.68-4.13-8.21-5.31-12.34-2.63c-0.5,0.32-0.96,0.69-1.38,1.1l-18.81,18.8
		c-1.64,1.6-2.56,3.8-2.55,6.1c-0.04,3.07,1.49,5.95,4.07,7.62l17.28,10.16v25.41h9.15v-33.03l-11.17-8.64l11.69-11.69L1693.6,208.2
		z M1643.8,218.36c-14.03-0.18-25.56,11.04-25.74,25.07c-0.18,14.03,11.04,25.56,25.07,25.74c0.22,0,0.45,0,0.67,0
		c14.03,0.18,25.56-11.04,25.74-25.07c0.18-14.03-11.04-25.56-25.07-25.74C1644.25,218.36,1644.02,218.36,1643.8,218.36z
		 M1643.8,261.55c-9.82,0.22-17.96-7.57-18.18-17.39c-0.22-9.82,7.57-17.96,17.39-18.18c0.26-0.01,0.53-0.01,0.79,0
		c9.82-0.22,17.96,7.57,18.18,17.39c0.22,9.82-7.57,17.96-17.39,18.18C1644.33,261.56,1644.07,261.56,1643.8,261.55z"/>
	<g id="_001-silueta-de-natacin" transform="translate(227.112 14.229)">
		<g id="Grupo_89" transform="translate(0 6.935)">
			<g id="Grupo_88">
				<path id="Trazado_68" class="st8" d="M935.18,192.53c6.98,0.96,13.77,3,20.12,6.05c3.02,1.41,6.24,3.26,8.78,4.7
					c2.54,1.44,5.11,2.84,7.71,4.15l-15.76-31.2l-3.33-5.85l-11.77-20.61c-1.63-2.92-5.33-3.96-8.25-2.33
					c-2.92,1.63-3.96,5.33-2.33,8.25c0.02,0.03,0.03,0.06,0.05,0.09l13.01,22.81l-3.33,2.95l-19.88,11.34l-0.44,0.25
					C924.83,192.08,930.04,191.88,935.18,192.53z"/>
				<path id="Trazado_69" class="st8" d="M984.54,191.26c6.28-3.58,8.46-11.57,4.88-17.85c-3.58-6.28-11.57-8.46-17.85-4.88
					c-6.27,3.58-8.46,11.57-4.88,17.84C970.27,192.65,978.26,194.83,984.54,191.26z"/>
				<path id="Trazado_70" class="st8" d="M1009.33,201.04c-1.35,5.77-4.49,10.97-8.97,14.84c-4.07,2.7-9.11,3.47-13.8,2.12
					c-5.41-1.28-10.63-3.25-15.53-5.85c-2.63-1.32-5.19-2.67-7.73-4.17s-5.76-3.28-8.78-4.69c-6.35-3.05-13.14-5.09-20.12-6.05
					c-7.34-1.01-14.82-0.17-21.76,2.45c-6.77,2.66-12.64,7.18-16.93,13.05c-4.03,5.42-6.6,11.79-7.46,18.49
					c6.59-9.76,16.6-16.71,28.05-19.47c10.84-1.27,21.8,0.86,31.37,6.09c2.7,1.23,4.98,2.47,7.96,4.07c3,1.51,6.06,2.98,9.22,4.21
					c6.55,2.75,13.54,4.27,20.64,4.5c3.9,0.08,7.78-0.62,11.42-2.05c3.75-1.51,6.99-4.07,9.31-7.37
					C1010.07,215.22,1011.2,207.89,1009.33,201.04z"/>
			</g>
		</g>
	</g>
	<g id="flag" transform="translate(0 1.388)">
		<path id="Trazado_95" class="st0" d="M193.9,149.56c11.42-8.53,26.75-9.65,39.28-2.85l9,4.9v-56.2l-11.49-6.27
			c-10.73-5.82-23.86-4.87-33.64,2.45c-11.4,8.54-26.72,9.65-39.24,2.85l-8.93-4.9v56.2l11.42,6.26
			C171.02,157.82,184.15,156.87,193.9,149.56z"/>
		<path id="Trazado_96" class="st0" d="M131.77,79.66v152.02h-10.95c-1.44,0-2.61,1.17-2.61,2.61c0,1.44,1.17,2.61,2.61,2.61h33.76
			c1.44,0,2.61-1.17,2.61-2.61c0-1.44-1.17-2.61-2.61-2.61h-10.9V79.66H131.77z"/>
	</g>
	<g id="stretching-exercises" transform="translate(103.672 17.7)">
		<g id="Grupo_124" transform="translate(8.102 0)">
			<path id="Trazado_97" class="st8" d="M579.79,134.99c-17.45,0.98-33.29,10.54-42.29,25.53c-8.43,12.46-15.46,25.83-20.94,39.84
				c-7.49,14.72-13.82,30-18.94,45.71c-3.07,9.19,10.78,15.18,13.89,5.95c3.91-11.79,8.42-23.36,13.51-34.68
				c5.12,11.46,10.33,22.89,15.92,34.13c4.33,8.73,17.36,1.08,13.05-7.63c-5.75-11.57-11.1-23.34-16.36-35.12
				c0.07-0.23,0.15-0.44,0.22-0.68c0.95,0.27,1.94,0.31,2.91,0.12l24.17-4.54c3.19-0.92,5.06-4.22,4.22-7.43
				c-1.84-8.39-6.49-15.89-13.17-21.29c-1.65-3.65-4.3-6.75-7.65-8.95c7.14-11.54,18.8-17.83,33.97-19.14
				C590.05,146.13,587.47,134.32,579.79,134.99z M550.44,186.39c1.99,2,3.66,4.28,4.97,6.78l-11.7,2.2
				C545.7,192.18,547.95,189.18,550.44,186.39z"/>
			<circle id="Elipse_11" class="st8" cx="567.11" cy="165.72" r="10.37"/>
		</g>
	</g>
</g>
</svg>
