<?xml version="1.0" encoding="utf-8"?>
<!-- Generator: Adobe Illustrator 24.1.0, SVG Export Plug-In . SVG Version: 6.00 Build 0)  -->
<svg version="1.1" id="Capa_1" xmlns="http://www.w3.org/2000/svg" xmlns:xlink="http://www.w3.org/1999/xlink" x="0px" y="0px"
	 viewBox="0 0 2834.6 449.3" style="enable-background:new 0 0 2834.6 449.3;" xml:space="preserve">
<style type="text/css">
	.st0{fill:#34B6A2;}
	.st1{fill:#1925D1;}
	.st2{fill:url(#Rectángulo_175_1_);}
	.st3{fill:#CDCDCD;}
	.st4{fill:#585858;}
	.st5{font-family:'Poppins-SemiBold';}
	.st6{font-size:52.6861px;}
	.st7{fill:#FAFAFA;}
	.st8{fill:none;stroke:#CDCDCD;stroke-width:8.781;}
	.st9{fill:none;stroke:#1925D1;stroke-width:8.781;}
	.st10{fill:#585858;enable-background:new    ;}
</style>
<g>
	<rect id="Rectángulo_177" x="179.7" y="205.4" class="st0" width="474.2" height="30.7"/>
	<rect id="Rectángulo_176" x="698.8" y="205.4" class="st1" width="460" height="30.7"/>
	
		<linearGradient id="Rectángulo_175_1_" gradientUnits="userSpaceOnUse" x1="1099.3391" y1="-5258.0483" x2="1103.1501" y2="-5258.0483" gradientTransform="matrix(103 0 0 7 -111969.6797 37027.0547)">
		<stop  offset="0" style="stop-color:#7A4EE0"/>
		<stop  offset="1" style="stop-color:#CDCDCD"/>
	</linearGradient>
	<rect id="Rectángulo_175" x="1176.3" y="205.4" class="st2" width="452.2" height="30.7"/>
	<rect id="Rectángulo_174" x="1712" y="201" class="st3" width="886.9" height="30.7"/>
	<text transform="matrix(1 0 0 1 445.3145 407.3164)" class="st4 st5 st6">Introducción</text>
	<text transform="matrix(1 0 0 1 1551.7207 407.3164)" class="st4 st5 st6">Módulo 2</text>
	<text transform="matrix(1 0 0 1 1042.4229 407.3164)" class="st4 st5 st6">Módulo 1</text>
	<text transform="matrix(1 0 0 1 2061.0205 407.3164)" class="st4 st5 st6">Módulo 3</text>
	<g id="Elipse_13" transform="translate(453 12.7)">
		<circle class="st7" cx="1741.9" cy="205.8" r="87.8"/>
		<circle class="st8" cx="1741.9" cy="205.8" r="83.4"/>
	</g>
	<g id="Elipse_14" transform="translate(337 12.7)">
		<circle class="st7" cx="1348.6" cy="205.8" r="87.8"/>
		<circle class="st8" cx="1348.6" cy="205.8" r="83.4"/>
	</g>
	<g id="Elipse_15" transform="translate(221 12.7)">
		<circle class="st1" cx="955.3" cy="205.8" r="87.8"/>
		<circle class="st9" cx="955.3" cy="205.8" r="83.4"/>
	</g>
	<g transform="matrix(1, 0, 0, 1, 0, 0)">
		<circle id="Elipse_16-2" class="st0" cx="662.6" cy="218.5" r="87.8"/>
	</g>
	<g id="bandera-de-meta" transform="translate(556.68 0)">
		<path id="Trazado_94" class="st10" d="M2085.3,112.4l8.4,13.6l-15.2,11.2l-8.7-14l-12.2,7.6l-7.6-12.3l12.3-7.6l7.6,12.3
			L2085.3,112.4z M2086.1,149.5l-7.6-12.3l-12.3,7.6l7.6,12.3L2086.1,149.5z M2156.3,122.9l-1.4,2.9c-1.8,10.7-7.9,20.2-16.9,26.2
			c-8.4,5-18.5,6.1-27.8,3.1c-8-2.1-16.5-0.9-23.6,3.3c-7.9,5.6-13.5,13.9-15.8,23.3l-0.8,3.8l48.6,78.6l-7.9,4.9l-86.6-140
			c-1.7,0.7-3.6,0.1-4.6-1.5c-1.1-1.8-0.6-4.1,1.2-5.2c0,0,0,0,0,0l6.5-4c1.8-1.1,4.1-0.6,5.2,1.2c0,0,0,0,0,0
			c0.9,1.5,0.7,3.3-0.5,4.6l2.3,3.8l0.1-0.1c3.6-10.4,10.3-19.4,19.3-25.7c8.2-5.2,18.6-5.6,27.2-1.1c10.9,6.3,18.6,4.3,23.2,1.5
			c1.1-0.7,2.1-1.5,3-2.4c7.4-6.7,13.1-14.9,17-24c1.9-3.9,5.3,3.6,5.3,3.6L2156.3,122.9z M2122.4,86.3l2,3.2l4.8-3.8l-3.9-6.2
			C2124.5,81.8,2123.5,84.1,2122.4,86.3z M2069.8,174.4l-2.2,1.4l1,1.7C2068.9,176.6,2069.3,175.5,2069.8,174.4z M2109.6,151.8
			l-1.7-2.7l-1.6,2.2C2107.4,151.4,2108.5,151.6,2109.6,151.8z M2121.5,143.6l-6.6-10.7l13.4-9.5l-7.6-12.2l-13.4,9.5l-7.9-12.7
			c-1.7,0.4-3.5,0.6-5.3,0.6l-8.8,4l-4.9-7.8c-0.4-0.2-0.9-0.5-1.4-0.7c-1-0.6-2.1-1-3.2-1.4l-13.6,8.4l-4.5-7.3
			c-0.8,0.4-1.6,0.8-2.4,1.3c-3.4,2.2-6.3,4.9-8.8,8.1l3.4,5.5l-10.8,6.6c-0.5,1-1,2.1-1.4,3.2l6.6,10.6l13.2-8.1l8.7,14.1
			l-13.1,8.1l7.7,12.2l13-8l3.3,5.3c2.2-2.6,4.8-4.9,7.7-6.7c1.2-0.7,2.5-1.4,3.8-2l-2.6-4.2l15.3-11l-7.7-12.4l13.6-5.5l7.6,12.2
			l-13.5,5.6l6.3,10.1L2121.5,143.6z M2151.4,121.4l-0.2-0.3l-4.7,4.3l-6.5-10.6l4.9-3.8l-8.2-13.1l-4.4,4.7l-8.1-13l-7.1,4.4
			c-1.2,1.7-2.6,3.3-4.1,4.9l7.6,12.3l11.7-8.6l7.6,12.3l-11.6,8.6l6.6,10.7l-13.1,10.1l5.4,8.7c3.2-0.6,6.2-1.9,9-3.6
			c2-1.2,3.8-2.7,5.4-4.3l-6.7-10.9l11.6-8.7l3.9,6.2L2151.4,121.4z"/>
	</g>
	<g id="Grupo_130" transform="translate(-112.461 -1255.3)">
		<g id="Grupo_91" transform="translate(574.46 1278.928)">
			<g id="Grupo_90" transform="translate(0 0)">
				<path id="Trazado_72" class="st3" d="M1704.1,155.1h-16.2c-1.8,0-3.2,1.4-3.2,3.2s1.4,3.2,3.2,3.2h16.2c1.8,0,3.2-1.4,3.2-3.2
					C1707.3,156.5,1705.8,155.1,1704.1,155.1z"/>
			</g>
		</g>
		<g id="Grupo_93" transform="translate(574.46 1284.769)">
			<g id="Grupo_92" transform="translate(0 0)">
				<path id="Trazado_73" class="st3" d="M1704.1,174.9h-16.2c-1.8,0-3.2,1.4-3.2,3.2c0,1.8,1.4,3.2,3.2,3.2l0,0h16.2
					c1.8,0,3.2-1.4,3.2-3.2C1707.3,176.3,1705.8,174.9,1704.1,174.9z"/>
			</g>
		</g>
		<g id="Grupo_95" transform="translate(573 1281.848)">
			<g id="Grupo_94" transform="translate(0 0)">
				<path id="Trazado_74" class="st3" d="M1699.1,165h-16.2c-1.8,0-3.2,1.4-3.2,3.2c0,1.8,1.4,3.2,3.2,3.2h16.2
					c1.8,0,3.2-1.4,3.2-3.2C1702.3,166.4,1700.9,165,1699.1,165z"/>
			</g>
		</g>
		<g id="Grupo_97" transform="translate(582.541 1281.117)">
			<g id="Grupo_96">
				<path id="Trazado_75" class="st3" d="M1773.2,181.7h-19.4v-12.8c0-3.6-2.9-6.4-6.5-6.4c-1.7,0-3.3,0.7-4.5,1.9l-25.6,25.6
					c-2.5,2.5-2.5,6.6,0,9.1l0,0l14.7,14.7l-17.9,17.9c-2.5,2.5-2.5,6.6,0,9.1c2.5,2.5,6.6,2.5,9.1,0l22.4-22.4
					c2.5-2.5,2.5-6.6,0-9.1l0,0l-14.7-14.7l10.2-10.2v3.8c0,3.5,2.9,6.4,6.4,6.4l0,0h25.9c3.5,0,6.4-2.9,6.4-6.4
					C1779.6,184.6,1776.7,181.7,1773.2,181.7L1773.2,181.7L1773.2,181.7z"/>
			</g>
		</g>
		<g id="Grupo_99" transform="translate(580.35 1277.833)">
			<g id="Grupo_98" transform="translate(0 0)">
				<path id="Trazado_76" class="st3" d="M1732.2,152.4c-2.5-1.7-5.9-1.4-8.1,0.8l-17.6,17.6c-2.5,2.5-2.5,6.6,0,9.1
					c2.5,2.5,6.6,2.5,9.1,0l0,0l13.9-13.9l4.7,3.4l6.3-6.3c1.1-1,2.3-1.9,3.6-2.5L1732.2,152.4z"/>
			</g>
		</g>
		<g id="Grupo_101" transform="translate(573.779 1289.167)">
			<g id="Grupo_100" transform="translate(0 0)">
				<path id="Trazado_77" class="st3" d="M1721.3,195.6c-1.6-1.6-2.7-3.6-3.3-5.8l-33.9,33.9c-2.5,2.5-2.5,6.6,0,9.1
					c2.5,2.5,6.6,2.5,9.1,0l32.6-32.6L1721.3,195.6z"/>
			</g>
		</g>
		<g id="Grupo_103" transform="translate(590.769 1276.628)">
			<g id="Grupo_102" transform="translate(0 0)">
				<circle id="Elipse_2" class="st3" cx="1749.3" cy="156.6" r="9.4"/>
			</g>
		</g>
	</g>
	<path id="Trazado_102" class="st3" d="M1699.7,181.8c5.1,0,9.2-4.1,9.2-9.1c0-5.1-4.1-9.1-9.2-9.1s-9.2,4.1-9.2,9.1
		C1690.5,177.7,1694.6,181.8,1699.7,181.8C1699.7,181.8,1699.7,181.8,1699.7,181.8z M1714.9,218.4c-14,0-25.4,11.4-25.4,25.4
		c0,14,11.4,25.4,25.4,25.4s25.4-11.4,25.4-25.4l0,0c0.1-13.9-11-25.3-24.9-25.4C1715.3,218.4,1715.1,218.4,1714.9,218.4z
		 M1714.9,261.5c-9.8,0-17.8-8-17.8-17.8c0-9.8,8-17.8,17.8-17.8c9.8,0,17.8,8,17.8,17.8l0,0
		C1732.6,253.5,1724.7,261.4,1714.9,261.5z M1693.6,208.2h21.3v-9.1h-16.2l-9.7-16.8c-2.7-4.1-8.2-5.3-12.3-2.6
		c-0.5,0.3-1,0.7-1.4,1.1l-18.8,18.8c-1.6,1.6-2.6,3.8-2.6,6.1c0,3.1,1.5,5.9,4.1,7.6l17.3,10.2v25.4h9.2v-33l-11.2-8.6l11.7-11.7
		L1693.6,208.2z M1643.8,218.4c-14-0.2-25.6,11-25.7,25.1c-0.2,14,11,25.6,25.1,25.7c0.2,0,0.4,0,0.7,0c14,0.2,25.6-11,25.7-25.1
		c0.2-14-11-25.6-25.1-25.7C1644.2,218.4,1644,218.4,1643.8,218.4z M1643.8,261.5c-9.8,0.2-18-7.6-18.2-17.4
		c-0.2-9.8,7.6-18,17.4-18.2c0.3,0,0.5,0,0.8,0c9.8-0.2,18,7.6,18.2,17.4c0.2,9.8-7.6,18-17.4,18.2
		C1644.3,261.6,1644.1,261.6,1643.8,261.5z"/>
	<g id="_001-silueta-de-natacin" transform="translate(227.112 14.229)">
		<g id="Grupo_89" transform="translate(0 6.935)">
			<g id="Grupo_88">
				<path id="Trazado_68" class="st7" d="M935.2,192.5c7,1,13.8,3,20.1,6.1c3,1.4,6.2,3.3,8.8,4.7c2.5,1.4,5.1,2.8,7.7,4.1
					L956,176.2l-3.3-5.9l-11.8-20.6c-1.6-2.9-5.3-4-8.2-2.3s-4,5.3-2.3,8.2c0,0,0,0.1,0,0.1l13,22.8l-3.3,2.9l-19.9,11.3l-0.4,0.2
					C924.8,192.1,930,191.9,935.2,192.5z"/>
				<path id="Trazado_69" class="st7" d="M984.5,191.3c6.3-3.6,8.5-11.6,4.9-17.9c-3.6-6.3-11.6-8.5-17.8-4.9
					c-6.3,3.6-8.5,11.6-4.9,17.8C970.3,192.6,978.3,194.8,984.5,191.3z"/>
				<path id="Trazado_70" class="st7" d="M1009.3,201c-1.3,5.8-4.5,11-9,14.8c-4.1,2.7-9.1,3.5-13.8,2.1c-5.4-1.3-10.6-3.2-15.5-5.9
					c-2.6-1.3-5.2-2.7-7.7-4.2s-5.8-3.3-8.8-4.7c-6.3-3.1-13.1-5.1-20.1-6.1c-7.3-1-14.8-0.2-21.8,2.4c-6.8,2.7-12.6,7.2-16.9,13.1
					c-4,5.4-6.6,11.8-7.5,18.5c6.6-9.8,16.6-16.7,28-19.5c10.8-1.3,21.8,0.9,31.4,6.1c2.7,1.2,5,2.5,8,4.1c3,1.5,6.1,3,9.2,4.2
					c6.5,2.8,13.5,4.3,20.6,4.5c3.9,0.1,7.8-0.6,11.4-2.1c3.8-1.5,7-4.1,9.3-7.4C1010.1,215.2,1011.2,207.9,1009.3,201z"/>
			</g>
		</g>
	</g>
	<g id="flag" transform="translate(0 1.388)">
		<path id="Trazado_95" class="st0" d="M193.9,149.6c11.4-8.5,26.8-9.6,39.3-2.9l9,4.9V95.4l-11.5-6.3c-10.7-5.8-23.9-4.9-33.6,2.4
			c-11.4,8.5-26.7,9.7-39.2,2.8l-8.9-4.9v56.2l11.4,6.3C171,157.8,184.1,156.9,193.9,149.6z"/>
		<path id="Trazado_96" class="st0" d="M131.8,79.7v152h-10.9c-1.4,0-2.6,1.2-2.6,2.6s1.2,2.6,2.6,2.6h33.8c1.4,0,2.6-1.2,2.6-2.6
			s-1.2-2.6-2.6-2.6h-10.9v-152H131.8z"/>
	</g>
	<g id="stretching-exercises" transform="translate(103.672 17.7)">
		<g id="Grupo_124" transform="translate(8.102 0)">
			<path id="Trazado_97" class="st7" d="M579.8,135c-17.5,1-33.3,10.5-42.3,25.5c-8.4,12.5-15.5,25.8-20.9,39.8
				c-7.5,14.7-13.8,30-18.9,45.7c-3.1,9.2,10.8,15.2,13.9,5.9c3.9-11.8,8.4-23.4,13.5-34.7c5.1,11.5,10.3,22.9,15.9,34.1
				c4.3,8.7,17.4,1.1,13-7.6c-5.8-11.6-11.1-23.3-16.4-35.1c0.1-0.2,0.2-0.4,0.2-0.7c1,0.3,1.9,0.3,2.9,0.1l24.2-4.5
				c3.2-0.9,5.1-4.2,4.2-7.4c-1.8-8.4-6.5-15.9-13.2-21.3c-1.7-3.6-4.3-6.8-7.7-8.9c7.1-11.5,18.8-17.8,34-19.1
				C590,146.1,587.5,134.3,579.8,135z M550.4,186.4c2,2,3.7,4.3,5,6.8l-11.7,2.2C545.7,192.2,548,189.2,550.4,186.4z"/>
			<circle id="Elipse_11" class="st7" cx="567.1" cy="165.7" r="10.4"/>
		</g>
	</g>
</g>
</svg>
