<?xml version="1.0" encoding="utf-8"?>
<!-- Generator: Adobe Illustrator 24.1.0, SVG Export Plug-In . SVG Version: 6.00 Build 0)  -->
<svg version="1.1" id="Capa_1" xmlns="http://www.w3.org/2000/svg" xmlns:xlink="http://www.w3.org/1999/xlink" x="0px" y="0px"
	 viewBox="0 0 31.4 31.4" style="enable-background:new 0 0 31.4 31.4;" xml:space="preserve">
<style type="text/css">
	.st0{fill:#008B81;}
</style>
<g>
	<g id="directions-bike">
		<path class="st0" d="M20.5,7.5c1.2,0,2.2-1,2.2-2.2s-1-2.2-2.2-2.2c-1.2,0-2.2,1-2.2,2.2S19.3,7.5,20.5,7.5z M24.2,16.2
			c-3.4,0-6,2.7-6,6s2.7,6,6,6s6-2.7,6-6S27.5,16.2,24.2,16.2z M24.2,26.4c-2.3,0-4.2-1.9-4.2-4.2c0-2.3,1.9-4.2,4.2-4.2
			s4.2,1.9,4.2,4.2C28.4,24.5,26.4,26.4,24.2,26.4z M19.1,13.8h5.1v-2.2h-3.9l-2.3-4c-0.4-0.6-1-1-1.8-1c-0.6,0-1.1,0.2-1.4,0.6
			l-4.5,4.5c-0.4,0.4-0.6,0.8-0.6,1.4c0,0.7,0.4,1.4,1,1.8l4.1,2.4v6h2.2v-7.9l-2.7-2.1l2.8-2.8L19.1,13.8z M7.2,16.2
			c-3.4,0-6,2.7-6,6s2.7,6,6,6s6-2.7,6-6S10.6,16.2,7.2,16.2z M7.2,26.4c-2.3,0-4.2-1.9-4.2-4.2C3,19.9,4.9,18,7.2,18
			s4.2,1.9,4.2,4.2C11.5,24.5,9.5,26.4,7.2,26.4z"/>
	</g>
</g>
</svg>
